<?xml version="1.0" encoding="UTF-8"?>
<svg id="Layer_2" data-name="Layer 2" xmlns="http://www.w3.org/2000/svg" xmlns:xlink="http://www.w3.org/1999/xlink" viewBox="0 0 566.3 354.87">
  <defs>
    <style>
      .cls-1 {
        fill: #26184a;
      }

      .cls-2 {
        fill: url(#linear-gradient-2);
      }

      .cls-3 {
        opacity: .29;
      }

      .cls-4 {
        fill: url(#linear-gradient-4);
      }

      .cls-5 {
        fill: url(#linear-gradient-3);
      }

      .cls-6 {
        fill: url(#linear-gradient-5);
      }

      .cls-7 {
        fill: url(#linear-gradient);
      }

      .cls-8 {
        opacity: .7;
      }
    </style>
    <linearGradient id="linear-gradient" x1="835.39" y1="-3209.66" x2="747.17" y2="-2895.98" gradientTransform="translate(-2459.93 1758.77) rotate(45)" gradientUnits="userSpaceOnUse">
      <stop offset="0" stop-color="#6ee7b7"/>
      <stop offset="1" stop-color="#a78bfa"/>
    </linearGradient>
    <linearGradient id="linear-gradient-2" x1="806.37" y1="-3217.82" x2="718.15" y2="-2904.15" xlink:href="#linear-gradient"/>
    <linearGradient id="linear-gradient-3" x1="778.79" y1="-3225.58" x2="690.57" y2="-2911.9" xlink:href="#linear-gradient"/>
    <linearGradient id="linear-gradient-4" x1="576.17" y1="245.01" x2="465.3" y2="380.77" gradientTransform="matrix(1,0,0,1,0,0)" xlink:href="#linear-gradient"/>
    <linearGradient id="linear-gradient-5" x1="601.57" y1="267.04" x2="491.82" y2="401.43" gradientTransform="matrix(1,0,0,1,0,0)" xlink:href="#linear-gradient"/>
  </defs>
  <g id="Layer_1-2" data-name="Layer 1">
    <g>
      <g>
        <path class="cls-7" d="M321.85,247.89c-68.35,0-123.95-55.6-123.95-123.95C197.91,55.6,253.51,0,321.85,0c68.35,0,123.95,55.6,123.95,123.95,0,68.35-55.6,123.95-123.95,123.95ZM321.85,37.67c-47.57,0-86.28,38.7-86.28,86.28,0,47.57,38.7,86.28,86.28,86.28,47.57,0,86.28-38.7,86.28-86.28s-38.7-86.28-86.28-86.28Z"/>
        <g class="cls-8">
          <path class="cls-2" d="M260.23,229.69c-58.31,0-105.74-47.44-105.74-105.74,0-58.31,47.44-105.74,105.74-105.74,58.31,0,105.74,47.44,105.74,105.74,0,58.31-47.44,105.74-105.74,105.74ZM260.23,50.34c-40.59,0-73.61,33.02-73.61,73.6,0,40.59,33.02,73.61,73.61,73.61s73.61-33.02,73.61-73.61c0-40.59-33.02-73.6-73.61-73.6Z"/>
        </g>
        <g class="cls-3">
          <path class="cls-5" d="M201.67,205.12c-44.76,0-81.18-36.42-81.18-81.18,0-44.76,36.42-81.17,81.18-81.17,44.76,0,81.18,36.42,81.18,81.17,0,44.76-36.42,81.18-81.18,81.18ZM201.67,67.44c-31.16,0-56.51,25.35-56.51,56.51,0,31.16,25.35,56.51,56.51,56.51s56.51-25.35,56.51-56.51c0-31.16-25.35-56.51-56.51-56.51Z"/>
        </g>
      </g>
      <g>
        <g>
          <path class="cls-1" d="M77.98,277.48h11.58v75.09h-11.58l-66.72-60.5.32,10.73v49.77H0v-75.09h11.48l66.72,60.5-.21-11.05v-49.45Z"/>
          <path class="cls-1" d="M102.97,296.25h11.58v28.43c0,10.94,5.79,18.77,23.81,18.77,13.73,0,24.03-5.79,28.43-11.26v-35.93h11.58v56.31h-10.3l-.75-9.55-.11-.11c-6.01,5.15-16.41,11.26-31.64,11.26-23.38,0-32.61-12.55-32.61-29.39v-28.53Z"/>
          <path class="cls-1" d="M267.73,296.25l-34.43,56.31h-12.55l-34.33-56.31h13.52l17.27,29.5,9.87,16.73,9.76-16.73,17.27-29.5h13.62Z"/>
          <path class="cls-1" d="M309.03,294.64c24.89,0,38.62,12.44,38.62,29.71s-13.73,29.82-38.62,29.82-38.62-12.55-38.62-29.82,13.73-29.71,38.62-29.71ZM309.03,343.44c17.59,0,26.71-8.15,26.71-19.09s-9.12-18.99-26.71-18.99-26.82,7.94-26.82,18.99,9.12,19.09,26.82,19.09Z"/>
          <path class="cls-1" d="M436.89,352.56h-17.59l-35.4-23.6h-14.48v23.6h-11.58v-75.41l11.58-1.29v43.76h14.7l36.26-23.38h16.73l-42.8,28.1,42.58,28.21Z"/>
        </g>
        <g>
          <path class="cls-4" d="M546.56,354.87h-13.3l-10.73-17.16h-56.53l-10.62,17.16h-13.41l45.69-75.09h13.3l45.59,75.09ZM475.02,322.69l-2.79,4.18h44.09l-2.68-4.18-19.31-32.72-19.31,32.72Z"/>
          <path class="cls-6" d="M554.71,299.46v-19.68h11.58v19.68h-11.58ZM554.71,354.87v-55.89l11.58-1.29v57.17h-11.58Z"/>
        </g>
      </g>
    </g>
  </g>
</svg>