<?xml version="1.0" encoding="utf-8"?>
<!-- Generator: Adobe Illustrator 27.3.1, SVG Export Plug-In . SVG Version: 6.00 Build 0)  -->
<svg version="1.1" id="Layer_1" xmlns="http://www.w3.org/2000/svg" xmlns:xlink="http://www.w3.org/1999/xlink" x="0px" y="0px"
	 viewBox="0 0 1080 1080" style="enable-background:new 0 0 1080 1080;" xml:space="preserve">
<style type="text/css">
	.st0{fill:#5EB5A0;}
	.st1{fill:#0C0C0C;}
	.st2{fill:#FFFFFF;}
	.st3{fill:#2D2D2D;}
	.st4{fill:#F2F2F2;}
</style>
<rect class="st1" width="1080" height="1080"/>
<g>
	<path class="st4" d="M683.72,488.92c-0.06-0.62-0.06-1.15-0.06-1.77c-0.12-1.49-0.28-2.97-0.4-4.43c-0.06-0.68-0.12-1.36-0.19-2.11
		c-0.22-1.39-0.4-2.88-0.68-4.31c-0.06-0.74-0.22-1.55-0.34-2.29c-0.22-1.39-0.53-2.88-0.87-4.37c-0.15-0.81-0.34-1.55-0.5-2.35
		c-0.4-1.61-0.81-3.16-1.27-4.8c-0.19-0.65-0.34-1.39-0.53-2.14c-0.74-2.29-1.49-4.65-2.29-7c-0.74-2.11-1.61-4.18-2.42-6.2
		c-0.28-0.62-0.56-1.21-0.81-1.83c-0.62-1.49-1.3-2.88-1.95-4.31c-0.28-0.62-0.62-1.27-0.9-1.89c-0.81-1.55-1.61-3.16-2.48-4.71
		c-0.22-0.34-0.34-0.68-0.56-0.93c-0.99-1.89-2.08-3.66-3.22-5.39c-0.34-0.56-0.68-1.02-1.02-1.55c-0.81-1.3-1.67-2.51-2.48-3.72
		c-0.46-0.53-0.87-1.15-1.27-1.73c-0.9-1.24-1.83-2.35-2.7-3.5c-0.4-0.5-0.74-0.96-1.15-1.43c-1.21-1.49-2.51-3.04-3.84-4.46
		c-0.46-0.46-0.87-0.93-1.36-1.39c-0.93-1.02-1.86-1.95-2.82-2.97c-0.53-0.53-1.15-1.15-1.73-1.67c-0.9-0.87-1.77-1.7-2.7-2.51
		c-0.62-0.53-1.21-1.05-1.83-1.61c-1.27-1.15-2.57-2.2-3.84-3.22c-0.74-0.62-1.55-1.21-2.29-1.77c-0.93-0.74-1.8-1.39-2.76-2.08
		c-0.81-0.53-1.61-1.15-2.42-1.67c-0.74-0.56-1.55-1.08-2.35-1.64c-0.9-0.53-1.77-1.05-2.63-1.67c-0.74-0.4-1.49-0.87-2.23-1.27
		c-1.8-1.08-3.62-2.11-5.45-3.1c-0.59-0.28-1.15-0.62-1.73-0.87c-1.08-0.62-2.17-1.15-3.31-1.7c-0.59-0.25-1.15-0.53-1.73-0.81
		c-1.15-0.53-2.35-1.08-3.5-1.55c-0.4-0.19-0.9-0.34-1.3-0.53c-4.15-1.77-8.39-3.31-12.79-4.58c-0.25-0.12-0.53-0.22-0.81-0.28
		c-1.39-0.46-2.88-0.87-4.37-1.27c-0.12,0-0.34-0.06-0.46-0.06c-17.04-4.52-34.88-6.01-52.48-4.4h-0.46
		c-4.99,0-9.82,1.08-14.68,2.17c-0.25,0.06-0.46,0.06-0.74,0.12c-1.05,0.22-2.14,0.5-3.22,0.68c-0.93,0.22-1.89,0.4-2.82,0.68
		c-0.9,0.19-1.83,0.4-2.7,0.68c-1.21,0.25-2.35,0.59-3.56,0.93c-0.68,0.22-1.36,0.4-2.11,0.62c-1.89,0.59-3.78,1.21-5.58,1.86
		c-11.86,4.18-22.03,9.7-30.79,16.05c-13.2,9.54-23.23,21-30.76,32.46c-7.56,11.49-12.61,22.95-15.95,32.65
		c-0.9,2.54-1.61,4.99-2.23,7.28c-1.95,6.78-2.88,12.17-3.16,15.15c-0.06,0.53-0.06,1.15-0.06,1.67v0.87c0,0.9,0.06,1.61,0.12,2.35
		c0.06,0.56,0.12,1.02,0.22,1.55c0.46,2.35,1.12,4.46,1.8,6.2c0.15,0.22,0.22,0.4,0.28,0.62c0.93,2.29,1.89,3.62,1.89,3.62
		c0.68,1.77,1.15,3.38,1.49,4.99c0.12,0.81,0.25,1.55,0.31,2.35c0.96,8.49-3,15.89-10.1,27.01c-1.33,2.01-2.7,4.18-4.24,6.47
		c-4.77,7.47-8.39,13.1-10.22,17.63c-0.93,2.29-1.49,4.31-1.49,6.07c0,0.81,0.16,1.55,0.34,2.2c0,0.09,0.06,0.15,0.06,0.22
		c0.15,0.46,0.34,0.87,0.62,1.33c0.06,0.15,0.12,0.28,0.19,0.34c0.28,0.4,0.56,0.74,0.9,1.08c0.12,0.12,0.19,0.28,0.31,0.4
		c0.34,0.34,0.74,0.68,1.15,1.02c0.22,0.12,0.34,0.25,0.5,0.4c0.59,0.4,1.27,0.81,2.01,1.21c1.08,0.62,2.14,1.15,3.16,1.61
		c1.02,0.4,2.01,0.81,2.91,1.21c1.21,0.46,2.35,0.87,3.35,1.21c3.5,1.36,5.51,2.51,4.4,5.39c-1.89,4.86-2.97,8.36-2.79,10.78
		c0.09,0.46,0.15,0.93,0.28,1.36c0.34,0.81,0.81,1.46,1.61,2.01c1.02,0.65,0.96,1.73,0.62,3.1c-0.06,0.25-0.22,0.59-0.28,0.87
		c-0.12,0.62-0.34,1.21-0.53,1.89c-0.15,0.68-0.28,1.33-0.34,2.01v1.08c0.12,1.73,0.87,3.62,3.1,5.39c2.23,1.73,3.1,3.75,3.22,6.2
		v1.49c-0.06,1.05-0.28,2.14-0.53,3.35c-0.22,1.21-0.56,2.51-0.96,3.84c-0.12,0.74-0.34,1.42-0.53,2.17
		c-1.02,3.69-2.08,8.09-2.82,13.26c-0.15,1.08-0.22,2.01-0.15,2.97c0,0.93,0.15,1.8,0.28,2.7c0.4,1.67,1.08,3.16,2.01,4.43
		c1.02,1.33,2.23,2.48,3.72,3.44c0.74,0.53,1.55,0.99,2.42,1.43c4.24,2.08,9.91,3.35,16.29,4.03c2.57,0.28,5.27,0.46,8.09,0.59
		c2.76,0.09,5.67,0.15,8.55,0.15c1.95,0,3.84,0.06,5.67,0.19c0.46,0,0.93,0.09,1.39,0.09c1.83,0.12,3.56,0.31,5.33,0.59
		c15.15,2.35,25.37,9.82,25.59,26.05v20.79c0,3.22,2.6,5.82,5.82,5.82h118.18c3.22,0,5.82-2.6,5.82-5.82v-64.34
		c-0.06-1.21-0.06-2.42,0-3.62c0-0.62,0-1.24,0.06-1.83c0-1.36,0.12-2.7,0.28-3.97c0-0.5,0.06-0.96,0.12-1.36
		c0.15-1.73,0.4-3.5,0.68-5.17c2.01-11.4,6.38-21.75,13.13-30.85c0.34-0.4,0.68-0.81,0.99-1.27c0.15-0.12,0.28-0.34,0.4-0.46
		c0.28-0.34,0.56-0.68,0.84-1.08c0.19-0.22,0.31-0.4,0.53-0.62c0.34-0.4,0.68-0.81,1.02-1.27c0.31-0.4,0.65-0.81,0.99-1.21
		l1.02-1.21c0.34-0.34,0.59-0.74,0.93-1.15c0.28-0.34,0.62-0.68,0.87-1.08c0.34-0.4,0.74-0.87,1.08-1.33
		c0.28-0.34,0.56-0.68,0.81-1.02c0.56-0.68,1.15-1.42,1.7-2.17c0.19-0.19,0.34-0.4,0.53-0.59c0.62-0.81,1.21-1.61,1.89-2.51
		c0.19-0.25,0.46-0.65,0.74-0.99c0.46-0.62,0.93-1.21,1.39-1.89c0.28-0.4,0.56-0.81,0.9-1.21c0.4-0.62,0.87-1.21,1.27-1.89
		c0.34-0.46,0.68-0.87,0.93-1.36c0.5-0.59,0.9-1.27,1.36-1.95c0.34-0.46,0.59-0.93,0.93-1.39c0.5-0.68,0.9-1.42,1.36-2.11
		c0.34-0.46,0.59-0.93,0.93-1.46c0.46-0.74,0.96-1.55,1.43-2.39c0.28-0.46,0.53-0.87,0.81-1.33c0.68-1.15,1.33-2.35,2.01-3.56
		c6.88-12.33,12.86-27.2,15.49-44.11c0-0.06,0-0.12,0.06-0.22c0.22-1.73,0.5-3.5,0.62-5.24c0.06-0.28,0.06-0.46,0.12-0.68
		c0.15-1.67,0.28-3.28,0.34-4.99c0-0.4,0.06-0.74,0.06-1.15c0.06-1.55,0.15-3.1,0.15-4.71v-1.49
		C683.88,492.02,683.78,490.47,683.72,488.92z M653.8,500.45c-0.46,1.02-1.05,1.98-1.55,2.97c-0.77,1.58-1.3,3.25-1.7,4.96
		c0.37,1.58,0.81,3.13,1.15,4.71c0.53,2.54,1.02,5.14,1.08,7.74c0.09,4.55-1.12,9.01-2.35,13.38c-0.87,3.04-1.73,6.04-2.91,8.95
		c-3.93,10.01-10.87,18.49-17.29,27.17c-2.76,3.75-5.39,7.62-7.71,11.68c-0.28,1.21-0.59,2.45-0.84,3.69
		c-1.08,5.39-1.98,11.15-5.67,15.21c-0.81,0.87-1.89,1.64-3,1.92c-0.31,0.22-0.62,0.4-0.99,0.46c-0.81,0.12-1.58-0.28-2.35-0.65
		c-0.65-0.34-1.55-0.71-2.08-1.33c-0.09-0.12-0.19-0.25-0.22-0.4c-0.12-0.12-0.25-0.15-0.34-0.28c-0.37-0.5-0.56-1.05-0.65-1.58
		c-0.77-4.15,1.83-8.15,2.01-12.33c0.15-2.6-0.71-5.17-1.55-7.62c-0.77-2.29-1.58-4.58-2.35-6.88c-0.09-0.09-0.15-0.19-0.25-0.28
		c-2.63-2.11-6.16-2.6-9.32-3.84c-7.16-2.82-12.36-10.1-12.67-17.78c-0.12-2.73-1.24-6.82-0.96-9.88c-0.06-0.06-0.09-0.09-0.12-0.16
		c-0.87-1.73-1.86-3.44-2.54-5.2c-2.2-5.42-2.01-11.49-3.13-17.22c-1.15-5.76-4.34-11.83-10.01-13.32
		c-6.29-1.67-12.39,2.97-18.77,4.18c-2.26,0.46-4.62,0.46-6.94,0.46c-2.94,0-5.85,0-8.8,0.03c-0.96-0.19-1.92-0.37-2.94-0.56
		c-6.91-1.12-12.08-2.73-16.02-4.49c-0.09-0.06-0.22-0.09-0.31-0.15c-10.28-4.8-11.43-10.59-11.43-10.59s-35.16,16.54-49.78-13.94
		c0,0-18.37-34.97,17.6-53.96c0,0,5.45-27.38,36.49-23.45c0,0,26.73-28.5,59.11-6.63c0,0,27.6-14.37,42.84,9.51
		c0,0,27.76-4.12,34.35,27.45c0,0,19.3,16.08,8.98,42.84c2.85,2.17,4.74,8.33,5.39,11.77C656.12,491.52,655.78,496.33,653.8,500.45z
		"/>
	<g>
		<path class="st4" d="M522.36,475.99h-15.29l20.78-54.9h15.68l20.78,54.9h-15.29l-3.53-9.8h-19.61L522.36,475.99z M529.42,455.99
			h12.55l-6.27-18.43L529.42,455.99z"/>
		<path class="st4" d="M594.12,475.99h-28.23v-10.98h7.06v-32.94h-7.06v-10.98h28.23v10.98h-7.06v32.94h7.06V475.99z"/>
	</g>
</g>
</svg>
