<?xml version="1.0" encoding="UTF-8" standalone="no"?>
<!DOCTYPE svg PUBLIC "-//W3C//DTD SVG 1.1//EN" "http://www.w3.org/Graphics/SVG/1.1/DTD/svg11.dtd">
<svg xmlns="http://www.w3.org/2000/svg" version="1.1" viewBox="0 0 937 1117" width="937.0pt" height="1117.0pt">
<path d="M 0.00 0.00 L 483.86 0.00 C 469.54 0.47 455.31 1.90 440.99 2.36 C 425.08 3.55 408.79 7.83 393.00 11.00 C 355.66 18.81 319.44 31.11 285.42 48.42 C 255.86 63.51 228.28 82.43 203.55 104.58 C 156.89 146.35 121.12 198.96 96.29 256.28 C 88.07 275.46 80.71 295.14 75.33 315.31 C 71.09 330.25 67.47 345.56 65.47 360.98 C 62.99 379.53 67.63 398.39 76.17 414.85 C 78.86 419.17 80.55 423.16 81.85 428.09 C 86.23 442.92 86.41 458.93 81.82 473.75 C 76.46 491.49 66.02 508.60 56.28 524.30 C 41.90 546.98 26.24 569.56 12.99 592.99 C 7.27 603.39 1.30 615.28 0.00 627.19 L 0.00 0.00 Z" fill="#ffffff" />
<path d="M 483.86 0.00 L 509.40 0.00 C 543.25 1.12 576.94 5.26 609.90 13.11 C 619.95 15.63 630.02 17.76 639.83 21.10 C 672.22 30.83 703.55 44.24 732.82 61.17 C 763.98 78.74 792.68 100.76 818.14 125.86 C 824.15 132.18 830.35 138.35 836.17 144.85 C 858.79 170.79 878.27 199.59 893.56 230.44 C 905.26 254.56 915.20 278.97 922.05 304.93 C 929.94 332.95 934.85 361.91 936.29 390.99 C 939.42 448.80 928.30 506.06 906.56 559.55 C 890.32 599.47 868.52 636.42 843.26 671.25 C 827.27 693.48 809.38 714.01 792.42 735.44 C 770.97 763.82 756.72 797.13 749.99 832.00 C 746.39 851.07 744.94 870.60 745.39 890.00 C 745.41 957.00 745.39 1024.00 745.40 1091.00 C 745.32 1096.44 746.05 1101.38 743.41 1106.39 C 740.27 1112.67 734.11 1116.30 727.21 1117.00 L 341.04 1117.00 C 334.08 1116.35 327.79 1112.69 324.66 1106.32 C 322.24 1101.64 322.72 1097.08 322.70 1092.00 C 322.72 1072.00 322.71 1052.00 322.70 1032.00 C 322.67 1020.81 321.32 1009.85 317.63 999.25 C 313.27 986.61 305.42 975.40 294.93 967.10 C 281.33 956.20 264.20 950.17 247.29 946.78 C 229.27 943.16 210.34 942.48 192.00 942.52 C 174.01 942.36 156.10 941.66 138.25 939.34 C 123.10 937.34 107.23 934.13 93.29 927.71 C 83.32 922.99 73.36 915.70 68.45 905.55 C 64.35 897.55 63.78 888.05 64.75 879.26 C 66.82 864.37 70.05 849.58 74.07 835.09 C 76.45 825.58 79.21 816.55 80.44 806.76 C 81.07 799.60 80.61 792.60 76.55 786.45 C 73.14 780.94 67.36 778.55 63.87 773.11 C 60.55 768.35 59.55 762.69 60.26 756.98 C 60.87 750.50 64.21 744.40 64.53 737.96 C 64.53 734.40 61.93 733.41 59.74 731.22 C 55.82 727.77 55.23 721.88 55.72 717.00 C 56.92 706.76 61.14 696.38 64.72 686.75 C 65.62 684.17 66.20 681.64 65.07 679.01 C 63.77 676.09 60.90 674.27 58.20 672.80 C 51.40 669.23 43.83 667.43 36.76 664.26 C 29.07 661.27 21.64 657.70 14.66 653.28 C 7.11 648.20 1.09 641.28 0.00 631.91 L 0.00 627.19 C 1.30 615.28 7.27 603.39 12.99 592.99 C 26.24 569.56 41.90 546.98 56.28 524.30 C 66.02 508.60 76.46 491.49 81.82 473.75 C 86.41 458.93 86.23 442.92 81.85 428.09 C 80.55 423.16 78.86 419.17 76.17 414.85 C 67.63 398.39 62.99 379.53 65.47 360.98 C 67.47 345.56 71.09 330.25 75.33 315.31 C 80.71 295.14 88.07 275.46 96.29 256.28 C 121.12 198.96 156.89 146.35 203.55 104.58 C 228.28 82.43 255.86 63.51 285.42 48.42 C 319.44 31.11 355.66 18.81 393.00 11.00 C 408.79 7.83 425.08 3.55 440.99 2.36 C 455.31 1.90 469.54 0.47 483.86 0.00 Z" fill="#5eb5a0" />
<path d="M 509.40 0.00 L 937.00 0.00 L 937.00 1117.00 L 727.21 1117.00 C 734.11 1116.30 740.27 1112.67 743.41 1106.39 C 746.05 1101.38 745.32 1096.44 745.40 1091.00 C 745.39 1024.00 745.41 957.00 745.39 890.00 C 744.94 870.60 746.39 851.07 749.99 832.00 C 756.72 797.13 770.97 763.82 792.42 735.44 C 809.38 714.01 827.27 693.48 843.26 671.25 C 868.52 636.42 890.32 599.47 906.56 559.55 C 928.30 506.06 939.42 448.80 936.29 390.99 C 934.85 361.91 929.94 332.95 922.05 304.93 C 915.20 278.97 905.26 254.56 893.56 230.44 C 878.27 199.59 858.79 170.79 836.17 144.85 C 830.35 138.35 824.15 132.18 818.14 125.86 C 792.68 100.76 763.98 78.74 732.82 61.17 C 703.55 44.24 672.22 30.83 639.83 21.10 C 630.02 17.76 619.95 15.63 609.90 13.11 C 576.94 5.26 543.25 1.12 509.40 0.00 Z" fill="#ffffff" />
<path d="M 475.02 61.45 C 500.10 63.59 524.63 73.52 545.24 87.77 C 561.66 80.33 578.97 75.32 597.01 74.12 C 615.87 72.81 634.85 76.16 651.33 85.67 C 665.31 93.66 676.25 105.28 684.94 118.71 C 701.88 117.05 719.37 119.48 735.17 125.84 C 749.74 131.68 762.66 141.27 772.50 153.50 C 784.76 168.67 792.14 187.06 796.30 205.99 C 796.65 208.79 799.63 210.55 801.43 212.57 C 820.64 232.57 833.17 259.27 835.46 286.96 C 837.24 307.67 833.43 328.09 826.10 347.43 C 828.95 350.17 831.48 353.15 833.37 356.63 C 838.24 365.33 841.33 375.18 843.37 384.90 C 846.21 398.74 845.59 413.09 840.29 426.27 C 837.76 432.62 833.87 438.09 831.51 444.52 C 830.27 447.95 828.98 451.49 828.40 455.10 C 828.65 458.52 829.92 461.91 830.67 465.26 C 832.77 474.04 834.59 482.99 835.30 492.00 C 836.32 505.13 833.56 518.46 830.16 531.09 C 825.72 547.24 821.37 563.00 814.25 578.24 C 801.93 604.80 783.75 628.02 766.33 651.36 C 756.20 664.83 746.63 678.54 738.10 693.10 C 737.33 694.49 736.77 695.93 736.38 697.47 C 732.59 712.81 731.09 728.92 724.40 743.40 C 720.16 752.13 714.95 759.93 705.42 763.37 C 700.98 765.79 697.55 763.31 693.57 761.45 C 688.55 759.11 684.59 754.42 684.23 748.74 C 682.94 736.48 689.52 725.14 690.87 713.04 C 691.94 704.70 689.70 696.62 687.11 688.78 C 684.41 680.85 681.68 672.93 678.98 664.99 C 678.17 662.09 675.82 661.01 673.46 659.52 C 663.92 654.07 652.84 652.79 643.02 647.99 C 624.60 639.04 610.95 621.07 607.01 601.00 C 605.92 595.63 606.03 590.35 605.22 584.89 C 604.12 577.19 602.58 569.77 602.72 561.93 C 602.86 559.12 601.37 557.25 600.17 554.85 C 596.34 547.86 593.03 540.69 591.06 532.93 C 586.55 515.99 587.07 497.93 582.80 481.19 C 579.75 469.57 573.88 457.34 564.42 449.60 C 556.78 443.25 546.79 440.69 536.99 442.03 C 522.10 443.90 507.68 452.49 492.90 455.92 C 481.56 458.71 468.65 457.95 457.00 458.06 C 448.51 457.85 440.60 458.96 432.25 456.83 C 409.04 452.97 384.52 447.25 364.30 434.71 C 353.68 428.07 343.20 418.89 338.95 406.76 C 320.90 414.47 301.52 419.40 281.94 420.90 C 261.34 422.38 240.48 419.63 222.00 410.02 C 205.65 401.62 192.67 388.41 183.22 372.76 C 170.93 352.36 163.91 328.69 162.09 304.99 C 160.41 281.63 164.92 258.11 176.80 237.80 C 190.23 214.72 210.92 198.15 234.23 185.76 C 238.54 168.77 246.88 152.63 258.58 139.55 C 269.49 127.35 283.62 118.17 299.24 113.25 C 316.71 107.62 334.92 107.18 353.03 109.36 C 368.83 93.97 387.49 81.44 407.77 72.75 C 428.83 63.76 452.14 59.31 475.02 61.45 Z" fill="#ffffff" />
<path d="M 479.93 171.29 C 502.53 230.86 525.09 290.45 547.61 350.05 C 530.95 350.01 514.26 350.26 497.60 349.93 C 493.94 339.29 490.04 328.74 486.24 318.15 C 464.99 318.15 443.73 318.12 422.48 318.17 C 418.68 328.78 414.84 339.38 411.03 349.99 C 394.41 350.17 377.77 350.04 361.15 350.06 C 383.61 290.50 406.20 230.86 428.80 171.36 C 445.83 171.18 462.90 171.32 479.93 171.29 Z" fill="#5eb5a0" />
<path d="M 552.66 171.28 C 583.32 171.28 613.97 171.27 644.62 171.29 C 644.62 183.22 644.66 195.16 644.60 207.10 C 636.96 207.14 629.33 207.09 621.69 207.13 C 621.67 242.83 621.67 278.53 621.69 314.23 C 629.33 314.27 636.98 314.22 644.62 314.25 C 644.62 326.19 644.66 338.12 644.60 350.06 C 613.96 350.09 583.32 350.08 552.67 350.06 C 552.63 338.12 552.65 326.19 552.66 314.25 C 560.31 314.22 567.95 314.27 575.59 314.23 C 575.61 278.53 575.60 242.83 575.60 207.13 C 567.96 207.08 560.31 207.14 552.67 207.10 C 552.63 195.16 552.65 183.22 552.66 171.28 Z" fill="#5eb5a0" />
<path d="M 454.35 225.09 C 461.17 245.00 467.93 264.93 474.72 284.86 C 461.15 284.89 447.58 284.88 434.02 284.87 C 440.78 264.93 447.60 245.02 454.35 225.09 Z" fill="#ffffff" />
<path d="M 0.00 631.91 C 1.09 641.28 7.11 648.20 14.66 653.28 C 21.64 657.70 29.07 661.27 36.76 664.26 C 43.83 667.43 51.40 669.23 58.20 672.80 C 60.90 674.27 63.77 676.09 65.07 679.01 C 66.20 681.64 65.62 684.17 64.72 686.75 C 61.14 696.38 56.92 706.76 55.72 717.00 C 55.23 721.88 55.82 727.77 59.74 731.22 C 61.93 733.41 64.53 734.40 64.53 737.96 C 64.21 744.40 60.87 750.50 60.26 756.98 C 59.55 762.69 60.55 768.35 63.87 773.11 C 67.36 778.55 73.14 780.94 76.55 786.45 C 80.61 792.60 81.07 799.60 80.44 806.76 C 79.21 816.55 76.45 825.58 74.07 835.09 C 70.05 849.58 66.82 864.37 64.75 879.26 C 63.78 888.05 64.35 897.55 68.45 905.55 C 73.36 915.70 83.32 922.99 93.29 927.71 C 107.23 934.13 123.10 937.34 138.25 939.34 C 156.10 941.66 174.01 942.36 192.00 942.52 C 210.34 942.48 229.27 943.16 247.29 946.78 C 264.20 950.17 281.33 956.20 294.93 967.10 C 305.42 975.40 313.27 986.61 317.63 999.25 C 321.32 1009.85 322.67 1020.81 322.70 1032.00 C 322.71 1052.00 322.72 1072.00 322.70 1092.00 C 322.72 1097.08 322.24 1101.64 324.66 1106.32 C 327.79 1112.69 334.08 1116.35 341.04 1117.00 L 0.00 1117.00 L 0.00 631.91 Z" fill="#ffffff" />
</svg>