<?xml version="1.0" encoding="UTF-8" standalone="no"?>
<!DOCTYPE svg PUBLIC "-//W3C//DTD SVG 1.1//EN" "http://www.w3.org/Graphics/SVG/1.1/DTD/svg11.dtd">
<svg xmlns="http://www.w3.org/2000/svg" version="1.1" viewBox="0 0 2189 478" width="2189.0pt" height="478.0pt">
<path d="M 0.00 0.00 L 1991.31 0.00 C 1983.06 0.82 1975.08 0.65 1967.06 2.36 C 1957.09 4.37 1947.19 6.40 1937.48 9.49 C 1910.28 17.93 1885.34 33.03 1865.68 53.67 C 1842.75 77.75 1826.62 108.37 1818.54 140.55 C 1816.56 148.79 1814.51 157.48 1816.25 165.94 C 1817.04 170.32 1818.77 174.32 1820.76 178.26 C 1824.78 185.93 1825.31 195.34 1822.59 203.51 C 1820.62 209.61 1817.30 215.51 1813.99 220.99 C 1807.01 232.43 1798.88 243.66 1792.44 255.45 C 1790.18 259.78 1787.67 265.06 1787.81 270.04 C 1787.99 273.78 1790.16 276.74 1793.06 278.93 C 1798.85 283.17 1805.21 284.78 1811.58 287.50 C 1813.64 288.51 1816.46 289.87 1815.72 292.68 C 1814.47 297.96 1811.77 302.34 1811.59 308.04 C 1811.20 311.04 1814.21 313.27 1815.29 315.96 C 1814.92 319.55 1813.23 323.46 1813.60 327.05 C 1814.34 332.99 1821.53 334.69 1822.17 340.92 C 1822.92 347.84 1819.70 355.46 1818.24 362.22 C 1816.79 368.96 1814.57 376.67 1815.71 383.55 C 1817.07 390.44 1822.37 394.76 1828.51 397.48 C 1838.18 401.59 1849.58 402.67 1859.99 403.24 C 1874.42 403.79 1887.57 402.68 1901.61 407.39 C 1910.78 410.46 1918.79 416.18 1922.76 425.23 C 1927.12 434.87 1925.69 444.72 1925.93 455.00 C 1926.08 460.59 1925.51 466.33 1926.25 471.87 C 1926.84 475.19 1929.30 476.61 1932.09 478.00 L 0.00 478.00 L 0.00 257.37 C 0.77 275.80 5.52 293.80 15.68 309.33 C 25.24 323.64 39.60 334.88 55.30 341.76 C 71.03 348.61 87.94 350.92 105.01 350.25 C 120.65 349.66 137.40 347.11 151.12 339.13 C 158.09 335.06 164.41 329.75 169.51 323.47 C 170.72 322.05 171.88 320.41 173.37 319.28 C 175.35 317.91 178.44 319.29 178.49 321.78 C 178.81 328.57 176.33 335.40 176.52 342.15 C 177.26 346.18 181.16 347.98 184.93 348.11 C 198.87 348.69 212.90 349.03 226.83 348.30 C 231.79 348.03 234.72 343.82 234.51 339.06 C 234.54 306.69 231.60 274.21 228.75 241.99 C 228.37 238.56 228.39 234.87 225.57 232.42 C 223.25 230.34 219.93 230.54 217.03 230.46 C 200.67 230.58 184.25 230.32 167.89 230.68 C 163.37 230.56 160.27 235.74 162.40 239.64 C 164.25 242.73 166.70 245.40 168.40 248.61 C 172.34 255.41 173.10 264.08 172.43 271.76 C 171.31 282.19 165.25 290.84 157.07 297.09 C 145.26 306.29 130.71 309.36 116.00 309.33 C 99.98 309.39 84.17 305.70 71.44 295.57 C 61.50 287.61 56.15 275.37 54.28 263.01 C 52.11 247.67 53.72 231.53 60.45 217.45 C 65.16 207.31 72.43 198.91 81.78 192.78 C 93.34 185.08 107.14 181.28 121.01 181.51 C 133.90 181.67 146.76 183.34 158.78 188.22 C 171.56 193.52 182.74 201.70 192.31 211.63 C 194.59 213.86 196.43 216.21 199.97 215.97 C 203.47 215.76 204.89 212.93 205.32 209.82 C 206.84 197.46 209.08 185.23 210.96 172.92 C 211.49 169.24 211.55 165.71 209.65 162.40 C 208.02 159.43 205.31 157.97 202.31 156.68 C 188.23 150.76 173.46 147.02 158.48 144.22 C 135.25 140.02 110.44 138.99 87.28 144.14 C 65.97 148.86 45.16 159.13 29.88 174.91 C 17.76 187.14 8.94 202.69 4.28 219.24 C 1.81 227.93 0.59 236.83 0.00 245.83 L 0.00 0.00 Z" fill="#ffffff" />
<path d="M 1991.31 0.00 L 2009.22 0.00 C 2042.48 1.78 2074.92 10.22 2103.66 27.33 C 2132.61 44.29 2156.46 69.63 2171.02 99.90 C 2184.72 127.93 2191.22 159.87 2188.17 191.00 C 2185.58 217.15 2176.75 241.96 2163.64 264.65 C 2156.39 277.31 2147.84 289.30 2138.64 300.62 C 2133.36 307.30 2127.38 313.78 2122.88 320.90 C 2113.89 335.01 2108.63 351.30 2107.38 367.97 C 2106.63 376.01 2107.20 383.94 2107.10 392.00 C 2107.10 417.00 2107.07 442.02 2107.12 467.02 C 2107.03 469.46 2107.05 472.47 2105.59 474.56 C 2104.47 476.21 2102.54 477.07 2100.84 478.00 L 1932.09 478.00 C 1929.30 476.61 1926.84 475.19 1926.25 471.87 C 1925.51 466.33 1926.08 460.59 1925.93 455.00 C 1925.69 444.72 1927.12 434.87 1922.76 425.23 C 1918.79 416.18 1910.78 410.46 1901.61 407.39 C 1887.57 402.68 1874.42 403.79 1859.99 403.24 C 1849.58 402.67 1838.18 401.59 1828.51 397.48 C 1822.37 394.76 1817.07 390.44 1815.71 383.55 C 1814.57 376.67 1816.79 368.96 1818.24 362.22 C 1819.70 355.46 1822.92 347.84 1822.17 340.92 C 1821.53 334.69 1814.34 332.99 1813.60 327.05 C 1813.23 323.46 1814.92 319.55 1815.29 315.96 C 1814.21 313.27 1811.20 311.04 1811.59 308.04 C 1811.77 302.34 1814.47 297.96 1815.72 292.68 C 1816.46 289.87 1813.64 288.51 1811.58 287.50 C 1805.21 284.78 1798.85 283.17 1793.06 278.93 C 1790.16 276.74 1787.99 273.78 1787.81 270.04 C 1787.67 265.06 1790.18 259.78 1792.44 255.45 C 1798.88 243.66 1807.01 232.43 1813.99 220.99 C 1817.30 215.51 1820.62 209.61 1822.59 203.51 C 1825.31 195.34 1824.78 185.93 1820.76 178.26 C 1818.77 174.32 1817.04 170.32 1816.25 165.94 C 1814.51 157.48 1816.56 148.79 1818.54 140.55 C 1826.62 108.37 1842.75 77.75 1865.68 53.67 C 1885.34 33.03 1910.28 17.93 1937.48 9.49 C 1947.19 6.40 1957.09 4.37 1967.06 2.36 C 1975.08 0.65 1983.06 0.82 1991.31 0.00 Z" fill="#5eb5a0" />
<path d="M 2009.22 0.00 L 2189.00 0.00 L 2189.00 478.00 L 2100.84 478.00 C 2102.54 477.07 2104.47 476.21 2105.59 474.56 C 2107.05 472.47 2107.03 469.46 2107.12 467.02 C 2107.07 442.02 2107.10 417.00 2107.10 392.00 C 2107.20 383.94 2106.63 376.01 2107.38 367.97 C 2108.63 351.30 2113.89 335.01 2122.88 320.90 C 2127.38 313.78 2133.36 307.30 2138.64 300.62 C 2147.84 289.30 2156.39 277.31 2163.64 264.65 C 2176.75 241.96 2185.58 217.15 2188.17 191.00 C 2191.22 159.87 2184.72 127.93 2171.02 99.90 C 2156.46 69.63 2132.61 44.29 2103.66 27.33 C 2074.92 10.22 2042.48 1.78 2009.22 0.00 Z" fill="#ffffff" />
<path d="M 1987.00 26.12 C 1999.52 26.23 2010.96 30.78 2021.33 37.55 C 2033.74 32.09 2047.84 29.32 2060.95 34.06 C 2069.54 37.14 2075.98 43.26 2081.03 50.70 C 2090.34 50.25 2099.48 51.62 2107.61 56.39 C 2117.07 61.82 2123.43 70.98 2126.72 81.23 C 2127.54 83.73 2128.07 86.43 2129.21 88.80 C 2130.81 91.40 2133.23 93.50 2135.06 95.96 C 2140.73 103.48 2144.42 112.58 2145.36 121.97 C 2146.38 131.09 2144.59 139.87 2141.62 148.45 C 2147.74 156.32 2150.68 167.19 2149.09 177.03 C 2148.15 183.30 2143.85 187.97 2142.65 193.98 C 2142.59 197.99 2144.26 202.07 2144.82 206.05 C 2146.02 212.35 2145.38 218.66 2143.82 224.83 C 2141.38 234.33 2138.80 243.40 2134.07 252.06 C 2125.69 267.78 2112.77 280.93 2104.12 296.14 C 2100.77 304.02 2101.38 312.87 2096.62 320.61 C 2094.73 324.22 2091.58 325.89 2088.08 327.63 C 2085.29 325.95 2081.43 324.78 2080.87 321.07 C 2079.97 315.26 2083.88 308.93 2083.69 303.00 C 2083.61 298.31 2081.49 293.45 2080.12 288.99 C 2079.35 287.03 2078.76 284.33 2077.14 282.90 C 2074.06 280.71 2069.79 279.86 2066.26 278.55 C 2057.72 275.76 2050.86 268.33 2048.38 259.74 C 2046.80 253.71 2046.79 247.14 2045.80 240.98 C 2045.26 237.61 2043.09 234.38 2041.90 231.14 C 2038.17 221.27 2039.99 210.42 2035.47 200.53 C 2032.91 194.91 2028.42 189.84 2021.93 189.19 C 2012.01 188.17 2004.26 195.31 1994.05 195.79 C 1988.39 195.97 1982.59 196.02 1976.93 195.91 C 1970.23 195.46 1963.56 193.77 1957.12 191.92 C 1947.11 188.67 1937.68 184.07 1932.77 174.22 C 1921.94 178.48 1910.68 181.08 1898.98 180.03 C 1890.14 179.24 1881.64 175.98 1874.98 170.03 C 1866.63 162.68 1861.40 151.67 1858.89 140.99 C 1855.88 128.22 1856.51 114.60 1862.94 102.94 C 1868.68 92.32 1877.77 85.30 1888.08 79.44 C 1891.51 67.40 1898.60 56.73 1909.98 50.98 C 1919.16 46.25 1928.95 45.79 1939.04 46.74 C 1951.86 34.57 1969.03 25.87 1987.00 26.12 Z" fill="#ffffff" />
<path d="M 1971.52 73.45 C 1978.72 72.82 1986.08 73.41 1993.32 73.23 C 2002.98 98.74 2012.66 124.24 2022.29 149.76 C 2015.14 149.78 2007.99 149.77 2000.83 149.77 C 1999.20 145.25 1997.56 140.73 1995.97 136.20 C 1986.90 136.15 1977.84 136.18 1968.77 136.17 C 1967.14 140.70 1965.49 145.22 1963.87 149.74 C 1956.71 149.79 1949.55 149.78 1942.38 149.75 C 1950.87 127.42 1959.31 105.07 1967.78 82.73 C 1968.97 79.65 1969.91 76.34 1971.52 73.45 Z" fill="#5eb5a0" />
<path d="M 2024.51 73.39 C 2037.59 72.95 2050.78 73.36 2063.88 73.22 C 2063.88 78.38 2063.88 83.54 2063.87 88.70 C 2060.54 88.70 2057.21 88.71 2053.88 88.72 C 2053.86 103.95 2053.87 119.17 2053.87 134.39 C 2057.21 134.41 2060.54 134.42 2063.87 134.43 C 2063.88 139.54 2063.88 144.66 2063.88 149.77 C 2050.70 149.77 2037.52 149.78 2024.35 149.77 C 2024.35 144.65 2024.35 139.54 2024.35 134.43 C 2027.65 134.43 2030.95 134.42 2034.25 134.41 C 2034.26 119.18 2034.27 103.95 2034.25 88.71 C 2030.95 88.71 2027.65 88.70 2024.36 88.70 C 2024.44 83.61 2024.07 78.46 2024.51 73.39 Z" fill="#5eb5a0" />
<path d="M 1982.32 96.57 C 1985.28 104.94 1988.08 113.36 1990.95 121.76 C 1985.22 121.80 1979.48 121.79 1973.75 121.77 C 1976.59 113.37 1979.46 104.97 1982.32 96.57 Z" fill="#ffffff" />
<path d="M 1405.98 136.50 C 1409.72 136.85 1413.18 137.23 1415.66 140.37 C 1417.58 142.65 1417.46 145.21 1417.05 147.99 C 1414.92 162.27 1413.63 176.60 1412.55 191.00 C 1410.17 225.59 1409.20 260.33 1409.73 295.00 C 1409.98 309.02 1410.58 323.05 1411.78 337.02 C 1411.88 339.53 1412.37 342.65 1410.71 344.76 C 1408.85 347.28 1406.01 348.32 1402.97 348.53 C 1391.35 349.51 1379.61 349.52 1368.00 348.44 C 1364.87 348.06 1361.96 347.83 1359.74 345.31 C 1357.15 342.49 1357.75 338.52 1357.65 335.00 C 1357.83 320.02 1357.63 305.01 1358.10 290.04 C 1358.57 243.53 1359.38 196.90 1362.76 150.50 C 1363.13 147.21 1362.97 142.88 1365.28 140.28 C 1367.28 137.94 1370.00 137.24 1372.93 136.79 C 1384.04 135.41 1394.84 135.77 1405.98 136.50 Z" fill="#2d2d2d" />
<path d="M 158.48 144.22 C 173.46 147.02 188.23 150.76 202.31 156.68 C 205.31 157.97 208.02 159.43 209.65 162.40 C 211.55 165.71 211.49 169.24 210.96 172.92 C 209.08 185.23 206.84 197.46 205.32 209.82 C 204.89 212.93 203.47 215.76 199.97 215.97 C 196.43 216.21 194.59 213.86 192.31 211.63 C 182.74 201.70 171.56 193.52 158.78 188.22 C 146.76 183.34 133.90 181.67 121.01 181.51 C 107.14 181.28 93.34 185.08 81.78 192.78 C 72.43 198.91 65.16 207.31 60.45 217.45 C 53.72 231.53 52.11 247.67 54.28 263.01 C 56.15 275.37 61.50 287.61 71.44 295.57 C 84.17 305.70 99.98 309.39 116.00 309.33 C 130.71 309.36 145.26 306.29 157.07 297.09 C 165.25 290.84 171.31 282.19 172.43 271.76 C 173.10 264.08 172.34 255.41 168.40 248.61 C 166.70 245.40 164.25 242.73 162.40 239.64 C 160.27 235.74 163.37 230.56 167.89 230.68 C 184.25 230.32 200.67 230.58 217.03 230.46 C 219.93 230.54 223.25 230.34 225.57 232.42 C 228.39 234.87 228.37 238.56 228.75 241.99 C 231.60 274.21 234.54 306.69 234.51 339.06 C 234.72 343.82 231.79 348.03 226.83 348.30 C 212.90 349.03 198.87 348.69 184.93 348.11 C 181.16 347.98 177.26 346.18 176.52 342.15 C 176.33 335.40 178.81 328.57 178.49 321.78 C 178.44 319.29 175.35 317.91 173.37 319.28 C 171.88 320.41 170.72 322.05 169.51 323.47 C 164.41 329.75 158.09 335.06 151.12 339.13 C 137.40 347.11 120.65 349.66 105.01 350.25 C 87.94 350.92 71.03 348.61 55.30 341.76 C 39.60 334.88 25.24 323.64 15.68 309.33 C 5.52 293.80 0.77 275.80 0.00 257.37 L 0.00 245.83 C 0.59 236.83 1.81 227.93 4.28 219.24 C 8.94 202.69 17.76 187.14 29.88 174.91 C 45.16 159.13 65.97 148.86 87.28 144.14 C 110.44 138.99 135.25 140.02 158.48 144.22 Z" fill="#2d2d2d" />
<path d="M 1237.99 150.84 C 1247.55 150.18 1257.34 150.07 1266.84 151.45 C 1271.22 152.12 1275.63 155.07 1275.49 159.96 C 1275.13 167.59 1273.68 175.35 1273.89 183.02 C 1274.08 186.54 1276.24 189.10 1279.93 188.89 C 1297.30 189.00 1314.70 188.40 1332.07 188.40 C 1335.47 188.31 1338.53 189.84 1340.19 192.86 C 1341.93 197.04 1340.85 202.51 1341.14 207.00 C 1340.81 212.05 1342.54 218.40 1338.06 222.07 C 1335.49 224.59 1332.27 223.82 1329.01 223.72 C 1315.03 222.56 1301.03 221.88 1286.99 221.83 C 1282.91 221.81 1279.06 222.23 1275.69 224.73 C 1271.98 227.38 1270.35 231.54 1270.06 235.97 C 1268.84 253.32 1268.59 270.65 1269.49 288.02 C 1270.02 294.56 1272.30 301.18 1277.66 305.32 C 1283.92 310.26 1292.34 311.11 1300.01 310.07 C 1308.29 308.92 1316.68 307.12 1324.67 304.68 C 1328.37 303.62 1331.57 301.69 1334.95 299.95 C 1339.64 297.68 1345.19 302.02 1345.44 306.91 C 1345.78 313.58 1345.15 320.31 1345.35 327.00 C 1345.30 330.75 1345.76 335.45 1343.75 338.77 C 1342.18 341.51 1339.35 342.59 1336.53 343.60 C 1329.64 345.88 1322.26 347.10 1315.08 348.05 C 1305.10 349.27 1295.06 350.15 1285.01 350.33 C 1273.24 350.55 1261.62 349.04 1250.74 344.36 C 1239.34 339.57 1229.84 330.61 1224.61 319.39 C 1221.29 312.34 1219.95 304.76 1219.78 297.01 C 1219.49 274.74 1220.06 252.15 1222.43 230.00 C 1222.59 228.63 1222.61 227.28 1222.49 225.95 C 1221.77 223.54 1219.61 221.96 1217.10 221.93 C 1207.75 221.66 1198.37 222.04 1189.01 221.82 C 1184.76 221.82 1181.17 218.31 1181.00 214.08 C 1180.77 208.43 1180.81 202.58 1180.98 196.93 C 1181.05 192.55 1184.51 189.00 1188.87 188.75 C 1198.52 188.35 1208.23 188.89 1217.89 188.55 C 1220.75 188.44 1223.02 185.91 1223.02 183.08 C 1223.33 175.67 1223.04 167.49 1224.37 160.03 C 1224.91 157.10 1226.23 154.39 1228.86 152.81 C 1231.47 151.29 1235.05 151.17 1237.99 150.84 Z" fill="#2d2d2d" />
<path d="M 565.04 186.36 C 579.50 187.63 593.47 193.00 604.67 202.31 C 617.69 212.92 626.85 227.81 630.79 244.10 C 633.73 255.43 633.81 266.36 634.41 278.00 C 635.36 298.02 635.87 318.03 635.83 338.06 C 635.78 340.83 635.59 343.46 633.58 345.58 C 631.67 347.49 629.12 347.90 626.56 348.29 C 614.62 349.75 602.36 349.42 590.41 348.20 C 586.63 347.78 582.76 346.13 581.70 342.12 C 581.33 338.98 581.90 335.65 582.17 332.50 C 583.90 313.72 584.65 294.86 584.26 276.00 C 583.72 262.57 579.74 249.56 570.48 239.55 C 563.40 231.68 553.51 226.83 543.03 225.58 C 534.60 224.67 526.10 225.04 518.11 228.08 C 506.77 232.28 497.53 241.63 492.59 252.58 C 488.97 260.63 487.72 269.22 487.76 278.00 C 487.79 295.43 488.37 312.91 490.13 330.25 C 490.46 334.17 491.38 338.18 491.17 342.11 C 490.30 346.16 486.55 347.80 482.79 348.25 C 470.35 349.61 457.36 349.65 444.92 348.19 C 441.18 347.81 437.91 345.75 436.93 341.97 C 436.22 337.75 436.68 333.28 436.66 329.01 C 436.91 284.81 437.70 240.99 442.49 197.01 C 442.90 193.78 444.37 190.84 447.50 189.49 C 451.34 187.97 455.91 187.97 460.00 187.68 C 469.06 187.46 478.36 187.43 487.33 188.86 C 490.80 189.49 493.64 192.22 492.98 195.95 C 491.50 203.76 488.17 210.40 490.76 218.50 C 492.96 217.12 495.00 215.63 496.64 213.60 C 504.08 204.91 513.01 197.28 523.46 192.47 C 536.26 186.66 551.13 185.06 565.04 186.36 Z" fill="#2d2d2d" />
<path d="M 327.00 186.70 C 344.68 185.73 363.42 187.04 380.27 192.80 C 393.41 197.43 406.39 205.05 413.61 217.37 C 421.65 231.33 422.04 250.87 412.02 264.00 C 402.97 276.24 389.49 283.05 374.92 286.44 C 363.30 289.20 351.80 289.09 339.96 288.50 C 325.76 287.62 311.91 285.23 298.99 279.05 C 295.79 277.53 292.32 277.85 291.82 281.97 C 291.94 282.78 292.20 283.58 292.59 284.35 C 296.30 291.12 301.88 296.58 308.45 300.55 C 325.07 310.58 345.25 315.21 364.52 312.15 C 377.83 310.06 390.95 305.52 402.46 298.46 C 405.96 296.39 408.89 293.47 412.38 291.43 C 416.07 289.52 420.37 292.03 421.27 295.91 C 422.52 302.47 422.24 309.38 422.63 316.04 C 422.67 320.64 423.24 325.39 422.63 329.95 C 421.97 333.60 419.16 335.45 416.09 337.04 C 404.18 343.15 390.09 346.07 376.93 348.02 C 358.89 350.56 340.16 351.28 322.06 348.90 C 304.61 346.52 287.80 341.04 273.54 330.46 C 261.12 321.37 251.76 308.53 247.38 293.74 C 243.16 279.38 242.63 263.75 245.46 249.08 C 249.10 230.19 260.50 213.16 276.48 202.47 C 291.22 192.55 309.42 187.82 327.00 186.70 Z" fill="#2d2d2d" />
<path d="M 760.76 187.58 C 778.05 189.69 796.52 195.40 809.51 207.51 C 821.69 218.72 826.15 236.78 821.60 252.54 C 817.62 265.65 805.76 276.09 793.53 281.50 C 779.40 287.83 764.35 289.41 749.00 288.72 C 733.01 288.16 717.43 286.04 702.85 279.08 C 700.04 277.82 696.97 277.54 695.71 280.96 C 695.54 281.92 695.67 282.87 696.10 283.79 C 700.13 291.67 706.64 297.44 714.25 301.77 C 730.76 311.07 750.25 315.18 769.04 312.03 C 781.89 309.89 794.58 305.53 805.73 298.75 C 809.27 296.70 812.25 293.89 815.66 291.68 C 818.32 289.98 821.89 290.82 823.75 293.29 C 825.36 295.47 825.55 298.35 825.73 300.96 C 826.15 308.64 826.41 316.31 826.69 324.00 C 826.73 326.85 826.93 329.92 825.45 332.48 C 824.15 334.67 822.12 335.85 819.94 337.00 C 810.92 341.63 800.91 344.34 791.01 346.28 C 774.89 349.36 758.40 350.75 741.99 350.24 C 724.41 349.59 707.08 346.56 691.15 338.84 C 676.66 331.77 664.04 320.94 656.44 306.58 C 648.52 291.83 646.50 274.45 647.91 257.96 C 649.14 244.06 653.97 230.59 662.42 219.43 C 671.11 207.70 683.24 199.09 696.82 193.89 C 716.81 186.07 739.64 185.14 760.76 187.58 Z" fill="#2d2d2d" />
<path d="M 981.54 189.56 C 986.27 190.96 991.29 192.78 995.27 195.75 C 998.26 198.01 999.75 201.19 999.69 204.92 C 999.77 215.63 999.01 226.36 998.68 237.06 C 998.55 239.15 998.52 241.42 997.29 243.22 C 995.53 245.77 991.89 246.81 988.94 246.35 C 986.16 245.75 983.76 243.16 981.46 241.56 C 968.32 231.84 950.23 228.72 934.27 230.76 C 921.25 232.82 909.94 240.67 902.07 251.06 C 895.38 259.94 892.07 270.92 892.15 282.00 C 892.15 301.34 894.28 320.78 895.80 340.04 C 896.17 344.77 892.23 347.98 887.82 348.37 C 875.64 349.44 863.18 349.63 850.99 348.52 C 847.81 348.13 844.76 348.03 842.51 345.46 C 839.65 342.38 840.53 337.83 840.38 334.00 C 840.38 292.56 840.12 251.40 843.19 210.03 C 843.64 204.85 843.66 199.53 844.62 194.42 C 845.26 191.30 847.63 189.38 850.68 188.81 C 859.24 187.29 868.33 187.58 877.01 187.61 C 881.91 187.81 887.12 187.79 891.87 189.10 C 895.22 190.17 898.34 192.81 897.54 196.69 C 896.24 202.87 893.75 208.54 893.37 214.97 C 893.24 217.92 892.63 222.14 894.80 224.50 C 896.25 225.02 897.62 225.06 898.60 223.68 C 901.05 220.32 902.49 216.31 904.88 212.89 C 912.08 201.73 923.00 193.60 935.72 189.78 C 950.53 185.40 966.70 185.20 981.54 189.56 Z" fill="#2d2d2d" />
<path d="M 1079.00 186.51 C 1098.55 185.93 1119.70 187.26 1137.84 195.18 C 1150.11 200.42 1160.60 209.25 1166.86 221.13 C 1171.81 230.34 1174.30 240.89 1175.26 251.24 C 1177.83 279.05 1179.24 307.12 1180.66 335.00 C 1180.73 337.95 1180.92 340.67 1179.22 343.25 C 1177.14 346.41 1173.86 347.50 1170.30 348.11 C 1161.63 349.42 1152.66 349.38 1143.92 349.07 C 1139.14 348.73 1134.08 348.62 1129.46 347.33 C 1125.48 346.09 1121.96 342.47 1122.44 338.04 C 1123.06 331.76 1124.93 325.25 1125.05 318.88 C 1125.06 317.81 1124.77 316.75 1124.20 315.70 C 1122.74 315.09 1121.29 314.84 1120.01 315.99 C 1117.99 317.96 1116.69 320.72 1115.02 323.00 C 1108.33 332.60 1097.91 339.74 1087.26 344.30 C 1076.47 348.99 1064.73 350.81 1053.01 350.28 C 1040.26 349.79 1027.26 347.58 1016.27 340.73 C 1010.12 336.95 1005.11 331.48 1002.14 324.87 C 998.29 316.27 997.48 306.21 998.74 296.95 C 1000.17 286.87 1005.64 277.89 1013.57 271.58 C 1026.52 261.24 1044.39 256.36 1060.51 253.83 C 1076.61 251.60 1093.91 250.36 1110.01 246.66 C 1113.91 245.70 1118.41 244.25 1121.09 241.09 C 1123.60 238.06 1124.03 233.73 1121.27 230.69 C 1116.72 225.63 1108.74 223.68 1102.24 222.86 C 1089.20 221.32 1075.82 222.18 1063.01 225.00 C 1048.47 228.19 1034.72 233.70 1023.06 243.13 C 1019.82 245.91 1015.25 243.93 1013.32 240.63 C 1011.82 238.02 1012.22 234.84 1012.45 231.97 C 1013.33 223.46 1014.57 214.97 1015.74 206.49 C 1016.24 203.36 1016.56 200.13 1018.59 197.54 C 1020.26 195.49 1022.61 194.79 1025.05 194.08 C 1042.56 189.35 1060.89 187.03 1079.00 186.51 Z" fill="#2d2d2d" />
<path d="M 1484.03 188.25 C 1487.42 188.67 1491.46 189.49 1493.27 192.75 C 1494.68 195.51 1493.47 199.54 1493.17 202.51 C 1490.91 217.95 1488.86 233.43 1487.44 248.97 C 1486.38 260.40 1486.57 271.74 1490.18 282.74 C 1493.06 291.50 1498.41 299.69 1506.27 304.71 C 1514.12 309.77 1523.81 311.48 1533.01 311.63 C 1540.69 311.75 1548.26 309.98 1554.69 305.69 C 1562.87 300.23 1568.82 291.26 1572.13 282.11 C 1576.25 270.67 1576.47 259.00 1575.85 247.00 C 1575.24 230.86 1573.11 214.75 1569.87 198.93 C 1569.45 196.35 1568.99 194.04 1570.78 191.84 C 1572.88 189.15 1575.79 188.71 1578.98 188.29 C 1590.91 186.86 1603.10 186.89 1615.03 188.38 C 1617.62 188.74 1620.02 189.12 1621.98 191.01 C 1624.34 193.23 1624.97 196.11 1625.27 199.22 C 1627.02 221.68 1628.73 244.19 1629.67 266.71 C 1630.74 290.79 1630.88 314.92 1630.66 339.02 C 1630.43 357.57 1623.22 375.89 1609.91 388.92 C 1599.28 399.13 1585.89 406.22 1572.01 410.93 C 1556.38 416.13 1539.43 418.13 1523.00 417.89 C 1496.80 417.85 1469.64 416.75 1444.01 410.96 C 1440.38 409.99 1435.30 409.23 1432.73 406.29 C 1430.15 403.26 1430.49 399.71 1430.78 396.00 C 1431.74 386.68 1432.45 377.33 1433.16 367.98 C 1433.38 365.79 1433.45 363.50 1434.48 361.50 C 1435.92 358.74 1439.00 356.94 1442.14 357.48 C 1444.98 358.43 1447.49 360.44 1450.15 361.83 C 1459.95 367.14 1470.65 370.47 1481.51 372.80 C 1499.41 376.49 1517.96 377.93 1535.74 372.79 C 1550.09 368.69 1564.68 360.89 1574.05 349.02 C 1579.14 342.74 1582.37 335.19 1582.32 327.01 C 1582.27 324.66 1582.46 321.09 1580.24 319.59 C 1576.95 318.23 1575.57 320.52 1574.02 322.95 C 1568.84 332.00 1561.39 339.52 1551.77 343.76 C 1538.65 349.61 1523.19 350.93 1508.99 350.54 C 1493.97 350.09 1478.37 346.75 1465.77 338.21 C 1451.52 328.61 1442.15 313.29 1438.23 296.71 C 1434.99 283.78 1435.48 271.19 1435.75 258.00 C 1436.36 238.36 1437.85 218.79 1439.69 199.22 C 1440.07 196.14 1440.52 193.16 1443.00 191.00 C 1445.74 188.64 1450.29 188.30 1453.74 187.83 C 1463.78 186.84 1474.01 187.14 1484.03 188.25 Z" fill="#2d2d2d" />
<path d="M 326.47 221.76 C 334.36 220.55 342.39 220.70 350.26 221.95 C 356.78 223.10 363.15 225.23 367.78 230.20 C 374.62 237.35 374.67 250.41 366.98 256.99 C 360.96 262.36 351.86 264.28 344.00 264.64 C 334.46 265.02 324.83 264.13 315.45 262.35 C 309.17 261.10 302.49 259.52 297.15 255.82 C 294.78 254.16 292.80 252.07 292.48 249.05 C 292.16 242.17 295.75 236.21 301.05 232.09 C 308.31 226.50 317.48 223.17 326.47 221.76 Z" fill="#ffffff" />
<path d="M 730.51 221.71 C 738.39 220.54 746.40 220.72 754.25 221.99 C 760.75 223.13 767.11 225.35 771.66 230.35 C 778.39 237.48 778.36 250.24 770.89 256.86 C 764.85 262.30 755.90 264.22 748.00 264.62 C 737.93 265.06 727.76 264.06 717.89 262.08 C 711.91 260.84 705.46 259.17 700.47 255.49 C 698.35 253.85 696.38 251.77 696.26 248.93 C 695.94 242.29 699.36 236.47 704.44 232.40 C 711.80 226.55 721.28 223.14 730.51 221.71 Z" fill="#ffffff" />
<path d="M 1088.45 268.79 C 1095.05 268.06 1101.93 267.75 1108.51 268.80 C 1113.04 269.62 1118.00 271.31 1120.65 275.35 C 1123.38 279.42 1122.88 285.09 1121.36 289.52 C 1119.17 295.70 1113.83 300.90 1108.51 304.52 C 1097.31 311.86 1084.22 313.79 1071.07 312.36 C 1064.64 311.70 1056.34 310.29 1052.44 304.51 C 1047.95 297.32 1050.13 287.78 1056.22 282.21 C 1064.66 274.30 1077.19 270.27 1088.45 268.79 Z" fill="#ffffff" />
</svg>