<?xml version="1.0" encoding="UTF-8"?>
<svg id="Layer_2" data-name="Layer 2" xmlns="http://www.w3.org/2000/svg" xmlns:xlink="http://www.w3.org/1999/xlink" viewBox="0 0 718.77 159.71">
  <defs>
    <style>
      .cls-1 {
        fill: url(#linear-gradient-2);
      }

      .cls-2 {
        opacity: .29;
      }

      .cls-3 {
        fill: #fff;
      }

      .cls-4 {
        fill: url(#linear-gradient-4);
      }

      .cls-5 {
        fill: url(#linear-gradient-3);
      }

      .cls-6 {
        fill: url(#linear-gradient-5);
      }

      .cls-7 {
        fill: url(#linear-gradient);
      }

      .cls-8 {
        opacity: .7;
      }
    </style>
    <linearGradient id="linear-gradient" x1="727.3" y1="19.06" x2="631.51" y2="136.37" gradientUnits="userSpaceOnUse">
      <stop offset="0" stop-color="#6ee7b7"/>
      <stop offset="1" stop-color="#a78bfa"/>
    </linearGradient>
    <linearGradient id="linear-gradient-2" x1="749.24" y1="38.11" x2="654.43" y2="154.21" xlink:href="#linear-gradient"/>
    <linearGradient id="linear-gradient-3" x1="1049.77" y1="-2327.59" x2="992.93" y2="-2125.5" gradientTransform="translate(-2207.85 955.04) rotate(45)" xlink:href="#linear-gradient"/>
    <linearGradient id="linear-gradient-4" x1="1031.07" y1="-2332.85" x2="974.23" y2="-2130.76" gradientTransform="translate(-2207.85 955.04) rotate(45)" xlink:href="#linear-gradient"/>
    <linearGradient id="linear-gradient-5" x1="1013.3" y1="-2337.84" x2="956.46" y2="-2135.76" gradientTransform="translate(-2207.85 955.04) rotate(45)" xlink:href="#linear-gradient"/>
  </defs>
  <g id="Layer_1-2" data-name="Layer 1">
    <g>
      <g>
        <g>
          <path class="cls-3" d="M296.84,47.11h10.01v64.88h-10.01l-57.65-52.27.28,9.27v43.01h-10.01V47.11h9.92l57.65,52.27-.19-9.55v-42.73Z"/>
          <path class="cls-3" d="M318.44,63.33h10.01v24.56c0,9.45,5,16.22,20.58,16.22,11.86,0,20.76-5,24.56-9.73v-31.05h10.01v48.66h-8.9l-.65-8.25-.09-.09c-5.19,4.45-14.18,9.73-27.34,9.73-20.2,0-28.18-10.84-28.18-25.4v-24.65Z"/>
          <path class="cls-3" d="M460.8,63.33l-29.75,48.66h-10.84l-29.66-48.66h11.68l14.92,25.49,8.53,14.46,8.43-14.46,14.92-25.49h11.77Z"/>
          <path class="cls-3" d="M496.48,61.94c21.5,0,33.37,10.75,33.37,25.67s-11.86,25.77-33.37,25.77-33.37-10.84-33.37-25.77,11.86-25.67,33.37-25.67ZM496.48,104.11c15.2,0,23.08-7.04,23.08-16.5s-7.88-16.41-23.08-16.41-23.17,6.86-23.17,16.41,7.88,16.5,23.17,16.5Z"/>
          <path class="cls-3" d="M606.95,111.99h-15.2l-30.59-20.39h-12.51v20.39h-10.01V46.84l10.01-1.11v37.81h12.7l31.33-20.2h14.46l-36.98,24.28,36.8,24.38Z"/>
        </g>
        <g>
          <path class="cls-7" d="M701.72,113.98h-11.49l-9.27-14.83h-48.84l-9.18,14.83h-11.58l39.48-64.88h11.49l39.39,64.88ZM639.9,86.18l-2.41,3.61h38.09l-2.32-3.61-16.68-28.27-16.68,28.27Z"/>
          <path class="cls-1" d="M708.76,69.08v-19.95h10.01v19.95h-10.01ZM708.76,113.98v-47.73l10.01-1.1v48.83h-10.01Z"/>
        </g>
      </g>
      <g>
        <path class="cls-5" d="M129.73,159.71c-44.03,0-79.85-35.82-79.85-79.85C49.87,35.82,85.7,0,129.73,0c44.03,0,79.85,35.82,79.85,79.85,0,44.03-35.82,79.85-79.85,79.85ZM129.73,24.27c-30.65,0-55.59,24.94-55.59,55.58,0,30.65,24.94,55.59,55.59,55.59,30.65,0,55.59-24.94,55.59-55.59,0-30.65-24.94-55.58-55.59-55.58Z"/>
        <g class="cls-8">
          <path class="cls-4" d="M90.02,147.98c-37.56,0-68.12-30.56-68.12-68.12,0-37.56,30.56-68.12,68.12-68.12,37.56,0,68.12,30.56,68.12,68.12,0,37.56-30.56,68.12-68.12,68.12ZM90.02,32.43c-26.15,0-47.42,21.27-47.42,47.42,0,26.15,21.27,47.42,47.42,47.42,26.15,0,47.42-21.27,47.42-47.42,0-26.15-21.27-47.42-47.42-47.42Z"/>
        </g>
        <g class="cls-2">
          <path class="cls-6" d="M52.3,132.15C23.46,132.15,0,108.69,0,79.85,0,51.02,23.46,27.56,52.3,27.56c28.84,0,52.3,23.46,52.3,52.3s-23.46,52.3-52.3,52.3ZM52.3,43.45c-20.07,0-36.4,16.33-36.4,36.4,0,20.07,16.33,36.4,36.4,36.4s36.4-16.33,36.4-36.4c0-20.07-16.33-36.4-36.4-36.4Z"/>
        </g>
      </g>
    </g>
  </g>
</svg>