<svg version="1.1" id="Layer_1" xmlns="http://www.w3.org/2000/svg" xmlns:xlink="http://www.w3.org/1999/xlink" x="0px" y="0px"
	 width="100%" viewBox="0 0 4693 1025" enable-background="new 0 0 4693 1025" xml:space="preserve">
<path fill="#000000" opacity="1.000000" stroke="none" 
	d="
M2.000003,506.000000 
	C2.000000,338.028595 2.000000,170.057190 2.000000,2.000000 
	C1407.398804,2.000000 2812.797607,2.000000 4219.983398,2.407386 
	C4219.963379,3.938810 4218.294434,5.614261 4216.329590,6.102962 
	C4191.886230,12.183813 4167.304688,17.431726 4143.371094,25.759216 
	C4098.754883,41.282780 4058.938477,64.661415 4023.547119,95.587204 
	C3992.303955,122.887756 3966.869141,155.151932 3946.257812,191.100403 
	C3927.003906,224.682358 3911.656494,259.993073 3902.352539,297.680634 
	C3899.101562,310.850647 3895.933350,324.193970 3894.599854,337.643799 
	C3893.109619,352.674683 3896.805176,367.301819 3903.851318,380.769775 
	C3909.970459,392.465759 3914.067139,404.834534 3913.376953,417.923218 
	C3912.693848,430.882446 3909.202148,443.550049 3902.447510,454.854279 
	C3891.227783,473.631836 3879.600586,492.165436 3868.197754,510.834137 
	C3857.662598,528.082092 3845.894043,544.643005 3838.359131,563.580139 
	C3831.500244,580.818176 3833.776123,594.983643 3852.253906,604.425293 
	C3862.554932,609.689026 3873.310791,614.114136 3884.054932,618.437134 
	C3889.188721,620.502808 3893.631348,622.820496 3895.621094,627.536011 
	C3892.679688,636.664734 3889.828125,645.115112 3887.248535,653.647583 
	C3885.263916,660.211670 3884.095459,667.791992 3889.085449,672.645752 
	C3894.966553,678.366028 3893.710938,683.724060 3891.800537,689.814209 
	C3888.140625,701.480774 3890.168457,711.499878 3900.144043,719.220459 
	C3904.559814,722.637756 3907.803711,727.014709 3908.124023,732.454590 
	C3908.492432,738.716431 3908.371094,745.210938 3907.112305,751.326660 
	C3903.375732,769.481873 3898.339844,787.384766 3895.020752,805.606506 
	C3891.916260,822.646606 3895.709473,837.831604 3910.815430,848.783997 
	C3920.181396,855.574707 3930.678711,859.287476 3941.683105,861.929688 
	C3970.047363,868.739746 3999.045166,868.810425 4027.915527,869.052002 
	C4048.820557,869.227051 4068.871094,872.386536 4088.129883,880.381226 
	C4107.595703,888.462036 4121.711914,901.903076 4127.109863,922.672302 
	C4129.666016,932.509033 4131.091797,942.831238 4131.492676,952.994019 
	C4132.187012,970.632263 4131.764160,988.318176 4131.649902,1005.983032 
	C4131.601074,1013.518982 4132.280273,1020.636841 4138.692383,1025.849854 
	C4138.904297,1026.022339 4138.250488,1027.259277 4138.000000,1028.000000 
	C2759.574951,1028.000000 1381.149902,1028.000000 2.000000,1028.000000 
	C2.000000,877.935303 2.000000,727.869446 2.466823,577.480713 
	C3.955824,580.618469 5.363324,584.016357 5.939970,587.549744 
	C11.126272,619.328369 22.238527,648.883179 42.060368,674.266052 
	C82.773224,726.401001 137.495285,751.553589 202.939957,753.861755 
	C220.846252,754.493286 238.842590,752.847961 256.787537,752.027161 
	C273.953369,751.241943 290.340271,746.339905 306.195312,740.408630 
	C331.628143,730.894470 353.080383,715.404663 369.656372,693.579102 
	C372.519684,689.808960 375.743408,686.086975 381.145935,687.380981 
	C385.027161,688.310608 386.340240,693.231506 385.220978,700.508911 
	C385.069366,701.494751 384.690613,702.451477 384.594025,703.439026 
	C383.655945,713.030090 382.260956,722.610107 381.974823,732.222412 
	C381.647217,743.227356 386.931915,748.699768 397.954987,749.753418 
	C407.216309,750.638672 416.521271,751.751221 425.796753,751.665588 
	C446.751160,751.472046 467.708221,750.808105 488.646118,749.913025 
	C498.595245,749.487732 503.567291,745.039246 506.170563,735.194397 
	C507.263153,731.062561 508.088165,726.685547 507.980560,722.446777 
	C507.753204,713.492737 506.611633,704.565491 506.239410,695.610840 
	C505.396545,675.333313 504.930908,655.039856 504.037903,634.764954 
	C503.525879,623.140320 502.553772,611.533447 501.652283,599.929199 
	C500.442352,584.354675 499.164429,568.784790 497.795868,553.223450 
	C496.601776,539.645630 495.488373,526.052856 493.869263,512.523010 
	C492.769165,503.330017 486.672577,497.661682 477.399323,496.411285 
	C474.116425,495.968597 470.749329,496.063080 467.420593,496.060547 
	C437.763214,496.038055 408.105804,496.042084 378.448425,496.056549 
	C373.784180,496.058807 369.092285,495.845184 364.460938,496.261841 
	C350.499695,497.517975 344.925751,509.238708 353.542877,520.489746 
	C366.846344,537.859436 373.424164,556.687256 372.461212,578.916504 
	C371.696320,596.573853 365.599579,611.530701 354.533600,624.336304 
	C336.201263,645.550598 312.301910,657.717834 284.795227,661.856567 
	C271.381470,663.874939 257.601074,663.722229 243.975204,664.008606 
	C216.968369,664.576416 191.822708,657.588684 168.886154,643.461548 
	C152.740753,633.517212 139.256912,620.701111 132.121094,602.591675 
	C128.471268,593.329102 124.512383,583.932678 122.795296,574.225037 
	C120.321075,560.236877 118.589241,545.901978 118.688263,531.730103 
	C118.804672,515.071472 122.834198,498.708862 128.321487,482.939026 
	C135.539444,462.195343 146.739532,443.822937 163.192322,429.015442 
	C191.487427,403.549835 225.066757,392.049042 262.810211,392.124115 
	C270.429474,392.139252 278.108978,392.724091 285.651459,393.806946 
	C299.462311,395.789886 313.507446,397.195831 326.890259,400.888611 
	C355.999542,408.920898 380.853333,424.859344 402.852509,445.366547 
	C408.692078,450.810089 414.339264,456.484436 420.443634,461.613861 
	C429.643585,469.344513 440.035858,466.482971 444.258606,455.187073 
	C445.283997,452.444214 445.426208,449.356873 445.865692,446.411652 
	C448.270203,430.298645 450.586731,414.172363 453.043945,398.067444 
	C454.449799,388.853180 456.320923,379.704285 457.529205,370.466644 
	C459.531219,355.161072 453.574646,344.669067 439.434875,338.590790 
	C429.655640,334.386963 419.852997,330.110260 409.755249,326.797668 
	C373.517487,314.909698 336.148590,307.355896 298.298553,304.545715 
	C253.023453,301.184204 207.861557,302.985962 163.940887,317.626129 
	C135.465942,327.117767 108.800362,339.959961 85.877083,358.983521 
	C42.006035,395.391266 14.491462,441.743225 5.968065,498.709869 
	C5.583481,501.280273 3.364549,503.576233 2.000003,506.000000 
M3124.348877,710.664551 
	C3142.870117,729.363464 3165.203125,741.391479 3190.481201,748.084534 
	C3225.195557,757.276001 3260.317627,757.028931 3295.348633,750.853088 
	C3331.500732,744.479614 3360.878174,727.336365 3379.070557,694.065491 
	C3380.006836,692.353088 3381.229492,690.578186 3382.772705,689.457703 
	C3387.475830,686.043457 3393.646973,688.361816 3393.819824,694.076782 
	C3394.149170,704.954285 3395.481689,715.861084 3390.940918,726.571228 
	C3385.788574,738.722717 3378.562500,748.959167 3369.470215,758.557068 
	C3348.554443,780.635925 3322.338623,793.236938 3293.979736,801.410095 
	C3275.481445,806.741394 3256.173340,809.595032 3236.666992,807.994873 
	C3223.413086,806.907593 3210.138428,805.761597 3196.977783,803.900269 
	C3164.366699,799.287903 3133.247803,790.179321 3105.119629,772.321106 
	C3091.216309,763.494202 3078.945801,768.430298 3076.320312,784.462891 
	C3074.123291,797.876770 3073.444092,811.543945 3072.214844,825.110046 
	C3071.315430,835.039978 3070.285645,844.975159 3069.899414,854.930725 
	C3069.261230,871.379761 3074.314697,878.292175 3090.039062,882.290161 
	C3101.648193,885.241760 3113.318359,888.496521 3125.163818,889.869629 
	C3157.527588,893.621155 3189.937012,897.859314 3222.442871,899.269958 
	C3259.621338,900.883362 3296.880615,901.427856 3333.947266,894.400940 
	C3371.541016,887.274170 3406.347168,874.279053 3437.533447,852.090820 
	C3462.953369,834.005249 3481.011230,810.304993 3491.219971,780.634583 
	C3497.910400,761.190430 3500.611084,741.402832 3500.331787,720.797791 
	C3499.492432,658.893738 3501.708984,596.946106 3496.136719,535.124939 
	C3493.928467,510.625153 3493.248779,485.988647 3491.802246,461.418579 
	C3491.216064,451.462860 3490.510254,441.512848 3489.734619,431.569946 
	C3488.430908,414.856476 3482.014160,407.825378 3465.513184,405.221466 
	C3460.595703,404.445526 3455.593750,403.886688 3450.623291,403.827087 
	C3434.963623,403.639282 3419.294922,403.484863 3403.641357,403.833435 
	C3396.353760,403.995728 3388.994873,404.854340 3381.842529,406.275116 
	C3371.045654,408.419891 3365.892090,416.969452 3367.881836,427.670898 
	C3369.767090,437.811707 3371.522949,447.980988 3373.090820,458.175415 
	C3378.101807,490.756714 3382.452881,523.432556 3381.726562,556.487671 
	C3381.170898,581.766357 3376.107910,606.105652 3362.877441,628.062866 
	C3349.503418,650.257996 3330.766357,665.502380 3304.461426,669.081177 
	C3287.173340,671.433228 3270.086914,670.109924 3253.282959,664.140625 
	C3241.786865,660.056885 3231.222168,654.878845 3222.405029,646.546997 
	C3201.750488,627.029114 3195.012695,601.375122 3192.351807,574.494934 
	C3190.010498,550.844543 3193.858887,527.312683 3196.721436,503.882538 
	C3199.864990,478.151794 3203.908936,452.531769 3207.461670,426.849854 
	C3208.766602,417.417053 3204.730713,410.337402 3195.664551,407.425507 
	C3190.023438,405.613678 3183.971191,404.337830 3178.072998,404.208435 
	C3159.091553,403.791840 3140.091797,403.791992 3121.108643,404.139160 
	C3115.546143,404.240906 3109.901611,405.629517 3104.493896,407.141235 
	C3095.086670,409.770966 3090.418701,416.205322 3089.758545,426.119690 
	C3088.764893,441.036835 3087.018311,455.902252 3085.885010,470.811951 
	C3083.843994,497.652161 3081.161865,524.483765 3080.374756,551.366638 
	C3079.733643,573.268127 3080.890381,595.277344 3082.337646,617.166870 
	C3083.440430,633.845093 3088.470215,649.837769 3094.803955,665.315796 
	C3101.567871,681.844360 3111.805664,696.167297 3124.348877,710.664551 
M2466.539307,432.348724 
	C2457.390869,427.598541 2448.530029,422.151978 2439.038818,418.231659 
	C2412.892090,407.431793 2385.365723,402.633331 2357.195801,402.101410 
	C2335.550537,401.692657 2313.800781,401.132324 2292.254639,402.743134 
	C2270.077881,404.401093 2248.037842,408.276123 2226.046143,411.847504 
	C2215.918457,413.492218 2205.963379,416.436859 2196.091064,419.339844 
	C2189.382812,421.312408 2184.151611,425.750336 2182.538330,432.822388 
	C2180.690918,440.919556 2179.428711,449.170105 2178.300781,457.407257 
	C2176.316895,471.895844 2174.547119,486.415497 2172.871826,500.943390 
	C2172.457031,504.540710 2172.121582,508.345978 2172.826416,511.838440 
	C2175.538818,525.284180 2188.107910,530.229736 2199.600830,522.624207 
	C2200.987305,521.706726 2202.267578,520.627014 2203.578613,519.598999 
	C2218.428223,507.957520 2235.078857,499.599854 2252.834473,493.588104 
	C2287.009033,482.017059 2322.265869,477.766235 2358.210693,479.904541 
	C2372.864502,480.776215 2387.439209,482.878448 2400.079590,491.512756 
	C2413.937500,500.978882 2413.800293,514.491577 2399.774902,523.592651 
	C2389.681396,530.142273 2378.033691,532.184387 2366.615234,533.893616 
	C2336.672607,538.375793 2306.555176,541.676880 2276.578857,545.950500 
	C2242.985596,550.739868 2210.763916,559.819885 2182.206543,579.051208 
	C2162.896729,592.055054 2149.706543,609.703064 2145.083984,632.630066 
	C2143.203125,641.959778 2143.931641,651.860840 2143.903320,661.503296 
	C2143.883789,668.136902 2143.694336,674.980591 2145.152344,681.371887 
	C2151.684082,710.004761 2168.916748,729.775940 2195.946289,741.308105 
	C2209.859619,747.244202 2224.107910,751.013184 2239.233643,752.519348 
	C2270.437256,755.626465 2301.009277,754.997986 2330.625488,742.921326 
	C2352.882812,733.845276 2372.802979,721.615356 2388.236572,702.925293 
	C2393.300781,696.792786 2397.425049,689.881042 2402.530518,683.787781 
	C2404.135010,681.872925 2407.594971,680.462524 2410.105225,680.604065 
	C2413.846924,680.814941 2414.183594,684.603577 2414.017334,687.611450 
	C2413.687500,693.572815 2413.062988,699.521912 2412.422363,705.461182 
	C2411.638672,712.725159 2410.634277,719.965576 2409.869629,727.231384 
	C2409.000977,735.485413 2412.614014,741.527222 2419.793945,745.239502 
	C2423.574463,747.194153 2427.654053,749.047180 2431.800049,749.738586 
	C2455.631104,753.713440 2479.635498,752.087158 2503.593018,751.274353 
	C2507.553955,751.139954 2511.625977,750.492493 2515.399414,749.299683 
	C2528.971924,745.009521 2535.117920,740.861023 2535.938965,727.066345 
	C2536.471436,718.122314 2535.971680,709.084534 2535.446777,700.117249 
	C2534.553955,684.865051 2533.107666,669.645386 2532.206543,654.393555 
	C2531.206543,637.460876 2531.047852,620.466553 2529.636963,603.573059 
	C2527.591309,579.079102 2524.309082,554.685730 2522.411865,530.183105 
	C2521.231934,514.940430 2516.496826,500.859589 2510.934814,486.975555 
	C2502.023193,464.731079 2486.896240,447.279877 2466.539307,432.348724 
M717.396973,667.906677 
	C696.165649,661.829895 675.851868,653.863953 657.645691,640.930481 
	C647.670227,633.843994 639.752014,625.066711 632.992920,615.077942 
	C630.496399,611.388367 628.524414,607.226257 631.460327,603.020447 
	C634.576294,598.556580 639.064575,599.872131 643.250610,601.347168 
	C648.272583,603.116638 653.149963,605.345398 658.245483,606.847961 
	C671.626282,610.793396 684.881042,615.761597 698.565552,617.962402 
	C730.135925,623.039429 761.918152,625.074951 793.837219,619.930115 
	C818.190002,616.004761 840.944641,608.062073 861.312012,594.123291 
	C887.597717,576.134094 903.557922,551.648865 903.890564,519.161682 
	C904.214478,487.534088 892.890808,460.684326 867.420410,440.710114 
	C850.158569,427.173157 830.664246,418.169220 809.783630,411.837097 
	C777.772278,402.129578 744.948547,401.114716 711.848450,401.897705 
	C676.694092,402.729248 643.121704,409.769379 611.834961,426.095520 
	C571.395813,447.197723 544.597656,479.649811 532.080627,523.642578 
	C526.654236,542.714417 525.159302,562.223450 525.801697,581.985840 
	C526.497925,603.403015 529.573608,624.234131 537.521484,644.369141 
	C549.550232,674.842896 569.517639,698.751404 596.465820,716.767517 
	C632.315125,740.734314 672.695862,751.472778 715.215637,753.415405 
	C739.748718,754.536194 764.440674,753.071106 789.024353,751.958435 
	C816.765503,750.702698 843.833679,744.908508 870.165894,736.353149 
	C881.136902,732.788696 891.439636,727.046936 901.825562,721.853943 
	C906.847595,719.342834 910.000244,714.709106 909.955444,708.936890 
	C909.779907,686.324158 911.819885,663.638245 908.061035,641.130005 
	C905.586365,626.311707 894.261902,621.409302 881.627197,629.790894 
	C877.477722,632.543640 873.789124,635.983276 869.694641,638.828003 
	C849.708496,652.714233 827.153687,661.096497 803.920227,667.042664 
	C789.210938,670.807190 773.734131,672.848633 758.556213,673.119141 
	C745.412109,673.353455 732.204163,670.004150 717.396973,667.906677 
M1426.473389,684.491150 
	C1441.158569,702.134827 1458.885620,716.278076 1479.052490,726.839783 
	C1510.430298,743.272644 1544.298828,751.700073 1579.593018,753.537903 
	C1624.328979,755.867554 1668.800537,753.282227 1712.549805,742.990479 
	C1723.864258,740.328918 1735.054810,736.819519 1745.926758,732.706909 
	C1753.639160,729.789551 1760.847290,725.424988 1768.043091,721.293152 
	C1773.691162,718.050049 1776.133423,712.678284 1776.129150,706.184082 
	C1776.124878,699.520935 1776.393188,692.848816 1776.133179,686.196533 
	C1775.535889,670.917725 1775.471802,655.558350 1773.720459,640.401672 
	C1772.047607,625.924866 1759.525879,620.771423 1748.103027,629.729614 
	C1733.259521,641.370422 1716.896606,650.049011 1699.696045,657.325317 
	C1678.668335,666.220703 1656.829468,671.691284 1633.842651,672.062683 
	C1610.754395,672.435608 1588.209595,670.674438 1566.112915,662.513062 
	C1545.843994,655.026733 1526.828735,645.872742 1511.211060,630.921021 
	C1505.551270,625.502502 1501.020996,618.547791 1497.267212,611.596436 
	C1493.591553,604.789978 1497.688721,599.461548 1505.336426,600.435791 
	C1509.538574,600.971069 1513.553711,602.950317 1517.661255,604.253601 
	C1531.597534,608.675415 1545.257446,614.849548 1559.536987,617.115967 
	C1585.383301,621.218323 1611.454224,624.196655 1637.886475,622.225342 
	C1668.957397,619.908203 1698.424805,612.842041 1724.686890,595.591858 
	C1738.995728,586.193237 1751.018311,574.245544 1759.387939,559.000549 
	C1765.438599,547.979858 1767.854126,536.259583 1768.730591,523.679260 
	C1769.647705,510.516052 1768.814209,497.794006 1764.670776,485.466064 
	C1756.439697,460.977295 1739.617065,443.352173 1718.025146,430.083344 
	C1697.322266,417.360809 1674.352905,410.522461 1650.720703,405.867371 
	C1626.052979,401.008301 1601.030151,401.594391 1576.055908,401.738373 
	C1551.522827,401.879822 1527.484375,406.096619 1504.512451,414.062714 
	C1468.802002,426.446259 1438.489624,446.900726 1417.569702,479.374847 
	C1405.154785,498.646790 1396.162476,519.358032 1393.923584,542.328857 
	C1392.474365,557.197632 1391.831177,572.215393 1391.976318,587.155151 
	C1392.323975,622.913696 1403.159424,655.215942 1426.473389,684.491150 
M938.110535,693.004944 
	C938.156311,704.002991 938.155640,715.001404 938.259033,725.998901 
	C938.404236,741.439636 943.477722,748.165466 958.970154,750.114380 
	C986.150452,753.533630 1013.476562,753.477539 1040.643921,749.756958 
	C1053.524414,747.992981 1059.038086,739.194885 1057.456909,726.037476 
	C1055.514038,709.869446 1053.136963,693.692749 1052.401245,677.453979 
	C1051.151367,649.861023 1050.680054,622.217957 1050.574951,594.593323 
	C1050.506226,576.523621 1053.028809,558.706055 1061.452271,542.313599 
	C1070.257446,525.178528 1081.553711,510.380035 1098.634888,500.309479 
	C1116.119873,490.000854 1134.710449,485.846680 1154.867554,485.858521 
	C1196.881714,485.883240 1231.318359,511.227264 1246.328125,549.691772 
	C1253.649536,568.454163 1254.562866,587.979614 1255.654053,607.509705 
	C1256.225464,617.735535 1254.641846,628.072205 1254.203613,638.366150 
	C1253.354248,658.311218 1252.700928,678.264832 1251.819336,698.208374 
	C1251.320190,709.502380 1250.446045,720.779419 1249.897827,732.071716 
	C1249.503784,740.188477 1253.848755,745.271729 1261.125732,747.919250 
	C1264.210815,749.041748 1267.567627,749.873535 1270.829224,749.981689 
	C1292.112915,750.686707 1313.402466,751.308105 1334.694824,751.590454 
	C1339.626465,751.655884 1344.637939,750.585632 1349.507080,749.544434 
	C1362.646362,746.734802 1367.422607,740.968872 1368.199829,727.427856 
	C1368.371704,724.435791 1368.433105,721.426636 1368.339844,718.431824 
	C1367.667114,696.812317 1366.545654,675.198425 1366.327148,653.575134 
	C1366.017822,622.941833 1364.485352,592.392639 1362.187012,561.853027 
	C1360.473511,539.084595 1356.195801,516.979004 1346.848633,496.072510 
	C1334.034180,467.411285 1314.583008,444.040070 1288.517578,426.666290 
	C1266.916504,412.268219 1243.391113,403.123535 1216.874146,401.399231 
	C1202.159546,400.442383 1187.682617,400.722290 1173.091187,401.790222 
	C1150.074463,403.474854 1128.808472,410.280487 1109.178711,422.543213 
	C1092.843994,432.747498 1079.768799,446.440826 1067.010620,460.529510 
	C1064.112671,463.729767 1061.716431,467.442474 1056.075684,466.825348 
	C1052.747803,460.598541 1053.911743,454.001740 1055.219971,447.604706 
	C1056.552002,441.091095 1058.733154,434.756134 1060.348389,428.294403 
	C1063.552124,415.477570 1059.119507,408.073212 1046.245361,406.006531 
	C1021.417358,402.020905 996.449951,402.583923 971.592590,405.571777 
	C958.530273,407.141876 952.682434,413.276794 950.660156,425.993042 
	C949.408203,433.865082 948.769958,441.853760 948.227234,449.815369 
	C947.254700,464.079803 946.676758,478.370911 945.728088,492.637177 
	C943.897644,520.163330 941.163635,547.653076 940.192810,575.206909 
	C938.833496,613.784119 938.743408,652.406067 938.110535,693.004944 
M2841.561768,746.467529 
	C2853.025635,743.126953 2864.577637,740.056091 2875.922852,736.352356 
	C2883.681641,733.819336 2887.856201,727.753601 2887.950195,719.665161 
	C2888.186279,699.347900 2888.231445,679.023132 2887.928711,658.707703 
	C2887.818115,651.263184 2882.329102,645.792542 2874.910889,644.450867 
	C2869.481201,643.468750 2864.378174,644.362488 2859.556885,647.286499 
	C2856.160156,649.346436 2852.656250,651.595337 2848.890137,652.615662 
	C2833.816895,656.699158 2818.702881,660.707947 2803.442627,663.996887 
	C2794.393066,665.947327 2784.950928,667.968018 2775.845215,667.399597 
	C2751.581543,665.884949 2733.895996,656.551208 2728.323486,631.343872 
	C2727.042969,625.550293 2726.001709,619.567322 2725.949951,613.661865 
	C2725.704346,585.679016 2725.672607,557.691345 2725.942383,529.708923 
	C2726.022461,521.433533 2727.062988,513.134644 2728.137695,504.908417 
	C2730.264160,488.630859 2738.896729,478.629181 2758.769043,478.404724 
	C2781.669922,478.146088 2804.601807,480.113159 2827.510498,481.306641 
	C2838.134277,481.860138 2848.724121,483.292847 2859.348389,483.555023 
	C2870.017334,483.818359 2875.802490,478.550995 2878.262207,468.205170 
	C2881.550293,454.375366 2880.893311,440.326752 2879.769531,426.452057 
	C2878.542725,411.301727 2872.216309,406.092407 2857.018799,405.815247 
	C2844.031250,405.578400 2831.035156,405.827576 2818.042725,405.864594 
	C2795.388428,405.929169 2772.733643,406.131348 2750.080322,406.004578 
	C2738.796875,405.941406 2735.801514,403.090240 2736.194824,391.588623 
	C2736.659180,377.996826 2737.874023,364.413330 2739.249268,350.875580 
	C2740.315674,340.378174 2737.171387,333.375916 2727.779785,328.823822 
	C2724.526367,327.246857 2720.923584,325.863831 2717.370361,325.516693 
	C2693.461182,323.180878 2669.507080,322.728851 2645.686279,326.281464 
	C2636.433350,327.661407 2629.623779,333.080017 2627.862061,342.763947 
	C2626.618652,349.597992 2626.086914,356.608398 2625.824219,363.562256 
	C2625.485352,372.544312 2626.056641,381.563690 2625.636719,390.538940 
	C2625.189941,400.081146 2620.077148,405.034119 2610.580811,405.742554 
	C2606.276855,406.063599 2601.899658,406.158234 2597.609131,405.768188 
	C2582.714111,404.414185 2567.843262,404.733185 2553.007568,406.251495 
	C2541.706299,407.408112 2534.820312,413.644867 2534.225830,424.757324 
	C2533.569824,437.024994 2533.909668,449.403381 2534.737305,461.671387 
	C2535.232422,469.012665 2539.174316,475.866608 2546.851807,477.125641 
	C2557.261230,478.832611 2567.970215,479.074249 2578.560303,479.214020 
	C2588.840576,479.349762 2599.151855,477.997742 2609.415527,478.333527 
	C2620.531250,478.697235 2625.285156,484.541626 2623.320312,495.469238 
	C2617.926514,525.466980 2620.927002,555.902893 2618.098877,586.055969 
	C2616.519043,602.899719 2617.502930,620.020020 2617.922363,637.001099 
	C2618.159668,646.609619 2618.577637,656.418152 2620.684326,665.736267 
	C2626.217529,690.209351 2638.823975,710.739685 2658.659424,726.298889 
	C2680.277832,743.256958 2705.415527,751.865906 2732.528564,753.442688 
	C2768.507080,755.535156 2804.388184,753.506348 2841.561768,746.467529 
M1966.573730,431.563141 
	C1954.005005,441.816406 1944.514282,454.547974 1936.724365,468.647156 
	C1934.632568,472.433319 1932.889282,476.476746 1930.323608,479.906677 
	C1929.198975,481.410431 1926.170776,482.647705 1924.449829,482.220795 
	C1922.748413,481.798706 1921.163940,479.312561 1920.348511,477.384918 
	C1919.616699,475.654755 1920.039917,473.449921 1919.884033,471.459900 
	C1918.708008,456.452209 1923.709595,442.549896 1927.695190,428.495850 
	C1930.303467,419.298950 1928.218872,412.514526 1919.396851,408.982697 
	C1912.740234,406.317841 1905.346436,404.668518 1898.184692,404.261932 
	C1882.900513,403.394257 1867.549438,403.317963 1852.234619,403.535919 
	C1844.290039,403.648956 1836.276733,404.602112 1828.450684,406.031403 
	C1817.478271,408.035278 1812.946899,413.413727 1812.062256,424.307526 
	C1810.717041,440.875458 1809.204102,457.438934 1808.331421,474.034210 
	C1806.725464,504.573181 1804.709595,535.124207 1804.349854,565.687744 
	C1803.710571,619.984192 1804.130615,674.293640 1804.222046,728.597534 
	C1804.242554,740.821716 1809.373901,747.271729 1821.243164,749.581116 
	C1828.397827,750.973328 1835.756470,751.863220 1843.036499,751.956299 
	C1860.686768,752.182007 1878.349121,751.992798 1895.996826,751.565125 
	C1901.257690,751.437622 1906.625244,750.453552 1911.699829,749.006165 
	C1921.625977,746.174988 1926.433350,738.779541 1925.521362,728.646240 
	C1924.359741,715.741455 1923.278320,702.825073 1921.824219,689.951904 
	C1918.381714,659.474426 1917.261719,628.907227 1917.891479,598.264465 
	C1917.973267,594.286743 1918.286743,590.267883 1918.985229,586.356018 
	C1924.485352,555.556335 1940.832520,531.787903 1966.255493,513.978638 
	C1976.473022,506.821228 1987.505981,501.128723 1999.940918,499.633789 
	C2011.118286,498.290009 2022.465088,497.959442 2033.740479,497.906921 
	C2057.888916,497.794342 2080.644531,503.035431 2100.804932,517.070679 
	C2105.720215,520.492554 2110.441650,524.199158 2115.425537,527.514404 
	C2129.608643,536.948486 2144.810059,529.926392 2145.633057,513.115967 
	C2146.771484,489.862823 2147.125488,466.571442 2147.837402,443.297119 
	C2148.176514,432.218781 2143.545654,423.507172 2133.771973,418.770111 
	C2123.361084,413.724304 2112.514160,409.240997 2101.420654,406.014587 
	C2080.641846,399.971436 2059.066406,400.398529 2037.901367,402.538269 
	C2012.093872,405.147278 1987.732544,412.934937 1966.573730,431.563141 
M3040.586182,304.774872 
	C3033.451660,294.095337 3022.296387,293.677856 3011.215332,293.567566 
	C2995.224854,293.408417 2979.230469,293.578583 2963.238525,293.701111 
	C2957.922607,293.741821 2952.541748,293.601257 2947.306885,294.352448 
	C2931.989746,296.550446 2925.162598,304.169708 2924.280273,319.604645 
	C2923.918945,325.921295 2924.124756,332.273682 2923.673828,338.581329 
	C2921.944824,362.770416 2919.555420,386.923218 2918.354004,411.136261 
	C2916.935791,439.710266 2916.230469,468.327759 2915.690918,496.935333 
	C2914.949951,536.209534 2914.521240,575.491150 2914.213623,614.771545 
	C2913.983887,644.091553 2914.175537,673.414673 2914.141602,702.736450 
	C2914.131104,712.062561 2913.926270,721.388611 2913.943604,730.714478 
	C2913.960693,739.911011 2918.874756,745.609192 2927.286377,748.537537 
	C2929.470215,749.297791 2931.788330,750.034119 2934.066162,750.107239 
	C2954.673340,750.768494 2975.283447,751.513428 2995.897461,751.704529 
	C3002.819824,751.768799 3009.924561,751.010986 3016.648438,749.393188 
	C3027.925781,746.679932 3032.147705,739.384705 3031.054932,727.830994 
	C3029.771729,714.264648 3028.484619,700.672607 3027.993652,687.063049 
	C3027.081055,661.789795 3026.353027,636.496765 3026.290771,611.210083 
	C3026.240234,590.596130 3027.301270,569.980347 3027.819092,549.364014 
	C3028.621094,517.424561 3029.265137,485.480713 3030.208008,453.545532 
	C3030.659668,438.258514 3031.524414,422.980164 3032.434570,407.711731 
	C3032.909668,399.746490 3033.700195,391.788086 3034.675781,383.866943 
	C3037.479492,361.107117 3040.566650,338.381409 3043.216553,315.604340 
	C3043.573975,312.531616 3042.060303,309.241211 3040.586182,304.774872 
z"/>
<path fill="#5EB5A0" opacity="1.000000" stroke="none" 
	d="
M4138.937500,1028.000000 
	C4138.250488,1027.259277 4138.904297,1026.022339 4138.692383,1025.849854 
	C4132.280273,1020.636841 4131.601074,1013.518982 4131.649902,1005.983032 
	C4131.764160,988.318176 4132.187012,970.632263 4131.492676,952.994019 
	C4131.091797,942.831238 4129.666016,932.509033 4127.109863,922.672302 
	C4121.711914,901.903076 4107.595703,888.462036 4088.129883,880.381226 
	C4068.871094,872.386536 4048.820557,869.227051 4027.915527,869.052002 
	C3999.045166,868.810425 3970.047363,868.739746 3941.683105,861.929688 
	C3930.678711,859.287476 3920.181396,855.574707 3910.815430,848.783997 
	C3895.709473,837.831604 3891.916260,822.646606 3895.020752,805.606506 
	C3898.339844,787.384766 3903.375732,769.481873 3907.112305,751.326660 
	C3908.371094,745.210938 3908.492432,738.716431 3908.124023,732.454590 
	C3907.803711,727.014709 3904.559814,722.637756 3900.144043,719.220459 
	C3890.168457,711.499878 3888.140625,701.480774 3891.800537,689.814209 
	C3893.710938,683.724060 3894.966553,678.366028 3889.085449,672.645752 
	C3884.095459,667.791992 3885.263916,660.211670 3887.248535,653.647583 
	C3889.828125,645.115112 3892.679688,636.664734 3895.621094,627.536011 
	C3893.631348,622.820496 3889.188721,620.502808 3884.054932,618.437134 
	C3873.310791,614.114136 3862.554932,609.689026 3852.253906,604.425293 
	C3833.776123,594.983643 3831.500244,580.818176 3838.359131,563.580139 
	C3845.894043,544.643005 3857.662598,528.082092 3868.197754,510.834137 
	C3879.600586,492.165436 3891.227783,473.631836 3902.447510,454.854279 
	C3909.202148,443.550049 3912.693848,430.882446 3913.376953,417.923218 
	C3914.067139,404.834534 3909.970459,392.465759 3903.851318,380.769775 
	C3896.805176,367.301819 3893.109619,352.674683 3894.599854,337.643799 
	C3895.933350,324.193970 3899.101562,310.850647 3902.352539,297.680634 
	C3911.656494,259.993073 3927.003906,224.682358 3946.257812,191.100403 
	C3966.869141,155.151932 3992.303955,122.887756 4023.547119,95.587204 
	C4058.938477,64.661415 4098.754883,41.282780 4143.371094,25.759216 
	C4167.304688,17.431726 4191.886230,12.183813 4216.329590,6.102962 
	C4218.294434,5.614261 4219.963379,3.938810 4220.884766,2.407386 
	C4262.708496,2.000000 4305.416504,2.000000 4348.554688,2.697153 
	C4359.975586,5.553222 4370.951172,7.800235 4381.962402,9.856334 
	C4441.640137,21.000193 4496.056152,44.169235 4545.224609,79.973824 
	C4581.883301,106.669083 4612.749512,138.644623 4637.340332,176.718521 
	C4658.766113,209.892822 4674.429688,245.623108 4684.526367,283.768097 
	C4687.498047,294.993042 4689.759277,306.406464 4692.313477,317.740814 
	C4692.911133,320.392914 4692.849121,320.406860 4696.000000,322.000000 
	C4696.000000,352.708466 4696.000000,383.416901 4695.425781,415.372559 
	C4695.234863,417.746521 4695.617188,418.873260 4696.000000,420.000000 
	C4696.000000,424.741119 4696.000000,429.482208 4695.471680,434.331757 
	C4694.086426,435.744446 4692.691895,436.957123 4692.451660,438.366486 
	C4686.003418,476.245331 4673.169434,511.966431 4656.205078,546.304871 
	C4639.833496,579.443176 4619.225586,609.858887 4596.528320,638.917542 
	C4583.459961,655.648926 4569.335938,671.644409 4557.344238,689.109131 
	C4538.248535,716.920959 4527.481445,748.286133 4523.867188,781.790955 
	C4522.310059,796.222656 4522.425293,810.872009 4522.388184,825.424072 
	C4522.239258,884.382507 4522.160156,943.342590 4522.482910,1002.299683 
	C4522.540039,1012.719543 4519.842285,1021.201538 4512.000000,1028.000000 
	C4387.958496,1028.000000 4263.916504,1028.000000 4138.937500,1028.000000 
M4330.338867,80.907516 
	C4295.782227,58.629185 4259.048828,53.379787 4220.020020,67.064865 
	C4200.987305,73.738556 4184.092773,84.261749 4168.915039,97.388702 
	C4163.867188,101.754646 4159.397461,104.811798 4152.176758,103.368401 
	C4146.729980,102.279602 4140.849609,102.701195 4135.234375,103.223061 
	C4110.881348,105.486305 4089.722900,114.140274 4073.461426,133.427505 
	C4064.913818,143.565735 4059.402100,155.127869 4054.645508,167.192902 
	C4052.751953,171.995575 4050.192627,175.495926 4045.556641,178.247864 
	C4038.460693,182.459686 4031.816895,187.520172 4025.337646,192.669189 
	C3999.531250,213.177444 3986.837402,240.367126 3986.469482,272.995270 
	C3986.171143,299.470978 3993.877441,324.153961 4008.147217,346.310333 
	C4019.170654,363.426025 4034.327393,375.847443 4054.338867,382.192627 
	C4078.124268,389.734436 4101.504883,388.044678 4124.938477,381.324585 
	C4132.780762,379.075562 4140.520020,376.465485 4148.562988,373.939941 
	C4154.659180,388.652100 4166.261719,397.070740 4179.129395,403.440491 
	C4209.686035,418.566711 4242.393066,423.302795 4276.128906,420.764923 
	C4283.930176,420.178040 4291.611328,417.342712 4299.230469,415.136566 
	C4307.817871,412.649780 4316.177734,409.347839 4324.807617,407.041992 
	C4338.085938,403.494385 4355.541016,407.500458 4365.185547,424.600311 
	C4372.286621,437.190643 4374.900879,450.515564 4376.259766,464.410095 
	C4377.853027,480.702942 4380.731445,496.594604 4389.042969,511.055389 
	C4390.313965,513.267090 4391.330078,515.857117 4391.608398,518.366943 
	C4392.706055,528.264099 4392.915527,538.284668 4394.451660,548.103394 
	C4398.307129,572.744507 4411.425781,590.062134 4435.636230,598.177856 
	C4441.605957,600.178833 4447.377930,602.759888 4453.318359,604.855896 
	C4457.397461,606.295227 4460.004395,608.888428 4461.333496,612.983459 
	C4462.152832,615.509583 4463.253906,617.945618 4464.253906,620.411743 
	C4471.535156,638.369751 4475.561523,656.502502 4467.801758,675.471619 
	C4466.690430,678.188110 4466.208008,681.254761 4465.940918,684.205200 
	C4465.244629,691.892517 4468.240723,696.670105 4475.369141,699.879883 
	C4481.344727,702.570496 4486.000488,701.760864 4491.114746,695.876404 
	C4494.551270,691.922302 4497.841309,687.415100 4499.662598,682.577698 
	C4502.913086,673.943848 4505.010254,664.875244 4507.576172,655.984619 
	C4509.580566,649.040283 4510.164062,641.221558 4513.829590,635.311401 
	C4523.416504,619.854980 4534.069336,605.029053 4544.802246,590.320801 
	C4563.777832,564.317566 4582.228516,538.241272 4591.805664,506.794006 
	C4599.854492,480.364960 4605.714844,454.285614 4596.613281,426.906708 
	C4593.723145,418.215240 4596.523926,409.824280 4601.086426,402.153259 
	C4616.540039,376.172333 4611.394043,351.124969 4597.126465,326.876129 
	C4594.505859,322.421509 4593.285645,319.290070 4595.185059,314.258911 
	C4601.510254,297.501984 4603.370117,279.793335 4601.328613,262.266968 
	C4598.444824,237.514374 4587.108887,216.216827 4570.362793,197.742554 
	C4567.813477,194.930649 4565.898438,191.294678 4564.525391,187.718964 
	C4561.801758,180.625580 4560.335938,172.996368 4557.164551,166.136337 
	C4541.184570,131.560760 4513.954590,113.205399 4475.838379,112.434860 
	C4466.817383,112.252487 4460.593262,109.873688 4456.197266,102.279388 
	C4455.699707,101.419983 4455.077148,100.615417 4454.417480,99.870079 
	C4436.781250,79.947609 4414.423340,70.650139 4388.066895,71.330208 
	C4372.330566,71.736244 4357.217285,75.900864 4342.828613,82.152992 
	C4338.601074,83.990059 4335.278320,83.838737 4330.338867,80.907516 
z"/>
<path fill="#2D2D2D" opacity="1.000000" stroke="none" 
	d="
M2.000003,506.937317 
	C3.364549,503.576233 5.583481,501.280273 5.968065,498.709869 
	C14.491462,441.743225 42.006035,395.391266 85.877083,358.983521 
	C108.800362,339.959961 135.465942,327.117767 163.940887,317.626129 
	C207.861557,302.985962 253.023453,301.184204 298.298553,304.545715 
	C336.148590,307.355896 373.517487,314.909698 409.755249,326.797668 
	C419.852997,330.110260 429.655640,334.386963 439.434875,338.590790 
	C453.574646,344.669067 459.531219,355.161072 457.529205,370.466644 
	C456.320923,379.704285 454.449799,388.853180 453.043945,398.067444 
	C450.586731,414.172363 448.270203,430.298645 445.865692,446.411652 
	C445.426208,449.356873 445.283997,452.444214 444.258606,455.187073 
	C440.035858,466.482971 429.643585,469.344513 420.443634,461.613861 
	C414.339264,456.484436 408.692078,450.810089 402.852509,445.366547 
	C380.853333,424.859344 355.999542,408.920898 326.890259,400.888611 
	C313.507446,397.195831 299.462311,395.789886 285.651459,393.806946 
	C278.108978,392.724091 270.429474,392.139252 262.810211,392.124115 
	C225.066757,392.049042 191.487427,403.549835 163.192322,429.015442 
	C146.739532,443.822937 135.539444,462.195343 128.321487,482.939026 
	C122.834198,498.708862 118.804672,515.071472 118.688263,531.730103 
	C118.589241,545.901978 120.321075,560.236877 122.795296,574.225037 
	C124.512383,583.932678 128.471268,593.329102 132.121094,602.591675 
	C139.256912,620.701111 152.740753,633.517212 168.886154,643.461548 
	C191.822708,657.588684 216.968369,664.576416 243.975204,664.008606 
	C257.601074,663.722229 271.381470,663.874939 284.795227,661.856567 
	C312.301910,657.717834 336.201263,645.550598 354.533600,624.336304 
	C365.599579,611.530701 371.696320,596.573853 372.461212,578.916504 
	C373.424164,556.687256 366.846344,537.859436 353.542877,520.489746 
	C344.925751,509.238708 350.499695,497.517975 364.460938,496.261841 
	C369.092285,495.845184 373.784180,496.058807 378.448425,496.056549 
	C408.105804,496.042084 437.763214,496.038055 467.420593,496.060547 
	C470.749329,496.063080 474.116425,495.968597 477.399323,496.411285 
	C486.672577,497.661682 492.769165,503.330017 493.869263,512.523010 
	C495.488373,526.052856 496.601776,539.645630 497.795868,553.223450 
	C499.164429,568.784790 500.442352,584.354675 501.652283,599.929199 
	C502.553772,611.533447 503.525879,623.140320 504.037903,634.764954 
	C504.930908,655.039856 505.396545,675.333313 506.239410,695.610840 
	C506.611633,704.565491 507.753204,713.492737 507.980560,722.446777 
	C508.088165,726.685547 507.263153,731.062561 506.170563,735.194397 
	C503.567291,745.039246 498.595245,749.487732 488.646118,749.913025 
	C467.708221,750.808105 446.751160,751.472046 425.796753,751.665588 
	C416.521271,751.751221 407.216309,750.638672 397.954987,749.753418 
	C386.931915,748.699768 381.647217,743.227356 381.974823,732.222412 
	C382.260956,722.610107 383.655945,713.030090 384.594025,703.439026 
	C384.690613,702.451477 385.069366,701.494751 385.220978,700.508911 
	C386.340240,693.231506 385.027161,688.310608 381.145935,687.380981 
	C375.743408,686.086975 372.519684,689.808960 369.656372,693.579102 
	C353.080383,715.404663 331.628143,730.894470 306.195312,740.408630 
	C290.340271,746.339905 273.953369,751.241943 256.787537,752.027161 
	C238.842590,752.847961 220.846252,754.493286 202.939957,753.861755 
	C137.495285,751.553589 82.773224,726.401001 42.060368,674.266052 
	C22.238527,648.883179 11.126272,619.328369 5.939970,587.549744 
	C5.363324,584.016357 3.955824,580.618469 2.466823,576.578857 
	C2.000000,553.291565 2.000000,530.583069 2.000003,506.937317 
z"/>
<path fill="#000100" opacity="1.000000" stroke="none" 
	d="
M4512.937500,1028.000000 
	C4519.842285,1021.201538 4522.540039,1012.719543 4522.482910,1002.299683 
	C4522.160156,943.342590 4522.239258,884.382507 4522.388184,825.424072 
	C4522.425293,810.872009 4522.310059,796.222656 4523.867188,781.790955 
	C4527.481445,748.286133 4538.248535,716.920959 4557.344238,689.109131 
	C4569.335938,671.644409 4583.459961,655.648926 4596.528320,638.917542 
	C4619.225586,609.858887 4639.833496,579.443176 4656.205078,546.304871 
	C4673.169434,511.966431 4686.003418,476.245331 4692.451660,438.366486 
	C4692.691895,436.957123 4694.086426,435.744446 4695.471680,435.220093 
	C4696.000000,633.110535 4696.000000,830.221130 4696.000000,1028.000000 
	C4635.293457,1028.000000 4574.583984,1028.000000 4512.937500,1028.000000 
z"/>
<path fill="#000101" opacity="1.000000" stroke="none" 
	d="
M4696.000000,321.062683 
	C4692.849121,320.406860 4692.911133,320.392914 4692.313477,317.740814 
	C4689.759277,306.406464 4687.498047,294.993042 4684.526367,283.768097 
	C4674.429688,245.623108 4658.766113,209.892822 4637.340332,176.718521 
	C4612.749512,138.644623 4581.883301,106.669083 4545.224609,79.973824 
	C4496.056152,44.169235 4441.640137,21.000193 4381.962402,9.856334 
	C4370.951172,7.800235 4359.975586,5.553222 4349.492188,2.697153 
	C4465.181641,2.000000 4580.363281,2.000000 4696.000000,2.000000 
	C4696.000000,108.041351 4696.000000,214.083359 4696.000000,321.062683 
z"/>
<path fill="#000100" opacity="1.000000" stroke="none" 
	d="
M4696.000000,419.333344 
	C4695.617188,418.873260 4695.234863,417.746521 4695.425781,416.309875 
	C4696.000000,416.888885 4696.000000,417.777802 4696.000000,419.333344 
z"/>
<path fill="#2D2D2D" opacity="1.000000" stroke="none" 
	d="
M3123.857422,710.143066 
	C3111.805664,696.167297 3101.567871,681.844360 3094.803955,665.315796 
	C3088.470215,649.837769 3083.440430,633.845093 3082.337646,617.166870 
	C3080.890381,595.277344 3079.733643,573.268127 3080.374756,551.366638 
	C3081.161865,524.483765 3083.843994,497.652161 3085.885010,470.811951 
	C3087.018311,455.902252 3088.764893,441.036835 3089.758545,426.119690 
	C3090.418701,416.205322 3095.086670,409.770966 3104.493896,407.141235 
	C3109.901611,405.629517 3115.546143,404.240906 3121.108643,404.139160 
	C3140.091797,403.791992 3159.091553,403.791840 3178.072998,404.208435 
	C3183.971191,404.337830 3190.023438,405.613678 3195.664551,407.425507 
	C3204.730713,410.337402 3208.766602,417.417053 3207.461670,426.849854 
	C3203.908936,452.531769 3199.864990,478.151794 3196.721436,503.882538 
	C3193.858887,527.312683 3190.010498,550.844543 3192.351807,574.494934 
	C3195.012695,601.375122 3201.750488,627.029114 3222.405029,646.546997 
	C3231.222168,654.878845 3241.786865,660.056885 3253.282959,664.140625 
	C3270.086914,670.109924 3287.173340,671.433228 3304.461426,669.081177 
	C3330.766357,665.502380 3349.503418,650.257996 3362.877441,628.062866 
	C3376.107910,606.105652 3381.170898,581.766357 3381.726562,556.487671 
	C3382.452881,523.432556 3378.101807,490.756714 3373.090820,458.175415 
	C3371.522949,447.980988 3369.767090,437.811707 3367.881836,427.670898 
	C3365.892090,416.969452 3371.045654,408.419891 3381.842529,406.275116 
	C3388.994873,404.854340 3396.353760,403.995728 3403.641357,403.833435 
	C3419.294922,403.484863 3434.963623,403.639282 3450.623291,403.827087 
	C3455.593750,403.886688 3460.595703,404.445526 3465.513184,405.221466 
	C3482.014160,407.825378 3488.430908,414.856476 3489.734619,431.569946 
	C3490.510254,441.512848 3491.216064,451.462860 3491.802246,461.418579 
	C3493.248779,485.988647 3493.928467,510.625153 3496.136719,535.124939 
	C3501.708984,596.946106 3499.492432,658.893738 3500.331787,720.797791 
	C3500.611084,741.402832 3497.910400,761.190430 3491.219971,780.634583 
	C3481.011230,810.304993 3462.953369,834.005249 3437.533447,852.090820 
	C3406.347168,874.279053 3371.541016,887.274170 3333.947266,894.400940 
	C3296.880615,901.427856 3259.621338,900.883362 3222.442871,899.269958 
	C3189.937012,897.859314 3157.527588,893.621155 3125.163818,889.869629 
	C3113.318359,888.496521 3101.648193,885.241760 3090.039062,882.290161 
	C3074.314697,878.292175 3069.261230,871.379761 3069.899414,854.930725 
	C3070.285645,844.975159 3071.315430,835.039978 3072.214844,825.110046 
	C3073.444092,811.543945 3074.123291,797.876770 3076.320312,784.462891 
	C3078.945801,768.430298 3091.216309,763.494202 3105.119629,772.321106 
	C3133.247803,790.179321 3164.366699,799.287903 3196.977783,803.900269 
	C3210.138428,805.761597 3223.413086,806.907593 3236.666992,807.994873 
	C3256.173340,809.595032 3275.481445,806.741394 3293.979736,801.410095 
	C3322.338623,793.236938 3348.554443,780.635925 3369.470215,758.557068 
	C3378.562500,748.959167 3385.788574,738.722717 3390.940918,726.571228 
	C3395.481689,715.861084 3394.149170,704.954285 3393.819824,694.076782 
	C3393.646973,688.361816 3387.475830,686.043457 3382.772705,689.457703 
	C3381.229492,690.578186 3380.006836,692.353088 3379.070557,694.065491 
	C3360.878174,727.336365 3331.500732,744.479614 3295.348633,750.853088 
	C3260.317627,757.028931 3225.195557,757.276001 3190.481201,748.084534 
	C3165.203125,741.391479 3142.870117,729.363464 3123.857422,710.143066 
z"/>
<path fill="#2D2D2D" opacity="1.000000" stroke="none" 
	d="
M2467.128906,432.764832 
	C2486.896240,447.279877 2502.023193,464.731079 2510.934814,486.975555 
	C2516.496826,500.859589 2521.231934,514.940430 2522.411865,530.183105 
	C2524.309082,554.685730 2527.591309,579.079102 2529.636963,603.573059 
	C2531.047852,620.466553 2531.206543,637.460876 2532.206543,654.393555 
	C2533.107666,669.645386 2534.553955,684.865051 2535.446777,700.117249 
	C2535.971680,709.084534 2536.471436,718.122314 2535.938965,727.066345 
	C2535.117920,740.861023 2528.971924,745.009521 2515.399414,749.299683 
	C2511.625977,750.492493 2507.553955,751.139954 2503.593018,751.274353 
	C2479.635498,752.087158 2455.631104,753.713440 2431.800049,749.738586 
	C2427.654053,749.047180 2423.574463,747.194153 2419.793945,745.239502 
	C2412.614014,741.527222 2409.000977,735.485413 2409.869629,727.231384 
	C2410.634277,719.965576 2411.638672,712.725159 2412.422363,705.461182 
	C2413.062988,699.521912 2413.687500,693.572815 2414.017334,687.611450 
	C2414.183594,684.603577 2413.846924,680.814941 2410.105225,680.604065 
	C2407.594971,680.462524 2404.135010,681.872925 2402.530518,683.787781 
	C2397.425049,689.881042 2393.300781,696.792786 2388.236572,702.925293 
	C2372.802979,721.615356 2352.882812,733.845276 2330.625488,742.921326 
	C2301.009277,754.997986 2270.437256,755.626465 2239.233643,752.519348 
	C2224.107910,751.013184 2209.859619,747.244202 2195.946289,741.308105 
	C2168.916748,729.775940 2151.684082,710.004761 2145.152344,681.371887 
	C2143.694336,674.980591 2143.883789,668.136902 2143.903320,661.503296 
	C2143.931641,651.860840 2143.203125,641.959778 2145.083984,632.630066 
	C2149.706543,609.703064 2162.896729,592.055054 2182.206543,579.051208 
	C2210.763916,559.819885 2242.985596,550.739868 2276.578857,545.950500 
	C2306.555176,541.676880 2336.672607,538.375793 2366.615234,533.893616 
	C2378.033691,532.184387 2389.681396,530.142273 2399.774902,523.592651 
	C2413.800293,514.491577 2413.937500,500.978882 2400.079590,491.512756 
	C2387.439209,482.878448 2372.864502,480.776215 2358.210693,479.904541 
	C2322.265869,477.766235 2287.009033,482.017059 2252.834473,493.588104 
	C2235.078857,499.599854 2218.428223,507.957520 2203.578613,519.598999 
	C2202.267578,520.627014 2200.987305,521.706726 2199.600830,522.624207 
	C2188.107910,530.229736 2175.538818,525.284180 2172.826416,511.838440 
	C2172.121582,508.345978 2172.457031,504.540710 2172.871826,500.943390 
	C2174.547119,486.415497 2176.316895,471.895844 2178.300781,457.407257 
	C2179.428711,449.170105 2180.690918,440.919556 2182.538330,432.822388 
	C2184.151611,425.750336 2189.382812,421.312408 2196.091064,419.339844 
	C2205.963379,416.436859 2215.918457,413.492218 2226.046143,411.847504 
	C2248.037842,408.276123 2270.077881,404.401093 2292.254639,402.743134 
	C2313.800781,401.132324 2335.550537,401.692657 2357.195801,402.101410 
	C2385.365723,402.633331 2412.892090,407.431793 2439.038818,418.231659 
	C2448.530029,422.151978 2457.390869,427.598541 2467.128906,432.764832 
M2277.321777,600.170837 
	C2272.569824,604.816284 2267.347656,609.076416 2263.159912,614.184448 
	C2253.328613,626.176147 2253.058350,644.932007 2262.487793,656.762390 
	C2268.308838,664.065369 2276.496094,668.366150 2285.593994,669.319946 
	C2299.446045,670.772156 2313.451904,672.042847 2327.335938,671.604065 
	C2348.796875,670.926025 2368.547363,663.640137 2385.397461,650.346924 
	C2392.547607,644.706055 2399.422607,637.478027 2403.561035,629.489014 
	C2416.090576,605.301697 2409.453857,583.646301 2380.176514,579.437439 
	C2372.653809,578.355896 2364.957520,578.239319 2357.334717,578.135803 
	C2329.076660,577.752136 2302.656250,584.390442 2277.321777,600.170837 
z"/>
<path fill="#2D2D2D" opacity="1.000000" stroke="none" 
	d="
M718.210693,668.072754 
	C732.204163,670.004150 745.412109,673.353455 758.556213,673.119141 
	C773.734131,672.848633 789.210938,670.807190 803.920227,667.042664 
	C827.153687,661.096497 849.708496,652.714233 869.694641,638.828003 
	C873.789124,635.983276 877.477722,632.543640 881.627197,629.790894 
	C894.261902,621.409302 905.586365,626.311707 908.061035,641.130005 
	C911.819885,663.638245 909.779907,686.324158 909.955444,708.936890 
	C910.000244,714.709106 906.847595,719.342834 901.825562,721.853943 
	C891.439636,727.046936 881.136902,732.788696 870.165894,736.353149 
	C843.833679,744.908508 816.765503,750.702698 789.024353,751.958435 
	C764.440674,753.071106 739.748718,754.536194 715.215637,753.415405 
	C672.695862,751.472778 632.315125,740.734314 596.465820,716.767517 
	C569.517639,698.751404 549.550232,674.842896 537.521484,644.369141 
	C529.573608,624.234131 526.497925,603.403015 525.801697,581.985840 
	C525.159302,562.223450 526.654236,542.714417 532.080627,523.642578 
	C544.597656,479.649811 571.395813,447.197723 611.834961,426.095520 
	C643.121704,409.769379 676.694092,402.729248 711.848450,401.897705 
	C744.948547,401.114716 777.772278,402.129578 809.783630,411.837097 
	C830.664246,418.169220 850.158569,427.173157 867.420410,440.710114 
	C892.890808,460.684326 904.214478,487.534088 903.890564,519.161682 
	C903.557922,551.648865 887.597717,576.134094 861.312012,594.123291 
	C840.944641,608.062073 818.190002,616.004761 793.837219,619.930115 
	C761.918152,625.074951 730.135925,623.039429 698.565552,617.962402 
	C684.881042,615.761597 671.626282,610.793396 658.245483,606.847961 
	C653.149963,605.345398 648.272583,603.116638 643.250610,601.347168 
	C639.064575,599.872131 634.576294,598.556580 631.460327,603.020447 
	C628.524414,607.226257 630.496399,611.388367 632.992920,615.077942 
	C639.752014,625.066711 647.670227,633.843994 657.645691,640.930481 
	C675.851868,653.863953 696.165649,661.829895 718.210693,668.072754 
M740.131653,569.195312 
	C752.791504,568.239746 765.137817,566.166077 776.880859,560.876465 
	C791.144165,554.451599 800.019287,543.893250 801.474426,528.329529 
	C802.852966,513.584717 798.188538,501.103607 785.820679,491.568817 
	C774.156433,482.576599 760.854553,479.153870 746.806274,478.147186 
	C735.535767,477.339508 724.152100,477.399750 712.851501,477.867859 
	C688.899353,478.860138 667.264343,486.907867 648.183899,501.317993 
	C637.498230,509.388123 631.929932,520.398254 631.929993,534.064392 
	C631.930054,540.666565 634.833252,545.853821 639.872559,549.387573 
	C644.726379,552.791260 650.084778,555.917175 655.685425,557.738831 
	C682.510803,566.464478 710.246643,569.323486 740.131653,569.195312 
z"/>
<path fill="#2D2D2D" opacity="1.000000" stroke="none" 
	d="
M1426.069580,683.905518 
	C1403.159424,655.215942 1392.323975,622.913696 1391.976318,587.155151 
	C1391.831177,572.215393 1392.474365,557.197632 1393.923584,542.328857 
	C1396.162476,519.358032 1405.154785,498.646790 1417.569702,479.374847 
	C1438.489624,446.900726 1468.802002,426.446259 1504.512451,414.062714 
	C1527.484375,406.096619 1551.522827,401.879822 1576.055908,401.738373 
	C1601.030151,401.594391 1626.052979,401.008301 1650.720703,405.867371 
	C1674.352905,410.522461 1697.322266,417.360809 1718.025146,430.083344 
	C1739.617065,443.352173 1756.439697,460.977295 1764.670776,485.466064 
	C1768.814209,497.794006 1769.647705,510.516052 1768.730591,523.679260 
	C1767.854126,536.259583 1765.438599,547.979858 1759.387939,559.000549 
	C1751.018311,574.245544 1738.995728,586.193237 1724.686890,595.591858 
	C1698.424805,612.842041 1668.957397,619.908203 1637.886475,622.225342 
	C1611.454224,624.196655 1585.383301,621.218323 1559.536987,617.115967 
	C1545.257446,614.849548 1531.597534,608.675415 1517.661255,604.253601 
	C1513.553711,602.950317 1509.538574,600.971069 1505.336426,600.435791 
	C1497.688721,599.461548 1493.591553,604.789978 1497.267212,611.596436 
	C1501.020996,618.547791 1505.551270,625.502502 1511.211060,630.921021 
	C1526.828735,645.872742 1545.843994,655.026733 1566.112915,662.513062 
	C1588.209595,670.674438 1610.754395,672.435608 1633.842651,672.062683 
	C1656.829468,671.691284 1678.668335,666.220703 1699.696045,657.325317 
	C1716.896606,650.049011 1733.259521,641.370422 1748.103027,629.729614 
	C1759.525879,620.771423 1772.047607,625.924866 1773.720459,640.401672 
	C1775.471802,655.558350 1775.535889,670.917725 1776.133179,686.196533 
	C1776.393188,692.848816 1776.124878,699.520935 1776.129150,706.184082 
	C1776.133423,712.678284 1773.691162,718.050049 1768.043091,721.293152 
	C1760.847290,725.424988 1753.639160,729.789551 1745.926758,732.706909 
	C1735.054810,736.819519 1723.864258,740.328918 1712.549805,742.990479 
	C1668.800537,753.282227 1624.328979,755.867554 1579.593018,753.537903 
	C1544.298828,751.700073 1510.430298,743.272644 1479.052490,726.839783 
	C1458.885620,716.278076 1441.158569,702.134827 1426.069580,683.905518 
M1501.180542,545.201477 
	C1510.202148,554.275330 1521.650513,558.534241 1533.707520,561.569153 
	C1550.220703,565.725769 1567.069946,567.143921 1583.984863,568.786316 
	C1599.881714,570.329895 1615.397705,569.065735 1630.426880,565.143250 
	C1645.345825,561.249573 1658.791016,554.435730 1664.823975,537.824402 
	C1670.797974,521.375061 1666.092896,503.106720 1652.029663,492.470978 
	C1639.021973,482.633453 1624.430420,478.127075 1608.375610,477.780731 
	C1599.721680,477.594055 1591.061035,477.725464 1582.403442,477.699554 
	C1563.674194,477.643524 1546.030640,482.459229 1529.791138,491.327911 
	C1521.459717,495.877808 1513.297485,501.746765 1506.994751,508.759491 
	C1498.156860,518.593201 1494.633789,530.683289 1501.180542,545.201477 
z"/>
<path fill="#2D2D2D" opacity="1.000000" stroke="none" 
	d="
M938.110474,692.006897 
	C938.743408,652.406067 938.833496,613.784119 940.192810,575.206909 
	C941.163635,547.653076 943.897644,520.163330 945.728088,492.637177 
	C946.676758,478.370911 947.254700,464.079803 948.227234,449.815369 
	C948.769958,441.853760 949.408203,433.865082 950.660156,425.993042 
	C952.682434,413.276794 958.530273,407.141876 971.592590,405.571777 
	C996.449951,402.583923 1021.417358,402.020905 1046.245361,406.006531 
	C1059.119507,408.073212 1063.552124,415.477570 1060.348389,428.294403 
	C1058.733154,434.756134 1056.552002,441.091095 1055.219971,447.604706 
	C1053.911743,454.001740 1052.747803,460.598541 1056.075684,466.825348 
	C1061.716431,467.442474 1064.112671,463.729767 1067.010620,460.529510 
	C1079.768799,446.440826 1092.843994,432.747498 1109.178711,422.543213 
	C1128.808472,410.280487 1150.074463,403.474854 1173.091187,401.790222 
	C1187.682617,400.722290 1202.159546,400.442383 1216.874146,401.399231 
	C1243.391113,403.123535 1266.916504,412.268219 1288.517578,426.666290 
	C1314.583008,444.040070 1334.034180,467.411285 1346.848633,496.072510 
	C1356.195801,516.979004 1360.473511,539.084595 1362.187012,561.853027 
	C1364.485352,592.392639 1366.017822,622.941833 1366.327148,653.575134 
	C1366.545654,675.198425 1367.667114,696.812317 1368.339844,718.431824 
	C1368.433105,721.426636 1368.371704,724.435791 1368.199829,727.427856 
	C1367.422607,740.968872 1362.646362,746.734802 1349.507080,749.544434 
	C1344.637939,750.585632 1339.626465,751.655884 1334.694824,751.590454 
	C1313.402466,751.308105 1292.112915,750.686707 1270.829224,749.981689 
	C1267.567627,749.873535 1264.210815,749.041748 1261.125732,747.919250 
	C1253.848755,745.271729 1249.503784,740.188477 1249.897827,732.071716 
	C1250.446045,720.779419 1251.320190,709.502380 1251.819336,698.208374 
	C1252.700928,678.264832 1253.354248,658.311218 1254.203613,638.366150 
	C1254.641846,628.072205 1256.225464,617.735535 1255.654053,607.509705 
	C1254.562866,587.979614 1253.649536,568.454163 1246.328125,549.691772 
	C1231.318359,511.227264 1196.881714,485.883240 1154.867554,485.858521 
	C1134.710449,485.846680 1116.119873,490.000854 1098.634888,500.309479 
	C1081.553711,510.380035 1070.257446,525.178528 1061.452271,542.313599 
	C1053.028809,558.706055 1050.506226,576.523621 1050.574951,594.593323 
	C1050.680054,622.217957 1051.151367,649.861023 1052.401245,677.453979 
	C1053.136963,693.692749 1055.514038,709.869446 1057.456909,726.037476 
	C1059.038086,739.194885 1053.524414,747.992981 1040.643921,749.756958 
	C1013.476562,753.477539 986.150452,753.533630 958.970154,750.114380 
	C943.477722,748.165466 938.404236,741.439636 938.259033,725.998901 
	C938.155640,715.001404 938.156311,704.002991 938.110474,692.006897 
z"/>
<path fill="#2D2D2D" opacity="1.000000" stroke="none" 
	d="
M2840.736816,746.676636 
	C2804.388184,753.506348 2768.507080,755.535156 2732.528564,753.442688 
	C2705.415527,751.865906 2680.277832,743.256958 2658.659424,726.298889 
	C2638.823975,710.739685 2626.217529,690.209351 2620.684326,665.736267 
	C2618.577637,656.418152 2618.159668,646.609619 2617.922363,637.001099 
	C2617.502930,620.020020 2616.519043,602.899719 2618.098877,586.055969 
	C2620.927002,555.902893 2617.926514,525.466980 2623.320312,495.469238 
	C2625.285156,484.541626 2620.531250,478.697235 2609.415527,478.333527 
	C2599.151855,477.997742 2588.840576,479.349762 2578.560303,479.214020 
	C2567.970215,479.074249 2557.261230,478.832611 2546.851807,477.125641 
	C2539.174316,475.866608 2535.232422,469.012665 2534.737305,461.671387 
	C2533.909668,449.403381 2533.569824,437.024994 2534.225830,424.757324 
	C2534.820312,413.644867 2541.706299,407.408112 2553.007568,406.251495 
	C2567.843262,404.733185 2582.714111,404.414185 2597.609131,405.768188 
	C2601.899658,406.158234 2606.276855,406.063599 2610.580811,405.742554 
	C2620.077148,405.034119 2625.189941,400.081146 2625.636719,390.538940 
	C2626.056641,381.563690 2625.485352,372.544312 2625.824219,363.562256 
	C2626.086914,356.608398 2626.618652,349.597992 2627.862061,342.763947 
	C2629.623779,333.080017 2636.433350,327.661407 2645.686279,326.281464 
	C2669.507080,322.728851 2693.461182,323.180878 2717.370361,325.516693 
	C2720.923584,325.863831 2724.526367,327.246857 2727.779785,328.823822 
	C2737.171387,333.375916 2740.315674,340.378174 2739.249268,350.875580 
	C2737.874023,364.413330 2736.659180,377.996826 2736.194824,391.588623 
	C2735.801514,403.090240 2738.796875,405.941406 2750.080322,406.004578 
	C2772.733643,406.131348 2795.388428,405.929169 2818.042725,405.864594 
	C2831.035156,405.827576 2844.031250,405.578400 2857.018799,405.815247 
	C2872.216309,406.092407 2878.542725,411.301727 2879.769531,426.452057 
	C2880.893311,440.326752 2881.550293,454.375366 2878.262207,468.205170 
	C2875.802490,478.550995 2870.017334,483.818359 2859.348389,483.555023 
	C2848.724121,483.292847 2838.134277,481.860138 2827.510498,481.306641 
	C2804.601807,480.113159 2781.669922,478.146088 2758.769043,478.404724 
	C2738.896729,478.629181 2730.264160,488.630859 2728.137695,504.908417 
	C2727.062988,513.134644 2726.022461,521.433533 2725.942383,529.708923 
	C2725.672607,557.691345 2725.704346,585.679016 2725.949951,613.661865 
	C2726.001709,619.567322 2727.042969,625.550293 2728.323486,631.343872 
	C2733.895996,656.551208 2751.581543,665.884949 2775.845215,667.399597 
	C2784.950928,667.968018 2794.393066,665.947327 2803.442627,663.996887 
	C2818.702881,660.707947 2833.816895,656.699158 2848.890137,652.615662 
	C2852.656250,651.595337 2856.160156,649.346436 2859.556885,647.286499 
	C2864.378174,644.362488 2869.481201,643.468750 2874.910889,644.450867 
	C2882.329102,645.792542 2887.818115,651.263184 2887.928711,658.707703 
	C2888.231445,679.023132 2888.186279,699.347900 2887.950195,719.665161 
	C2887.856201,727.753601 2883.681641,733.819336 2875.922852,736.352356 
	C2864.577637,740.056091 2853.025635,743.126953 2840.736816,746.676636 
z"/>
<path fill="#2D2D2D" opacity="1.000000" stroke="none" 
	d="
M1967.128174,431.118530 
	C1987.732544,412.934937 2012.093872,405.147278 2037.901367,402.538269 
	C2059.066406,400.398529 2080.641846,399.971436 2101.420654,406.014587 
	C2112.514160,409.240997 2123.361084,413.724304 2133.771973,418.770111 
	C2143.545654,423.507172 2148.176514,432.218781 2147.837402,443.297119 
	C2147.125488,466.571442 2146.771484,489.862823 2145.633057,513.115967 
	C2144.810059,529.926392 2129.608643,536.948486 2115.425537,527.514404 
	C2110.441650,524.199158 2105.720215,520.492554 2100.804932,517.070679 
	C2080.644531,503.035431 2057.888916,497.794342 2033.740479,497.906921 
	C2022.465088,497.959442 2011.118286,498.290009 1999.940918,499.633789 
	C1987.505981,501.128723 1976.473022,506.821228 1966.255493,513.978638 
	C1940.832520,531.787903 1924.485352,555.556335 1918.985229,586.356018 
	C1918.286743,590.267883 1917.973267,594.286743 1917.891479,598.264465 
	C1917.261719,628.907227 1918.381714,659.474426 1921.824219,689.951904 
	C1923.278320,702.825073 1924.359741,715.741455 1925.521362,728.646240 
	C1926.433350,738.779541 1921.625977,746.174988 1911.699829,749.006165 
	C1906.625244,750.453552 1901.257690,751.437622 1895.996826,751.565125 
	C1878.349121,751.992798 1860.686768,752.182007 1843.036499,751.956299 
	C1835.756470,751.863220 1828.397827,750.973328 1821.243164,749.581116 
	C1809.373901,747.271729 1804.242554,740.821716 1804.222046,728.597534 
	C1804.130615,674.293640 1803.710571,619.984192 1804.349854,565.687744 
	C1804.709595,535.124207 1806.725464,504.573181 1808.331421,474.034210 
	C1809.204102,457.438934 1810.717041,440.875458 1812.062256,424.307526 
	C1812.946899,413.413727 1817.478271,408.035278 1828.450684,406.031403 
	C1836.276733,404.602112 1844.290039,403.648956 1852.234619,403.535919 
	C1867.549438,403.317963 1882.900513,403.394257 1898.184692,404.261932 
	C1905.346436,404.668518 1912.740234,406.317841 1919.396851,408.982697 
	C1928.218872,412.514526 1930.303467,419.298950 1927.695190,428.495850 
	C1923.709595,442.549896 1918.708008,456.452209 1919.884033,471.459900 
	C1920.039917,473.449921 1919.616699,475.654755 1920.348511,477.384918 
	C1921.163940,479.312561 1922.748413,481.798706 1924.449829,482.220795 
	C1926.170776,482.647705 1929.198975,481.410431 1930.323608,479.906677 
	C1932.889282,476.476746 1934.632568,472.433319 1936.724365,468.647156 
	C1944.514282,454.547974 1954.005005,441.816406 1967.128174,431.118530 
z"/>
<path fill="#2D2D2D" opacity="1.000000" stroke="none" 
	d="
M3040.999756,305.413239 
	C3042.060303,309.241211 3043.573975,312.531616 3043.216553,315.604340 
	C3040.566650,338.381409 3037.479492,361.107117 3034.675781,383.866943 
	C3033.700195,391.788086 3032.909668,399.746490 3032.434570,407.711731 
	C3031.524414,422.980164 3030.659668,438.258514 3030.208008,453.545532 
	C3029.265137,485.480713 3028.621094,517.424561 3027.819092,549.364014 
	C3027.301270,569.980347 3026.240234,590.596130 3026.290771,611.210083 
	C3026.353027,636.496765 3027.081055,661.789795 3027.993652,687.063049 
	C3028.484619,700.672607 3029.771729,714.264648 3031.054932,727.830994 
	C3032.147705,739.384705 3027.925781,746.679932 3016.648438,749.393188 
	C3009.924561,751.010986 3002.819824,751.768799 2995.897461,751.704529 
	C2975.283447,751.513428 2954.673340,750.768494 2934.066162,750.107239 
	C2931.788330,750.034119 2929.470215,749.297791 2927.286377,748.537537 
	C2918.874756,745.609192 2913.960693,739.911011 2913.943604,730.714478 
	C2913.926270,721.388611 2914.131104,712.062561 2914.141602,702.736450 
	C2914.175537,673.414673 2913.983887,644.091553 2914.213623,614.771545 
	C2914.521240,575.491150 2914.949951,536.209534 2915.690918,496.935333 
	C2916.230469,468.327759 2916.935791,439.710266 2918.354004,411.136261 
	C2919.555420,386.923218 2921.944824,362.770416 2923.673828,338.581329 
	C2924.124756,332.273682 2923.918945,325.921295 2924.280273,319.604645 
	C2925.162598,304.169708 2931.989746,296.550446 2947.306885,294.352448 
	C2952.541748,293.601257 2957.922607,293.741821 2963.238525,293.701111 
	C2979.230469,293.578583 2995.224854,293.408417 3011.215332,293.567566 
	C3022.296387,293.677856 3033.451660,294.095337 3040.999756,305.413239 
z"/>
<path fill="#000101" opacity="1.000000" stroke="none" 
	d="
M4330.975586,81.314293 
	C4335.278320,83.838737 4338.601074,83.990059 4342.828613,82.152992 
	C4357.217285,75.900864 4372.330566,71.736244 4388.066895,71.330208 
	C4414.423340,70.650139 4436.781250,79.947609 4454.417480,99.870079 
	C4455.077148,100.615417 4455.699707,101.419983 4456.197266,102.279388 
	C4460.593262,109.873688 4466.817383,112.252487 4475.838379,112.434860 
	C4513.954590,113.205399 4541.184570,131.560760 4557.164551,166.136337 
	C4560.335938,172.996368 4561.801758,180.625580 4564.525391,187.718964 
	C4565.898438,191.294678 4567.813477,194.930649 4570.362793,197.742554 
	C4587.108887,216.216827 4598.444824,237.514374 4601.328613,262.266968 
	C4603.370117,279.793335 4601.510254,297.501984 4595.185059,314.258911 
	C4593.285645,319.290070 4594.505859,322.421509 4597.126465,326.876129 
	C4611.394043,351.124969 4616.540039,376.172333 4601.086426,402.153259 
	C4596.523926,409.824280 4593.723145,418.215240 4596.613281,426.906708 
	C4605.714844,454.285614 4599.854492,480.364960 4591.805664,506.794006 
	C4582.228516,538.241272 4563.777832,564.317566 4544.802246,590.320801 
	C4534.069336,605.029053 4523.416504,619.854980 4513.829590,635.311401 
	C4510.164062,641.221558 4509.580566,649.040283 4507.576172,655.984619 
	C4505.010254,664.875244 4502.913086,673.943848 4499.662598,682.577698 
	C4497.841309,687.415100 4494.551270,691.922302 4491.114746,695.876404 
	C4486.000488,701.760864 4481.344727,702.570496 4475.369141,699.879883 
	C4468.240723,696.670105 4465.244629,691.892517 4465.940918,684.205200 
	C4466.208008,681.254761 4466.690430,678.188110 4467.801758,675.471619 
	C4475.561523,656.502502 4471.535156,638.369751 4464.253906,620.411743 
	C4463.253906,617.945618 4462.152832,615.509583 4461.333496,612.983459 
	C4460.004395,608.888428 4457.397461,606.295227 4453.318359,604.855896 
	C4447.377930,602.759888 4441.605957,600.178833 4435.636230,598.177856 
	C4411.425781,590.062134 4398.307129,572.744507 4394.451660,548.103394 
	C4392.915527,538.284668 4392.706055,528.264099 4391.608398,518.366943 
	C4391.330078,515.857117 4390.313965,513.267090 4389.042969,511.055389 
	C4380.731445,496.594604 4377.853027,480.702942 4376.259766,464.410095 
	C4374.900879,450.515564 4372.286621,437.190643 4365.185547,424.600311 
	C4355.541016,407.500458 4338.085938,403.494385 4324.807617,407.041992 
	C4316.177734,409.347839 4307.817871,412.649780 4299.230469,415.136566 
	C4291.611328,417.342712 4283.930176,420.178040 4276.128906,420.764923 
	C4242.393066,423.302795 4209.686035,418.566711 4179.129395,403.440491 
	C4166.261719,397.070740 4154.659180,388.652100 4148.562988,373.939941 
	C4140.520020,376.465485 4132.780762,379.075562 4124.938477,381.324585 
	C4101.504883,388.044678 4078.124268,389.734436 4054.338867,382.192627 
	C4034.327393,375.847443 4019.170654,363.426025 4008.147217,346.310333 
	C3993.877441,324.153961 3986.171143,299.470978 3986.469482,272.995270 
	C3986.837402,240.367126 3999.531250,213.177444 4025.337646,192.669189 
	C4031.816895,187.520172 4038.460693,182.459686 4045.556641,178.247864 
	C4050.192627,175.495926 4052.751953,171.995575 4054.645508,167.192902 
	C4059.402100,155.127869 4064.913818,143.565735 4073.461426,133.427505 
	C4089.722900,114.140274 4110.881348,105.486305 4135.234375,103.223061 
	C4140.849609,102.701195 4146.729980,102.279602 4152.176758,103.368401 
	C4159.397461,104.811798 4163.867188,101.754646 4168.915039,97.388702 
	C4184.092773,84.261749 4200.987305,73.738556 4220.020020,67.064865 
	C4259.048828,53.379787 4295.782227,58.629185 4330.975586,81.314293 
M4291.109863,322.080231 
	C4292.655273,323.083954 4294.191406,324.940857 4295.747559,324.957977 
	C4309.721191,325.111786 4323.698242,324.966949 4337.672852,324.803192 
	C4338.473633,324.793823 4339.263672,323.853882 4340.694824,322.941071 
	C4335.951660,310.254150 4331.217773,297.608093 4326.496094,284.957581 
	C4318.148438,262.594788 4309.871582,240.205475 4301.444824,217.872482 
	C4294.767090,200.175308 4287.894043,182.552078 4281.146973,164.880783 
	C4279.890625,161.590256 4278.411621,159.043533 4274.167969,159.083649 
	C4258.938477,159.227524 4243.707031,159.140045 4228.049805,159.140045 
	C4207.247070,214.139542 4186.666504,268.551880 4165.339844,324.935547 
	C4182.792480,325.269287 4198.808594,325.313751 4214.990234,324.926300 
	C4218.071777,316.404114 4221.182617,308.741425 4223.558105,300.857178 
	C4224.872070,296.496246 4227.227539,295.073090 4231.461914,295.104858 
	C4246.109375,295.214630 4260.758789,295.243011 4275.405762,295.096344 
	C4279.759766,295.052704 4282.209961,296.944122 4283.538086,300.890808 
	C4285.760742,307.494843 4288.075195,314.068085 4291.109863,322.080231 
M4408.338867,250.998444 
	C4408.338867,241.678513 4408.325684,232.358551 4408.343262,223.038651 
	C4408.360840,213.519821 4408.407715,204.001053 4408.445312,193.567673 
	C4416.397949,193.567673 4422.903320,193.567673 4429.813965,193.567673 
	C4429.813965,181.776611 4429.813965,170.971771 4429.813965,160.298920 
	C4417.942383,158.260864 4349.985352,158.721085 4342.891113,160.769028 
	C4342.891113,171.611969 4342.891113,182.454910 4342.891113,194.337952 
	C4349.923340,194.337952 4356.407715,194.337952 4363.099609,194.337952 
	C4363.099609,226.199631 4363.099609,257.008911 4363.099609,288.606079 
	C4356.093750,288.952820 4349.594727,289.274536 4342.311523,289.635010 
	C4342.311523,296.051910 4342.311523,301.656158 4342.311523,307.260437 
	C4342.311523,312.787567 4342.311523,318.314667 4342.311523,323.527435 
	C4353.081543,325.978424 4422.265137,325.650543 4429.690430,323.362579 
	C4429.690430,312.294067 4429.690430,301.207642 4429.690430,289.648346 
	C4422.374023,289.251190 4415.860352,288.897644 4408.338867,288.489380 
	C4408.338867,276.162170 4408.338867,264.579559 4408.338867,250.998444 
z"/>
<path fill="#000000" opacity="1.000000" stroke="none" 
	d="
M2277.906250,599.748047 
	C2302.656250,584.390442 2329.076660,577.752136 2357.334717,578.135803 
	C2364.957520,578.239319 2372.653809,578.355896 2380.176514,579.437439 
	C2409.453857,583.646301 2416.090576,605.301697 2403.561035,629.489014 
	C2399.422607,637.478027 2392.547607,644.706055 2385.397461,650.346924 
	C2368.547363,663.640137 2348.796875,670.926025 2327.335938,671.604065 
	C2313.451904,672.042847 2299.446045,670.772156 2285.593994,669.319946 
	C2276.496094,668.366150 2268.308838,664.065369 2262.487793,656.762390 
	C2253.058350,644.932007 2253.328613,626.176147 2263.159912,614.184448 
	C2267.347656,609.076416 2272.569824,604.816284 2277.906250,599.748047 
z"/>
<path fill="#000000" opacity="1.000000" stroke="none" 
	d="
M739.232422,569.321289 
	C710.246643,569.323486 682.510803,566.464478 655.685425,557.738831 
	C650.084778,555.917175 644.726379,552.791260 639.872559,549.387573 
	C634.833252,545.853821 631.930054,540.666565 631.929993,534.064392 
	C631.929932,520.398254 637.498230,509.388123 648.183899,501.317993 
	C667.264343,486.907867 688.899353,478.860138 712.851501,477.867859 
	C724.152100,477.399750 735.535767,477.339508 746.806274,478.147186 
	C760.854553,479.153870 774.156433,482.576599 785.820679,491.568817 
	C798.188538,501.103607 802.852966,513.584717 801.474426,528.329529 
	C800.019287,543.893250 791.144165,554.451599 776.880859,560.876465 
	C765.137817,566.166077 752.791504,568.239746 739.232422,569.321289 
z"/>
<path fill="#000000" opacity="1.000000" stroke="none" 
	d="
M1500.759521,544.544922 
	C1494.633789,530.683289 1498.156860,518.593201 1506.994751,508.759491 
	C1513.297485,501.746765 1521.459717,495.877808 1529.791138,491.327911 
	C1546.030640,482.459229 1563.674194,477.643524 1582.403442,477.699554 
	C1591.061035,477.725464 1599.721680,477.594055 1608.375610,477.780731 
	C1624.430420,478.127075 1639.021973,482.633453 1652.029663,492.470978 
	C1666.092896,503.106720 1670.797974,521.375061 1664.823975,537.824402 
	C1658.791016,554.435730 1645.345825,561.249573 1630.426880,565.143250 
	C1615.397705,569.065735 1599.881714,570.329895 1583.984863,568.786316 
	C1567.069946,567.143921 1550.220703,565.725769 1533.707520,561.569153 
	C1521.650513,558.534241 1510.202148,554.275330 1500.759521,544.544922 
z"/>
<path fill="#5CB29D" opacity="1.000000" stroke="none" 
	d="
M4290.730469,321.367279 
	C4288.075195,314.068085 4285.760742,307.494843 4283.538086,300.890808 
	C4282.209961,296.944122 4279.759766,295.052704 4275.405762,295.096344 
	C4260.758789,295.243011 4246.109375,295.214630 4231.461914,295.104858 
	C4227.227539,295.073090 4224.872070,296.496246 4223.558105,300.857178 
	C4221.182617,308.741425 4218.071777,316.404114 4214.990234,324.926300 
	C4198.808594,325.313751 4182.792480,325.269287 4165.339844,324.935547 
	C4186.666504,268.551880 4207.247070,214.139542 4228.049805,159.140045 
	C4243.707031,159.140045 4258.938477,159.227524 4274.167969,159.083649 
	C4278.411621,159.043533 4279.890625,161.590256 4281.146973,164.880783 
	C4287.894043,182.552078 4294.767090,200.175308 4301.444824,217.872482 
	C4309.871582,240.205475 4318.148438,262.594788 4326.496094,284.957581 
	C4331.217773,297.608093 4335.951660,310.254150 4340.694824,322.941071 
	C4339.263672,323.853882 4338.473633,324.793823 4337.672852,324.803192 
	C4323.698242,324.966949 4309.721191,325.111786 4295.747559,324.957977 
	C4294.191406,324.940857 4292.655273,323.083954 4290.730469,321.367279 
M4249.439941,224.920456 
	C4245.533203,236.984558 4241.625977,249.048676 4237.561035,261.601257 
	C4248.993164,261.601257 4258.865234,261.601257 4269.661621,261.601257 
	C4264.367676,246.179474 4259.851074,231.262787 4253.633301,215.327942 
	C4251.897949,219.318756 4250.971680,221.448730 4249.439941,224.920456 
z"/>
<path fill="#5DB39E" opacity="1.000000" stroke="none" 
	d="
M4408.338867,251.997696 
	C4408.338867,264.579559 4408.338867,276.162170 4408.338867,288.489380 
	C4415.860352,288.897644 4422.374023,289.251190 4429.690430,289.648346 
	C4429.690430,301.207642 4429.690430,312.294067 4429.690430,323.362579 
	C4422.265137,325.650543 4353.081543,325.978424 4342.311523,323.527435 
	C4342.311523,318.314667 4342.311523,312.787567 4342.311523,307.260437 
	C4342.311523,301.656158 4342.311523,296.051910 4342.311523,289.635010 
	C4349.594727,289.274536 4356.093750,288.952820 4363.099609,288.606079 
	C4363.099609,257.008911 4363.099609,226.199631 4363.099609,194.337952 
	C4356.407715,194.337952 4349.923340,194.337952 4342.891113,194.337952 
	C4342.891113,182.454910 4342.891113,171.611969 4342.894043,160.763550 
	C4349.985352,158.721085 4417.942383,158.260864 4429.813965,160.298920 
	C4429.813965,170.971771 4429.813965,181.776611 4429.813965,193.567673 
	C4422.903320,193.567673 4416.397949,193.567673 4408.445312,193.567673 
	C4408.407715,204.001053 4408.360840,213.519821 4408.343262,223.038651 
	C4408.325684,232.358551 4408.338867,241.678513 4408.338867,251.997696 
z"/>
<path fill="#040606" opacity="1.000000" stroke="none" 
	d="
M4249.742676,224.249573 
	C4250.971680,221.448730 4251.897949,219.318756 4253.633301,215.327942 
	C4259.851074,231.262787 4264.367676,246.179474 4269.661621,261.601257 
	C4258.865234,261.601257 4248.993164,261.601257 4237.561035,261.601257 
	C4241.625977,249.048676 4245.533203,236.984558 4249.742676,224.249573 
z"/>
</svg>