<svg xmlns="http://www.w3.org/2000/svg" xmlns:xlink="http://www.w3.org/1999/xlink" width="150" zoomAndPan="magnify" viewBox="0 0 112.5 30.000001" height="40" preserveAspectRatio="xMidYMid meet" version="1.0"><defs><g/><clipPath id="3653b272bc"><path d="M 93 6 L 108 6 L 108 23.667969 L 93 23.667969 Z M 93 6 " clip-rule="nonzero"/></clipPath></defs><g clip-path="url(#3653b272bc)"><path fill="#33b79f" d="M 106.160156 8.222656 C 101.042969 4.082031 93.839844 7.949219 94.753906 12.984375 C 94.648438 13.238281 93.648438 14.59375 93.1875 15.882812 C 93.078125 16.289062 92.925781 16.554688 93.535156 16.648438 C 94.144531 16.738281 94.535156 16.648438 94.207031 17.867188 C 94.199219 18.136719 94.511719 18.359375 94.511719 18.359375 C 94.511719 18.359375 94.257812 18.453125 94.296875 18.695312 C 94.339844 18.933594 94.875 18.695312 94.664062 19.914062 C 94.449219 21.136719 94.601562 21.195312 95.457031 21.320312 C 96.308594 21.441406 98.199219 21.105469 98.445312 21.441406 C 98.6875 21.777344 98.351562 23.210938 98.445312 23.460938 L 105.078125 23.460938 C 105.078125 23.460938 104.792969 19.957031 105.246094 18.816406 C 105.695312 17.675781 110.429688 12.160156 106.160156 8.222656 Z M 104.492188 15.863281 C 104.453125 15.863281 104.417969 15.859375 104.378906 15.855469 C 104.304688 15.84375 104.222656 15.871094 104.164062 15.914062 C 104.152344 15.921875 104.140625 15.933594 104.132812 15.9375 C 104.101562 15.964844 104.074219 16 104.058594 16.035156 C 103.9375 16.320312 103.90625 16.550781 103.824219 16.714844 C 103.707031 16.949219 103.324219 16.886719 103.296875 16.628906 C 103.253906 16.175781 103.53125 15.496094 103.3125 15.113281 C 103.023438 14.601562 102.414062 14.867188 102.253906 14.042969 C 102.234375 13.941406 102.222656 13.847656 102.214844 13.761719 C 102.210938 13.722656 102.199219 13.683594 102.175781 13.652344 C 102.074219 13.511719 102.011719 13.355469 101.988281 13.1875 C 101.96875 13.074219 101.871094 12.992188 101.746094 12.976562 C 101.59375 12.957031 101.445312 12.910156 101.304688 12.84375 C 101.226562 12.804688 101.132812 12.800781 101.054688 12.835938 C 100.6875 13 100.132812 13.152344 99.074219 12.875 C 99.039062 12.863281 99 12.863281 98.964844 12.863281 C 98.882812 12.871094 98.800781 12.875 98.714844 12.875 C 97.773438 12.875 96.988281 12.394531 96.820312 11.757812 C 96.808594 11.722656 96.800781 11.679688 96.769531 11.660156 C 96.085938 11.242188 96.113281 10.054688 96.785156 9.59375 C 96.785156 9.585938 96.785156 9.582031 96.785156 9.578125 C 96.785156 8.984375 97.3125 8.484375 98.050781 8.289062 C 98.101562 8.277344 98.144531 8.253906 98.179688 8.21875 C 98.53125 7.875 99.101562 7.648438 99.75 7.648438 C 99.863281 7.648438 99.976562 7.65625 100.082031 7.667969 C 100.140625 7.675781 100.195312 7.667969 100.246094 7.640625 C 100.558594 7.484375 100.941406 7.390625 101.355469 7.390625 C 101.773438 7.390625 102.164062 7.484375 102.480469 7.648438 C 102.535156 7.675781 102.597656 7.683594 102.65625 7.671875 C 102.90625 7.628906 103.179688 7.625 103.457031 7.660156 C 104.300781 7.777344 104.957031 8.265625 105.121094 8.839844 C 105.195312 8.90625 105.277344 8.980469 105.355469 9.046875 C 106.03125 9.179688 106.539062 9.726562 106.539062 10.390625 C 106.539062 10.453125 106.535156 10.519531 106.523438 10.582031 C 106.523438 10.585938 106.527344 10.585938 106.527344 10.589844 C 106.53125 10.59375 106.535156 10.597656 106.535156 10.597656 C 107.144531 11.230469 107.28125 12.0625 106.90625 12.601562 C 106.890625 12.628906 106.875 12.660156 106.867188 12.691406 C 106.867188 12.691406 106.867188 12.691406 106.867188 12.695312 C 106.859375 12.726562 106.859375 12.765625 106.867188 12.796875 C 106.875 12.824219 106.878906 12.855469 106.886719 12.882812 C 107.066406 13.847656 106.554688 14.734375 105.742188 14.863281 C 105.730469 14.867188 105.722656 14.867188 105.714844 14.867188 C 105.609375 14.882812 105.523438 14.945312 105.492188 15.039062 C 105.324219 15.527344 104.9375 15.863281 104.492188 15.863281 Z M 104.492188 15.863281 " fill-opacity="1" fill-rule="nonzero"/></g><path fill="#33b79f" d="M 100.195312 8.832031 L 99.070312 11.886719 L 99.863281 11.886719 L 100.078125 11.269531 L 101.203125 11.269531 L 101.417969 11.886719 L 102.226562 11.886719 L 101.101562 8.832031 Z M 100.265625 10.707031 L 100.640625 9.613281 L 101.015625 10.707031 Z M 100.265625 10.707031 " fill-opacity="1" fill-rule="nonzero"/><path fill="#33b79f" d="M 102.527344 9.375 L 103.027344 9.375 L 103.027344 11.34375 L 102.527344 11.34375 L 102.527344 11.886719 L 104.316406 11.886719 L 104.316406 11.34375 L 103.816406 11.34375 L 103.816406 9.375 L 104.316406 9.375 L 104.316406 8.832031 L 102.527344 8.832031 Z M 102.527344 9.375 " fill-opacity="1" fill-rule="nonzero"/><g fill="#000000" fill-opacity="1"><g transform="translate(2.031231, 20.639693)"><g><path d="M 5.34375 0.125 C 4.71875 0.125 4.101562 0.0078125 3.5 -0.21875 C 2.90625 -0.445312 2.367188 -0.800781 1.890625 -1.28125 C 1.410156 -1.769531 1.03125 -2.390625 0.75 -3.140625 C 0.476562 -3.890625 0.34375 -4.789062 0.34375 -5.84375 C 0.34375 -7.257812 0.601562 -8.476562 1.125 -9.5 C 1.65625 -10.53125 2.390625 -11.332031 3.328125 -11.90625 C 4.273438 -12.476562 5.351562 -12.765625 6.5625 -12.765625 C 7.289062 -12.765625 8.035156 -12.671875 8.796875 -12.484375 C 9.554688 -12.304688 10.191406 -12.09375 10.703125 -11.84375 C 10.953125 -11.675781 11.0625 -11.425781 11.03125 -11.09375 C 11.019531 -10.925781 10.992188 -10.695312 10.953125 -10.40625 C 10.921875 -10.113281 10.882812 -9.820312 10.84375 -9.53125 C 10.8125 -9.25 10.785156 -9.003906 10.765625 -8.796875 C 10.753906 -8.578125 10.671875 -8.457031 10.515625 -8.4375 C 10.359375 -8.414062 10.210938 -8.492188 10.078125 -8.671875 C 9.679688 -9.160156 9.210938 -9.566406 8.671875 -9.890625 C 8.140625 -10.222656 7.425781 -10.390625 6.53125 -10.390625 C 5.925781 -10.390625 5.363281 -10.21875 4.84375 -9.875 C 4.332031 -9.539062 3.921875 -9.039062 3.609375 -8.375 C 3.304688 -7.71875 3.15625 -6.90625 3.15625 -5.9375 C 3.15625 -5.03125 3.296875 -4.304688 3.578125 -3.765625 C 3.859375 -3.222656 4.234375 -2.835938 4.703125 -2.609375 C 5.179688 -2.378906 5.707031 -2.265625 6.28125 -2.265625 C 6.851562 -2.265625 7.347656 -2.390625 7.765625 -2.640625 C 8.179688 -2.890625 8.5 -3.21875 8.71875 -3.625 C 8.9375 -4.03125 9.046875 -4.472656 9.046875 -4.953125 C 9.046875 -5.390625 9 -5.726562 8.90625 -5.96875 C 8.820312 -6.21875 8.695312 -6.46875 8.53125 -6.71875 C 8.4375 -6.84375 8.414062 -6.972656 8.46875 -7.109375 C 8.519531 -7.253906 8.632812 -7.328125 8.8125 -7.328125 C 9.707031 -7.335938 10.597656 -7.335938 11.484375 -7.328125 C 11.765625 -7.328125 11.914062 -7.179688 11.9375 -6.890625 C 12.03125 -5.859375 12.109375 -4.816406 12.171875 -3.765625 C 12.242188 -2.722656 12.273438 -1.628906 12.265625 -0.484375 C 12.265625 -0.179688 12.117188 -0.015625 11.828125 0.015625 C 11.523438 0.0234375 11.191406 0.03125 10.828125 0.03125 C 10.472656 0.03125 10.070312 0.0195312 9.625 0 C 9.507812 -0.0078125 9.410156 -0.0546875 9.328125 -0.140625 C 9.242188 -0.222656 9.207031 -0.335938 9.21875 -0.484375 C 9.238281 -0.617188 9.257812 -0.769531 9.28125 -0.9375 C 9.3125 -1.113281 9.332031 -1.285156 9.34375 -1.453125 C 9.363281 -1.660156 9.316406 -1.773438 9.203125 -1.796875 C 9.085938 -1.816406 8.988281 -1.738281 8.90625 -1.5625 C 8.507812 -0.957031 8.023438 -0.523438 7.453125 -0.265625 C 6.878906 -0.00390625 6.175781 0.125 5.34375 0.125 Z M 5.34375 0.125 "/></g></g></g><g fill="#000000" fill-opacity="1"><g transform="translate(14.72005, 20.639693)"><g><path d="M 5.578125 0.140625 C 4.515625 0.140625 3.585938 -0.0546875 2.796875 -0.453125 C 2.015625 -0.859375 1.40625 -1.445312 0.96875 -2.21875 C 0.539062 -2.988281 0.328125 -3.921875 0.328125 -5.015625 C 0.328125 -6.066406 0.53125 -6.957031 0.9375 -7.6875 C 1.351562 -8.425781 1.921875 -8.988281 2.640625 -9.375 C 3.367188 -9.757812 4.191406 -9.953125 5.109375 -9.953125 C 6.378906 -9.953125 7.40625 -9.664062 8.1875 -9.09375 C 8.976562 -8.519531 9.375 -7.679688 9.375 -6.578125 C 9.375 -5.992188 9.210938 -5.472656 8.890625 -5.015625 C 8.578125 -4.566406 8.160156 -4.21875 7.640625 -3.96875 C 7.117188 -3.726562 6.554688 -3.609375 5.953125 -3.609375 C 5.460938 -3.609375 4.984375 -3.648438 4.515625 -3.734375 C 4.054688 -3.816406 3.648438 -3.953125 3.296875 -4.140625 C 3.117188 -4.265625 2.988281 -4.273438 2.90625 -4.171875 C 2.820312 -4.066406 2.835938 -3.929688 2.953125 -3.765625 C 3.097656 -3.429688 3.328125 -3.128906 3.640625 -2.859375 C 3.960938 -2.597656 4.328125 -2.390625 4.734375 -2.234375 C 5.148438 -2.085938 5.5625 -2.015625 5.96875 -2.015625 C 6.4375 -2.015625 6.9375 -2.113281 7.46875 -2.3125 C 8 -2.519531 8.429688 -2.78125 8.765625 -3.09375 C 8.898438 -3.269531 9.039062 -3.328125 9.1875 -3.265625 C 9.332031 -3.210938 9.414062 -3.066406 9.4375 -2.828125 C 9.457031 -2.566406 9.46875 -2.296875 9.46875 -2.015625 C 9.476562 -1.742188 9.488281 -1.472656 9.5 -1.203125 C 9.5 -0.972656 9.421875 -0.8125 9.265625 -0.71875 C 8.816406 -0.414062 8.25 -0.195312 7.5625 -0.0625 C 6.875 0.0703125 6.210938 0.140625 5.578125 0.140625 Z M 5.25 -5 C 5.757812 -5 6.164062 -5.125 6.46875 -5.375 C 6.769531 -5.632812 6.921875 -5.988281 6.921875 -6.4375 C 6.921875 -6.90625 6.78125 -7.269531 6.5 -7.53125 C 6.226562 -7.800781 5.773438 -7.9375 5.140625 -7.9375 C 4.773438 -7.9375 4.414062 -7.859375 4.0625 -7.703125 C 3.71875 -7.554688 3.4375 -7.34375 3.21875 -7.0625 C 3 -6.789062 2.890625 -6.457031 2.890625 -6.0625 C 2.890625 -5.820312 3.019531 -5.617188 3.28125 -5.453125 C 3.539062 -5.296875 3.851562 -5.179688 4.21875 -5.109375 C 4.59375 -5.035156 4.9375 -5 5.25 -5 Z M 5.25 -5 "/></g></g></g><g fill="#000000" fill-opacity="1"><g transform="translate(24.561096, 20.639693)"><g><path d="M 1.890625 0.078125 C 1.734375 0.078125 1.554688 0.0664062 1.359375 0.046875 C 1.171875 0.0351562 1.003906 0.0195312 0.859375 0 C 0.753906 -0.0195312 0.660156 -0.0703125 0.578125 -0.15625 C 0.492188 -0.238281 0.457031 -0.359375 0.46875 -0.515625 C 0.46875 -1.609375 0.46875 -2.554688 0.46875 -3.359375 C 0.476562 -4.171875 0.492188 -4.898438 0.515625 -5.546875 C 0.546875 -6.203125 0.578125 -6.828125 0.609375 -7.421875 C 0.648438 -8.023438 0.707031 -8.664062 0.78125 -9.34375 C 0.8125 -9.613281 0.941406 -9.769531 1.171875 -9.8125 C 1.304688 -9.832031 1.453125 -9.847656 1.609375 -9.859375 C 1.765625 -9.867188 1.921875 -9.875 2.078125 -9.875 C 2.242188 -9.875 2.410156 -9.867188 2.578125 -9.859375 C 2.742188 -9.847656 2.910156 -9.832031 3.078125 -9.8125 C 3.203125 -9.800781 3.300781 -9.75 3.375 -9.65625 C 3.457031 -9.5625 3.476562 -9.453125 3.4375 -9.328125 C 3.394531 -9.171875 3.359375 -9.015625 3.328125 -8.859375 C 3.296875 -8.703125 3.273438 -8.5625 3.265625 -8.4375 C 3.253906 -8.226562 3.285156 -8.113281 3.359375 -8.09375 C 3.441406 -8.082031 3.535156 -8.160156 3.640625 -8.328125 C 4.054688 -8.910156 4.507812 -9.328125 5 -9.578125 C 5.488281 -9.828125 6.046875 -9.953125 6.671875 -9.953125 C 7.398438 -9.953125 8.050781 -9.757812 8.625 -9.375 C 9.195312 -8.988281 9.65625 -8.4375 10 -7.71875 C 10.34375 -7.007812 10.53125 -6.160156 10.5625 -5.171875 C 10.59375 -4.703125 10.613281 -4.25 10.625 -3.8125 C 10.644531 -3.375 10.660156 -2.894531 10.671875 -2.375 C 10.679688 -1.851562 10.6875 -1.234375 10.6875 -0.515625 C 10.6875 -0.359375 10.644531 -0.238281 10.5625 -0.15625 C 10.488281 -0.0703125 10.390625 -0.0195312 10.265625 0 C 10.117188 0.0195312 9.945312 0.0351562 9.75 0.046875 C 9.5625 0.0664062 9.421875 0.078125 9.328125 0.078125 C 9.210938 0.078125 9.046875 0.0664062 8.828125 0.046875 C 8.609375 0.0351562 8.410156 0.0195312 8.234375 0 C 8.117188 -0.0195312 8.015625 -0.0703125 7.921875 -0.15625 C 7.835938 -0.238281 7.800781 -0.351562 7.8125 -0.5 C 7.851562 -0.925781 7.882812 -1.382812 7.90625 -1.875 C 7.9375 -2.375 7.957031 -2.859375 7.96875 -3.328125 C 7.976562 -3.796875 7.976562 -4.191406 7.96875 -4.515625 C 7.957031 -5.472656 7.734375 -6.234375 7.296875 -6.796875 C 6.867188 -7.367188 6.285156 -7.65625 5.546875 -7.65625 C 4.859375 -7.65625 4.285156 -7.367188 3.828125 -6.796875 C 3.378906 -6.222656 3.15625 -5.445312 3.15625 -4.46875 C 3.164062 -3.957031 3.179688 -3.335938 3.203125 -2.609375 C 3.234375 -1.878906 3.289062 -1.175781 3.375 -0.5 C 3.394531 -0.351562 3.359375 -0.238281 3.265625 -0.15625 C 3.179688 -0.0703125 3.078125 -0.0195312 2.953125 0 C 2.828125 0.0195312 2.65625 0.0351562 2.4375 0.046875 C 2.21875 0.0664062 2.035156 0.078125 1.890625 0.078125 Z M 1.890625 0.078125 "/></g></g></g><g fill="#000000" fill-opacity="1"><g transform="translate(35.663814, 20.639693)"><g><path d="M 5.578125 0.140625 C 4.515625 0.140625 3.585938 -0.0546875 2.796875 -0.453125 C 2.015625 -0.859375 1.40625 -1.445312 0.96875 -2.21875 C 0.539062 -2.988281 0.328125 -3.921875 0.328125 -5.015625 C 0.328125 -6.066406 0.53125 -6.957031 0.9375 -7.6875 C 1.351562 -8.425781 1.921875 -8.988281 2.640625 -9.375 C 3.367188 -9.757812 4.191406 -9.953125 5.109375 -9.953125 C 6.378906 -9.953125 7.40625 -9.664062 8.1875 -9.09375 C 8.976562 -8.519531 9.375 -7.679688 9.375 -6.578125 C 9.375 -5.992188 9.210938 -5.472656 8.890625 -5.015625 C 8.578125 -4.566406 8.160156 -4.21875 7.640625 -3.96875 C 7.117188 -3.726562 6.554688 -3.609375 5.953125 -3.609375 C 5.460938 -3.609375 4.984375 -3.648438 4.515625 -3.734375 C 4.054688 -3.816406 3.648438 -3.953125 3.296875 -4.140625 C 3.117188 -4.265625 2.988281 -4.273438 2.90625 -4.171875 C 2.820312 -4.066406 2.835938 -3.929688 2.953125 -3.765625 C 3.097656 -3.429688 3.328125 -3.128906 3.640625 -2.859375 C 3.960938 -2.597656 4.328125 -2.390625 4.734375 -2.234375 C 5.148438 -2.085938 5.5625 -2.015625 5.96875 -2.015625 C 6.4375 -2.015625 6.9375 -2.113281 7.46875 -2.3125 C 8 -2.519531 8.429688 -2.78125 8.765625 -3.09375 C 8.898438 -3.269531 9.039062 -3.328125 9.1875 -3.265625 C 9.332031 -3.210938 9.414062 -3.066406 9.4375 -2.828125 C 9.457031 -2.566406 9.46875 -2.296875 9.46875 -2.015625 C 9.476562 -1.742188 9.488281 -1.472656 9.5 -1.203125 C 9.5 -0.972656 9.421875 -0.8125 9.265625 -0.71875 C 8.816406 -0.414062 8.25 -0.195312 7.5625 -0.0625 C 6.875 0.0703125 6.210938 0.140625 5.578125 0.140625 Z M 5.25 -5 C 5.757812 -5 6.164062 -5.125 6.46875 -5.375 C 6.769531 -5.632812 6.921875 -5.988281 6.921875 -6.4375 C 6.921875 -6.90625 6.78125 -7.269531 6.5 -7.53125 C 6.226562 -7.800781 5.773438 -7.9375 5.140625 -7.9375 C 4.773438 -7.9375 4.414062 -7.859375 4.0625 -7.703125 C 3.71875 -7.554688 3.4375 -7.34375 3.21875 -7.0625 C 3 -6.789062 2.890625 -6.457031 2.890625 -6.0625 C 2.890625 -5.820312 3.019531 -5.617188 3.28125 -5.453125 C 3.539062 -5.296875 3.851562 -5.179688 4.21875 -5.109375 C 4.59375 -5.035156 4.9375 -5 5.25 -5 Z M 5.25 -5 "/></g></g></g><g fill="#000000" fill-opacity="1"><g transform="translate(45.504861, 20.639693)"><g><path d="M 1.84375 0.078125 C 1.738281 0.078125 1.582031 0.0664062 1.375 0.046875 C 1.175781 0.0351562 1 0.0195312 0.84375 0 C 0.738281 -0.0195312 0.644531 -0.0703125 0.5625 -0.15625 C 0.488281 -0.238281 0.453125 -0.351562 0.453125 -0.5 C 0.453125 -1.550781 0.453125 -2.476562 0.453125 -3.28125 C 0.460938 -4.082031 0.472656 -4.816406 0.484375 -5.484375 C 0.492188 -6.148438 0.515625 -6.789062 0.546875 -7.40625 C 0.578125 -8.03125 0.617188 -8.679688 0.671875 -9.359375 C 0.703125 -9.617188 0.832031 -9.769531 1.0625 -9.8125 C 1.195312 -9.832031 1.351562 -9.847656 1.53125 -9.859375 C 1.707031 -9.867188 1.875 -9.875 2.03125 -9.875 C 2.175781 -9.875 2.359375 -9.867188 2.578125 -9.859375 C 2.796875 -9.847656 2.957031 -9.832031 3.0625 -9.8125 C 3.207031 -9.78125 3.316406 -9.71875 3.390625 -9.625 C 3.472656 -9.539062 3.5 -9.441406 3.46875 -9.328125 C 3.40625 -9.097656 3.351562 -8.890625 3.3125 -8.703125 C 3.269531 -8.523438 3.25 -8.316406 3.25 -8.078125 C 3.25 -7.898438 3.296875 -7.796875 3.390625 -7.765625 C 3.484375 -7.734375 3.566406 -7.8125 3.640625 -8 C 3.929688 -8.6875 4.34375 -9.179688 4.875 -9.484375 C 5.414062 -9.785156 6.015625 -9.9375 6.671875 -9.9375 C 6.953125 -9.9375 7.238281 -9.898438 7.53125 -9.828125 C 7.832031 -9.765625 8.082031 -9.679688 8.28125 -9.578125 C 8.519531 -9.441406 8.640625 -9.253906 8.640625 -9.015625 C 8.640625 -8.640625 8.632812 -8.289062 8.625 -7.96875 C 8.625 -7.65625 8.609375 -7.304688 8.578125 -6.921875 C 8.566406 -6.691406 8.472656 -6.550781 8.296875 -6.5 C 8.128906 -6.457031 7.976562 -6.507812 7.84375 -6.65625 C 7.519531 -6.925781 7.179688 -7.113281 6.828125 -7.21875 C 6.472656 -7.320312 6.113281 -7.375 5.75 -7.375 C 5.300781 -7.375 4.878906 -7.25 4.484375 -7 C 4.097656 -6.757812 3.785156 -6.40625 3.546875 -5.9375 C 3.304688 -5.476562 3.1875 -4.921875 3.1875 -4.265625 C 3.1875 -3.816406 3.203125 -3.347656 3.234375 -2.859375 C 3.265625 -2.367188 3.296875 -1.914062 3.328125 -1.5 C 3.367188 -1.09375 3.394531 -0.757812 3.40625 -0.5 C 3.414062 -0.34375 3.375 -0.222656 3.28125 -0.140625 C 3.195312 -0.0546875 3.101562 -0.00390625 3 0.015625 C 2.863281 0.0234375 2.679688 0.0351562 2.453125 0.046875 C 2.234375 0.0664062 2.03125 0.078125 1.84375 0.078125 Z M 1.84375 0.078125 "/></g></g></g><g fill="#000000" fill-opacity="1"><g transform="translate(54.444707, 20.639693)"><g><path d="M 3.375 0.140625 C 2.457031 0.140625 1.71875 -0.0703125 1.15625 -0.5 C 0.601562 -0.9375 0.328125 -1.664062 0.328125 -2.6875 C 0.328125 -3.582031 0.644531 -4.289062 1.28125 -4.8125 C 1.925781 -5.34375 2.816406 -5.703125 3.953125 -5.890625 C 4.984375 -6.035156 5.707031 -6.179688 6.125 -6.328125 C 6.550781 -6.484375 6.765625 -6.722656 6.765625 -7.046875 C 6.765625 -7.242188 6.628906 -7.425781 6.359375 -7.59375 C 6.097656 -7.757812 5.648438 -7.84375 5.015625 -7.84375 C 4.472656 -7.84375 3.910156 -7.757812 3.328125 -7.59375 C 2.753906 -7.425781 2.253906 -7.148438 1.828125 -6.765625 C 1.691406 -6.566406 1.535156 -6.507812 1.359375 -6.59375 C 1.179688 -6.675781 1.101562 -6.851562 1.125 -7.125 C 1.132812 -7.257812 1.148438 -7.441406 1.171875 -7.671875 C 1.191406 -7.910156 1.21875 -8.148438 1.25 -8.390625 C 1.28125 -8.628906 1.300781 -8.804688 1.3125 -8.921875 C 1.351562 -9.210938 1.472656 -9.398438 1.671875 -9.484375 C 2.671875 -9.796875 3.753906 -9.953125 4.921875 -9.953125 C 6.304688 -9.953125 7.378906 -9.65625 8.140625 -9.0625 C 8.898438 -8.46875 9.34375 -7.515625 9.46875 -6.203125 C 9.5 -5.742188 9.53125 -5.175781 9.5625 -4.5 C 9.601562 -3.832031 9.640625 -3.148438 9.671875 -2.453125 C 9.710938 -1.753906 9.742188 -1.128906 9.765625 -0.578125 C 9.765625 -0.265625 9.597656 -0.078125 9.265625 -0.015625 C 9.148438 0.015625 9 0.0351562 8.8125 0.046875 C 8.632812 0.0664062 8.460938 0.078125 8.296875 0.078125 C 8.148438 0.078125 7.960938 0.0664062 7.734375 0.046875 C 7.515625 0.0351562 7.332031 0.015625 7.1875 -0.015625 C 7.03125 -0.0351562 6.90625 -0.101562 6.8125 -0.21875 C 6.71875 -0.332031 6.679688 -0.46875 6.703125 -0.625 C 6.734375 -0.75 6.757812 -0.90625 6.78125 -1.09375 C 6.8125 -1.289062 6.835938 -1.484375 6.859375 -1.671875 C 6.878906 -1.835938 6.835938 -1.9375 6.734375 -1.96875 C 6.628906 -2 6.539062 -1.9375 6.46875 -1.78125 C 6.195312 -1.195312 5.769531 -0.726562 5.1875 -0.375 C 4.613281 -0.03125 4.007812 0.140625 3.375 0.140625 Z M 4.59375 -2.09375 C 4.894531 -2.09375 5.210938 -2.171875 5.546875 -2.328125 C 5.878906 -2.484375 6.15625 -2.707031 6.375 -3 C 6.601562 -3.289062 6.71875 -3.648438 6.71875 -4.078125 C 6.71875 -4.367188 6.628906 -4.601562 6.453125 -4.78125 C 6.285156 -4.96875 5.992188 -5.0625 5.578125 -5.0625 C 5.148438 -5.0625 4.742188 -4.984375 4.359375 -4.828125 C 3.972656 -4.671875 3.660156 -4.457031 3.421875 -4.1875 C 3.179688 -3.914062 3.0625 -3.597656 3.0625 -3.234375 C 3.0625 -2.816406 3.179688 -2.519531 3.421875 -2.34375 C 3.660156 -2.175781 4.050781 -2.09375 4.59375 -2.09375 Z M 4.59375 -2.09375 "/></g></g></g><g fill="#000000" fill-opacity="1"><g transform="translate(64.628204, 20.639693)"><g><path d="M 5.5 0.140625 C 4.882812 0.140625 4.328125 0.0195312 3.828125 -0.21875 C 3.328125 -0.457031 2.929688 -0.816406 2.640625 -1.296875 C 2.347656 -1.773438 2.195312 -2.367188 2.1875 -3.078125 C 2.1875 -3.503906 2.191406 -3.976562 2.203125 -4.5 C 2.210938 -5.03125 2.226562 -5.566406 2.25 -6.109375 C 2.28125 -6.660156 2.316406 -7.1875 2.359375 -7.6875 C 2.367188 -7.78125 2.335938 -7.851562 2.265625 -7.90625 C 2.191406 -7.96875 2.113281 -8 2.03125 -8 C 1.820312 -8 1.601562 -8 1.375 -8 C 1.144531 -8 0.921875 -7.992188 0.703125 -7.984375 C 0.566406 -7.972656 0.453125 -8.019531 0.359375 -8.125 C 0.265625 -8.226562 0.21875 -8.34375 0.21875 -8.46875 L 0.21875 -9.328125 C 0.21875 -9.453125 0.265625 -9.5625 0.359375 -9.65625 C 0.453125 -9.757812 0.566406 -9.8125 0.703125 -9.8125 L 2.03125 -9.8125 C 2.25 -9.8125 2.359375 -9.925781 2.359375 -10.15625 C 2.359375 -10.382812 2.363281 -10.617188 2.375 -10.859375 C 2.382812 -11.109375 2.40625 -11.347656 2.4375 -11.578125 C 2.46875 -11.878906 2.617188 -12.046875 2.890625 -12.078125 C 3.046875 -12.097656 3.195312 -12.113281 3.34375 -12.125 C 3.488281 -12.144531 3.632812 -12.15625 3.78125 -12.15625 C 3.9375 -12.15625 4.085938 -12.144531 4.234375 -12.125 C 4.378906 -12.113281 4.53125 -12.097656 4.6875 -12.078125 C 4.8125 -12.066406 4.921875 -12.015625 5.015625 -11.921875 C 5.109375 -11.835938 5.144531 -11.722656 5.125 -11.578125 C 5.113281 -11.335938 5.09375 -11.101562 5.0625 -10.875 C 5.03125 -10.65625 5.015625 -10.421875 5.015625 -10.171875 C 5.015625 -9.929688 5.125 -9.8125 5.34375 -9.8125 C 5.726562 -9.8125 6.164062 -9.8125 6.65625 -9.8125 C 7.15625 -9.820312 7.59375 -9.832031 7.96875 -9.84375 C 8.101562 -9.84375 8.21875 -9.796875 8.3125 -9.703125 C 8.40625 -9.609375 8.453125 -9.492188 8.453125 -9.359375 L 8.453125 -8.390625 C 8.453125 -8.253906 8.40625 -8.132812 8.3125 -8.03125 C 8.21875 -7.925781 8.101562 -7.878906 7.96875 -7.890625 C 7.8125 -7.921875 7.578125 -7.941406 7.265625 -7.953125 C 6.953125 -7.960938 6.640625 -7.972656 6.328125 -7.984375 C 6.015625 -7.992188 5.773438 -7.992188 5.609375 -7.984375 C 5.171875 -7.984375 4.925781 -7.765625 4.875 -7.328125 C 4.820312 -6.703125 4.796875 -6.03125 4.796875 -5.3125 C 4.796875 -4.601562 4.800781 -3.988281 4.8125 -3.46875 C 4.832031 -3 4.960938 -2.660156 5.203125 -2.453125 C 5.453125 -2.253906 5.75 -2.15625 6.09375 -2.15625 C 6.238281 -2.15625 6.4375 -2.179688 6.6875 -2.234375 C 6.9375 -2.296875 7.1875 -2.363281 7.4375 -2.4375 C 7.6875 -2.519531 7.863281 -2.597656 7.96875 -2.671875 C 8.125 -2.835938 8.285156 -2.878906 8.453125 -2.796875 C 8.617188 -2.710938 8.695312 -2.546875 8.6875 -2.296875 C 8.6875 -2.023438 8.679688 -1.773438 8.671875 -1.546875 C 8.671875 -1.328125 8.671875 -1.097656 8.671875 -0.859375 C 8.660156 -0.585938 8.550781 -0.40625 8.34375 -0.3125 C 8.132812 -0.207031 7.847656 -0.117188 7.484375 -0.046875 C 7.128906 0.015625 6.769531 0.0625 6.40625 0.09375 C 6.050781 0.125 5.75 0.140625 5.5 0.140625 Z M 5.5 0.140625 "/></g></g></g><g fill="#000000" fill-opacity="1"><g transform="translate(73.532007, 20.639693)"><g><path d="M 1.984375 0.078125 C 1.847656 0.078125 1.671875 0.0664062 1.453125 0.046875 C 1.234375 0.0351562 1.050781 0.0195312 0.90625 0 C 0.632812 -0.0625 0.5 -0.226562 0.5 -0.5 C 0.5 -1.550781 0.503906 -2.640625 0.515625 -3.765625 C 0.535156 -4.890625 0.550781 -5.988281 0.5625 -7.0625 C 0.582031 -8.144531 0.613281 -9.15625 0.65625 -10.09375 C 0.695312 -11.039062 0.742188 -11.851562 0.796875 -12.53125 C 0.828125 -12.789062 0.976562 -12.941406 1.25 -12.984375 C 1.375 -13.003906 1.519531 -13.019531 1.6875 -13.03125 C 1.863281 -13.050781 2.019531 -13.0625 2.15625 -13.0625 C 2.332031 -13.0625 2.53125 -13.050781 2.75 -13.03125 C 2.976562 -13.019531 3.15625 -13.003906 3.28125 -12.984375 C 3.414062 -12.972656 3.519531 -12.914062 3.59375 -12.8125 C 3.675781 -12.707031 3.703125 -12.585938 3.671875 -12.453125 C 3.578125 -11.703125 3.492188 -10.816406 3.421875 -9.796875 C 3.359375 -8.785156 3.3125 -7.722656 3.28125 -6.609375 C 3.257812 -5.503906 3.253906 -4.421875 3.265625 -3.359375 C 3.285156 -2.304688 3.328125 -1.351562 3.390625 -0.5 C 3.398438 -0.351562 3.363281 -0.234375 3.28125 -0.140625 C 3.207031 -0.0546875 3.113281 -0.00390625 3 0.015625 C 2.851562 0.0234375 2.679688 0.0351562 2.484375 0.046875 C 2.285156 0.0664062 2.117188 0.078125 1.984375 0.078125 Z M 1.984375 0.078125 "/></g></g></g><g fill="#000000" fill-opacity="1"><g transform="translate(77.677508, 20.639693)"><g><path d="M 5.109375 4.296875 C 4.660156 4.296875 4.171875 4.28125 3.640625 4.25 C 3.117188 4.21875 2.609375 4.164062 2.109375 4.09375 C 1.609375 4.03125 1.164062 3.941406 0.78125 3.828125 C 0.488281 3.722656 0.351562 3.515625 0.375 3.203125 C 0.414062 2.890625 0.445312 2.554688 0.46875 2.203125 C 0.488281 1.859375 0.519531 1.539062 0.5625 1.25 C 0.582031 1.039062 0.664062 0.910156 0.8125 0.859375 C 0.96875 0.804688 1.113281 0.847656 1.25 0.984375 C 1.664062 1.265625 2.164062 1.484375 2.75 1.640625 C 3.34375 1.804688 3.921875 1.890625 4.484375 1.890625 C 5.140625 1.890625 5.726562 1.738281 6.25 1.4375 C 6.78125 1.132812 7.203125 0.75 7.515625 0.28125 C 7.828125 -0.1875 7.984375 -0.664062 7.984375 -1.15625 L 7.984375 -1.390625 C 7.984375 -1.585938 7.925781 -1.691406 7.8125 -1.703125 C 7.707031 -1.722656 7.625 -1.648438 7.5625 -1.484375 C 7.25 -0.859375 6.828125 -0.429688 6.296875 -0.203125 C 5.773438 0.0234375 5.179688 0.140625 4.515625 0.140625 C 3.597656 0.140625 2.847656 -0.0664062 2.265625 -0.484375 C 1.679688 -0.910156 1.25 -1.492188 0.96875 -2.234375 C 0.6875 -2.984375 0.546875 -3.847656 0.546875 -4.828125 C 0.546875 -5.296875 0.550781 -5.75 0.5625 -6.1875 C 0.582031 -6.632812 0.613281 -7.101562 0.65625 -7.59375 C 0.695312 -8.09375 0.742188 -8.660156 0.796875 -9.296875 C 0.828125 -9.585938 0.96875 -9.765625 1.21875 -9.828125 C 1.363281 -9.847656 1.523438 -9.863281 1.703125 -9.875 C 1.890625 -9.894531 2.03125 -9.90625 2.125 -9.90625 C 2.238281 -9.90625 2.414062 -9.894531 2.65625 -9.875 C 2.894531 -9.863281 3.097656 -9.847656 3.265625 -9.828125 C 3.378906 -9.804688 3.476562 -9.75 3.5625 -9.65625 C 3.65625 -9.570312 3.6875 -9.460938 3.65625 -9.328125 C 3.59375 -8.898438 3.53125 -8.445312 3.46875 -7.96875 C 3.40625 -7.5 3.351562 -7.039062 3.3125 -6.59375 C 3.269531 -6.15625 3.25 -5.757812 3.25 -5.40625 C 3.25 -4.4375 3.429688 -3.648438 3.796875 -3.046875 C 4.160156 -2.441406 4.757812 -2.140625 5.59375 -2.140625 C 6.25 -2.140625 6.757812 -2.457031 7.125 -3.09375 C 7.5 -3.738281 7.6875 -4.550781 7.6875 -5.53125 C 7.6875 -6.0625 7.65625 -6.65625 7.59375 -7.3125 C 7.539062 -7.976562 7.457031 -8.640625 7.34375 -9.296875 C 7.3125 -9.441406 7.335938 -9.5625 7.421875 -9.65625 C 7.515625 -9.75 7.613281 -9.804688 7.71875 -9.828125 C 7.851562 -9.847656 8.03125 -9.863281 8.25 -9.875 C 8.46875 -9.894531 8.65625 -9.90625 8.8125 -9.90625 C 8.976562 -9.90625 9.15625 -9.894531 9.34375 -9.875 C 9.53125 -9.863281 9.695312 -9.847656 9.84375 -9.828125 C 10.101562 -9.785156 10.25 -9.609375 10.28125 -9.296875 C 10.351562 -8.359375 10.410156 -7.523438 10.453125 -6.796875 C 10.492188 -6.066406 10.523438 -5.375 10.546875 -4.71875 C 10.566406 -4.070312 10.578125 -3.414062 10.578125 -2.75 C 10.578125 -2.09375 10.578125 -1.375 10.578125 -0.59375 C 10.578125 0.28125 10.425781 1.023438 10.125 1.640625 C 9.820312 2.265625 9.40625 2.769531 8.875 3.15625 C 8.351562 3.550781 7.765625 3.835938 7.109375 4.015625 C 6.453125 4.203125 5.785156 4.296875 5.109375 4.296875 Z M 5.109375 4.296875 "/></g></g></g></svg>