<?xml version="1.0" encoding="UTF-8" standalone="no"?>
<!DOCTYPE svg PUBLIC "-//W3C//DTD SVG 1.1//EN" "http://www.w3.org/Graphics/SVG/1.1/DTD/svg11.dtd">
<svg xmlns="http://www.w3.org/2000/svg" version="1.1" viewBox="0 0 2189 478" width="2189.0pt" height="478.0pt">
<path d="M 0.00 0.00 L 1990.45 0.00 C 1983.25 0.98 1976.12 0.57 1968.99 2.00 C 1959.15 3.95 1949.42 5.89 1939.80 8.79 C 1913.09 16.71 1888.40 30.95 1868.65 50.66 C 1844.16 75.10 1826.99 107.02 1818.56 140.48 C 1816.85 147.62 1814.95 155.66 1815.80 163.00 C 1816.41 168.09 1818.01 173.08 1820.43 177.58 C 1824.87 185.55 1825.42 195.65 1822.37 204.19 C 1820.07 210.94 1816.21 217.42 1812.47 223.46 C 1805.72 234.26 1798.15 244.89 1792.11 256.10 C 1789.99 260.26 1787.68 265.27 1787.81 270.00 C 1788.02 274.03 1790.45 277.10 1793.63 279.34 C 1799.32 283.21 1805.37 284.94 1811.57 287.46 C 1813.73 288.46 1816.50 289.93 1815.78 292.79 C 1814.32 298.11 1810.89 304.34 1811.74 310.05 C 1812.00 312.42 1815.10 313.76 1815.38 315.97 C 1814.91 320.46 1812.39 324.30 1814.09 328.92 C 1815.43 332.88 1820.03 334.53 1821.52 338.44 C 1822.95 341.99 1822.22 346.38 1821.39 350.01 C 1819.11 359.38 1815.94 369.34 1815.37 378.99 C 1815.06 385.16 1817.79 390.64 1822.81 394.21 C 1830.08 399.51 1840.41 401.30 1849.16 402.38 C 1867.00 404.65 1882.71 401.65 1900.01 406.87 C 1907.61 409.20 1914.61 413.08 1919.45 419.53 C 1924.09 425.78 1925.85 433.31 1925.94 441.00 C 1925.97 450.00 1925.94 459.00 1925.92 468.00 C 1926.00 470.00 1925.93 472.20 1927.00 473.97 C 1928.10 475.91 1929.90 476.82 1931.70 478.00 L 0.00 478.00 L 0.00 0.00 Z" fill="#fdfdfd" />
<path d="M 1990.45 0.00 L 2009.91 0.00 L 2010.75 0.07 C 2028.14 1.23 2045.33 3.94 2062.01 9.06 C 2088.55 17.09 2113.72 31.01 2134.04 49.95 C 2171.35 84.36 2191.99 136.39 2188.49 187.00 C 2186.38 216.13 2176.40 243.51 2161.43 268.42 C 2154.99 279.09 2147.78 289.29 2139.94 298.97 C 2133.21 307.63 2126.04 314.96 2120.62 324.62 C 2110.32 342.33 2106.20 362.64 2107.03 383.00 C 2107.16 410.99 2107.01 439.01 2107.10 467.00 C 2107.01 469.63 2107.17 472.32 2105.56 474.55 C 2104.40 476.22 2102.78 477.03 2101.06 478.00 L 1931.70 478.00 C 1929.90 476.82 1928.10 475.91 1927.00 473.97 C 1925.93 472.20 1926.00 470.00 1925.92 468.00 C 1925.94 459.00 1925.97 450.00 1925.94 441.00 C 1925.85 433.31 1924.09 425.78 1919.45 419.53 C 1914.61 413.08 1907.61 409.20 1900.01 406.87 C 1882.71 401.65 1867.00 404.65 1849.16 402.38 C 1840.41 401.30 1830.08 399.51 1822.81 394.21 C 1817.79 390.64 1815.06 385.16 1815.37 378.99 C 1815.94 369.34 1819.11 359.38 1821.39 350.01 C 1822.22 346.38 1822.95 341.99 1821.52 338.44 C 1820.03 334.53 1815.43 332.88 1814.09 328.92 C 1812.39 324.30 1814.91 320.46 1815.38 315.97 C 1815.10 313.76 1812.00 312.42 1811.74 310.05 C 1810.89 304.34 1814.32 298.11 1815.78 292.79 C 1816.50 289.93 1813.73 288.46 1811.57 287.46 C 1805.37 284.94 1799.32 283.21 1793.63 279.34 C 1790.45 277.10 1788.02 274.03 1787.81 270.00 C 1787.68 265.27 1789.99 260.26 1792.11 256.10 C 1798.15 244.89 1805.72 234.26 1812.47 223.46 C 1816.21 217.42 1820.07 210.94 1822.37 204.19 C 1825.42 195.65 1824.87 185.55 1820.43 177.58 C 1818.01 173.08 1816.41 168.09 1815.80 163.00 C 1814.95 155.66 1816.85 147.62 1818.56 140.48 C 1826.99 107.02 1844.16 75.10 1868.65 50.66 C 1888.40 30.95 1913.09 16.71 1939.80 8.79 C 1949.42 5.89 1959.15 3.95 1968.99 2.00 C 1976.12 0.57 1983.25 0.98 1990.45 0.00 Z" fill="#5eb5a0" />
<path d="M 2009.91 0.00 L 2189.00 0.00 L 2189.00 478.00 L 2101.06 478.00 C 2102.78 477.03 2104.40 476.22 2105.56 474.55 C 2107.17 472.32 2107.01 469.63 2107.10 467.00 C 2107.01 439.01 2107.16 410.99 2107.03 383.00 C 2106.20 362.64 2110.32 342.33 2120.62 324.62 C 2126.04 314.96 2133.21 307.63 2139.94 298.97 C 2147.78 289.29 2154.99 279.09 2161.43 268.42 C 2176.40 243.51 2186.38 216.13 2188.49 187.00 C 2191.99 136.39 2171.35 84.36 2134.04 49.95 C 2113.72 31.01 2088.55 17.09 2062.01 9.06 C 2045.33 3.94 2028.14 1.23 2010.75 0.07 L 2009.91 0.00 Z" fill="#fdfdfd" />
<path d="M 1982.02 26.26 C 1996.04 25.17 2009.63 29.64 2021.11 37.54 C 2033.23 32.47 2045.88 29.56 2058.85 33.35 C 2068.37 36.14 2075.67 42.64 2081.08 50.78 C 2092.03 49.94 2103.02 52.45 2111.82 59.19 C 2120.37 65.71 2125.65 75.68 2128.13 85.99 C 2128.55 87.80 2129.01 89.28 2130.42 90.58 C 2138.26 98.46 2143.56 108.95 2145.12 119.97 C 2146.67 129.91 2144.71 139.36 2141.61 148.77 C 2143.28 150.73 2144.82 152.75 2145.82 155.15 C 2149.00 162.60 2150.69 170.85 2148.70 178.86 C 2147.28 184.85 2143.20 188.97 2142.49 194.98 C 2143.24 199.35 2144.62 203.57 2145.11 207.99 C 2146.03 214.05 2145.09 219.84 2143.61 225.71 C 2141.30 234.41 2138.97 242.74 2134.77 250.76 C 2126.54 266.58 2115.05 278.34 2105.59 293.59 C 2101.74 298.88 2102.07 305.54 2100.09 312.01 C 2098.16 318.86 2095.41 325.20 2088.03 327.43 C 2085.29 326.08 2082.13 325.15 2081.07 321.94 C 2079.56 316.63 2083.16 310.36 2083.63 305.01 C 2084.26 299.34 2081.42 293.59 2079.79 288.20 C 2078.98 286.16 2078.68 283.56 2076.53 282.46 C 2072.44 280.01 2067.17 279.37 2062.85 277.18 C 2055.43 273.46 2049.81 266.25 2047.92 258.17 C 2047.26 254.77 2047.10 251.27 2046.57 247.84 C 2045.84 243.57 2046.46 239.77 2044.05 235.96 C 2037.21 223.91 2040.93 211.04 2034.81 199.19 C 2032.18 194.14 2027.90 189.82 2021.99 189.20 C 2014.15 188.30 2007.31 192.85 2000.00 194.81 C 1994.94 196.31 1990.19 195.86 1985.00 195.90 C 1981.25 195.89 1977.85 196.35 1974.18 195.76 C 1965.26 194.23 1955.93 192.30 1947.77 188.23 C 1941.41 185.06 1935.83 180.82 1932.84 174.17 C 1922.14 178.51 1910.58 181.06 1899.00 180.05 C 1890.38 179.27 1882.09 176.17 1875.50 170.49 C 1867.46 163.65 1862.31 153.59 1859.53 143.54 C 1856.16 131.35 1856.02 117.95 1861.28 106.26 C 1866.07 95.57 1874.54 87.40 1884.58 81.60 C 1886.24 80.48 1888.12 79.99 1888.62 77.84 C 1891.97 66.51 1899.29 56.34 1909.98 50.97 C 1919.09 46.32 1928.96 45.66 1938.98 46.81 C 1950.58 35.71 1965.85 27.53 1982.02 26.26 Z" fill="#fdfdfd" />
</svg>