<?xml version="1.0" encoding="utf-8"?>
<!-- Generator: Adobe Illustrator 27.3.1, SVG Export Plug-In . SVG Version: 6.00 Build 0)  -->
<svg version="1.1" id="Layer_1" xmlns="http://www.w3.org/2000/svg" xmlns:xlink="http://www.w3.org/1999/xlink" x="0px" y="0px"
	 viewBox="0 0 1080 1080" style="enable-background:new 0 0 1080 1080;" xml:space="preserve">
<style type="text/css">
	.st0{fill:#5EB5A0;}
	.st1{fill:#0C0C0C;}
	.st2{fill:#FFFFFF;}
	.st3{fill:#2D2D2D;}
	.st4{fill:#F2F2F2;}
</style>
<rect y="0" class="st2" width="1080" height="1080"/>
<g>
	<path class="st0" d="M793.45,523.51c-0.02-0.2-0.02-0.37-0.02-0.57c-0.04-0.48-0.09-0.96-0.13-1.43c-0.02-0.22-0.04-0.44-0.06-0.68
		c-0.07-0.45-0.13-0.93-0.22-1.39c-0.02-0.24-0.07-0.5-0.11-0.74c-0.07-0.45-0.17-0.93-0.28-1.41c-0.05-0.26-0.11-0.5-0.16-0.76
		c-0.13-0.52-0.26-1.02-0.41-1.55c-0.06-0.21-0.11-0.45-0.17-0.69c-0.24-0.74-0.48-1.5-0.74-2.26c-0.24-0.68-0.52-1.35-0.78-2
		c-0.09-0.2-0.18-0.39-0.26-0.59c-0.2-0.48-0.42-0.93-0.63-1.39c-0.09-0.2-0.2-0.41-0.29-0.61c-0.26-0.5-0.52-1.02-0.8-1.52
		c-0.07-0.11-0.11-0.22-0.18-0.3c-0.32-0.61-0.67-1.18-1.04-1.74c-0.11-0.18-0.22-0.33-0.33-0.5c-0.26-0.42-0.54-0.81-0.8-1.2
		c-0.15-0.17-0.28-0.37-0.41-0.56c-0.29-0.4-0.59-0.76-0.87-1.13c-0.13-0.16-0.24-0.31-0.37-0.46c-0.39-0.48-0.81-0.98-1.24-1.44
		c-0.15-0.15-0.28-0.3-0.44-0.45c-0.3-0.33-0.6-0.63-0.91-0.96c-0.17-0.17-0.37-0.37-0.56-0.54c-0.29-0.28-0.57-0.55-0.87-0.81
		c-0.2-0.17-0.39-0.34-0.59-0.52c-0.41-0.37-0.83-0.71-1.24-1.04c-0.24-0.2-0.5-0.39-0.74-0.57c-0.3-0.24-0.58-0.45-0.89-0.67
		c-0.26-0.17-0.52-0.37-0.78-0.54c-0.24-0.18-0.5-0.35-0.76-0.53c-0.29-0.17-0.57-0.34-0.85-0.54c-0.24-0.13-0.48-0.28-0.72-0.41
		c-0.58-0.35-1.17-0.68-1.76-1c-0.19-0.09-0.37-0.2-0.56-0.28c-0.35-0.2-0.7-0.37-1.07-0.55c-0.19-0.08-0.37-0.17-0.56-0.26
		c-0.37-0.17-0.76-0.35-1.13-0.5c-0.13-0.06-0.29-0.11-0.42-0.17c-1.34-0.57-2.71-1.07-4.13-1.48c-0.08-0.04-0.17-0.07-0.26-0.09
		c-0.45-0.15-0.93-0.28-1.41-0.41c-0.04,0-0.11-0.02-0.15-0.02c-5.5-1.46-11.26-1.94-16.94-1.42h-0.15c-1.61,0-3.17,0.35-4.74,0.7
		c-0.08,0.02-0.15,0.02-0.24,0.04c-0.34,0.07-0.69,0.16-1.04,0.22c-0.3,0.07-0.61,0.13-0.91,0.22c-0.29,0.06-0.59,0.13-0.87,0.22
		c-0.39,0.08-0.76,0.19-1.15,0.3c-0.22,0.07-0.44,0.13-0.68,0.2c-0.61,0.19-1.22,0.39-1.8,0.6c-3.83,1.35-7.11,3.13-9.94,5.18
		c-4.26,3.08-7.5,6.78-9.93,10.48c-2.44,3.71-4.07,7.41-5.15,10.54c-0.29,0.82-0.52,1.61-0.72,2.35c-0.63,2.19-0.93,3.93-1.02,4.89
		c-0.02,0.17-0.02,0.37-0.02,0.54v0.28c0,0.29,0.02,0.52,0.04,0.76c0.02,0.18,0.04,0.33,0.07,0.5c0.15,0.76,0.36,1.44,0.58,2
		c0.05,0.07,0.07,0.13,0.09,0.2c0.3,0.74,0.61,1.17,0.61,1.17c0.22,0.57,0.37,1.09,0.48,1.61c0.04,0.26,0.08,0.5,0.1,0.76
		c0.31,2.74-0.97,5.13-3.26,8.72c-0.43,0.65-0.87,1.35-1.37,2.09c-1.54,2.41-2.71,4.23-3.3,5.69c-0.3,0.74-0.48,1.39-0.48,1.96
		c0,0.26,0.05,0.5,0.11,0.71c0,0.03,0.02,0.05,0.02,0.07c0.05,0.15,0.11,0.28,0.2,0.43c0.02,0.05,0.04,0.09,0.06,0.11
		c0.09,0.13,0.18,0.24,0.29,0.35c0.04,0.04,0.06,0.09,0.1,0.13c0.11,0.11,0.24,0.22,0.37,0.33c0.07,0.04,0.11,0.08,0.16,0.13
		c0.19,0.13,0.41,0.26,0.65,0.39c0.35,0.2,0.69,0.37,1.02,0.52c0.33,0.13,0.65,0.26,0.94,0.39c0.39,0.15,0.76,0.28,1.08,0.39
		c1.13,0.44,1.78,0.81,1.42,1.74c-0.61,1.57-0.96,2.7-0.9,3.48c0.03,0.15,0.05,0.3,0.09,0.44c0.11,0.26,0.26,0.47,0.52,0.65
		c0.33,0.21,0.31,0.56,0.2,1c-0.02,0.08-0.07,0.19-0.09,0.28c-0.04,0.2-0.11,0.39-0.17,0.61c-0.05,0.22-0.09,0.43-0.11,0.65v0.35
		c0.04,0.56,0.28,1.17,1,1.74c0.72,0.56,1,1.21,1.04,2v0.48c-0.02,0.34-0.09,0.69-0.17,1.08c-0.07,0.39-0.18,0.81-0.31,1.24
		c-0.04,0.24-0.11,0.46-0.17,0.7c-0.33,1.19-0.67,2.61-0.91,4.28c-0.05,0.35-0.07,0.65-0.05,0.96c0,0.3,0.05,0.58,0.09,0.87
		c0.13,0.54,0.35,1.02,0.65,1.43c0.33,0.43,0.72,0.8,1.2,1.11c0.24,0.17,0.5,0.32,0.78,0.46c1.37,0.67,3.2,1.08,5.26,1.3
		c0.83,0.09,1.7,0.15,2.61,0.19c0.89,0.03,1.83,0.05,2.76,0.05c0.63,0,1.24,0.02,1.83,0.06c0.15,0,0.3,0.03,0.45,0.03
		c0.59,0.04,1.15,0.1,1.72,0.19c4.89,0.76,8.19,3.17,8.26,8.41v6.71c0,1.04,0.84,1.88,1.88,1.88h38.15c1.04,0,1.88-0.84,1.88-1.88
		v-20.77c-0.02-0.39-0.02-0.78,0-1.17c0-0.2,0-0.4,0.02-0.59c0-0.44,0.04-0.87,0.09-1.28c0-0.16,0.02-0.31,0.04-0.44
		c0.05-0.56,0.13-1.13,0.22-1.67c0.65-3.68,2.06-7.02,4.24-9.96c0.11-0.13,0.22-0.26,0.32-0.41c0.05-0.04,0.09-0.11,0.13-0.15
		c0.09-0.11,0.18-0.22,0.27-0.35c0.06-0.07,0.1-0.13,0.17-0.2c0.11-0.13,0.22-0.26,0.33-0.41c0.1-0.13,0.21-0.26,0.32-0.39
		l0.33-0.39c0.11-0.11,0.19-0.24,0.3-0.37c0.09-0.11,0.2-0.22,0.28-0.35c0.11-0.13,0.24-0.28,0.35-0.43
		c0.09-0.11,0.18-0.22,0.26-0.33c0.18-0.22,0.37-0.46,0.55-0.7c0.06-0.06,0.11-0.13,0.17-0.19c0.2-0.26,0.39-0.52,0.61-0.81
		c0.06-0.08,0.15-0.21,0.24-0.32c0.15-0.2,0.3-0.39,0.45-0.61c0.09-0.13,0.18-0.26,0.29-0.39c0.13-0.2,0.28-0.39,0.41-0.61
		c0.11-0.15,0.22-0.28,0.3-0.44c0.16-0.19,0.29-0.41,0.44-0.63c0.11-0.15,0.19-0.3,0.3-0.45c0.16-0.22,0.29-0.46,0.44-0.68
		c0.11-0.15,0.19-0.3,0.3-0.47c0.15-0.24,0.31-0.5,0.46-0.77c0.09-0.15,0.17-0.28,0.26-0.43c0.22-0.37,0.43-0.76,0.65-1.15
		c2.22-3.98,4.15-8.78,5-14.24c0-0.02,0-0.04,0.02-0.07c0.07-0.56,0.16-1.13,0.2-1.69c0.02-0.09,0.02-0.15,0.04-0.22
		c0.05-0.54,0.09-1.06,0.11-1.61c0-0.13,0.02-0.24,0.02-0.37c0.02-0.5,0.05-1,0.05-1.52v-0.48
		C793.5,524.51,793.47,524.01,793.45,523.51z M783.79,527.23c-0.15,0.33-0.34,0.64-0.5,0.96c-0.25,0.51-0.42,1.05-0.55,1.6
		c0.12,0.51,0.26,1.01,0.37,1.52c0.17,0.82,0.33,1.66,0.35,2.5c0.03,1.47-0.36,2.91-0.76,4.32c-0.28,0.98-0.56,1.95-0.94,2.89
		c-1.27,3.23-3.51,5.97-5.58,8.77c-0.89,1.21-1.74,2.46-2.49,3.77c-0.09,0.39-0.19,0.79-0.27,1.19c-0.35,1.74-0.64,3.6-1.83,4.91
		c-0.26,0.28-0.61,0.53-0.97,0.62c-0.1,0.07-0.2,0.13-0.32,0.15c-0.26,0.04-0.51-0.09-0.76-0.21c-0.21-0.11-0.5-0.23-0.67-0.43
		c-0.03-0.04-0.06-0.08-0.07-0.13c-0.04-0.04-0.08-0.05-0.11-0.09c-0.12-0.16-0.18-0.34-0.21-0.51c-0.25-1.34,0.59-2.63,0.65-3.98
		c0.05-0.84-0.23-1.67-0.5-2.46c-0.25-0.74-0.51-1.48-0.76-2.22c-0.03-0.03-0.05-0.06-0.08-0.09c-0.85-0.68-1.99-0.84-3.01-1.24
		c-2.31-0.91-3.99-3.26-4.09-5.74c-0.04-0.88-0.4-2.2-0.31-3.19c-0.02-0.02-0.03-0.03-0.04-0.05c-0.28-0.56-0.6-1.11-0.82-1.68
		c-0.71-1.75-0.65-3.71-1.01-5.56c-0.37-1.86-1.4-3.82-3.23-4.3c-2.03-0.54-4,0.96-6.06,1.35c-0.73,0.15-1.49,0.15-2.24,0.15
		c-0.95,0-1.89,0-2.84,0.01c-0.31-0.06-0.62-0.12-0.95-0.18c-2.23-0.36-3.9-0.88-5.17-1.45c-0.03-0.02-0.07-0.03-0.1-0.05
		c-3.32-1.55-3.69-3.42-3.69-3.42s-11.35,5.34-16.07-4.5c0,0-5.93-11.29,5.68-17.42c0,0,1.76-8.84,11.78-7.57
		c0,0,8.63-9.2,19.08-2.14c0,0,8.91-4.64,13.83,3.07c0,0,8.96-1.33,11.09,8.86c0,0,6.23,5.19,2.9,13.83c0.92,0.7,1.53,2.69,1.74,3.8
		C784.54,524.35,784.43,525.9,783.79,527.23z"/>
	<g>
		<path class="st0" d="M741.36,519.34h-4.94l6.71-17.72h5.06l6.71,17.72h-4.94l-1.14-3.16h-6.33L741.36,519.34z M743.64,512.88h4.05
			l-2.03-5.95L743.64,512.88z"/>
		<path class="st0" d="M764.52,519.34h-9.11v-3.54h2.28v-10.63h-2.28v-3.54h9.11v3.54h-2.28v10.63h2.28V519.34z"/>
	</g>
	<g>
		<path class="st3" d="M309.35,565.78c-2.34,0-4.6-0.29-6.79-0.86c-2.19-0.57-4.26-1.47-6.21-2.7c-1.95-1.23-3.66-2.72-5.12-4.47
			c-1.46-1.75-2.61-3.89-3.46-6.41c-0.85-2.52-1.27-5.28-1.27-8.28c0-5.08,1.18-9.58,3.54-13.51c2.36-3.93,5.66-6.97,9.9-9.11
			c4.24-2.14,9.07-3.21,14.5-3.21c3.27,0,6.72,0.38,10.35,1.14c3.63,0.76,6.69,1.72,9.19,2.86c1.04,0.6,1.51,1.57,1.42,2.91
			c-0.07,0.53-0.29,1.99-0.68,4.37c-0.39,2.38-0.61,3.95-0.68,4.7c-0.07,0.53-0.26,0.92-0.58,1.18c-0.32,0.25-0.69,0.33-1.11,0.22
			c-0.42-0.11-0.81-0.39-1.16-0.83c-1.06-1.08-2.09-2.01-3.1-2.78c-1.01-0.77-2.19-1.51-3.54-2.2c-1.36-0.7-2.9-1.23-4.62-1.59
			c-1.72-0.36-3.62-0.55-5.7-0.55c-2.08,0-4.04,0.36-5.89,1.09c-1.85,0.73-3.49,1.76-4.9,3.08c-1.41,1.32-2.53,3.01-3.36,5.05
			c-0.83,2.04-1.24,4.3-1.24,6.77c0,2.41,0.38,4.51,1.14,6.31c0.76,1.8,1.83,3.22,3.2,4.27c1.37,1.05,2.92,1.83,4.65,2.34
			c1.73,0.51,3.64,0.75,5.71,0.73c3.84-0.02,6.96-0.97,9.36-2.85c2.4-1.88,3.59-4.14,3.59-6.79c0-1.37-0.16-2.49-0.48-3.36
			c-0.32-0.87-0.86-1.78-1.61-2.73c-0.46-0.49-0.57-1.03-0.31-1.62c0.25-0.6,0.75-0.89,1.47-0.89c0.02,0,2.01,0,5.96-0.02
			c3.95-0.01,5.94,0,5.96,0.02c0.55,0,0.99,0.17,1.32,0.51c0.33,0.34,0.52,0.78,0.56,1.31c0.99,10.49,1.47,18.29,1.42,23.41
			c0,0.55-0.17,1.02-0.51,1.41c-0.34,0.39-0.78,0.59-1.31,0.61c-2.85,0.13-6.13,0.11-9.84-0.07c-0.57-0.04-1.03-0.25-1.37-0.61
			c-0.34-0.36-0.47-0.81-0.38-1.34c0.02-0.22,0.09-0.73,0.22-1.54c0.12-0.81,0.2-1.47,0.25-2c0.09-0.71-0.1-1.13-0.56-1.26
			c-0.46-0.13-0.88,0.11-1.26,0.73c-1.88,2.34-4.15,4.02-6.81,5.03C316.58,565.27,313.28,565.78,309.35,565.78z"/>
		<path class="st3" d="M366.38,565.78c-7.22,0-12.93-1.69-17.12-5.08c-4.19-3.39-6.29-8.11-6.29-14.16c0-3.86,0.93-7.22,2.78-10.08
			c1.85-2.86,4.39-5.01,7.62-6.46c3.22-1.45,6.92-2.17,11.09-2.17c5.81,0,10.46,1.1,13.96,3.31c3.5,2.21,5.25,5.3,5.25,9.27
			c0,2.23-0.73,4.21-2.19,5.93c-1.46,1.72-3.35,3.02-5.68,3.89c-2.33,0.87-4.86,1.31-7.6,1.31c-5.1,0-9.15-0.72-12.15-2.15
			c-0.82-0.44-1.4-0.44-1.76,0c-0.35,0.44-0.24,1,0.33,1.69c0.99,1.7,2.81,3.14,5.45,4.32c2.64,1.18,5.33,1.77,8.06,1.77
			c2.25,0,4.6-0.42,7.05-1.26c2.45-0.84,4.5-1.93,6.16-3.28c0.62-0.6,1.23-0.76,1.84-0.5c0.61,0.26,0.94,0.86,1.01,1.79
			c0.09,1.26,0.18,3.41,0.26,6.46c0,0.93-0.35,1.6-1.06,2.02c-1.92,1.1-4.47,1.94-7.63,2.52
			C372.6,565.49,369.47,565.78,366.38,565.78z M365.29,545.97c2.36,0,4.22-0.43,5.56-1.29c1.35-0.86,2.02-2.08,2.02-3.64
			c0-1.61-0.67-2.89-2.02-3.82c-1.35-0.94-3.43-1.41-6.26-1.41c-2.67,0-5.07,0.6-7.19,1.79c-2.12,1.19-3.18,2.73-3.18,4.6
			c0,0.64,0.37,1.21,1.11,1.72c0.74,0.51,1.68,0.91,2.83,1.19c1.15,0.29,2.33,0.5,3.56,0.65
			C362.95,545.9,364.14,545.97,365.29,545.97z"/>
		<path class="st3" d="M393.9,565.51c-1.88,0-3.39-0.09-4.54-0.26c-0.51-0.07-0.93-0.29-1.26-0.68c-0.33-0.39-0.49-0.86-0.46-1.41
			c0.04-7.99,0.15-14.22,0.33-18.68c0.18-4.46,0.52-9.18,1.03-14.17c0.13-1.08,0.71-1.73,1.72-1.95c0.97-0.18,2.3-0.27,3.97-0.27
			s3.18,0.09,4.5,0.27c0.53,0.07,0.94,0.28,1.23,0.65c0.29,0.36,0.35,0.82,0.2,1.37c-0.4,1.28-0.63,2.42-0.7,3.41
			c-0.04,0.79,0.08,1.23,0.36,1.29c0.29,0.07,0.68-0.23,1.19-0.89c1.96-2.27,4.05-3.92,6.24-4.93c2.2-1.02,4.75-1.52,7.67-1.52
			c4.97,0,9.1,1.64,12.4,4.92c3.3,3.28,5.12,7.55,5.45,12.8c0.35,6.14,0.53,12.01,0.53,17.62c0,1.3-0.61,2.03-1.82,2.19
			c-1.15,0.18-2.51,0.26-4.07,0.26c-1.83,0-3.44-0.09-4.83-0.26c-0.55-0.07-1.01-0.28-1.37-0.65c-0.36-0.36-0.51-0.82-0.45-1.38
			c0.51-5.08,0.72-9.9,0.63-14.47c-0.11-3.58-1.19-6.47-3.23-8.68c-2.04-2.21-4.74-3.31-8.1-3.31c-3.25,0-5.91,1.13-7.98,3.39
			c-2.08,2.26-3.1,5.19-3.08,8.79c0,5.5,0.26,10.25,0.79,14.27c0.09,0.55-0.04,1.01-0.38,1.38c-0.34,0.36-0.78,0.58-1.31,0.65
			C397.49,565.42,395.93,565.51,393.9,565.51z"/>
		<path class="st3" d="M459.9,565.78c-7.22,0-12.93-1.69-17.12-5.08c-4.19-3.39-6.29-8.11-6.29-14.16c0-3.86,0.93-7.22,2.78-10.08
			c1.85-2.86,4.39-5.01,7.62-6.46c3.22-1.45,6.92-2.17,11.09-2.17c5.81,0,10.46,1.1,13.96,3.31c3.5,2.21,5.25,5.3,5.25,9.27
			c0,2.23-0.73,4.21-2.19,5.93c-1.46,1.72-3.35,3.02-5.68,3.89c-2.33,0.87-4.86,1.31-7.6,1.31c-5.1,0-9.15-0.72-12.15-2.15
			c-0.82-0.44-1.4-0.44-1.76,0c-0.35,0.44-0.24,1,0.33,1.69c0.99,1.7,2.81,3.14,5.45,4.32c2.64,1.18,5.33,1.77,8.06,1.77
			c2.25,0,4.6-0.42,7.05-1.26c2.45-0.84,4.5-1.93,6.16-3.28c0.62-0.6,1.23-0.76,1.84-0.5c0.61,0.26,0.94,0.86,1.01,1.79
			c0.09,1.26,0.18,3.41,0.26,6.46c0,0.93-0.35,1.6-1.06,2.02c-1.92,1.1-4.47,1.94-7.63,2.52
			C466.12,565.49,462.99,565.78,459.9,565.78z M458.81,545.97c2.36,0,4.22-0.43,5.56-1.29c1.35-0.86,2.02-2.08,2.02-3.64
			c0-1.61-0.67-2.89-2.02-3.82c-1.35-0.94-3.43-1.41-6.26-1.41c-2.67,0-5.07,0.6-7.19,1.79c-2.12,1.19-3.18,2.73-3.18,4.6
			c0,0.64,0.37,1.21,1.11,1.72c0.74,0.51,1.68,0.91,2.83,1.19c1.15,0.29,2.33,0.5,3.56,0.65
			C456.47,545.9,457.66,545.97,458.81,545.97z"/>
		<path class="st3" d="M487.22,565.51c-1.74,0-3.22-0.09-4.44-0.26c-0.46-0.07-0.85-0.28-1.16-0.65c-0.31-0.36-0.46-0.82-0.46-1.38
			c0-6.23,0.01-10.73,0.03-13.53c0.02-2.79,0.1-5.92,0.23-9.37c0.13-3.46,0.34-6.82,0.63-10.08c0.07-1.1,0.61-1.73,1.62-1.89
			c1.04-0.18,2.51-0.27,4.4-0.27c2.23,0,3.78,0.09,4.64,0.27c0.62,0.13,1.08,0.39,1.39,0.76c0.31,0.38,0.39,0.82,0.23,1.32
			c-0.04,0.11-0.12,0.35-0.22,0.73c-0.1,0.38-0.17,0.62-0.2,0.73c-0.03,0.11-0.09,0.32-0.18,0.63c-0.09,0.31-0.14,0.55-0.17,0.71
			c-0.02,0.17-0.06,0.38-0.1,0.65c-0.04,0.27-0.07,0.52-0.08,0.78c-0.01,0.25-0.02,0.52-0.02,0.81c0,0.73,0.2,1.15,0.6,1.26
			c0.4,0.11,0.76-0.2,1.09-0.93c2.56-5.32,7.17-7.98,13.84-7.98c1.3,0,2.67,0.17,4.09,0.51c1.42,0.34,2.59,0.78,3.49,1.31
			c1.04,0.57,1.56,1.39,1.56,2.45c0,1.3-0.09,3.9-0.27,7.78c-0.02,0.91-0.43,1.48-1.23,1.72c-0.79,0.24-1.47,0.08-2.02-0.5
			c-2.56-2.12-5.82-3.18-9.77-3.18c-3.11,0-5.83,1.16-8.16,3.49c-2.33,2.33-3.49,5.23-3.49,8.69c0,2.58,0.29,6.96,0.86,13.11
			c0.07,0.58-0.08,1.05-0.43,1.42c-0.35,0.38-0.79,0.6-1.32,0.66C491.01,565.45,489.34,565.51,487.22,565.51z"/>
		<path class="st3" d="M531.43,565.78c-4.33,0-7.69-0.87-10.1-2.62c-2.41-1.74-3.61-4.42-3.61-8.01c0-3.42,1.41-6.12,4.24-8.1
			c2.83-1.98,6.87-3.26,12.12-3.86c5.08-0.55,8.44-1.07,10.1-1.56c1.66-0.49,2.48-1.31,2.48-2.48c0-0.82-0.65-1.53-1.96-2.15
			c-1.3-0.62-3.29-0.93-5.96-0.93c-2.65,0-5.3,0.39-7.96,1.16c-2.66,0.77-4.98,1.91-6.97,3.41c-0.57,0.64-1.2,0.77-1.89,0.4
			c-0.68-0.37-1-1.04-0.96-1.99c0.15-1.72,0.45-4.07,0.89-7.05c0.13-1.17,0.63-1.91,1.49-2.22c4.5-1.3,9.5-1.95,15-1.95
			c6.25,0,11.07,1.2,14.47,3.59c3.4,2.4,5.35,6.14,5.86,11.24c0.48,5.19,0.92,11.92,1.29,20.2c0,0.62-0.19,1.13-0.56,1.54
			c-0.38,0.41-0.87,0.67-1.49,0.78c-0.97,0.22-2.46,0.33-4.47,0.33c-2.16,0-3.81-0.11-4.94-0.33c-0.64-0.11-1.16-0.4-1.57-0.88
			s-0.55-1.04-0.41-1.71c0.35-2.01,0.54-3.26,0.56-3.74c0.09-0.68-0.07-1.09-0.46-1.21c-0.4-0.12-0.79,0.11-1.16,0.68
			c-1.24,2.21-3.15,4-5.75,5.38C537.13,565.09,534.37,565.78,531.43,565.78z M536.76,557.1c1.48,0,2.96-0.28,4.44-0.84
			c1.48-0.56,2.74-1.4,3.78-2.52c1.04-1.12,1.56-2.35,1.56-3.69c0-2.21-1.78-3.31-5.33-3.31c-3.09,0-5.78,0.61-8.06,1.84
			c-2.28,1.22-3.43,2.75-3.43,4.59c0,1.39,0.55,2.4,1.64,3.01C532.44,556.79,534.25,557.1,536.76,557.1z"/>
		<path class="st3" d="M583.56,565.78c-2.72,0-5.14-0.45-7.29-1.36c-2.14-0.91-3.87-2.31-5.2-4.22c-1.32-1.91-2-4.2-2.02-6.87
			c-0.09-5.78,0.13-11.11,0.66-15.96c0.02-0.38-0.11-0.7-0.38-0.96c-0.28-0.27-0.59-0.4-0.94-0.4H562
			c-0.53,0.02-0.99-0.16-1.37-0.55c-0.39-0.39-0.58-0.86-0.58-1.41v-3.68c0-0.57,0.19-1.05,0.58-1.44c0.39-0.39,0.87-0.58,1.44-0.58
			h6.39c0.38,0,0.7-0.13,0.96-0.4c0.26-0.26,0.4-0.58,0.4-0.96c0-2.23,0.09-3.95,0.26-5.17c0.2-1.19,0.83-1.89,1.89-2.09
			c1.26-0.18,2.62-0.27,4.07-0.27c1.46,0,2.79,0.09,4.01,0.27c0.55,0.11,1.01,0.35,1.38,0.71c0.36,0.36,0.53,0.82,0.51,1.37
			c-0.26,2.43-0.4,4.13-0.4,5.1c0,0.42,0.12,0.77,0.36,1.06c0.24,0.29,0.55,0.43,0.93,0.43c1.17,0,3.22-0.02,6.14-0.07
			c2.93-0.04,4.96-0.07,6.11-0.07c0.55-0.02,1.03,0.16,1.44,0.55c0.41,0.39,0.61,0.86,0.61,1.41v4.27c0,0.55-0.21,1.04-0.63,1.46
			c-0.42,0.42-0.89,0.6-1.42,0.53c-3.75-0.33-7.41-0.5-10.96-0.5c-0.93,0.02-1.69,0.29-2.3,0.79c-0.61,0.51-0.98,1.19-1.11,2.05
			c-0.31,3.69-0.38,7.78-0.2,12.29c0.13,1.85,0.72,3.22,1.75,4.11c1.04,0.88,2.4,1.32,4.07,1.32c0.99,0,2.53-0.24,4.62-0.71
			c2.09-0.47,3.48-0.94,4.19-1.41c0.64-0.53,1.3-0.61,1.99-0.23c0.68,0.38,1.03,1.03,1.03,1.95c-0.04,1.35-0.07,3.22-0.07,5.63
			c-0.07,1.06-0.52,1.78-1.36,2.15c-1.35,0.58-3.37,1.02-6.08,1.34C587.96,565.62,585.59,565.78,583.56,565.78z"/>
		<path class="st3" d="M607.57,565.51c-2.03,0-3.65-0.09-4.87-0.26c-0.51-0.07-0.92-0.28-1.24-0.65c-0.32-0.36-0.48-0.82-0.48-1.38
			c0.09-21.19,0.52-36.16,1.29-44.91c0.13-1.06,0.75-1.7,1.85-1.92c0.97-0.18,2.3-0.27,3.97-0.27c2.45,0,4.13,0.09,5.03,0.27
			c0.53,0.11,0.96,0.37,1.28,0.78c0.32,0.41,0.44,0.88,0.35,1.41c-0.86,5.81-1.41,13.23-1.66,22.25c-0.24,9.03-0.1,16.49,0.43,22.39
			c0.07,0.55-0.06,1.01-0.38,1.38c-0.32,0.36-0.73,0.6-1.24,0.71C610.6,565.45,609.16,565.51,607.57,565.51z"/>
		<path class="st3" d="M639.69,581.44c-8.88,0-15.61-0.67-20.2-2.02c-1.15-0.35-1.69-1.17-1.62-2.45c0.13-1.21,0.35-3.81,0.66-7.78
			c0.11-0.77,0.47-1.3,1.08-1.59c0.61-0.29,1.2-0.19,1.77,0.3c1.96,1.21,4.33,2.16,7.1,2.85c2.77,0.68,5.49,1.03,8.16,1.03
			c2.8,0,5.48-0.54,8.03-1.62c2.55-1.08,4.58-2.49,6.08-4.22c1.5-1.73,2.25-3.52,2.25-5.35v-0.7c0-0.77-0.24-1.21-0.71-1.31
			s-0.88,0.18-1.21,0.84c-1.39,2.41-3.25,4.08-5.58,5.02c-2.33,0.94-5.15,1.41-8.46,1.41c-5.9,0-10.37-1.64-13.43-4.93
			c-3.06-3.29-4.59-7.67-4.59-13.15c0-4.7,0.33-10.48,0.99-17.32c0.13-1.17,0.77-1.87,1.92-2.09c1.13-0.22,2.43-0.33,3.91-0.33
			c2.05,0,3.73,0.11,5.03,0.33c0.55,0.11,0.98,0.34,1.29,0.68c0.31,0.34,0.42,0.79,0.33,1.34c-1.08,7.42-1.62,12.24-1.62,14.47
			c0,3.73,0.89,6.66,2.68,8.79c1.79,2.13,4.54,3.2,8.25,3.2c2.94,0,5.3-1.19,7.09-3.56c1.79-2.37,2.68-5.39,2.68-9.06
			c0-4.31-0.5-8.9-1.49-13.78c-0.13-0.55-0.03-1.02,0.3-1.41c0.33-0.39,0.75-0.61,1.26-0.68c1.37-0.22,2.97-0.33,4.8-0.33
			c1.57,0,3.1,0.11,4.6,0.33c0.49,0.07,0.9,0.29,1.24,0.66c0.34,0.38,0.55,0.85,0.61,1.42c0.53,6.51,0.89,12,1.08,16.48
			c0.19,4.47,0.26,9.72,0.21,15.75c0,2.56-0.46,4.9-1.39,7.02c-0.93,2.12-2.17,3.89-3.73,5.32c-1.56,1.42-3.39,2.63-5.51,3.63
			c-2.12,0.99-4.34,1.71-6.66,2.15C644.59,581.22,642.19,581.44,639.69,581.44z"/>
	</g>
</g>
</svg>
