<svg version="1.1" id="Layer_1" xmlns="http://www.w3.org/2000/svg" xmlns:xlink="http://www.w3.org/1999/xlink" x="0px" y="0px"
	 width="100%" viewBox="0 0 4500 4500" enable-background="new 0 0 4500 4500" xml:space="preserve">
<path fill="#FFFFFF" opacity="1.000000" stroke="none" 
	d="
M3980.000000,4504.000000 
	C2653.333252,4504.000000 1328.666626,4504.000000 4.000000,4504.000000 
	C4.000000,3004.000000 4.000000,1504.000000 4.000000,4.000001 
	C1504.000000,4.000000 3004.000000,4.000000 4504.000000,4.000000 
	C4504.000000,1504.000000 4504.000000,3004.000000 4504.000000,4504.000000 
	C4330.000000,4504.000000 4156.000000,4504.000000 3980.000000,4504.000000 
M1885.063477,2296.466553 
	C1902.182495,2302.901855 1919.983765,2304.710938 1938.070435,2303.701416 
	C1953.607910,2302.834229 1968.111084,2298.678467 1980.788818,2289.020996 
	C2004.067383,2271.288574 2000.018555,2238.358887 1982.770020,2224.472412 
	C1976.644287,2219.541016 1969.734497,2214.920654 1962.419189,2212.246094 
	C1933.298340,2201.599365 1903.744995,2201.144043 1874.539429,2211.947266 
	C1854.185669,2219.476074 1839.803833,2233.616943 1831.818970,2254.027344 
	C1827.086548,2266.123779 1826.674316,2278.698730 1827.519165,2291.387695 
	C1829.135986,2315.672363 1840.195679,2334.727783 1860.996460,2347.185303 
	C1869.989990,2352.571777 1880.117188,2356.837891 1890.288452,2359.340088 
	C1920.757690,2366.836426 1951.120117,2363.627197 1981.002930,2355.374268 
	C1987.859375,2353.480713 1995.256958,2351.447266 1999.431519,2344.348877 
	C1999.431519,2334.471436 1999.876465,2324.501221 1999.176636,2314.611816 
	C1998.948975,2311.395508 1995.730713,2308.390625 1993.430176,2304.534424 
	C1988.900024,2307.277832 1985.471924,2309.184814 1982.218628,2311.354004 
	C1969.779663,2319.647217 1955.956787,2324.873779 1941.285156,2326.035645 
	C1916.535767,2327.994873 1893.602051,2323.411865 1879.796875,2299.390381 
	C1880.472534,2298.350098 1881.148315,2297.310059 1885.063477,2296.466553 
M3220.316650,2486.985107 
	C3235.260986,2484.433350 3235.699463,2484.312744 3235.828857,2471.774414 
	C3236.069580,2448.475830 3236.654541,2425.143799 3235.733398,2401.879395 
	C3234.429932,2368.958740 3243.601807,2340.182617 3265.976074,2315.803223 
	C3267.324707,2314.333740 3268.505371,2312.711914 3269.796143,2311.188232 
	C3282.374023,2296.342285 3291.911865,2279.626709 3300.145752,2262.088379 
	C3335.031006,2187.782471 3306.860107,2103.663574 3247.378662,2060.623047 
	C3201.796143,2027.639282 3150.649902,2017.719238 3095.730469,2027.881714 
	C3019.886475,2041.915894 2976.288086,2089.921631 2956.413574,2162.259033 
	C2953.333252,2173.470459 2952.823730,2184.377197 2958.155029,2195.312988 
	C2964.171631,2207.654785 2962.611816,2219.954346 2955.781982,2231.585449 
	C2950.056152,2241.336670 2943.947266,2250.862061 2938.142334,2260.567871 
	C2935.074951,2265.696289 2931.749268,2270.774170 2929.509521,2276.270020 
	C2925.826904,2285.305908 2928.107178,2291.530029 2936.470947,2296.612305 
	C2941.510254,2299.674561 2946.905273,2302.152344 2951.439941,2304.525879 
	C2952.032715,2306.942871 2952.745361,2308.252930 2952.587646,2309.448242 
	C2950.670410,2323.957764 2949.947021,2338.112549 2958.447021,2351.353760 
	C2960.291016,2354.226074 2959.888184,2359.109131 2959.279541,2362.865234 
	C2958.112305,2370.071045 2955.644775,2377.064941 2954.458496,2384.268799 
	C2952.359863,2397.014404 2956.684326,2404.557373 2968.754395,2409.320557 
	C2973.661621,2411.257324 2978.911865,2412.781250 2984.132080,2413.366211 
	C2993.367920,2414.401123 3002.729736,2414.280029 3011.984131,2415.193848 
	C3020.529541,2416.037598 3029.282715,2416.656006 3037.447021,2419.061523 
	C3051.662354,2423.250244 3059.326904,2433.599854 3060.305908,2448.451904 
	C3060.742920,2455.083740 3060.437500,2461.761963 3060.564453,2468.417236 
	C3060.881836,2485.061768 3062.420654,2486.614258 3078.803955,2486.984863 
	C3081.465576,2487.045166 3084.129639,2486.996094 3086.792725,2486.996094 
	C3130.065918,2486.995605 3173.339355,2486.994873 3220.316650,2486.985107 
M2683.010742,2361.660645 
	C2699.008301,2359.322998 2711.844727,2352.009766 2720.850342,2338.237305 
	C2721.905029,2336.624512 2724.789307,2336.208252 2727.426025,2334.950684 
	C2728.004883,2338.255859 2728.693848,2340.192871 2728.622314,2342.101562 
	C2728.093018,2356.200195 2719.469482,2365.335693 2708.827637,2372.789795 
	C2689.251953,2386.501465 2667.236816,2390.004150 2644.018311,2386.571777 
	C2628.155518,2384.226807 2612.798584,2380.091309 2598.578613,2372.151367 
	C2591.888916,2368.416016 2586.385010,2371.138184 2585.455811,2378.362549 
	C2584.268066,2387.600098 2583.698975,2396.937988 2583.304443,2406.251465 
	C2582.859131,2416.771729 2584.155762,2418.200684 2595.050781,2421.277832 
	C2598.250488,2422.181396 2601.476318,2423.076660 2604.748535,2423.626465 
	C2632.479492,2428.284912 2660.427002,2429.262207 2688.443359,2427.793213 
	C2703.878174,2426.984375 2718.653320,2422.981689 2732.631836,2416.271973 
	C2761.156982,2402.579834 2776.521973,2380.400146 2776.215332,2348.266846 
	C2775.986572,2324.277100 2775.965576,2300.275635 2775.131836,2276.304688 
	C2774.483643,2257.667236 2772.910156,2239.053467 2771.387207,2220.458496 
	C2770.540527,2210.119873 2768.233643,2207.907959 2758.129150,2206.335938 
	C2753.537109,2205.621826 2748.838623,2205.028564 2744.216797,2205.190674 
	C2735.134277,2205.509277 2725.583496,2204.354980 2717.141846,2211.140869 
	C2717.448486,2214.639160 2717.690674,2217.846191 2718.016602,2221.044922 
	C2719.770508,2238.254150 2721.903564,2255.434326 2723.181885,2272.678467 
	C2723.981445,2283.468018 2721.279297,2293.887695 2716.272705,2303.520996 
	C2707.569824,2320.266846 2694.964111,2326.629150 2674.979492,2324.666748 
	C2657.325195,2322.933594 2645.197510,2313.208984 2640.362061,2296.245605 
	C2637.610596,2286.592773 2636.365234,2276.700928 2637.759766,2266.578125 
	C2639.668701,2252.723145 2641.491943,2238.851318 2642.996338,2224.948242 
	C2643.548096,2219.849121 2643.085205,2214.640381 2643.085205,2209.674072 
	C2631.870850,2204.671631 2621.193359,2204.419678 2610.597656,2205.406006 
	C2594.127686,2206.939209 2591.615234,2208.823486 2591.035889,2224.247559 
	C2590.861328,2228.896240 2589.745850,2233.511230 2589.595703,2238.158936 
	C2588.950684,2258.129150 2587.260010,2278.168457 2588.260498,2298.066406 
	C2590.020020,2333.051025 2611.413086,2356.474854 2645.885498,2361.950928 
	C2656.897705,2363.700439 2668.400391,2362.364014 2683.010742,2361.660645 
M1239.953369,2346.188477 
	C1253.340698,2355.590576 1268.390259,2361.004395 1284.479980,2362.426025 
	C1314.490112,2365.078369 1343.183716,2362.324219 1365.356567,2338.158691 
	C1366.870483,2336.508545 1369.577148,2335.953125 1371.782227,2334.862305 
	C1376.578125,2343.002930 1368.645752,2351.751465 1375.917236,2359.222656 
	C1383.452515,2362.237793 1392.229736,2361.339844 1400.731812,2361.164062 
	C1409.682007,2360.979004 1419.348022,2363.745605 1427.961914,2356.844971 
	C1430.076782,2322.854248 1425.582031,2289.179932 1422.803467,2255.441895 
	C1422.608276,2253.072021 1420.591309,2250.852295 1419.791382,2249.286865 
	C1417.506958,2248.472656 1416.282227,2247.667969 1415.047607,2247.652100 
	C1401.074585,2247.473145 1387.100220,2247.400635 1373.125977,2247.337646 
	C1370.468140,2247.325684 1367.793579,2247.322754 1365.154907,2247.592041 
	C1359.839233,2248.134277 1357.661133,2252.605957 1360.136108,2257.772705 
	C1360.703735,2258.957764 1361.575073,2259.993652 1362.250000,2261.131836 
	C1377.675781,2287.150879 1363.418945,2310.246582 1340.171753,2318.813232 
	C1326.835205,2323.727539 1312.979614,2324.752686 1298.896851,2321.830566 
	C1269.623779,2315.755615 1255.309814,2299.043701 1254.079956,2269.238281 
	C1252.546021,2232.057373 1276.438110,2203.323242 1311.862793,2200.512695 
	C1337.480347,2198.479980 1360.658691,2205.063232 1380.276978,2222.319092 
	C1383.759766,2225.382568 1386.959229,2228.857422 1390.778687,2231.410156 
	C1392.591064,2232.621582 1395.555908,2232.108887 1398.992188,2232.486084 
	C1401.803955,2219.982422 1403.698486,2208.290283 1405.080688,2196.489014 
	C1406.874268,2181.176758 1405.425537,2178.195312 1390.409912,2173.034912 
	C1364.412720,2164.100586 1337.671753,2158.994873 1310.051025,2160.479980 
	C1290.583984,2161.526611 1272.057251,2166.307373 1254.677246,2175.551025 
	C1185.721069,2212.226074 1188.748535,2313.923340 1239.953369,2346.188477 
M2170.952637,2297.742676 
	C2169.865723,2300.157471 2168.418701,2302.476318 2167.747070,2305.001709 
	C2159.917725,2334.449463 2172.322998,2354.544678 2202.360107,2361.028076 
	C2232.092773,2367.445557 2257.760742,2360.730713 2278.304932,2337.383789 
	C2279.784180,2335.702881 2282.341309,2334.970703 2284.214600,2333.901611 
	C2289.241699,2339.693359 2285.462646,2344.946533 2285.616699,2350.034668 
	C2285.778320,2355.379395 2288.396484,2359.179932 2293.423584,2360.152588 
	C2306.629639,2362.707031 2319.921631,2362.842285 2333.157959,2360.360352 
	C2338.394531,2359.378418 2341.013184,2356.113525 2341.443115,2350.610107 
	C2341.649658,2347.966064 2341.550049,2345.280762 2341.381592,2342.627441 
	C2339.779053,2317.369141 2338.572998,2292.075195 2336.387695,2266.866699 
	C2333.513184,2233.704834 2316.237061,2214.758545 2283.858398,2207.761475 
	C2264.084717,2203.488037 2244.163574,2203.279785 2224.241943,2206.016357 
	C2211.175781,2207.810791 2197.663086,2208.165039 2185.271973,2215.291748 
	C2180.727295,2227.830811 2179.240723,2240.923340 2179.765137,2254.285156 
	C2179.925537,2258.370605 2184.962158,2261.359619 2188.522217,2259.676025 
	C2190.903809,2258.549561 2193.104736,2257.026855 2195.339844,2255.607422 
	C2215.812256,2242.606689 2238.340576,2238.304199 2262.218018,2239.933838 
	C2266.174561,2240.203857 2270.270752,2240.634521 2273.969238,2241.936523 
	C2278.875732,2243.663574 2284.305420,2245.488525 2284.892334,2252.047852 
	C2285.289307,2256.484131 2281.444092,2260.428223 2274.460205,2262.384766 
	C2270.633545,2263.457275 2266.632080,2263.947021 2262.686523,2264.548340 
	C2246.897949,2266.953857 2231.003662,2268.795166 2215.333008,2271.806641 
	C2198.730957,2274.996826 2183.323975,2281.073242 2170.952637,2297.742676 
M1763.653442,2351.644531 
	C1763.755493,2356.128662 1765.660156,2359.915039 1770.247559,2360.203857 
	C1781.489746,2360.911377 1792.782349,2361.220947 1804.041992,2361.011230 
	C1807.686279,2360.943115 1811.291382,2358.763428 1814.458740,2357.702393 
	C1816.935913,2338.384033 1815.946533,2291.635254 1812.747681,2269.122559 
	C1804.416992,2210.489990 1740.088623,2183.905273 1692.942139,2219.618408 
	C1689.772461,2222.019531 1686.919312,2225.062744 1683.398804,2226.664307 
	C1682.041016,2227.282227 1678.057983,2225.220215 1677.312622,2223.496582 
	C1675.319214,2218.886719 1680.291504,2212.940430 1673.807617,2207.754150 
	C1663.269409,2205.115234 1651.457642,2204.523926 1639.526367,2206.596191 
	C1632.508423,2207.815430 1630.083130,2210.151855 1628.857666,2216.530762 
	C1628.482422,2218.483887 1628.426758,2220.498047 1628.220337,2222.483887 
	C1623.877441,2264.269287 1623.671631,2306.210938 1623.670410,2348.150879 
	C1623.670288,2351.854736 1625.296143,2355.558594 1626.054321,2358.784180 
	C1649.670410,2363.814209 1661.252686,2363.247559 1676.403687,2356.087158 
	C1675.897949,2348.738037 1675.286377,2340.848389 1674.827515,2332.949951 
	C1674.132812,2320.995117 1673.171631,2309.037354 1673.058594,2297.073975 
	C1672.996460,2290.498291 1673.767700,2283.744873 1675.322998,2277.354004 
	C1680.929443,2254.317627 1698.500854,2241.556641 1722.159790,2242.734619 
	C1744.247559,2243.834473 1760.569336,2258.206543 1764.321167,2280.784668 
	C1765.729248,2289.257812 1766.066284,2298.014648 1765.887817,2306.621338 
	C1765.598389,2320.589111 1764.481934,2334.539307 1763.653442,2351.644531 
M1555.977661,2303.172607 
	C1568.446045,2300.679199 1580.577515,2297.437012 1590.781616,2289.204102 
	C1612.569092,2271.625732 1613.441406,2241.406250 1591.870728,2223.510010 
	C1585.380859,2218.125977 1577.369751,2213.922852 1569.374390,2211.125977 
	C1543.508911,2202.079590 1517.059448,2201.692627 1490.915527,2209.779053 
	C1447.287231,2223.273682 1433.405396,2260.996094 1438.023560,2294.850830 
	C1441.762207,2322.258545 1456.414307,2341.314941 1481.336914,2352.703125 
	C1486.156128,2354.905029 1491.129150,2356.974609 1496.239990,2358.300781 
	C1529.409546,2366.909912 1562.261475,2364.294678 1594.582397,2354.166504 
	C1609.568237,2349.470703 1611.211548,2346.262939 1610.573853,2331.001709 
	C1610.324097,2325.026611 1610.025269,2318.989258 1608.903442,2313.142578 
	C1608.366821,2310.346436 1605.857910,2307.928955 1603.778931,2304.597412 
	C1597.652832,2308.326172 1592.785278,2311.638184 1587.614746,2314.378418 
	C1559.325073,2329.373047 1530.726440,2331.967285 1502.005371,2315.646729 
	C1494.500366,2311.382080 1487.181152,2306.581299 1485.748291,2295.840332 
	C1497.556396,2295.038330 1507.570679,2301.755859 1518.608887,2302.326172 
	C1529.880981,2302.908447 1541.170410,2303.155029 1555.977661,2303.172607 
M2431.785400,2363.043701 
	C2443.735107,2362.417969 2455.731201,2362.243896 2467.618652,2361.014648 
	C2476.164795,2360.130615 2484.680176,2358.250000 2492.965820,2355.940674 
	C2495.687988,2355.181641 2499.442139,2351.831299 2499.640869,2349.412354 
	C2500.453613,2339.516113 2500.405762,2329.506836 2499.960449,2319.571289 
	C2499.797119,2315.928955 2496.089111,2314.155518 2492.579102,2314.373779 
	C2490.021484,2314.532715 2487.588379,2316.133301 2485.018555,2316.757324 
	C2474.718018,2319.258545 2464.495605,2322.801514 2454.040283,2323.779297 
	C2437.585693,2325.318115 2428.589844,2317.272461 2427.909424,2300.998291 
	C2427.270264,2285.710205 2427.542969,2270.344971 2428.253174,2255.052490 
	C2428.780273,2243.704102 2433.195068,2239.730225 2444.730957,2239.564453 
	C2456.710938,2239.391846 2468.703125,2240.264893 2480.692871,2240.408691 
	C2485.156982,2240.462158 2489.630127,2239.746094 2494.545898,2239.344482 
	C2497.593262,2228.710205 2497.463379,2219.154541 2494.684814,2208.514404 
	C2489.872803,2207.895996 2485.398926,2206.876709 2480.915039,2206.829834 
	C2468.924561,2206.704102 2456.927734,2207.152344 2444.937256,2207.029297 
	C2441.163818,2206.990723 2437.401367,2205.865479 2433.913574,2205.284424 
	C2429.229248,2194.315430 2436.178467,2183.071533 2430.283936,2172.822754 
	C2419.198730,2169.160400 2407.970947,2169.251953 2396.706543,2170.552002 
	C2386.402588,2171.741455 2384.661865,2173.932861 2383.243896,2184.334473 
	C2382.284912,2191.367432 2384.907715,2199.188965 2378.656494,2205.643799 
	C2367.707520,2209.312012 2355.098389,2203.713867 2342.850342,2210.287598 
	C2342.539551,2215.885498 2341.783936,2221.785645 2341.988037,2227.652588 
	C2342.289795,2236.325439 2345.303467,2238.752441 2354.617676,2239.371582 
	C2363.051025,2239.932373 2371.766357,2237.842773 2380.748779,2241.557373 
	C2380.748779,2246.492676 2380.820557,2251.008545 2380.736328,2255.521729 
	C2380.375977,2274.836182 2379.305176,2294.165283 2379.753174,2313.459961 
	C2380.275635,2335.962891 2393.292969,2352.368408 2414.718262,2359.426758 
	C2419.127441,2360.879395 2423.792725,2361.555420 2431.785400,2363.043701 
M2149.819580,2207.738770 
	C2145.934570,2206.826904 2142.089111,2205.629639 2138.153320,2205.082764 
	C2134.221191,2204.536377 2130.193115,2204.417480 2126.217773,2204.522949 
	C2122.246094,2204.627930 2118.258789,2205.061035 2114.333008,2205.690674 
	C2111.059326,2206.215576 2107.778564,2206.990234 2104.657959,2208.097168 
	C2100.916260,2209.425049 2097.161621,2210.914551 2093.744873,2212.905029 
	C2090.326416,2214.896484 2087.098633,2217.355225 2084.192139,2220.046387 
	C2081.283936,2222.739258 2078.856934,2225.956055 2076.256348,2228.975098 
	C2073.822510,2231.800537 2072.921387,2236.170654 2067.096191,2237.074219 
	C2060.334717,2228.276611 2072.487549,2218.237549 2065.583740,2208.640381 
	C2050.240479,2204.290283 2034.304688,2203.149902 2018.666870,2209.616943 
	C2017.758667,2212.517090 2016.780151,2214.365234 2016.640503,2216.274658 
	C2013.435791,2260.103271 2012.248779,2303.992676 2012.908813,2347.932129 
	C2012.938477,2349.914307 2012.671387,2352.324707 2013.659180,2353.775146 
	C2015.392700,2356.321045 2017.693481,2359.699219 2020.278564,2360.241699 
	C2033.408691,2362.997070 2046.727417,2362.682129 2059.952881,2360.525635 
	C2064.504883,2359.783447 2066.767578,2356.393066 2066.854248,2352.044678 
	C2066.932861,2348.087158 2066.053711,2344.120605 2065.870117,2340.145508 
	C2065.132568,2324.205078 2063.774658,2308.249756 2064.002441,2292.319336 
	C2064.332520,2269.267822 2086.831543,2246.869629 2111.352295,2247.330811 
	C2124.292725,2247.574219 2136.409180,2249.844238 2147.474365,2256.839600 
	C2151.239014,2259.219727 2155.270752,2261.177490 2160.295654,2263.941650 
	C2162.700195,2259.629395 2165.567139,2256.558594 2166.082764,2253.133789 
	C2167.166260,2245.934570 2166.538330,2238.488037 2167.479248,2231.255615 
	C2169.023193,2219.385742 2164.346680,2211.984131 2149.819580,2207.738770 
M2515.579346,2199.834717 
	C2514.472168,2245.123535 2513.346680,2290.412109 2512.281982,2335.701904 
	C2512.156738,2341.026855 2512.182129,2346.369629 2512.471436,2351.686035 
	C2512.708008,2356.032959 2514.901123,2359.531738 2519.372803,2360.279785 
	C2533.855713,2362.702637 2548.320801,2363.235107 2561.873535,2359.598389 
	C2566.537842,2352.197998 2564.237061,2345.453613 2564.053467,2338.976318 
	C2562.653564,2289.661621 2562.258057,2240.378418 2567.443848,2191.217285 
	C2568.282227,2183.269531 2569.234619,2175.326904 2569.778320,2167.357422 
	C2570.196289,2161.234131 2566.875732,2156.980713 2560.567627,2156.603271 
	C2550.612549,2156.007324 2540.582031,2155.824707 2530.626465,2156.326172 
	C2521.213379,2156.800537 2518.144043,2160.167969 2517.126953,2170.257080 
	C2516.259033,2178.864746 2516.141113,2187.548340 2515.579346,2199.834717 
z"/>
<path fill="#61B7A2" opacity="1.000000" stroke="none" 
	d="
M3218.464600,2486.989746 
	C3173.339355,2486.994873 3130.065918,2486.995605 3086.792725,2486.996094 
	C3084.129639,2486.996094 3081.465576,2487.045166 3078.803955,2486.984863 
	C3062.420654,2486.614258 3060.881836,2485.061768 3060.564453,2468.417236 
	C3060.437500,2461.761963 3060.742920,2455.083740 3060.305908,2448.451904 
	C3059.326904,2433.599854 3051.662354,2423.250244 3037.447021,2419.061523 
	C3029.282715,2416.656006 3020.529541,2416.037598 3011.984131,2415.193848 
	C3002.729736,2414.280029 2993.367920,2414.401123 2984.132080,2413.366211 
	C2978.911865,2412.781250 2973.661621,2411.257324 2968.754395,2409.320557 
	C2956.684326,2404.557373 2952.359863,2397.014404 2954.458496,2384.268799 
	C2955.644775,2377.064941 2958.112305,2370.071045 2959.279541,2362.865234 
	C2959.888184,2359.109131 2960.291016,2354.226074 2958.447021,2351.353760 
	C2949.947021,2338.112549 2950.670410,2323.957764 2952.587646,2309.448242 
	C2952.745361,2308.252930 2952.032715,2306.942871 2951.439941,2304.525879 
	C2946.905273,2302.152344 2941.510254,2299.674561 2936.470947,2296.612305 
	C2928.107178,2291.530029 2925.826904,2285.305908 2929.509521,2276.270020 
	C2931.749268,2270.774170 2935.074951,2265.696289 2938.142334,2260.567871 
	C2943.947266,2250.862061 2950.056152,2241.336670 2955.781982,2231.585449 
	C2962.611816,2219.954346 2964.171631,2207.654785 2958.155029,2195.312988 
	C2952.823730,2184.377197 2953.333252,2173.470459 2956.413574,2162.259033 
	C2976.288086,2089.921631 3019.886475,2041.915894 3095.730469,2027.881714 
	C3150.649902,2017.719238 3201.796143,2027.639282 3247.378662,2060.623047 
	C3306.860107,2103.663574 3335.031006,2187.782471 3300.145752,2262.088379 
	C3291.911865,2279.626709 3282.374023,2296.342285 3269.796143,2311.188232 
	C3268.505371,2312.711914 3267.324707,2314.333740 3265.976074,2315.803223 
	C3243.601807,2340.182617 3234.429932,2368.958740 3235.733398,2401.879395 
	C3236.654541,2425.143799 3236.069580,2448.475830 3235.828857,2471.774414 
	C3235.699463,2484.312744 3235.260986,2484.433350 3218.464600,2486.989746 
M3170.161377,2232.356689 
	C3173.200439,2245.952637 3176.257080,2259.544922 3179.272705,2273.146240 
	C3181.452881,2282.979248 3186.865234,2290.480469 3196.562744,2293.401123 
	C3210.230957,2297.518311 3212.703369,2307.727295 3212.550293,2319.795654 
	C3212.491455,2324.429443 3211.604736,2329.121582 3212.142822,2333.662842 
	C3212.380615,2335.666992 3214.933838,2337.966309 3217.000244,2338.969727 
	C3218.239258,2339.572021 3221.388428,2338.481689 3222.252686,2337.194092 
	C3224.793945,2333.409424 3227.625244,2329.357910 3228.540283,2325.029785 
	C3231.249023,2312.221680 3237.969238,2301.750977 3245.773926,2291.677246 
	C3249.847412,2286.419434 3253.871338,2281.070801 3257.348877,2275.414062 
	C3267.675781,2258.616455 3274.032715,2240.804199 3271.848633,2220.513428 
	C3271.234863,2214.808105 3272.182129,2208.559082 3273.963135,2203.061035 
	C3276.538818,2195.110352 3277.641113,2187.027588 3274.633545,2179.597412 
	C3271.206787,2171.130859 3270.970215,2162.978516 3272.116211,2154.276123 
	C3273.941650,2140.415039 3270.052734,2127.997314 3262.023193,2116.645020 
	C3259.381836,2112.910889 3256.884033,2108.854736 3255.383301,2104.573730 
	C3249.309814,2087.249512 3237.613525,2076.856934 3219.375732,2074.054688 
	C3214.027100,2073.232910 3209.180420,2071.787598 3205.279297,2067.493652 
	C3194.143799,2055.238037 3179.666504,2053.397705 3164.856689,2057.302490 
	C3156.491943,2059.507812 3149.848633,2058.892822 3142.038574,2055.560059 
	C3123.047607,2047.456055 3103.963135,2049.005859 3086.776611,2060.325928 
	C3078.713867,2065.636475 3070.971680,2069.159424 3061.311523,2069.941162 
	C3046.345703,2071.152344 3034.735107,2078.672363 3028.333496,2092.473877 
	C3025.074951,2099.498779 3020.047119,2104.131592 3014.075195,2108.583984 
	C2993.719727,2123.760254 2990.945557,2147.468018 2999.448975,2169.749023 
	C3008.142090,2192.528320 3026.026611,2201.823730 3050.327637,2197.464844 
	C3056.134521,2196.423584 3062.000977,2195.713135 3066.872559,2194.993164 
	C3088.927979,2213.696777 3112.567627,2218.364014 3138.787598,2210.470703 
	C3141.332275,2209.704590 3143.808594,2208.598633 3146.403320,2208.130615 
	C3155.733643,2206.447754 3161.903564,2209.237061 3166.182129,2217.710693 
	C3167.935303,2221.183105 3168.342773,2225.334717 3170.161377,2232.356689 
z"/>
<path fill="#343434" opacity="1.000000" stroke="none" 
	d="
M2681.344727,2362.050049 
	C2668.400391,2362.364014 2656.897705,2363.700439 2645.885498,2361.950928 
	C2611.413086,2356.474854 2590.020020,2333.051025 2588.260498,2298.066406 
	C2587.260010,2278.168457 2588.950684,2258.129150 2589.595703,2238.158936 
	C2589.745850,2233.511230 2590.861328,2228.896240 2591.035889,2224.247559 
	C2591.615234,2208.823486 2594.127686,2206.939209 2610.597656,2205.406006 
	C2621.193359,2204.419678 2631.870850,2204.671631 2643.085205,2209.674072 
	C2643.085205,2214.640381 2643.548096,2219.849121 2642.996338,2224.948242 
	C2641.491943,2238.851318 2639.668701,2252.723145 2637.759766,2266.578125 
	C2636.365234,2276.700928 2637.610596,2286.592773 2640.362061,2296.245605 
	C2645.197510,2313.208984 2657.325195,2322.933594 2674.979492,2324.666748 
	C2694.964111,2326.629150 2707.569824,2320.266846 2716.272705,2303.520996 
	C2721.279297,2293.887695 2723.981445,2283.468018 2723.181885,2272.678467 
	C2721.903564,2255.434326 2719.770508,2238.254150 2718.016602,2221.044922 
	C2717.690674,2217.846191 2717.448486,2214.639160 2717.141846,2211.140869 
	C2725.583496,2204.354980 2735.134277,2205.509277 2744.216797,2205.190674 
	C2748.838623,2205.028564 2753.537109,2205.621826 2758.129150,2206.335938 
	C2768.233643,2207.907959 2770.540527,2210.119873 2771.387207,2220.458496 
	C2772.910156,2239.053467 2774.483643,2257.667236 2775.131836,2276.304688 
	C2775.965576,2300.275635 2775.986572,2324.277100 2776.215332,2348.266846 
	C2776.521973,2380.400146 2761.156982,2402.579834 2732.631836,2416.271973 
	C2718.653320,2422.981689 2703.878174,2426.984375 2688.443359,2427.793213 
	C2660.427002,2429.262207 2632.479492,2428.284912 2604.748535,2423.626465 
	C2601.476318,2423.076660 2598.250488,2422.181396 2595.050781,2421.277832 
	C2584.155762,2418.200684 2582.859131,2416.771729 2583.304443,2406.251465 
	C2583.698975,2396.937988 2584.268066,2387.600098 2585.455811,2378.362549 
	C2586.385010,2371.138184 2591.888916,2368.416016 2598.578613,2372.151367 
	C2612.798584,2380.091309 2628.155518,2384.226807 2644.018311,2386.571777 
	C2667.236816,2390.004150 2689.251953,2386.501465 2708.827637,2372.789795 
	C2719.469482,2365.335693 2728.093018,2356.200195 2728.622314,2342.101562 
	C2728.693848,2340.192871 2728.004883,2338.255859 2727.426025,2334.950684 
	C2724.789307,2336.208252 2721.905029,2336.624512 2720.850342,2338.237305 
	C2711.844727,2352.009766 2699.008301,2359.322998 2681.344727,2362.050049 
z"/>
<path fill="#343434" opacity="1.000000" stroke="none" 
	d="
M1238.799316,2345.332520 
	C1188.748535,2313.923340 1185.721069,2212.226074 1254.677246,2175.551025 
	C1272.057251,2166.307373 1290.583984,2161.526611 1310.051025,2160.479980 
	C1337.671753,2158.994873 1364.412720,2164.100586 1390.409912,2173.034912 
	C1405.425537,2178.195312 1406.874268,2181.176758 1405.080688,2196.489014 
	C1403.698486,2208.290283 1401.803955,2219.982422 1398.992188,2232.486084 
	C1395.555908,2232.108887 1392.591064,2232.621582 1390.778687,2231.410156 
	C1386.959229,2228.857422 1383.759766,2225.382568 1380.276978,2222.319092 
	C1360.658691,2205.063232 1337.480347,2198.479980 1311.862793,2200.512695 
	C1276.438110,2203.323242 1252.546021,2232.057373 1254.079956,2269.238281 
	C1255.309814,2299.043701 1269.623779,2315.755615 1298.896851,2321.830566 
	C1312.979614,2324.752686 1326.835205,2323.727539 1340.171753,2318.813232 
	C1363.418945,2310.246582 1377.675781,2287.150879 1362.250000,2261.131836 
	C1361.575073,2259.993652 1360.703735,2258.957764 1360.136108,2257.772705 
	C1357.661133,2252.605957 1359.839233,2248.134277 1365.154907,2247.592041 
	C1367.793579,2247.322754 1370.468140,2247.325684 1373.125977,2247.337646 
	C1387.100220,2247.400635 1401.074585,2247.473145 1415.047607,2247.652100 
	C1416.282227,2247.667969 1417.506958,2248.472656 1419.791382,2249.286865 
	C1420.591309,2250.852295 1422.608276,2253.072021 1422.803467,2255.441895 
	C1425.582031,2289.179932 1430.076782,2322.854248 1427.961914,2356.844971 
	C1419.348022,2363.745605 1409.682007,2360.979004 1400.731812,2361.164062 
	C1392.229736,2361.339844 1383.452515,2362.237793 1375.917236,2359.222656 
	C1368.645752,2351.751465 1376.578125,2343.002930 1371.782227,2334.862305 
	C1369.577148,2335.953125 1366.870483,2336.508545 1365.356567,2338.158691 
	C1343.183716,2362.324219 1314.490112,2365.078369 1284.479980,2362.426025 
	C1268.390259,2361.004395 1253.340698,2355.590576 1238.799316,2345.332520 
z"/>
<path fill="#343434" opacity="1.000000" stroke="none" 
	d="
M2171.720215,2296.455566 
	C2183.323975,2281.073242 2198.730957,2274.996826 2215.333008,2271.806641 
	C2231.003662,2268.795166 2246.897949,2266.953857 2262.686523,2264.548340 
	C2266.632080,2263.947021 2270.633545,2263.457275 2274.460205,2262.384766 
	C2281.444092,2260.428223 2285.289307,2256.484131 2284.892334,2252.047852 
	C2284.305420,2245.488525 2278.875732,2243.663574 2273.969238,2241.936523 
	C2270.270752,2240.634521 2266.174561,2240.203857 2262.218018,2239.933838 
	C2238.340576,2238.304199 2215.812256,2242.606689 2195.339844,2255.607422 
	C2193.104736,2257.026855 2190.903809,2258.549561 2188.522217,2259.676025 
	C2184.962158,2261.359619 2179.925537,2258.370605 2179.765137,2254.285156 
	C2179.240723,2240.923340 2180.727295,2227.830811 2185.271973,2215.291748 
	C2197.663086,2208.165039 2211.175781,2207.810791 2224.241943,2206.016357 
	C2244.163574,2203.279785 2264.084717,2203.488037 2283.858398,2207.761475 
	C2316.237061,2214.758545 2333.513184,2233.704834 2336.387695,2266.866699 
	C2338.572998,2292.075195 2339.779053,2317.369141 2341.381592,2342.627441 
	C2341.550049,2345.280762 2341.649658,2347.966064 2341.443115,2350.610107 
	C2341.013184,2356.113525 2338.394531,2359.378418 2333.157959,2360.360352 
	C2319.921631,2362.842285 2306.629639,2362.707031 2293.423584,2360.152588 
	C2288.396484,2359.179932 2285.778320,2355.379395 2285.616699,2350.034668 
	C2285.462646,2344.946533 2289.241699,2339.693359 2284.214600,2333.901611 
	C2282.341309,2334.970703 2279.784180,2335.702881 2278.304932,2337.383789 
	C2257.760742,2360.730713 2232.092773,2367.445557 2202.360107,2361.028076 
	C2172.322998,2354.544678 2159.917725,2334.449463 2167.747070,2305.001709 
	C2168.418701,2302.476318 2169.865723,2300.157471 2171.720215,2296.455566 
M2232.684326,2325.497559 
	C2246.253906,2328.446045 2259.036133,2326.112061 2270.806152,2319.048340 
	C2277.720947,2314.898682 2283.380859,2309.388184 2284.689697,2300.738281 
	C2285.808594,2293.343506 2282.556396,2286.882080 2275.439209,2285.428955 
	C2257.214355,2281.708252 2239.899902,2284.286865 2224.472412,2295.306885 
	C2218.813721,2299.349121 2215.342529,2304.908203 2216.251709,2312.258301 
	C2217.213867,2320.040039 2222.578857,2323.349365 2232.684326,2325.497559 
z"/>
<path fill="#343434" opacity="1.000000" stroke="none" 
	d="
M1763.683960,2350.070801 
	C1764.481934,2334.539307 1765.598389,2320.589111 1765.887817,2306.621338 
	C1766.066284,2298.014648 1765.729248,2289.257812 1764.321167,2280.784668 
	C1760.569336,2258.206543 1744.247559,2243.834473 1722.159790,2242.734619 
	C1698.500854,2241.556641 1680.929443,2254.317627 1675.322998,2277.354004 
	C1673.767700,2283.744873 1672.996460,2290.498291 1673.058594,2297.073975 
	C1673.171631,2309.037354 1674.132812,2320.995117 1674.827515,2332.949951 
	C1675.286377,2340.848389 1675.897949,2348.738037 1676.403687,2356.087158 
	C1661.252686,2363.247559 1649.670410,2363.814209 1626.054321,2358.784180 
	C1625.296143,2355.558594 1623.670288,2351.854736 1623.670410,2348.150879 
	C1623.671631,2306.210938 1623.877441,2264.269287 1628.220337,2222.483887 
	C1628.426758,2220.498047 1628.482422,2218.483887 1628.857666,2216.530762 
	C1630.083130,2210.151855 1632.508423,2207.815430 1639.526367,2206.596191 
	C1651.457642,2204.523926 1663.269409,2205.115234 1673.807617,2207.754150 
	C1680.291504,2212.940430 1675.319214,2218.886719 1677.312622,2223.496582 
	C1678.057983,2225.220215 1682.041016,2227.282227 1683.398804,2226.664307 
	C1686.919312,2225.062744 1689.772461,2222.019531 1692.942139,2219.618408 
	C1740.088623,2183.905273 1804.416992,2210.489990 1812.747681,2269.122559 
	C1815.946533,2291.635254 1816.935913,2338.384033 1814.458740,2357.702393 
	C1811.291382,2358.763428 1807.686279,2360.943115 1804.041992,2361.011230 
	C1792.782349,2361.220947 1781.489746,2360.911377 1770.247559,2360.203857 
	C1765.660156,2359.915039 1763.755493,2356.128662 1763.683960,2350.070801 
M1678.053955,2231.985352 
	C1678.195312,2230.796631 1678.336792,2229.607910 1678.478149,2228.419189 
	C1677.698120,2228.940430 1676.918213,2229.461914 1678.053955,2231.985352 
z"/>
<path fill="#343434" opacity="1.000000" stroke="none" 
	d="
M1877.250732,2302.104004 
	C1893.602051,2323.411865 1916.535767,2327.994873 1941.285156,2326.035645 
	C1955.956787,2324.873779 1969.779663,2319.647217 1982.218628,2311.354004 
	C1985.471924,2309.184814 1988.900024,2307.277832 1993.430176,2304.534424 
	C1995.730713,2308.390625 1998.948975,2311.395508 1999.176636,2314.611816 
	C1999.876465,2324.501221 1999.431519,2334.471436 1999.431519,2344.348877 
	C1995.256958,2351.447266 1987.859375,2353.480713 1981.002930,2355.374268 
	C1951.120117,2363.627197 1920.757690,2366.836426 1890.288452,2359.340088 
	C1880.117188,2356.837891 1869.989990,2352.571777 1860.996460,2347.185303 
	C1840.195679,2334.727783 1829.135986,2315.672363 1827.519165,2291.387695 
	C1826.674316,2278.698730 1827.086548,2266.123779 1831.818970,2254.027344 
	C1839.803833,2233.616943 1854.185669,2219.476074 1874.539429,2211.947266 
	C1903.744995,2201.144043 1933.298340,2201.599365 1962.419189,2212.246094 
	C1969.734497,2214.920654 1976.644287,2219.541016 1982.770020,2224.472412 
	C2000.018555,2238.358887 2004.067383,2271.288574 1980.788818,2289.020996 
	C1968.111084,2298.678467 1953.607910,2302.834229 1938.070435,2303.701416 
	C1919.983765,2304.710938 1902.182495,2302.901855 1882.304077,2295.674072 
	C1873.747681,2295.690674 1874.849365,2298.690918 1877.250732,2302.104004 
M1943.380005,2274.536621 
	C1949.701294,2269.680176 1953.128174,2263.419922 1950.917114,2255.466064 
	C1948.581909,2247.065674 1942.388062,2242.076660 1934.032715,2240.323730 
	C1921.516602,2237.697998 1908.744995,2237.255371 1896.728516,2241.878662 
	C1890.142944,2244.412598 1883.587769,2248.547119 1878.690430,2253.584717 
	C1871.628296,2260.849121 1874.387451,2270.924316 1884.130127,2274.184082 
	C1902.620483,2280.370361 1921.468506,2283.592041 1943.380005,2274.536621 
z"/>
<path fill="#343434" opacity="1.000000" stroke="none" 
	d="
M1554.214966,2303.360840 
	C1541.170410,2303.155029 1529.880981,2302.908447 1518.608887,2302.326172 
	C1507.570679,2301.755859 1497.556396,2295.038330 1485.748291,2295.840332 
	C1487.181152,2306.581299 1494.500366,2311.382080 1502.005371,2315.646729 
	C1530.726440,2331.967285 1559.325073,2329.373047 1587.614746,2314.378418 
	C1592.785278,2311.638184 1597.652832,2308.326172 1603.778931,2304.597412 
	C1605.857910,2307.928955 1608.366821,2310.346436 1608.903442,2313.142578 
	C1610.025269,2318.989258 1610.324097,2325.026611 1610.573853,2331.001709 
	C1611.211548,2346.262939 1609.568237,2349.470703 1594.582397,2354.166504 
	C1562.261475,2364.294678 1529.409546,2366.909912 1496.239990,2358.300781 
	C1491.129150,2356.974609 1486.156128,2354.905029 1481.336914,2352.703125 
	C1456.414307,2341.314941 1441.762207,2322.258545 1438.023560,2294.850830 
	C1433.405396,2260.996094 1447.287231,2223.273682 1490.915527,2209.779053 
	C1517.059448,2201.692627 1543.508911,2202.079590 1569.374390,2211.125977 
	C1577.369751,2213.922852 1585.380859,2218.125977 1591.870728,2223.510010 
	C1613.441406,2241.406250 1612.569092,2271.625732 1590.781616,2289.204102 
	C1580.577515,2297.437012 1568.446045,2300.679199 1554.214966,2303.360840 
M1512.456787,2240.090088 
	C1503.360107,2242.526611 1494.790771,2245.953857 1488.718262,2253.623047 
	C1482.402710,2261.598877 1483.607544,2269.299805 1492.546631,2273.173584 
	C1509.411133,2280.481934 1527.103882,2281.950439 1545.096436,2278.258789 
	C1548.235962,2277.614502 1551.320435,2275.887207 1554.018433,2274.053711 
	C1563.151855,2267.846924 1564.289795,2253.524658 1555.708374,2246.469727 
	C1551.805908,2243.261230 1546.519531,2240.668457 1541.574097,2240.034912 
	C1533.116943,2238.951416 1524.434082,2239.629150 1512.456787,2240.090088 
z"/>
<path fill="#343434" opacity="1.000000" stroke="none" 
	d="
M2430.062500,2362.816406 
	C2423.792725,2361.555420 2419.127441,2360.879395 2414.718262,2359.426758 
	C2393.292969,2352.368408 2380.275635,2335.962891 2379.753174,2313.459961 
	C2379.305176,2294.165283 2380.375977,2274.836182 2380.736328,2255.521729 
	C2380.820557,2251.008545 2380.748779,2246.492676 2380.748779,2241.557373 
	C2371.766357,2237.842773 2363.051025,2239.932373 2354.617676,2239.371582 
	C2345.303467,2238.752441 2342.289795,2236.325439 2341.988037,2227.652588 
	C2341.783936,2221.785645 2342.539551,2215.885498 2342.850342,2210.287598 
	C2355.098389,2203.713867 2367.707520,2209.312012 2378.656494,2205.643799 
	C2384.907715,2199.188965 2382.284912,2191.367432 2383.243896,2184.334473 
	C2384.661865,2173.932861 2386.402588,2171.741455 2396.706543,2170.552002 
	C2407.970947,2169.251953 2419.198730,2169.160400 2430.283936,2172.822754 
	C2436.178467,2183.071533 2429.229248,2194.315430 2433.913574,2205.284424 
	C2437.401367,2205.865479 2441.163818,2206.990723 2444.937256,2207.029297 
	C2456.927734,2207.152344 2468.924561,2206.704102 2480.915039,2206.829834 
	C2485.398926,2206.876709 2489.872803,2207.895996 2494.684814,2208.514404 
	C2497.463379,2219.154541 2497.593262,2228.710205 2494.545898,2239.344482 
	C2489.630127,2239.746094 2485.156982,2240.462158 2480.692871,2240.408691 
	C2468.703125,2240.264893 2456.710938,2239.391846 2444.730957,2239.564453 
	C2433.195068,2239.730225 2428.780273,2243.704102 2428.253174,2255.052490 
	C2427.542969,2270.344971 2427.270264,2285.710205 2427.909424,2300.998291 
	C2428.589844,2317.272461 2437.585693,2325.318115 2454.040283,2323.779297 
	C2464.495605,2322.801514 2474.718018,2319.258545 2485.018555,2316.757324 
	C2487.588379,2316.133301 2490.021484,2314.532715 2492.579102,2314.373779 
	C2496.089111,2314.155518 2499.797119,2315.928955 2499.960449,2319.571289 
	C2500.405762,2329.506836 2500.453613,2339.516113 2499.640869,2349.412354 
	C2499.442139,2351.831299 2495.687988,2355.181641 2492.965820,2355.940674 
	C2484.680176,2358.250000 2476.164795,2360.130615 2467.618652,2361.014648 
	C2455.731201,2362.243896 2443.735107,2362.417969 2430.062500,2362.816406 
z"/>
<path fill="#343434" opacity="1.000000" stroke="none" 
	d="
M2151.415527,2208.159180 
	C2164.346680,2211.984131 2169.023193,2219.385742 2167.479248,2231.255615 
	C2166.538330,2238.488037 2167.166260,2245.934570 2166.082764,2253.133789 
	C2165.567139,2256.558594 2162.700195,2259.629395 2160.295654,2263.941650 
	C2155.270752,2261.177490 2151.239014,2259.219727 2147.474365,2256.839600 
	C2136.409180,2249.844238 2124.292725,2247.574219 2111.352295,2247.330811 
	C2086.831543,2246.869629 2064.332520,2269.267822 2064.002441,2292.319336 
	C2063.774658,2308.249756 2065.132568,2324.205078 2065.870117,2340.145508 
	C2066.053711,2344.120605 2066.932861,2348.087158 2066.854248,2352.044678 
	C2066.767578,2356.393066 2064.504883,2359.783447 2059.952881,2360.525635 
	C2046.727417,2362.682129 2033.408691,2362.997070 2020.278564,2360.241699 
	C2017.693481,2359.699219 2015.392700,2356.321045 2013.659180,2353.775146 
	C2012.671387,2352.324707 2012.938477,2349.914307 2012.908813,2347.932129 
	C2012.248779,2303.992676 2013.435791,2260.103271 2016.640503,2216.274658 
	C2016.780151,2214.365234 2017.758667,2212.517090 2018.666870,2209.616943 
	C2034.304688,2203.149902 2050.240479,2204.290283 2065.583740,2208.640381 
	C2072.487549,2218.237549 2060.334717,2228.276611 2067.096191,2237.074219 
	C2072.921387,2236.170654 2073.822510,2231.800537 2076.256348,2228.975098 
	C2078.856934,2225.956055 2081.283936,2222.739258 2084.192139,2220.046387 
	C2087.098633,2217.355225 2090.326416,2214.896484 2093.744873,2212.905029 
	C2097.161621,2210.914551 2100.916260,2209.425049 2104.657959,2208.097168 
	C2107.778564,2206.990234 2111.059326,2206.215576 2114.333008,2205.690674 
	C2118.258789,2205.061035 2122.246094,2204.627930 2126.217773,2204.522949 
	C2130.193115,2204.417480 2134.221191,2204.536377 2138.153320,2205.082764 
	C2142.089111,2205.629639 2145.934570,2206.826904 2151.415527,2208.159180 
z"/>
<path fill="#343434" opacity="1.000000" stroke="none" 
	d="
M2515.635254,2198.016602 
	C2516.141113,2187.548340 2516.259033,2178.864746 2517.126953,2170.257080 
	C2518.144043,2160.167969 2521.213379,2156.800537 2530.626465,2156.326172 
	C2540.582031,2155.824707 2550.612549,2156.007324 2560.567627,2156.603271 
	C2566.875732,2156.980713 2570.196289,2161.234131 2569.778320,2167.357422 
	C2569.234619,2175.326904 2568.282227,2183.269531 2567.443848,2191.217285 
	C2562.258057,2240.378418 2562.653564,2289.661621 2564.053467,2338.976318 
	C2564.237061,2345.453613 2566.537842,2352.197998 2561.873535,2359.598389 
	C2548.320801,2363.235107 2533.855713,2362.702637 2519.372803,2360.279785 
	C2514.901123,2359.531738 2512.708008,2356.032959 2512.471436,2351.686035 
	C2512.182129,2346.369629 2512.156738,2341.026855 2512.281982,2335.701904 
	C2513.346680,2290.412109 2514.472168,2245.123535 2515.635254,2198.016602 
z"/>
<path fill="#FFFFFF" opacity="1.000000" stroke="none" 
	d="
M3169.761963,2230.767090 
	C3168.342773,2225.334717 3167.935303,2221.183105 3166.182129,2217.710693 
	C3161.903564,2209.237061 3155.733643,2206.447754 3146.403320,2208.130615 
	C3143.808594,2208.598633 3141.332275,2209.704590 3138.787598,2210.470703 
	C3112.567627,2218.364014 3088.927979,2213.696777 3066.872559,2194.993164 
	C3062.000977,2195.713135 3056.134521,2196.423584 3050.327637,2197.464844 
	C3026.026611,2201.823730 3008.142090,2192.528320 2999.448975,2169.749023 
	C2990.945557,2147.468018 2993.719727,2123.760254 3014.075195,2108.583984 
	C3020.047119,2104.131592 3025.074951,2099.498779 3028.333496,2092.473877 
	C3034.735107,2078.672363 3046.345703,2071.152344 3061.311523,2069.941162 
	C3070.971680,2069.159424 3078.713867,2065.636475 3086.776611,2060.325928 
	C3103.963135,2049.005859 3123.047607,2047.456055 3142.038574,2055.560059 
	C3149.848633,2058.892822 3156.491943,2059.507812 3164.856689,2057.302490 
	C3179.666504,2053.397705 3194.143799,2055.238037 3205.279297,2067.493652 
	C3209.180420,2071.787598 3214.027100,2073.232910 3219.375732,2074.054688 
	C3237.613525,2076.856934 3249.309814,2087.249512 3255.383301,2104.573730 
	C3256.884033,2108.854736 3259.381836,2112.910889 3262.023193,2116.645020 
	C3270.052734,2127.997314 3273.941650,2140.415039 3272.116211,2154.276123 
	C3270.970215,2162.978516 3271.206787,2171.130859 3274.633545,2179.597412 
	C3277.641113,2187.027588 3276.538818,2195.110352 3273.963135,2203.061035 
	C3272.182129,2208.559082 3271.234863,2214.808105 3271.848633,2220.513428 
	C3274.032715,2240.804199 3267.675781,2258.616455 3257.348877,2275.414062 
	C3253.871338,2281.070801 3249.847412,2286.419434 3245.773926,2291.677246 
	C3237.969238,2301.750977 3231.249023,2312.221680 3228.540283,2325.029785 
	C3227.625244,2329.357910 3224.793945,2333.409424 3222.252686,2337.194092 
	C3221.388428,2338.481689 3218.239258,2339.572021 3217.000244,2338.969727 
	C3214.933838,2337.966309 3212.380615,2335.666992 3212.142822,2333.662842 
	C3211.604736,2329.121582 3212.491455,2324.429443 3212.550293,2319.795654 
	C3212.703369,2307.727295 3210.230957,2297.518311 3196.562744,2293.401123 
	C3186.865234,2290.480469 3181.452881,2282.979248 3179.272705,2273.146240 
	C3176.257080,2259.544922 3173.200439,2245.952637 3169.761963,2230.767090 
M3099.499023,2108.990723 
	C3093.093018,2128.171143 3083.262695,2146.264648 3079.591064,2167.757080 
	C3088.851807,2168.720459 3096.476318,2171.335449 3101.309814,2161.325195 
	C3102.447754,2158.968262 3106.404297,2157.014648 3109.284668,2156.658203 
	C3115.097656,2155.939453 3121.062256,2156.444092 3125.986816,2156.444092 
	C3129.839111,2161.284180 3132.671143,2164.842285 3135.200439,2168.020020 
	C3146.455566,2168.802246 3156.982178,2169.738037 3167.529541,2170.192871 
	C3174.153564,2170.478271 3180.837158,2170.383789 3187.441650,2169.833496 
	C3194.119629,2169.277100 3197.105469,2161.895508 3192.798828,2156.509766 
	C3190.447754,2153.569824 3187.073242,2151.448730 3185.055664,2149.724121 
	C3185.055664,2136.814453 3185.055664,2125.579346 3185.055664,2114.712891 
	C3191.402588,2110.137939 3198.574951,2106.490234 3191.929199,2096.509277 
	C3180.704590,2095.528320 3169.054443,2094.503174 3157.809570,2097.380615 
	C3155.627197,2102.872803 3155.660889,2107.086914 3159.729248,2110.829346 
	C3161.566162,2112.518799 3164.141602,2114.833252 3164.142090,2116.864746 
	C3164.145508,2132.580566 3169.982666,2149.801025 3152.958496,2162.309326 
	C3141.269531,2141.470459 3137.084961,2117.435059 3125.494385,2096.568848 
	C3118.258789,2096.568848 3111.793457,2096.568848 3105.211914,2096.568848 
	C3103.403076,2100.130371 3101.919189,2103.052002 3099.499023,2108.990723 
z"/>
<path fill="#FFFFFF" opacity="1.000000" stroke="none" 
	d="
M2231.133301,2325.161133 
	C2222.578857,2323.349365 2217.213867,2320.040039 2216.251709,2312.258301 
	C2215.342529,2304.908203 2218.813721,2299.349121 2224.472412,2295.306885 
	C2239.899902,2284.286865 2257.214355,2281.708252 2275.439209,2285.428955 
	C2282.556396,2286.882080 2285.808594,2293.343506 2284.689697,2300.738281 
	C2283.380859,2309.388184 2277.720947,2314.898682 2270.806152,2319.048340 
	C2259.036133,2326.112061 2246.253906,2328.446045 2231.133301,2325.161133 
z"/>
<path fill="#FFFFFF" opacity="1.000000" stroke="none" 
	d="
M1677.096069,2230.984375 
	C1676.918213,2229.461914 1677.698120,2228.940430 1678.478149,2228.419189 
	C1678.336792,2229.607910 1678.195312,2230.796631 1677.096069,2230.984375 
z"/>
<path fill="#FFFFFF" opacity="1.000000" stroke="none" 
	d="
M1941.956055,2275.291260 
	C1921.468506,2283.592041 1902.620483,2280.370361 1884.130127,2274.184082 
	C1874.387451,2270.924316 1871.628296,2260.849121 1878.690430,2253.584717 
	C1883.587769,2248.547119 1890.142944,2244.412598 1896.728516,2241.878662 
	C1908.744995,2237.255371 1921.516602,2237.697998 1934.032715,2240.323730 
	C1942.388062,2242.076660 1948.581909,2247.065674 1950.917114,2255.466064 
	C1953.128174,2263.419922 1949.701294,2269.680176 1941.956055,2275.291260 
z"/>
<path fill="#FFFFFF" opacity="1.000000" stroke="none" 
	d="
M1878.523804,2300.747070 
	C1874.849365,2298.690918 1873.747681,2295.690674 1880.684326,2295.575684 
	C1881.148315,2297.310059 1880.472534,2298.350098 1878.523804,2300.747070 
z"/>
<path fill="#FFFFFF" opacity="1.000000" stroke="none" 
	d="
M1514.151367,2239.828613 
	C1524.434082,2239.629150 1533.116943,2238.951416 1541.574097,2240.034912 
	C1546.519531,2240.668457 1551.805908,2243.261230 1555.708374,2246.469727 
	C1564.289795,2253.524658 1563.151855,2267.846924 1554.018433,2274.053711 
	C1551.320435,2275.887207 1548.235962,2277.614502 1545.096436,2278.258789 
	C1527.103882,2281.950439 1509.411133,2280.481934 1492.546631,2273.173584 
	C1483.607544,2269.299805 1482.402710,2261.598877 1488.718262,2253.623047 
	C1494.790771,2245.953857 1503.360107,2242.526611 1514.151367,2239.828613 
z"/>
<path fill="#61B7A2" opacity="1.000000" stroke="none" 
	d="
M3099.967285,2107.481934 
	C3101.919189,2103.052002 3103.403076,2100.130371 3105.211914,2096.568848 
	C3111.793457,2096.568848 3118.258789,2096.568848 3125.494385,2096.568848 
	C3137.084961,2117.435059 3141.269531,2141.470459 3152.958496,2162.309326 
	C3169.982666,2149.801025 3164.145508,2132.580566 3164.142090,2116.864746 
	C3164.141602,2114.833252 3161.566162,2112.518799 3159.729248,2110.829346 
	C3155.660889,2107.086914 3155.627197,2102.872803 3157.809570,2097.380615 
	C3169.054443,2094.503174 3180.704590,2095.528320 3191.929199,2096.509277 
	C3198.574951,2106.490234 3191.402588,2110.137939 3185.055664,2114.712891 
	C3185.055664,2125.579346 3185.055664,2136.814453 3185.055664,2149.724121 
	C3187.073242,2151.448730 3190.447754,2153.569824 3192.798828,2156.509766 
	C3197.105469,2161.895508 3194.119629,2169.277100 3187.441650,2169.833496 
	C3180.837158,2170.383789 3174.153564,2170.478271 3167.529541,2170.192871 
	C3156.982178,2169.738037 3146.455566,2168.802246 3135.200439,2168.020020 
	C3132.671143,2164.842285 3129.839111,2161.284180 3125.986816,2156.444092 
	C3121.062256,2156.444092 3115.097656,2155.939453 3109.284668,2156.658203 
	C3106.404297,2157.014648 3102.447754,2158.968262 3101.309814,2161.325195 
	C3096.476318,2171.335449 3088.851807,2168.720459 3079.591064,2167.757080 
	C3083.262695,2146.264648 3093.093018,2128.171143 3099.967285,2107.481934 
M3119.660156,2130.502197 
	C3118.257324,2128.623535 3116.854492,2126.745117 3114.353516,2123.396240 
	C3111.911621,2130.095215 3110.183350,2134.836426 3107.807373,2141.354004 
	C3113.415527,2141.647217 3117.423584,2141.856689 3122.552246,2142.124756 
	C3121.566162,2138.027344 3120.967041,2135.536865 3119.660156,2130.502197 
z"/>
<path fill="#FFFFFF" opacity="1.000000" stroke="none" 
	d="
M3120.013916,2131.774414 
	C3120.967041,2135.536865 3121.566162,2138.027344 3122.552246,2142.124756 
	C3117.423584,2141.856689 3113.415527,2141.647217 3107.807373,2141.354004 
	C3110.183350,2134.836426 3111.911621,2130.095215 3114.353516,2123.396240 
	C3116.854492,2126.745117 3118.257324,2128.623535 3120.013916,2131.774414 
z"/>
</svg>