<?xml version="1.0" encoding="UTF-8"?>
<svg id="Layer_2" data-name="Layer 2" xmlns="http://www.w3.org/2000/svg" xmlns:xlink="http://www.w3.org/1999/xlink" viewBox="0 0 510.71 389.18">
  <defs>
    <style>
      .cls-1 {
        fill: url(#linear-gradient-2);
      }

      .cls-2 {
        opacity: .29;
      }

      .cls-3 {
        fill: url(#linear-gradient-3);
      }

      .cls-4 {
        fill: url(#linear-gradient);
      }

      .cls-5 {
        opacity: .7;
      }
    </style>
    <linearGradient id="linear-gradient" x1="2193.66" y1="-2075.92" x2="2055.16" y2="-1583.47" gradientTransform="translate(-2579.69 42.2) rotate(45)" gradientUnits="userSpaceOnUse">
      <stop offset="0" stop-color="#6ee7b7"/>
      <stop offset="1" stop-color="#a78bfa"/>
    </linearGradient>
    <linearGradient id="linear-gradient-2" x1="2148.09" y1="-2088.73" x2="2009.59" y2="-1596.28" xlink:href="#linear-gradient"/>
    <linearGradient id="linear-gradient-3" x1="2104.79" y1="-2100.91" x2="1966.29" y2="-1608.46" xlink:href="#linear-gradient"/>
  </defs>
  <g id="Layer_1-2" data-name="Layer 1">
    <g>
      <path class="cls-4" d="M316.12,389.18c-107.3,0-194.59-87.29-194.59-194.59C121.53,87.29,208.83,0,316.12,0s194.59,87.29,194.59,194.59c0,107.3-87.29,194.59-194.59,194.59ZM316.12,59.14c-74.69,0-135.45,60.76-135.45,135.45,0,74.69,60.76,135.45,135.45,135.45,74.69,0,135.45-60.76,135.45-135.45,0-74.69-60.76-135.45-135.45-135.45Z"/>
      <g class="cls-5">
        <path class="cls-1" d="M219.37,360.59c-91.54,0-166.01-74.47-166.01-166.01,0-91.54,74.47-166.01,166.01-166.01,91.54,0,166.01,74.47,166.01,166.01,0,91.54-74.47,166.01-166.01,166.01ZM219.37,79.03c-63.72,0-115.56,51.84-115.56,115.55,0,63.72,51.84,115.56,115.56,115.56,63.72,0,115.56-51.84,115.56-115.56,0-63.72-51.84-115.55-115.56-115.55Z"/>
      </g>
      <g class="cls-2">
        <path class="cls-3" d="M127.44,322.03C57.17,322.03,0,264.86,0,194.59c0-70.27,57.17-127.44,127.44-127.44,70.27,0,127.44,57.17,127.44,127.44,0,70.27-57.17,127.44-127.44,127.44ZM127.44,105.88c-48.91,0-88.71,39.8-88.71,88.71,0,48.91,39.8,88.71,88.71,88.71,48.91,0,88.71-39.8,88.71-88.71,0-48.91-39.8-88.71-88.71-88.71Z"/>
      </g>
    </g>
  </g>
</svg>