<?xml version="1.0" encoding="UTF-8"?>
<svg id="Layer_2" data-name="Layer 2" xmlns="http://www.w3.org/2000/svg" xmlns:xlink="http://www.w3.org/1999/xlink" viewBox="0 0 718.77 159.71">
  <defs>
    <style>
      .cls-1 {
        fill: url(#linear-gradient-2);
      }

      .cls-2 {
        opacity: .29;
      }

      .cls-3 {
        fill: #fff;
      }

      .cls-4 {
        fill: url(#linear-gradient-4);
      }

      .cls-5 {
        fill: url(#linear-gradient-3);
      }

      .cls-6 {
        fill: url(#linear-gradient-5);
      }

      .cls-7 {
        fill: url(#linear-gradient);
      }

      .cls-8 {
        opacity: .7;
      }
    </style>
    <linearGradient id="linear-gradient" x1="727.3" y1="1.41" x2="631.51" y2="118.71" gradientUnits="userSpaceOnUse">
      <stop offset="0" stop-color="#6ee7b7"/>
      <stop offset="1" stop-color="#a78bfa"/>
    </linearGradient>
    <linearGradient id="linear-gradient-2" x1="749.24" y1="20.45" x2="654.42" y2="136.55" xlink:href="#linear-gradient"/>
    <linearGradient id="linear-gradient-3" x1="328.52" y1="-2028.84" x2="271.68" y2="-1826.75" gradientTransform="translate(-1486.6 1253.79) rotate(45)" xlink:href="#linear-gradient"/>
    <linearGradient id="linear-gradient-4" x1="309.82" y1="-2034.09" x2="252.98" y2="-1832.01" gradientTransform="translate(-1486.6 1253.79) rotate(45)" xlink:href="#linear-gradient"/>
    <linearGradient id="linear-gradient-5" x1="292.05" y1="-2039.09" x2="235.22" y2="-1837" gradientTransform="translate(-1486.6 1253.79) rotate(45)" xlink:href="#linear-gradient"/>
  </defs>
  <g id="Layer_1-2" data-name="Layer 1">
    <g>
      <g>
        <path class="cls-3" d="M296.84,29.45h10.01v64.88h-10.01l-57.65-52.27.28,9.27v43.01h-10.01V29.45h9.92l57.65,52.27-.19-9.55V29.45Z"/>
        <path class="cls-3" d="M318.44,45.67h10.01v24.56c0,9.45,5,16.22,20.58,16.22,11.86,0,20.76-5,24.56-9.73v-31.05h10.01v48.66h-8.9l-.65-8.25-.09-.09c-5.19,4.45-14.18,9.73-27.34,9.73-20.2,0-28.18-10.84-28.18-25.4v-24.65Z"/>
        <path class="cls-3" d="M460.8,45.67l-29.75,48.66h-10.84l-29.66-48.66h11.68l14.92,25.49,8.53,14.46,8.43-14.46,14.92-25.49h11.77Z"/>
        <path class="cls-3" d="M496.48,44.28c21.5,0,33.37,10.75,33.37,25.67s-11.86,25.77-33.37,25.77-33.37-10.84-33.37-25.77,11.86-25.67,33.37-25.67ZM496.48,86.45c15.2,0,23.08-7.04,23.08-16.5s-7.88-16.41-23.08-16.41-23.17,6.86-23.17,16.41,7.88,16.5,23.17,16.5Z"/>
        <path class="cls-3" d="M606.95,94.33h-15.2l-30.59-20.39h-12.51v20.39h-10.01V29.18l10.01-1.11v37.81h12.7l31.33-20.2h14.46l-36.98,24.28,36.8,24.38Z"/>
      </g>
      <g>
        <path class="cls-7" d="M701.72,96.32h-11.49l-9.27-14.83h-48.84l-9.18,14.83h-11.58l39.48-64.88h11.49l39.39,64.88ZM639.9,68.52l-2.41,3.61h38.09l-2.32-3.61-16.68-28.27-16.68,28.27Z"/>
        <path class="cls-1" d="M708.76,50.07v-18.61h10.01v18.61h-10.01ZM708.76,96.32v-47.73l10.01-1.1v48.83h-10.01Z"/>
      </g>
      <g>
        <path class="cls-3" d="M245.71,124.17h-2.07l-1.67-2.67h-8.81l-1.66,2.67h-2.09l7.12-11.7h2.07l7.1,11.7ZM234.56,119.16l-.44.65h6.87l-.42-.65-3.01-5.1-3.01,5.1Z"/>
        <path class="cls-3" d="M246.81,112.47h1.81v11.7h-1.81v-11.7Z"/>
        <path class="cls-3" d="M251.54,117.9h7.94v1.42h-7.94v-1.42Z"/>
        <path class="cls-3" d="M262.4,124.17v-11.7h8.76c2.69,0,5.03,1.04,5.03,4.13s-2.34,4.15-5.03,4.15h-6.95v3.43h-1.8ZM264.2,114.16v4.9h7.07c1.72,0,3.06-.62,3.06-2.46s-1.34-2.44-3.06-2.44h-7.07Z"/>
        <path class="cls-3" d="M283.45,115.15c3.88,0,6.02,1.94,6.02,4.63s-2.14,4.65-6.02,4.65-6.02-1.96-6.02-4.65,2.14-4.63,6.02-4.63ZM283.45,122.75c2.74,0,4.16-1.27,4.16-2.98s-1.42-2.96-4.16-2.96-4.18,1.24-4.18,2.96,1.42,2.98,4.18,2.98Z"/>
        <path class="cls-3" d="M302.12,124.17l-1.49-3.19-1.56-3.49-1.55,3.49-1.49,3.19h-1.94l-4.04-8.78h1.99l2.01,4.6,1.02,2.29,1.02-2.29,2.01-4.6h1.96l2.02,4.6,1.02,2.29,1.02-2.29,2-4.6h1.99l-4.04,8.78h-1.94Z"/>
        <path class="cls-3" d="M310.64,120.53c.33,1.45,1.77,2.22,4.61,2.22,2.26,0,4.29-.45,4.78-.6l.35,1.57c-.58.22-2.64.7-5.06.7-4.43,0-6.62-1.62-6.62-4.58,0-2.57,1.9-4.7,5.87-4.7s6.82,1.79,5.68,5.38h-9.61ZM318.49,119.18c.27-1.61-1.39-2.39-3.85-2.39-2.69,0-3.71,1-4.04,2.39h7.89Z"/>
        <path class="cls-3" d="M322.42,115.46l1.74-.2.05,1.57.02.02c1.42-1.27,2.99-1.79,5.05-1.69l-.08,1.75c-1.72-.17-3.73.15-4.96,1.41v5.85h-1.8v-8.71Z"/>
        <path class="cls-3" d="M332.16,120.53c.33,1.45,1.77,2.22,4.61,2.22,2.26,0,4.29-.45,4.78-.6l.35,1.57c-.58.22-2.64.7-5.06.7-4.43,0-6.62-1.62-6.62-4.58,0-2.57,1.9-4.7,5.87-4.7s6.82,1.79,5.68,5.38h-9.61ZM340.02,119.18c.27-1.61-1.39-2.39-3.85-2.39-2.69,0-3.71,1-4.04,2.39h7.89Z"/>
        <path class="cls-3" d="M354.05,114.98v-2.56l1.8-.2v11.95h-1.61l-.12-1.56-.02-.02c-.85.82-2.67,1.82-5.13,1.82-3.44,0-5.38-1.96-5.38-4.68s1.8-4.6,5.68-4.6c1.7,0,3.44.4,4.76.99l.02-.02-.02-1.14ZM345.45,119.76c0,1.72,1.22,2.99,3.76,2.99,2.22,0,4.3-.97,4.85-1.82v-3.33c-1.32-.42-3.08-.79-4.6-.79-2.87,0-4.01,1.25-4.01,2.94Z"/>
        <path class="cls-3" d="M360.07,121.75v2.42h-1.62v-2.42h1.62Z"/>
        <path class="cls-3" d="M381.86,124.17v-5.18h-10.09v5.18h-1.81v-11.7h1.81v4.83h10.09v-4.83h1.8v11.7h-1.8Z"/>
        <path class="cls-3" d="M385.75,115.4h1.8v4.43c0,1.7.9,2.93,3.71,2.93,2.14,0,3.74-.9,4.43-1.76v-5.6h1.8v8.78h-1.61l-.12-1.49-.02-.02c-.94.8-2.56,1.75-4.93,1.75-3.64,0-5.08-1.96-5.08-4.58v-4.45Z"/>
        <path class="cls-3" d="M399.42,124.17v-8.71l1.74-.2.05.85.02.02c1.15-.55,2.24-.99,3.58-.99,1.8,0,2.99.49,3.74,1.27,1.3-.7,3.21-1.27,4.56-1.27,3.71,0,4.86,1.96,4.86,4.58v4.45h-1.8v-4.43c0-1.67-.52-2.92-3.24-2.92-1.49,0-2.71.45-3.69.85.25.6.37,1.3.37,2.05v4.45h-1.8v-4.43c0-1.67-.44-2.92-3.14-2.92-1.5,0-2.56.45-3.42.79v6.57h-1.81Z"/>
        <path class="cls-3" d="M432.56,124.17c-.68.17-1.25.25-1.7.25-1.67,0-1.82-.87-1.86-1.8-.85,1.05-2.86,1.8-4.76,1.8-2.56,0-4.35-1.09-4.35-3.11,0-2.19,2.29-2.76,4.43-2.76,1.49,0,3.54.22,4.59.49-.15-1.29-1.04-2.21-3.89-2.21-1.94,0-3.51.37-3.93.52l-.57-1.57c.5-.18,2.36-.63,4.5-.63,4.21,0,5.7,1.77,5.7,4.13v2.47c0,.65.15,1,.89,1,.25,0,.58-.05.95-.15v1.57ZM424.55,122.89c1.91,0,4.03-.89,4.36-2.01v-1.1h-4.68c-1.2,0-2.51.3-2.51,1.42s1.22,1.69,2.82,1.69Z"/>
        <path class="cls-3" d="M443.92,124.17v-4.43c0-1.67-.9-2.92-3.76-2.92-1.55,0-3.07.4-4.38.79v6.57h-1.81v-8.71l1.74-.2.05.85.02.02c1.27-.54,2.77-.99,4.56-.99,3.83,0,5.38,1.96,5.38,4.58v4.45h-1.8Z"/>
        <path class="cls-3" d="M448.48,117.9h7.94v1.42h-7.94v-1.42Z"/>
        <path class="cls-3" d="M473.58,123.49c-.75.25-2.84.94-5.95.94-6.08,0-8.62-2.62-8.62-6.1s2.54-6.1,8.62-6.1c3.11,0,5.2.69,5.95.94l-.42,1.62c-1.4-.42-3.24-.87-5.53-.87-4.88,0-6.79,1.86-6.79,4.41s1.91,4.41,6.79,4.41c2.29,0,4.13-.45,5.53-.87l.42,1.62Z"/>
        <path class="cls-3" d="M476.77,120.53c.33,1.45,1.77,2.22,4.61,2.22,2.26,0,4.3-.45,4.78-.6l.35,1.57c-.59.22-2.64.7-5.06.7-4.43,0-6.62-1.62-6.62-4.58,0-2.57,1.91-4.7,5.87-4.7s6.82,1.79,5.68,5.38h-9.61ZM484.62,119.18c.27-1.61-1.39-2.39-3.84-2.39-2.69,0-3.71,1-4.04,2.39h7.89Z"/>
        <path class="cls-3" d="M498.49,124.17v-4.43c0-1.67-.9-2.92-3.76-2.92-1.56,0-3.08.4-4.38.79v6.57h-1.8v-8.71l1.74-.2.05.85.02.02c1.27-.54,2.77-.99,4.56-.99,3.83,0,5.38,1.96,5.38,4.58v4.45h-1.8Z"/>
        <path class="cls-3" d="M504.52,115.4h2.69v1.51h-2.69v4.43c0,1.12.37,1.57,1.31,1.57.37,0,.83-.05,1.39-.13v1.41c-.7.15-1.34.25-1.89.25-1.64,0-2.61-.77-2.61-3.09v-4.43h-1.17v-1.51h1.17v-2.22l1.8-.2v2.42Z"/>
        <path class="cls-3" d="M510.32,120.53c.33,1.45,1.77,2.22,4.61,2.22,2.26,0,4.29-.45,4.78-.6l.35,1.57c-.58.22-2.64.7-5.06.7-4.43,0-6.62-1.62-6.62-4.58,0-2.57,1.9-4.7,5.87-4.7s6.82,1.79,5.68,5.38h-9.61ZM518.18,119.18c.27-1.61-1.39-2.39-3.85-2.39-2.69,0-3.71,1-4.04,2.39h7.89Z"/>
        <path class="cls-3" d="M522.1,115.46l1.74-.2.05,1.57.02.02c1.42-1.27,2.99-1.79,5.05-1.69l-.08,1.75c-1.72-.17-3.73.15-4.96,1.41v5.85h-1.81v-8.71Z"/>
        <path class="cls-3" d="M531.84,120.53c.33,1.45,1.77,2.22,4.61,2.22,2.26,0,4.29-.45,4.78-.6l.35,1.57c-.58.22-2.64.7-5.06.7-4.43,0-6.62-1.62-6.62-4.58,0-2.57,1.9-4.7,5.87-4.7s6.82,1.79,5.68,5.38h-9.61ZM539.7,119.18c.27-1.61-1.39-2.39-3.85-2.39-2.69,0-3.71,1-4.04,2.39h7.89Z"/>
        <path class="cls-3" d="M553.73,114.98v-2.56l1.8-.2v11.95h-1.6l-.12-1.56-.02-.02c-.85.82-2.67,1.82-5.13,1.82-3.44,0-5.38-1.96-5.38-4.68s1.8-4.6,5.68-4.6c1.71,0,3.44.4,4.76.99l.02-.02-.02-1.14ZM545.13,119.76c0,1.72,1.22,2.99,3.76,2.99,2.22,0,4.29-.97,4.85-1.82v-3.33c-1.32-.42-3.08-.79-4.6-.79-2.87,0-4.01,1.25-4.01,2.94Z"/>
        <path class="cls-3" d="M559.75,121.75v2.42h-1.62v-2.42h1.62Z"/>
      </g>
      <path class="cls-5" d="M129.73,159.71c-44.03,0-79.85-35.82-79.85-79.85C49.87,35.82,85.7,0,129.73,0c44.03,0,79.85,35.82,79.85,79.85,0,44.03-35.82,79.85-79.85,79.85ZM129.73,24.27c-30.65,0-55.59,24.94-55.59,55.58,0,30.65,24.94,55.59,55.59,55.59,30.65,0,55.59-24.94,55.59-55.59,0-30.65-24.94-55.58-55.59-55.58Z"/>
      <g class="cls-8">
        <path class="cls-4" d="M90.02,147.98c-37.56,0-68.12-30.56-68.12-68.12,0-37.56,30.56-68.12,68.12-68.12,37.56,0,68.12,30.56,68.12,68.12,0,37.56-30.56,68.12-68.12,68.12ZM90.02,32.43c-26.15,0-47.42,21.27-47.42,47.42,0,26.15,21.27,47.42,47.42,47.42,26.15,0,47.42-21.27,47.42-47.42,0-26.15-21.27-47.42-47.42-47.42Z"/>
      </g>
      <g class="cls-2">
        <path class="cls-6" d="M52.3,132.15C23.46,132.15,0,108.69,0,79.85,0,51.02,23.46,27.56,52.3,27.56c28.84,0,52.3,23.46,52.3,52.3s-23.46,52.3-52.3,52.3ZM52.3,43.45c-20.07,0-36.4,16.33-36.4,36.4,0,20.07,16.33,36.4,36.4,36.4,20.07,0,36.4-16.33,36.4-36.4,0-20.07-16.33-36.4-36.4-36.4Z"/>
      </g>
    </g>
  </g>
</svg>