<svg version="1.1" id="Layer_1" xmlns="http://www.w3.org/2000/svg" xmlns:xlink="http://www.w3.org/1999/xlink" x="0px" y="0px"
	 width="100%" viewBox="0 0 4693 1025" enable-background="new 0 0 4693 1025" xml:space="preserve">
<path fill="#000000" opacity="1.000000" stroke="none" 
	d="
M2.000000,504.000000 
	C2.000000,336.695129 2.000000,169.390259 2.000000,2.000000 
	C1409.398804,2.000000 2816.797607,2.000000 4225.625977,2.629435 
	C4224.973145,4.121172 4222.962891,5.304314 4220.796387,5.792287 
	C4209.171387,8.410797 4197.463867,10.671598 4185.864746,13.396313 
	C4152.491699,21.235708 4120.769531,33.210209 4090.405273,49.364315 
	C4056.906250,67.186066 4027.144287,89.788651 4001.287109,117.181526 
	C3974.289795,145.782822 3952.112793,177.944046 3934.471436,213.359665 
	C3917.623779,247.181732 3904.859375,282.232849 3897.532715,319.239227 
	C3895.743652,328.275574 3893.682129,337.710236 3894.513916,346.705750 
	C3895.721924,359.767822 3898.489014,372.855927 3905.589355,384.472137 
	C3911.854492,394.721710 3913.685791,406.431946 3913.373047,417.942749 
	C3913.011719,431.230865 3909.110840,444.240204 3902.267090,455.721771 
	C3889.367676,477.363281 3875.426270,498.382935 3862.469971,519.991882 
	C3853.783691,534.479126 3845.025635,549.080444 3838.166504,564.463135 
	C3830.885742,580.792419 3833.832520,595.029419 3852.082764,604.356506 
	C3862.070068,609.460754 3872.451416,613.869995 3882.902344,617.961182 
	C3888.412354,620.118164 3893.028076,622.713928 3895.253418,627.212158 
	C3892.158691,637.849548 3889.146729,647.609192 3886.516602,657.470703 
	C3884.991455,663.187622 3885.400635,669.301514 3889.668701,673.464294 
	C3894.395996,678.075317 3894.097656,682.448425 3892.199463,687.899292 
	C3887.827881,700.453003 3890.101562,711.118713 3900.728027,720.108582 
	C3904.208984,723.053467 3907.062256,728.095703 3907.813721,732.579346 
	C3908.833252,738.660095 3908.360352,745.291077 3907.109863,751.395691 
	C3903.391113,769.550842 3898.337646,787.447388 3895.023926,805.666504 
	C3891.927246,822.693176 3895.605713,837.855286 3910.881348,848.747314 
	C3926.665039,860.001648 3944.963623,863.695984 3963.367676,865.690735 
	C3984.799805,868.013672 4006.461182,868.767151 4028.038086,869.044312 
	C4046.844482,869.285828 4065.159424,871.607178 4082.763428,878.015625 
	C4104.851074,886.056213 4121.341797,900.270935 4127.540039,923.757935 
	C4129.962402,932.935669 4131.216797,942.617798 4131.518066,952.117493 
	C4132.120605,971.092041 4131.808105,990.100037 4131.635742,1009.092102 
	C4131.581055,1015.069824 4132.831543,1020.197144 4137.433105,1024.338257 
	C4138.144531,1024.978394 4137.836426,1026.750977 4138.000000,1028.000000 
	C2759.575195,1028.000000 1381.150146,1028.000000 2.000000,1028.000000 
	C2.000000,879.268677 2.000000,730.536133 2.568265,580.964722 
	C4.089017,580.754272 5.041504,581.382629 6.143767,582.869873 
	C6.370760,587.055481 5.882444,590.511841 6.610804,593.689331 
	C16.139462,635.258911 33.717438,672.082397 66.519859,700.996460 
	C95.234459,726.307251 128.249603,742.278992 165.269257,749.827576 
	C186.642014,754.185669 208.412048,756.171936 230.487640,754.291504 
	C252.000153,752.459045 273.311096,750.901428 294.258240,744.616760 
	C325.908325,735.120972 351.752319,717.957947 371.286469,691.372009 
	C373.892456,687.825256 377.225555,684.670654 381.019226,686.682129 
	C383.346375,687.916077 385.028900,692.804504 384.832520,695.914978 
	C384.166687,706.463806 382.784058,716.989014 381.209869,727.453247 
	C379.215393,740.711548 385.772644,749.493652 399.127014,750.031494 
	C415.402008,750.686890 431.694580,751.167358 447.980713,751.203674 
	C461.590637,751.234009 475.247131,751.069458 488.800140,749.969971 
	C501.811981,748.914246 507.814240,742.048950 507.593597,729.216553 
	C507.286011,711.327820 506.325256,693.450623 505.672882,675.567444 
	C504.971130,656.329651 504.425110,637.085144 503.565674,617.854553 
	C503.166382,608.919678 502.232208,600.006897 501.459381,591.091125 
	C500.201080,576.575073 498.891144,562.063538 497.574829,547.552612 
	C496.500702,535.711853 496.001282,523.774963 494.103180,512.066101 
	C492.432526,501.760406 486.974213,495.571136 477.147461,496.003357 
	C472.855621,496.192139 468.526672,495.292908 464.213562,495.281372 
	C434.567383,495.202209 404.920868,495.187103 375.274689,495.258301 
	C370.301270,495.270264 365.301178,495.566650 360.363525,496.153381 
	C354.416901,496.860016 350.595917,500.052521 349.898499,505.198242 
	C349.089020,511.171387 349.158234,517.038513 353.738556,522.045654 
	C356.611389,525.186218 359.129333,528.774658 361.212280,532.494812 
	C376.304932,559.450867 377.895508,586.919739 361.601379,613.677979 
	C346.091187,639.148804 321.655365,652.737305 293.454559,659.946838 
	C277.583405,664.004272 261.259552,664.418884 244.952591,664.078308 
	C219.404831,663.544739 195.255402,657.794312 172.698746,645.371704 
	C141.274002,628.065186 126.516739,599.576965 120.719513,566.052673 
	C118.223610,551.619385 117.617874,536.693054 119.828629,521.557190 
	C122.326920,504.452728 126.073067,488.020905 132.929749,472.245148 
	C144.123138,446.491608 162.006805,426.898102 186.219849,412.548645 
	C209.092499,398.993530 233.771622,392.382111 260.001160,392.341187 
	C274.837311,392.318054 289.747986,394.242828 304.499359,396.225586 
	C327.821716,399.360382 349.236725,408.005188 369.400818,420.108215 
	C385.501495,429.772308 399.512543,441.884613 412.806335,454.978546 
	C416.114227,458.236786 419.396820,461.689545 423.251190,464.189087 
	C431.342285,469.436157 438.586609,467.176727 442.839813,458.524261 
	C443.995728,456.172668 445.116150,453.657867 445.515533,451.102722 
	C449.596741,424.991302 453.525665,398.856079 457.497101,372.727509 
	C460.162750,355.189728 455.234711,344.400330 438.825867,337.706848 
	C421.975830,330.833405 404.663025,324.694092 387.052246,320.190704 
	C366.537842,314.944855 345.523499,311.582581 324.648071,307.837830 
	C297.790039,303.019836 270.812988,301.267181 243.425919,303.032227 
	C214.373062,304.904694 186.099442,309.800110 158.571198,319.088196 
	C140.941498,325.036530 124.088257,332.834290 108.325104,342.673035 
	C85.623268,356.842621 65.803719,374.382263 49.462753,395.688385 
	C33.395203,416.638062 21.252905,439.689514 13.794108,465.001190 
	C9.992192,477.903168 7.437747,491.172791 3.745917,504.153870 
	C2.781603,504.021027 2.390801,504.010529 2.000000,504.000000 
M3070.332764,845.351624 
	C3070.105225,848.334167 3069.855957,851.315247 3069.654297,854.299438 
	C3068.549805,870.642212 3072.151855,877.687500 3090.552490,882.595764 
	C3122.753662,891.185181 3155.708740,894.947388 3188.825439,897.154480 
	C3209.372314,898.523743 3230.022949,898.263672 3250.591797,899.386475 
	C3279.921387,900.987610 3308.971924,899.333435 3337.819824,893.825806 
	C3377.196289,886.308044 3413.506104,871.912109 3444.945557,846.441345 
	C3480.936035,817.283997 3498.853027,779.102722 3500.179199,733.274841 
	C3501.036865,703.641357 3500.591309,673.959900 3500.256836,644.305237 
	C3499.953369,617.393188 3499.024658,590.487915 3498.339355,563.580505 
	C3498.161865,556.609924 3498.094482,549.625183 3497.577148,542.676636 
	C3495.932373,520.574219 3493.979980,498.494476 3492.379395,476.389099 
	C3491.277344,461.170807 3491.207031,445.851379 3489.490723,430.711487 
	C3487.808838,415.873779 3485.704346,406.960358 3464.421143,404.398254 
	C3456.198730,403.408417 3447.788818,403.990845 3439.561523,403.026276 
	C3420.556641,400.798096 3401.833984,403.438873 3383.055420,405.480988 
	C3382.066162,405.588531 3381.072754,405.795593 3380.121094,406.086609 
	C3370.131836,409.141083 3365.778076,416.978363 3367.618896,427.413574 
	C3372.035400,452.450226 3376.817627,477.386963 3378.538818,502.882874 
	C3380.079102,525.700012 3382.338135,548.434631 3380.311523,571.299500 
	C3377.784668,599.805664 3368.512939,625.521118 3348.056885,646.307251 
	C3335.796875,658.764832 3321.219482,666.997559 3303.462891,667.986633 
	C3292.925537,668.573608 3282.201416,669.119873 3271.786377,667.845642 
	C3254.437012,665.722900 3238.146240,659.873596 3224.877686,647.889404 
	C3202.525635,627.701172 3194.832520,600.958252 3192.423584,572.239563 
	C3190.500244,549.307251 3194.479980,526.611145 3196.497559,503.857330 
	C3197.490723,492.660309 3198.828613,481.478577 3200.475586,470.358765 
	C3202.507324,456.637238 3205.073730,442.995697 3207.314941,429.304138 
	C3209.466797,416.158295 3204.868652,409.032196 3192.025635,405.702606 
	C3188.846924,404.878632 3185.541260,404.341278 3182.264893,404.139801 
	C3174.635986,403.670654 3166.913574,404.063751 3159.365967,403.067596 
	C3143.027344,400.911041 3126.916992,402.628540 3110.889893,405.239746 
	C3095.477051,407.750854 3089.575195,414.468384 3088.320801,429.607727 
	C3086.733154,448.772247 3085.041260,467.932831 3083.828857,487.122559 
	C3082.407471,509.616364 3081.247559,532.131775 3080.381104,554.653503 
	C3079.920410,566.631531 3080.449707,578.644226 3080.304688,590.638489 
	C3079.966797,618.592346 3085.023682,645.438477 3096.918701,670.803589 
	C3108.134033,694.719299 3124.174316,714.616394 3146.474365,729.240234 
	C3173.126953,746.718201 3202.959717,753.785889 3234.177490,755.116455 
	C3263.117676,756.349915 3291.800049,754.414124 3319.649414,744.719116 
	C3340.429688,737.485107 3357.554932,725.893433 3370.284424,707.973267 
	C3374.121338,702.571716 3377.417236,696.788574 3381.160645,691.316833 
	C3383.167236,688.383301 3386.215576,686.295410 3389.674072,688.118591 
	C3391.666260,689.168762 3393.864502,691.802734 3394.086670,693.921204 
	C3395.824707,710.503479 3392.699951,726.071716 3383.782715,740.428772 
	C3371.293945,760.536438 3353.385986,774.486389 3332.915283,785.401001 
	C3301.742920,802.021362 3268.306396,809.523987 3233.123535,807.006531 
	C3213.676270,805.615051 3194.193848,802.933899 3175.080322,799.082703 
	C3149.258057,793.879639 3124.816162,784.560852 3102.171143,770.600403 
	C3089.996582,763.094849 3077.562256,769.167847 3075.849121,783.337341 
	C3073.434814,803.304199 3072.127441,823.404846 3070.332764,845.351624 
M2377.737061,403.226105 
	C2371.781250,402.839050 2365.826904,402.149445 2359.869385,402.118530 
	C2336.925537,401.999512 2313.922852,401.067108 2291.050049,402.356506 
	C2260.570801,404.074707 2230.448730,408.916321 2200.986084,417.468719 
	C2187.270996,421.449860 2182.380615,426.169312 2180.374756,440.699524 
	C2178.067139,457.415222 2175.825928,474.141205 2173.733398,490.884918 
	C2172.996582,496.782288 2172.605469,502.738312 2172.376953,508.679840 
	C2172.083008,516.309509 2174.978760,522.316589 2182.243164,525.582397 
	C2189.506104,528.847656 2195.500977,526.389404 2201.511963,521.851379 
	C2208.355713,516.684570 2215.495850,511.777710 2222.988770,507.627869 
	C2245.845215,494.969635 2270.379395,487.115143 2296.236816,483.409027 
	C2302.785645,482.470459 2309.356934,481.690552 2315.901611,480.727203 
	C2340.296143,477.136414 2364.353516,479.254395 2387.868164,486.101135 
	C2393.979248,487.880463 2399.900391,491.889679 2404.708008,496.210541 
	C2412.630127,503.330322 2412.121338,513.537903 2403.733154,520.298035 
	C2399.477783,523.727417 2394.200195,526.365356 2388.960938,528.016846 
	C2361.904785,536.545349 2333.579834,537.967834 2305.731201,541.896667 
	C2286.377197,544.627136 2267.002197,546.626343 2247.899414,551.251526 
	C2224.776611,556.849976 2202.767578,564.786072 2183.011719,578.054626 
	C2164.583984,590.431091 2151.561035,606.724182 2145.679688,628.912048 
	C2142.442383,641.123840 2141.578125,653.210571 2142.559814,665.341553 
	C2144.308105,686.935242 2150.749512,706.783569 2167.137695,722.455872 
	C2180.748535,735.472351 2196.934570,743.435669 2214.792480,747.989807 
	C2240.678467,754.591064 2266.884033,756.518066 2293.601807,752.965698 
	C2314.377197,750.203430 2333.726562,743.509033 2351.671387,733.408081 
	C2372.116455,721.899841 2389.717285,706.827271 2400.982666,685.504700 
	C2403.003906,681.679260 2405.613770,678.072144 2412.044434,678.231323 
	C2412.756836,680.953674 2414.099121,683.927307 2414.188232,686.937988 
	C2414.314941,691.216431 2413.587402,695.529724 2413.104980,699.814636 
	C2411.996338,709.667175 2410.781250,719.507751 2409.676025,729.360657 
	C2408.923584,736.065430 2411.973389,741.196533 2417.493164,744.311340 
	C2422.009033,746.859497 2427.124512,749.557434 2432.110840,749.849365 
	C2453.007324,751.072327 2473.951904,751.683350 2494.885742,751.927551 
	C2501.778320,752.007996 2508.794678,750.782654 2515.574707,749.320923 
	C2530.594971,746.082520 2537.439209,736.435974 2536.239502,721.160278 
	C2535.616943,713.233948 2534.803711,705.317322 2534.405762,697.379822 
	C2533.524170,679.800598 2533.171387,662.189880 2532.019287,644.630249 
	C2530.154053,616.194763 2527.680176,587.799683 2525.729980,559.369202 
	C2524.252930,537.838684 2521.994629,516.614136 2514.763916,495.961212 
	C2502.434814,460.744995 2479.281982,435.671295 2445.682373,420.479309 
	C2424.754150,411.016693 2402.500488,405.506409 2377.737061,403.226105 
M910.353516,663.095398 
	C909.658386,654.848999 909.565002,646.495972 908.127869,638.380981 
	C905.942688,626.041199 895.071777,620.080933 884.589966,627.417419 
	C882.957703,628.559937 881.115112,629.439453 879.612671,630.724426 
	C855.988708,650.928650 827.700317,661.332520 798.069702,667.935547 
	C756.449036,677.210449 716.241882,671.933533 678.022705,652.715332 
	C659.959412,643.632324 644.062500,632.043945 633.544495,614.219177 
	C631.337341,610.478760 628.305481,606.777588 631.802368,602.449890 
	C635.163940,598.289673 639.141541,599.532043 643.500183,601.383728 
	C652.355774,605.145691 661.318665,608.753540 670.472168,611.693787 
	C685.982422,616.676086 701.934021,619.112610 718.241394,620.507202 
	C737.091125,622.119263 755.753418,623.996643 774.748047,622.264465 
	C800.037781,619.958252 824.573364,615.218201 847.100708,603.072693 
	C872.984131,589.117920 893.828735,570.355896 901.326477,540.554016 
	C908.792419,510.878265 903.463928,483.061371 885.233765,458.634583 
	C867.073364,434.301086 841.097412,420.858063 812.705566,412.255859 
	C792.380188,406.097687 771.531494,402.507294 750.079956,401.895142 
	C717.811035,400.974335 685.862915,400.722656 654.264771,409.530518 
	C629.330933,416.480774 606.218933,426.371063 585.805542,442.401642 
	C549.939209,470.567352 530.598083,508.073669 526.137573,552.738892 
	C524.343994,570.699036 524.654358,589.120422 527.381042,607.420715 
	C530.899109,631.033325 538.518005,652.870850 551.650208,672.576477 
	C576.822693,710.349182 613.457092,731.962219 656.282410,743.685486 
	C672.198975,748.042542 688.685425,750.717102 705.085022,752.790771 
	C719.534363,754.617798 734.230408,755.221436 748.806885,755.098694 
	C762.035583,754.987427 775.233398,752.844604 788.474060,752.173523 
	C811.800232,750.991455 834.534119,746.346130 857.029053,740.595947 
	C871.119202,736.994141 884.720154,731.784973 897.783142,725.152588 
	C908.867371,719.524902 912.361023,710.543579 911.695190,698.877686 
	C911.052490,687.616211 910.785339,676.333252 910.353516,663.095398 
M1435.915771,695.081116 
	C1456.688354,716.586487 1481.994507,730.695374 1510.067993,740.111511 
	C1546.604004,752.366089 1584.211914,755.740295 1622.587524,754.239258 
	C1652.184448,753.081543 1681.522705,750.245483 1710.391235,743.812866 
	C1723.301147,740.936157 1735.874023,736.389343 1748.406128,732.041687 
	C1754.635132,729.880676 1760.614136,726.787109 1766.360718,723.509705 
	C1771.674927,720.478760 1776.346313,716.085266 1776.232544,709.475586 
	C1775.837891,686.560120 1775.722900,663.599731 1774.073242,640.759583 
	C1772.904419,624.577942 1760.026367,619.523376 1747.405273,629.680908 
	C1723.618408,648.824402 1696.163818,660.747375 1667.022949,667.517822 
	C1617.673340,678.983643 1570.803955,670.700012 1527.629883,643.791565 
	C1515.327026,636.123779 1505.458618,625.852356 1498.323608,613.053833 
	C1496.225098,609.289246 1495.032837,605.458557 1497.653564,601.914490 
	C1500.601685,597.927917 1504.616211,599.425659 1508.508545,600.984375 
	C1517.742065,604.682007 1526.959595,608.459045 1536.357788,611.697998 
	C1551.501221,616.916748 1567.279297,618.613647 1583.159058,620.387695 
	C1607.296143,623.084290 1631.098755,624.018921 1655.355591,620.471924 
	C1676.004272,617.452515 1695.628784,612.227173 1713.798706,602.346313 
	C1748.207275,583.634644 1770.307983,556.808105 1769.625854,515.249817 
	C1769.138916,485.582397 1757.914795,461.126343 1735.306641,442.137268 
	C1708.823486,419.893250 1677.104980,409.196594 1643.649292,404.377594 
	C1611.046509,399.681427 1578.085571,399.470032 1545.312744,404.089600 
	C1517.759033,407.973480 1491.347412,416.150269 1467.777344,430.854553 
	C1416.337891,462.945221 1391.934570,510.834930 1390.518066,570.673218 
	C1390.167847,585.463867 1391.538330,600.549438 1394.240845,615.105225 
	C1399.847046,645.300659 1412.822388,672.147827 1435.915771,695.081116 
M1295.069580,752.092773 
	C1312.661621,751.428101 1330.293701,751.283752 1347.833496,749.937500 
	C1362.413818,748.818481 1367.778687,742.378540 1367.636353,727.924438 
	C1367.344727,698.339172 1366.942505,668.753357 1366.297485,639.174011 
	C1365.972534,624.266846 1365.126099,609.367493 1364.300781,594.476501 
	C1363.900391,587.256348 1362.392944,580.057373 1362.466919,572.859863 
	C1362.607178,559.224121 1361.043335,545.847290 1358.417725,532.520081 
	C1351.555664,497.690918 1335.588989,467.828461 1309.965576,443.186981 
	C1287.558716,421.638947 1260.993896,408.281097 1230.434448,402.787048 
	C1207.698730,398.699493 1184.952515,398.707062 1162.188599,402.576050 
	C1141.667480,406.063934 1122.787109,413.339722 1105.391724,425.052551 
	C1090.320801,435.200348 1077.894897,447.935272 1065.851685,461.253082 
	C1063.341064,464.029388 1060.252808,466.283234 1055.602295,470.394012 
	C1054.829346,464.518280 1053.530518,460.960876 1054.091309,457.725800 
	C1055.779175,447.988373 1057.618408,438.203613 1060.467285,428.759735 
	C1063.948853,417.218719 1061.132935,407.404083 1044.628418,405.289459 
	C1021.447388,402.319427 998.124451,402.319519 974.947876,404.350159 
	C956.828247,405.937714 953.055237,411.091064 950.734619,425.596222 
	C947.761963,444.176819 947.112549,463.140564 945.719116,481.958282 
	C944.788452,494.526459 944.256226,507.125366 943.632507,519.714783 
	C942.270508,547.206787 940.433228,574.688843 939.783020,602.198486 
	C939.121765,630.172180 939.768005,658.174744 939.598328,686.163208 
	C939.539978,695.769470 938.489868,705.368469 938.381592,714.976257 
	C938.311218,721.220581 938.688721,727.541870 939.637878,733.709839 
	C941.274536,744.345215 946.334106,749.403992 957.237549,749.964355 
	C978.474487,751.055786 999.747925,751.602783 1021.012817,751.893372 
	C1027.924805,751.987854 1034.902954,750.871765 1041.769775,749.793213 
	C1052.246826,748.147644 1058.058105,741.057007 1057.595703,730.566650 
	C1057.392700,725.963745 1056.084839,721.416809 1055.760132,716.810608 
	C1054.921631,704.921814 1054.358398,693.013733 1053.672363,681.114136 
	C1052.566406,661.933594 1050.944092,642.765381 1050.498779,623.569763 
	C1050.144897,608.321045 1050.873779,593.018494 1051.765259,577.777466 
	C1052.709595,561.633057 1058.175293,546.673584 1066.653809,533.055054 
	C1080.698242,510.496368 1100.211792,495.464233 1126.508911,488.732758 
	C1151.611328,482.307129 1175.874023,484.691772 1198.174561,496.100983 
	C1235.128418,515.006897 1252.638428,547.783020 1253.926270,588.266296 
	C1254.950195,620.454895 1255.893066,652.789795 1252.385620,685.004028 
	C1250.915161,698.509155 1250.933838,712.174622 1249.518799,725.687988 
	C1248.017212,740.028076 1253.459229,748.231812 1267.340942,749.964722 
	C1275.883057,751.031128 1284.511353,751.406494 1295.069580,752.092773 
M2756.544434,478.969513 
	C2764.462891,479.049957 2772.398193,478.828308 2780.296631,479.266113 
	C2806.467529,480.716705 2832.625244,482.395905 2858.787109,484.006378 
	C2869.406006,484.660034 2878.860596,476.549133 2879.866943,465.751404 
	C2880.113037,463.114136 2880.025879,460.441589 2880.016846,457.785553 
	C2879.977783,446.543884 2880.329834,435.279999 2879.733887,424.067047 
	C2879.146484,413.016388 2872.576904,405.640717 2862.684570,405.468719 
	C2839.365479,405.063293 2816.033203,405.295105 2792.707275,405.421722 
	C2777.400146,405.504791 2762.093994,406.045563 2746.788818,405.995544 
	C2740.089600,405.973633 2737.211426,403.093079 2736.162109,396.469025 
	C2735.697998,393.538300 2735.685547,390.486023 2735.862305,387.512329 
	C2736.648438,374.275360 2737.097412,360.992249 2738.596680,347.831604 
	C2739.951660,335.937256 2733.161621,328.817535 2722.870117,326.448608 
	C2716.138672,324.899139 2709.067383,324.201630 2702.149658,324.210144 
	C2685.200439,324.230927 2668.252930,324.955261 2651.302490,325.257629 
	C2636.226562,325.526611 2627.431152,334.196350 2626.395020,349.320496 
	C2625.420166,363.552002 2624.944580,377.818146 2624.283936,392.070648 
	C2623.827393,401.925507 2620.669922,405.165100 2610.868652,405.212982 
	C2593.871826,405.296051 2576.874268,405.192963 2559.877197,405.248352 
	C2556.559082,405.259155 2553.184814,405.317505 2549.935791,405.905121 
	C2541.845215,407.368500 2534.597656,414.525543 2534.428223,421.816956 
	C2534.118896,435.142426 2534.158447,448.483643 2534.412598,461.811401 
	C2534.542725,468.634613 2540.361816,476.773346 2546.040039,477.689789 
	C2552.529541,478.737213 2559.194336,479.118347 2565.778564,479.076965 
	C2580.728027,478.982910 2595.676270,478.143555 2610.622070,478.217621 
	C2619.324219,478.260803 2623.513672,483.336975 2623.634277,492.284454 
	C2623.665771,494.612488 2623.677734,496.954895 2623.468018,499.269836 
	C2621.796143,517.732788 2619.208252,536.160583 2618.558350,554.657288 
	C2617.564453,582.945190 2617.985596,611.280884 2617.626709,639.593933 
	C2617.447998,653.675964 2619.851074,667.243347 2624.890625,680.339722 
	C2639.818359,719.134216 2669.741699,740.404663 2708.689697,749.687378 
	C2727.597168,754.193665 2747.039062,756.557068 2766.830811,754.255432 
	C2784.935791,752.149841 2803.312744,752.257874 2821.361816,749.837341 
	C2837.398926,747.686523 2853.443115,744.392090 2868.947510,739.793274 
	C2885.335938,734.932129 2888.133301,729.248596 2888.361084,711.886108 
	C2888.561035,696.635437 2889.507324,681.390137 2889.483154,666.143555 
	C2889.475586,661.365540 2888.285400,656.116028 2886.062256,651.915405 
	C2881.692139,643.657593 2870.964600,641.370300 2861.635986,645.896484 
	C2856.877686,648.205139 2852.460693,651.410278 2847.510010,653.094910 
	C2826.707031,660.173889 2805.158447,664.230225 2783.426514,666.918335 
	C2770.244385,668.548950 2757.539062,665.140442 2746.314941,658.101318 
	C2733.149414,649.844849 2728.007324,636.393127 2726.523926,621.800110 
	C2725.349609,610.248840 2725.584961,598.515808 2725.769043,586.872620 
	C2726.194824,559.952759 2724.246338,532.982666 2728.095703,506.126587 
	C2730.389160,490.126587 2738.504395,481.474976 2756.544434,478.969513 
M2025.025269,497.290833 
	C2058.406006,496.634033 2088.639404,505.492371 2114.696533,526.963745 
	C2115.466553,527.598206 2116.118408,528.385010 2116.921631,528.968323 
	C2127.396240,536.574829 2145.291016,529.648987 2145.742432,514.883667 
	C2146.107422,502.958496 2147.331543,491.058136 2147.636719,479.132965 
	C2147.968750,466.155121 2147.741699,453.160889 2147.641602,440.174713 
	C2147.568604,430.728699 2143.051025,423.845978 2135.114258,418.938477 
	C2125.408691,412.937378 2114.806885,409.054565 2103.876709,406.242462 
	C2076.372803,399.166260 2048.590088,399.582153 2020.912842,404.876343 
	C2001.369873,408.614594 1983.457153,416.886017 1968.054565,429.379181 
	C1953.777100,440.959656 1942.436523,455.313660 1934.578247,472.164642 
	C1932.486694,476.649689 1930.364868,481.166351 1924.135742,483.849548 
	C1922.603516,480.944458 1920.505981,478.397919 1919.950195,475.550507 
	C1919.263794,472.033295 1919.272461,468.143738 1920.005493,464.628815 
	C1922.635986,452.014709 1925.332764,439.389221 1928.775146,426.981873 
	C1930.190063,421.882965 1929.918823,417.433319 1926.500610,414.085724 
	C1923.098145,410.753448 1918.852173,407.459106 1914.398926,406.217010 
	C1907.784912,404.372314 1900.656982,403.626678 1893.758423,403.685486 
	C1872.847168,403.863739 1851.892700,403.969482 1831.050537,405.449066 
	C1817.448364,406.414642 1812.736450,412.479034 1811.721680,426.181946 
	C1809.838135,451.617126 1807.917603,477.053436 1806.454468,502.514648 
	C1805.368774,521.410645 1804.678101,540.341553 1804.354614,559.266235 
	C1803.865356,587.893005 1803.827148,616.527710 1803.653076,645.159363 
	C1803.624878,649.794189 1804.006714,654.431030 1803.993042,659.066345 
	C1803.922363,683.047791 1803.566528,707.030945 1803.771851,731.009521 
	C1803.860840,741.405579 1810.457031,748.265137 1820.738281,750.015564 
	C1824.315918,750.624756 1827.947998,751.177368 1831.565186,751.249451 
	C1850.204834,751.621094 1868.848511,752.055542 1887.488892,751.982056 
	C1895.074097,751.952148 1902.787964,751.350098 1910.205688,749.840881 
	C1921.269897,747.589661 1926.836548,738.662354 1925.652222,727.786316 
	C1923.684326,709.712769 1921.835571,691.620483 1920.343994,673.502625 
	C1919.146973,658.962524 1918.022095,644.379395 1917.835815,629.803040 
	C1917.632324,613.887085 1916.816772,597.958191 1919.927124,582.063171 
	C1928.464355,538.436035 1973.117188,495.225128 2025.025269,497.290833 
M3027.715332,552.924500 
	C3028.375244,530.699036 3028.826904,508.464935 3029.748779,486.250366 
	C3030.862793,459.417511 3031.797363,432.556366 3033.874512,405.790100 
	C3036.050293,377.747894 3039.141113,349.761871 3042.499023,321.831512 
	C3044.673096,303.749817 3039.197754,295.496368 3020.774414,294.091309 
	C3003.569336,292.779144 2986.270996,292.281189 2969.012451,292.248230 
	C2960.128174,292.231262 2951.187988,293.673523 2942.367432,295.056366 
	C2930.703369,296.884979 2924.596924,306.441223 2924.196289,316.741272 
	C2923.745361,328.325317 2922.404297,339.871643 2921.692627,351.449280 
	C2920.472412,371.300720 2919.324463,391.158142 2918.364746,411.023590 
	C2917.548096,427.928894 2916.978027,444.846954 2916.405029,461.762939 
	C2914.785889,509.584625 2917.135742,557.465149 2913.828369,605.282776 
	C2912.635742,622.527893 2913.675781,639.926941 2913.684082,657.255737 
	C2913.687988,665.920166 2913.814209,674.588013 2913.616943,683.248230 
	C2913.284180,697.855103 2912.508057,712.454712 2912.353760,727.062012 
	C2912.228271,738.937195 2920.397705,749.440369 2932.879150,750.491394 
	C2958.843506,752.677612 2984.714111,752.257935 3010.625000,751.213867 
	C3021.703613,750.767395 3033.484375,743.650452 3031.817139,727.981140 
	C3030.206055,712.837769 3029.047607,697.618713 3028.435791,682.402893 
	C3027.421387,657.174744 3026.668701,631.925476 3026.452148,606.679565 
	C3026.304199,589.422913 3027.254395,572.156921 3027.715332,552.924500 
z"/>
<path fill="#5EB5A0" opacity="1.000000" stroke="none" 
	d="
M4138.937500,1028.000000 
	C4137.836426,1026.750977 4138.144531,1024.978394 4137.433105,1024.338257 
	C4132.831543,1020.197144 4131.581055,1015.069824 4131.635742,1009.092102 
	C4131.808105,990.100037 4132.120605,971.092041 4131.518066,952.117493 
	C4131.216797,942.617798 4129.962402,932.935669 4127.540039,923.757935 
	C4121.341797,900.270935 4104.851074,886.056213 4082.763428,878.015625 
	C4065.159424,871.607178 4046.844482,869.285828 4028.038086,869.044312 
	C4006.461182,868.767151 3984.799805,868.013672 3963.367676,865.690735 
	C3944.963623,863.695984 3926.665039,860.001648 3910.881348,848.747314 
	C3895.605713,837.855286 3891.927246,822.693176 3895.023926,805.666504 
	C3898.337646,787.447388 3903.391113,769.550842 3907.109863,751.395691 
	C3908.360352,745.291077 3908.833252,738.660095 3907.813721,732.579346 
	C3907.062256,728.095703 3904.208984,723.053467 3900.728027,720.108582 
	C3890.101562,711.118713 3887.827881,700.453003 3892.199463,687.899292 
	C3894.097656,682.448425 3894.395996,678.075317 3889.668701,673.464294 
	C3885.400635,669.301514 3884.991455,663.187622 3886.516602,657.470703 
	C3889.146729,647.609192 3892.158691,637.849548 3895.253418,627.212158 
	C3893.028076,622.713928 3888.412354,620.118164 3882.902344,617.961182 
	C3872.451416,613.869995 3862.070068,609.460754 3852.082764,604.356506 
	C3833.832520,595.029419 3830.885742,580.792419 3838.166504,564.463135 
	C3845.025635,549.080444 3853.783691,534.479126 3862.469971,519.991882 
	C3875.426270,498.382935 3889.367676,477.363281 3902.267090,455.721771 
	C3909.110840,444.240204 3913.011719,431.230865 3913.373047,417.942749 
	C3913.685791,406.431946 3911.854492,394.721710 3905.589355,384.472137 
	C3898.489014,372.855927 3895.721924,359.767822 3894.513916,346.705750 
	C3893.682129,337.710236 3895.743652,328.275574 3897.532715,319.239227 
	C3904.859375,282.232849 3917.623779,247.181732 3934.471436,213.359665 
	C3952.112793,177.944046 3974.289795,145.782822 4001.287109,117.181526 
	C4027.144287,89.788651 4056.906250,67.186066 4090.405273,49.364315 
	C4120.769531,33.210209 4152.491699,21.235708 4185.864746,13.396313 
	C4197.463867,10.671598 4209.171387,8.410797 4220.796387,5.792287 
	C4222.962891,5.304314 4224.973145,4.121172 4226.527344,2.629435 
	C4262.041504,2.000000 4298.083496,2.000000 4335.258301,2.539088 
	C4336.927734,2.718822 4337.463867,2.359468 4338.000000,2.000057 
	C4341.428711,2.000000 4344.857422,2.000000 4348.754883,2.769999 
	C4351.076660,4.105763 4352.894043,4.947405 4354.788574,5.195505 
	C4379.518555,8.433821 4403.714844,14.035200 4427.546387,21.326107 
	C4456.544922,30.197878 4483.909668,42.639725 4510.359375,57.483143 
	C4536.897461,72.376633 4561.031738,90.477104 4583.036133,111.191177 
	C4602.567383,129.577057 4619.581055,150.311920 4634.501465,172.808044 
	C4657.065430,206.828278 4673.504395,243.497437 4684.261230,282.751648 
	C4687.500488,294.571869 4689.669922,306.684814 4692.337891,318.661865 
	C4692.773438,320.616943 4692.317871,323.589569 4696.000000,322.000000 
	C4696.000000,325.428711 4696.000000,328.857422 4695.293945,333.084595 
	C4695.058105,335.922028 4695.528809,337.961029 4696.000000,340.000000 
	C4696.000000,364.041779 4696.000000,388.083588 4695.464844,413.145020 
	C4695.286133,414.776459 4695.643066,415.388214 4696.000000,416.000000 
	C4696.000000,421.400024 4696.000000,426.800049 4695.261719,432.623230 
	C4693.837402,434.137115 4692.814941,435.143433 4692.517090,436.331055 
	C4688.421875,452.673340 4684.881348,469.168762 4680.315430,485.376038 
	C4669.427734,524.023743 4651.133301,559.327881 4629.697754,593.004700 
	C4612.588867,619.884033 4592.576172,644.659180 4572.113281,669.053162 
	C4547.705566,698.149475 4532.648438,731.579224 4525.832031,768.872192 
	C4522.417480,787.553406 4522.093750,806.337708 4522.203613,825.269043 
	C4522.541992,883.544373 4522.269043,941.823059 4522.388184,1000.100098 
	C4522.408203,1009.945190 4522.246582,1019.461731 4513.560059,1026.276123 
	C4513.372070,1026.423584 4513.838867,1027.406738 4514.000000,1028.000000 
	C4389.291504,1028.000000 4264.583496,1028.000000 4138.937500,1028.000000 
M4083.601562,122.596977 
	C4070.837158,133.721863 4061.906494,147.524765 4056.084229,163.265259 
	C4053.679932,169.764816 4050.266846,174.545456 4044.218994,178.362549 
	C4035.860352,183.638214 4027.837646,189.707458 4020.581299,196.420639 
	C3997.761719,217.531982 3986.032227,243.797791 3986.353027,275.039337 
	C3986.596191,298.716095 3992.801025,320.942657 4004.670898,341.377472 
	C4011.704346,353.485687 4020.594727,364.220886 4032.457764,372.101929 
	C4056.681885,388.194550 4083.353760,390.148621 4110.909180,384.782104 
	C4123.465332,382.336700 4135.689453,378.182312 4148.171387,374.773804 
	C4159.044922,392.614502 4163.659180,396.182709 4180.114746,404.153595 
	C4210.508789,418.876678 4242.946289,423.217316 4276.303711,420.804138 
	C4284.096680,420.240326 4291.762695,417.303070 4299.379883,415.088654 
	C4307.346191,412.772614 4315.111816,409.762146 4323.090820,407.497162 
	C4339.963867,402.707581 4355.594238,409.647858 4364.907715,424.707855 
	C4372.525391,437.024963 4374.681152,450.629303 4376.199707,464.504059 
	C4377.864258,479.715393 4379.867676,494.748505 4387.615234,508.430176 
	C4389.690430,512.095642 4390.991211,516.454956 4391.592773,520.647156 
	C4392.863281,529.498596 4393.106445,538.496704 4394.359375,547.351501 
	C4398.041504,573.380005 4412.027344,591.049255 4437.356934,599.229797 
	C4440.835938,600.353394 4444.292480,601.548035 4447.775391,602.659607 
	C4456.371094,605.402588 4461.874023,610.867126 4463.899902,619.900208 
	C4464.986816,624.745178 4466.478516,629.582703 4468.468750,634.125000 
	C4473.252930,645.045349 4473.110352,655.962708 4469.802246,667.183777 
	C4468.210938,672.580566 4466.833984,678.103943 4466.073242,683.667480 
	C4464.990234,691.590942 4467.908203,696.381042 4474.869629,699.673096 
	C4481.466309,702.792603 4485.869629,702.048157 4491.427246,695.553223 
	C4494.828125,691.579590 4498.023926,687.011353 4499.800781,682.157166 
	C4503.202637,672.860657 4505.611816,663.193420 4508.266602,653.633728 
	C4509.765137,648.236328 4509.644043,641.932434 4512.480957,637.445496 
	C4522.554199,621.512573 4532.921387,605.675476 4544.397949,590.739624 
	C4565.147461,563.734741 4583.439941,535.719910 4593.337402,502.584656 
	C4600.593750,478.292236 4605.004883,454.310455 4597.502441,429.386139 
	C4594.640625,419.877747 4596.382324,410.909393 4601.346191,402.557953 
	C4615.111816,379.398102 4611.710449,356.216492 4601.698730,332.970673 
	C4593.035156,324.929321 4594.146484,315.499176 4597.750977,305.667023 
	C4598.317871,304.121979 4598.463379,302.425842 4598.850586,300.810944 
	C4607.530762,264.625183 4599.172363,232.590332 4575.887695,203.869934 
	C4572.057617,199.145309 4566.649414,195.594452 4565.109863,188.749878 
	C4563.387207,181.091492 4560.633789,173.565842 4557.500488,166.341904 
	C4546.474609,140.921570 4528.673340,122.620972 4501.018066,116.039299 
	C4488.812500,113.134628 4476.228516,111.822281 4462.611816,109.589569 
	C4462.705566,109.720703 4461.961914,108.649643 4461.184082,107.604218 
	C4460.388672,106.535454 4459.547852,105.500725 4458.748535,104.435455 
	C4441.755859,81.797485 4418.743164,71.624092 4390.810059,71.172249 
	C4374.892578,70.914780 4359.696777,74.482635 4345.226074,80.339149 
	C4338.714844,82.974472 4334.038086,82.797356 4328.826172,78.778114 
	C4327.277832,77.584015 4325.214844,77.083603 4323.507812,76.063393 
	C4298.853516,61.325916 4271.939453,56.969788 4243.960938,60.556919 
	C4215.130371,64.253204 4190.157715,77.463516 4168.793945,96.770691 
	C4162.477539,102.478859 4156.327637,103.767593 4148.877441,103.070732 
	C4125.016602,100.838882 4103.546387,106.751724 4083.601562,122.596977 
z"/>
<path fill="#F1F1F1" opacity="1.000000" stroke="none" 
	d="
M4.319430,504.276215 
	C7.437747,491.172791 9.992192,477.903168 13.794108,465.001190 
	C21.252905,439.689514 33.395203,416.638062 49.462753,395.688385 
	C65.803719,374.382263 85.623268,356.842621 108.325104,342.673035 
	C124.088257,332.834290 140.941498,325.036530 158.571198,319.088196 
	C186.099442,309.800110 214.373062,304.904694 243.425919,303.032227 
	C270.812988,301.267181 297.790039,303.019836 324.648071,307.837830 
	C345.523499,311.582581 366.537842,314.944855 387.052246,320.190704 
	C404.663025,324.694092 421.975830,330.833405 438.825867,337.706848 
	C455.234711,344.400330 460.162750,355.189728 457.497101,372.727509 
	C453.525665,398.856079 449.596741,424.991302 445.515533,451.102722 
	C445.116150,453.657867 443.995728,456.172668 442.839813,458.524261 
	C438.586609,467.176727 431.342285,469.436157 423.251190,464.189087 
	C419.396820,461.689545 416.114227,458.236786 412.806335,454.978546 
	C399.512543,441.884613 385.501495,429.772308 369.400818,420.108215 
	C349.236725,408.005188 327.821716,399.360382 304.499359,396.225586 
	C289.747986,394.242828 274.837311,392.318054 260.001160,392.341187 
	C233.771622,392.382111 209.092499,398.993530 186.219849,412.548645 
	C162.006805,426.898102 144.123138,446.491608 132.929749,472.245148 
	C126.073067,488.020905 122.326920,504.452728 119.828629,521.557190 
	C117.617874,536.693054 118.223610,551.619385 120.719513,566.052673 
	C126.516739,599.576965 141.274002,628.065186 172.698746,645.371704 
	C195.255402,657.794312 219.404831,663.544739 244.952591,664.078308 
	C261.259552,664.418884 277.583405,664.004272 293.454559,659.946838 
	C321.655365,652.737305 346.091187,639.148804 361.601379,613.677979 
	C377.895508,586.919739 376.304932,559.450867 361.212280,532.494812 
	C359.129333,528.774658 356.611389,525.186218 353.738556,522.045654 
	C349.158234,517.038513 349.089020,511.171387 349.898499,505.198242 
	C350.595917,500.052521 354.416901,496.860016 360.363525,496.153381 
	C365.301178,495.566650 370.301270,495.270264 375.274689,495.258301 
	C404.920868,495.187103 434.567383,495.202209 464.213562,495.281372 
	C468.526672,495.292908 472.855621,496.192139 477.147461,496.003357 
	C486.974213,495.571136 492.432526,501.760406 494.103180,512.066101 
	C496.001282,523.774963 496.500702,535.711853 497.574829,547.552612 
	C498.891144,562.063538 500.201080,576.575073 501.459381,591.091125 
	C502.232208,600.006897 503.166382,608.919678 503.565674,617.854553 
	C504.425110,637.085144 504.971130,656.329651 505.672882,675.567444 
	C506.325256,693.450623 507.286011,711.327820 507.593597,729.216553 
	C507.814240,742.048950 501.811981,748.914246 488.800140,749.969971 
	C475.247131,751.069458 461.590637,751.234009 447.980713,751.203674 
	C431.694580,751.167358 415.402008,750.686890 399.127014,750.031494 
	C385.772644,749.493652 379.215393,740.711548 381.209869,727.453247 
	C382.784058,716.989014 384.166687,706.463806 384.832520,695.914978 
	C385.028900,692.804504 383.346375,687.916077 381.019226,686.682129 
	C377.225555,684.670654 373.892456,687.825256 371.286469,691.372009 
	C351.752319,717.957947 325.908325,735.120972 294.258240,744.616760 
	C273.311096,750.901428 252.000153,752.459045 230.487640,754.291504 
	C208.412048,756.171936 186.642014,754.185669 165.269257,749.827576 
	C128.249603,742.278992 95.234459,726.307251 66.519859,700.996460 
	C33.717438,672.082397 16.139462,635.258911 6.610804,593.689331 
	C5.882444,590.511841 6.370760,587.055481 6.200762,582.092651 
	C4.655101,579.048096 6.483968,574.614624 2.000000,576.000000 
	C2.000000,573.222229 2.000000,570.444397 2.599447,567.120911 
	C2.799263,565.716797 2.399633,564.858398 2.000001,564.000000 
	C2.000000,545.291565 2.000000,526.583069 2.619858,507.315033 
	C3.599621,505.929016 3.959526,505.102631 4.319430,504.276215 
z"/>
<path fill="#000100" opacity="1.000000" stroke="none" 
	d="
M4514.937500,1028.000000 
	C4513.838867,1027.406738 4513.372070,1026.423584 4513.560059,1026.276123 
	C4522.246582,1019.461731 4522.408203,1009.945190 4522.388184,1000.100098 
	C4522.269043,941.823059 4522.541992,883.544373 4522.203613,825.269043 
	C4522.093750,806.337708 4522.417480,787.553406 4525.832031,768.872192 
	C4532.648438,731.579224 4547.705566,698.149475 4572.113281,669.053162 
	C4592.576172,644.659180 4612.588867,619.884033 4629.697754,593.004700 
	C4651.133301,559.327881 4669.427734,524.023743 4680.315430,485.376038 
	C4684.881348,469.168762 4688.421875,452.673340 4692.517090,436.331055 
	C4692.814941,435.143433 4693.837402,434.137115 4695.261719,433.523193 
	C4696.000000,631.776428 4696.000000,829.552917 4696.000000,1028.000000 
	C4635.959961,1028.000000 4575.917480,1028.000000 4514.937500,1028.000000 
z"/>
<path fill="#000101" opacity="1.000000" stroke="none" 
	d="
M4696.000000,321.062683 
	C4692.317871,323.589569 4692.773438,320.616943 4692.337891,318.661865 
	C4689.669922,306.684814 4687.500488,294.571869 4684.261230,282.751648 
	C4673.504395,243.497437 4657.065430,206.828278 4634.501465,172.808044 
	C4619.581055,150.311920 4602.567383,129.577057 4583.036133,111.191177 
	C4561.031738,90.477104 4536.897461,72.376633 4510.359375,57.483143 
	C4483.909668,42.639725 4456.544922,30.197878 4427.546387,21.326107 
	C4403.714844,14.035200 4379.518555,8.433821 4354.788574,5.195505 
	C4352.894043,4.947405 4351.076660,4.105763 4349.611816,2.769999 
	C4465.181641,2.000000 4580.363281,2.000000 4696.000000,2.000000 
	C4696.000000,108.041351 4696.000000,214.083359 4696.000000,321.062683 
z"/>
<path fill="#5A5050" opacity="1.000000" stroke="none" 
	d="
M2.000000,576.666626 
	C6.483968,574.614624 4.655101,579.048096 6.050987,581.233887 
	C5.041504,581.382629 4.089017,580.754272 2.568265,580.062988 
	C2.000000,579.111084 2.000000,578.222229 2.000000,576.666626 
z"/>
<path fill="#000101" opacity="1.000000" stroke="none" 
	d="
M4696.000000,339.250000 
	C4695.528809,337.961029 4695.058105,335.922028 4695.293945,333.941528 
	C4696.000000,335.500000 4696.000000,337.000000 4696.000000,339.250000 
z"/>
<path fill="#000100" opacity="1.000000" stroke="none" 
	d="
M4696.000000,415.500000 
	C4695.643066,415.388214 4695.286133,414.776459 4695.464844,414.082336 
	C4696.000000,414.000000 4696.000000,415.000000 4696.000000,415.500000 
z"/>
<path fill="#4E5050" opacity="1.000000" stroke="none" 
	d="
M3.745917,504.153870 
	C3.959526,505.102631 3.599621,505.929016 2.619858,506.377716 
	C2.000000,506.000000 2.000000,505.000000 2.000000,504.500000 
	C2.390801,504.010529 2.781603,504.021027 3.745917,504.153870 
z"/>
<path fill="#5A5050" opacity="1.000000" stroke="none" 
	d="
M2.000001,564.500000 
	C2.399633,564.858398 2.799263,565.716797 2.599447,566.287598 
	C2.000000,566.000000 2.000000,565.000000 2.000001,564.500000 
z"/>
<path fill="#000101" opacity="1.000000" stroke="none" 
	d="
M4337.500000,2.000057 
	C4337.463867,2.359468 4336.927734,2.718822 4336.195801,2.539088 
	C4336.000000,2.000000 4337.000000,2.000000 4337.500000,2.000057 
z"/>
<path fill="#F1F1F1" opacity="1.000000" stroke="none" 
	d="
M3070.339844,844.399963 
	C3072.127441,823.404846 3073.434814,803.304199 3075.849121,783.337341 
	C3077.562256,769.167847 3089.996582,763.094849 3102.171143,770.600403 
	C3124.816162,784.560852 3149.258057,793.879639 3175.080322,799.082703 
	C3194.193848,802.933899 3213.676270,805.615051 3233.123535,807.006531 
	C3268.306396,809.523987 3301.742920,802.021362 3332.915283,785.401001 
	C3353.385986,774.486389 3371.293945,760.536438 3383.782715,740.428772 
	C3392.699951,726.071716 3395.824707,710.503479 3394.086670,693.921204 
	C3393.864502,691.802734 3391.666260,689.168762 3389.674072,688.118591 
	C3386.215576,686.295410 3383.167236,688.383301 3381.160645,691.316833 
	C3377.417236,696.788574 3374.121338,702.571716 3370.284424,707.973267 
	C3357.554932,725.893433 3340.429688,737.485107 3319.649414,744.719116 
	C3291.800049,754.414124 3263.117676,756.349915 3234.177490,755.116455 
	C3202.959717,753.785889 3173.126953,746.718201 3146.474365,729.240234 
	C3124.174316,714.616394 3108.134033,694.719299 3096.918701,670.803589 
	C3085.023682,645.438477 3079.966797,618.592346 3080.304688,590.638489 
	C3080.449707,578.644226 3079.920410,566.631531 3080.381104,554.653503 
	C3081.247559,532.131775 3082.407471,509.616364 3083.828857,487.122559 
	C3085.041260,467.932831 3086.733154,448.772247 3088.320801,429.607727 
	C3089.575195,414.468384 3095.477051,407.750854 3110.889893,405.239746 
	C3126.916992,402.628540 3143.027344,400.911041 3159.365967,403.067596 
	C3166.913574,404.063751 3174.635986,403.670654 3182.264893,404.139801 
	C3185.541260,404.341278 3188.846924,404.878632 3192.025635,405.702606 
	C3204.868652,409.032196 3209.466797,416.158295 3207.314941,429.304138 
	C3205.073730,442.995697 3202.507324,456.637238 3200.475586,470.358765 
	C3198.828613,481.478577 3197.490723,492.660309 3196.497559,503.857330 
	C3194.479980,526.611145 3190.500244,549.307251 3192.423584,572.239563 
	C3194.832520,600.958252 3202.525635,627.701172 3224.877686,647.889404 
	C3238.146240,659.873596 3254.437012,665.722900 3271.786377,667.845642 
	C3282.201416,669.119873 3292.925537,668.573608 3303.462891,667.986633 
	C3321.219482,666.997559 3335.796875,658.764832 3348.056885,646.307251 
	C3368.512939,625.521118 3377.784668,599.805664 3380.311523,571.299500 
	C3382.338135,548.434631 3380.079102,525.700012 3378.538818,502.882874 
	C3376.817627,477.386963 3372.035400,452.450226 3367.618896,427.413574 
	C3365.778076,416.978363 3370.131836,409.141083 3380.121094,406.086609 
	C3381.072754,405.795593 3382.066162,405.588531 3383.055420,405.480988 
	C3401.833984,403.438873 3420.556641,400.798096 3439.561523,403.026276 
	C3447.788818,403.990845 3456.198730,403.408417 3464.421143,404.398254 
	C3485.704346,406.960358 3487.808838,415.873779 3489.490723,430.711487 
	C3491.207031,445.851379 3491.277344,461.170807 3492.379395,476.389099 
	C3493.979980,498.494476 3495.932373,520.574219 3497.577148,542.676636 
	C3498.094482,549.625183 3498.161865,556.609924 3498.339355,563.580505 
	C3499.024658,590.487915 3499.953369,617.393188 3500.256836,644.305237 
	C3500.591309,673.959900 3501.036865,703.641357 3500.179199,733.274841 
	C3498.853027,779.102722 3480.936035,817.283997 3444.945557,846.441345 
	C3413.506104,871.912109 3377.196289,886.308044 3337.819824,893.825806 
	C3308.971924,899.333435 3279.921387,900.987610 3250.591797,899.386475 
	C3230.022949,898.263672 3209.372314,898.523743 3188.825439,897.154480 
	C3155.708740,894.947388 3122.753662,891.185181 3090.552490,882.595764 
	C3072.151855,877.687500 3068.549805,870.642212 3069.654297,854.299438 
	C3069.855957,851.315247 3070.105225,848.334167 3070.339844,844.399963 
z"/>
<path fill="#F0F1F1" opacity="1.000000" stroke="none" 
	d="
M2378.640137,403.243744 
	C2402.500488,405.506409 2424.754150,411.016693 2445.682373,420.479309 
	C2479.281982,435.671295 2502.434814,460.744995 2514.763916,495.961212 
	C2521.994629,516.614136 2524.252930,537.838684 2525.729980,559.369202 
	C2527.680176,587.799683 2530.154053,616.194763 2532.019287,644.630249 
	C2533.171387,662.189880 2533.524170,679.800598 2534.405762,697.379822 
	C2534.803711,705.317322 2535.616943,713.233948 2536.239502,721.160278 
	C2537.439209,736.435974 2530.594971,746.082520 2515.574707,749.320923 
	C2508.794678,750.782654 2501.778320,752.007996 2494.885742,751.927551 
	C2473.951904,751.683350 2453.007324,751.072327 2432.110840,749.849365 
	C2427.124512,749.557434 2422.009033,746.859497 2417.493164,744.311340 
	C2411.973389,741.196533 2408.923584,736.065430 2409.676025,729.360657 
	C2410.781250,719.507751 2411.996338,709.667175 2413.104980,699.814636 
	C2413.587402,695.529724 2414.314941,691.216431 2414.188232,686.937988 
	C2414.099121,683.927307 2412.756836,680.953674 2412.044434,678.231323 
	C2405.613770,678.072144 2403.003906,681.679260 2400.982666,685.504700 
	C2389.717285,706.827271 2372.116455,721.899841 2351.671387,733.408081 
	C2333.726562,743.509033 2314.377197,750.203430 2293.601807,752.965698 
	C2266.884033,756.518066 2240.678467,754.591064 2214.792480,747.989807 
	C2196.934570,743.435669 2180.748535,735.472351 2167.137695,722.455872 
	C2150.749512,706.783569 2144.308105,686.935242 2142.559814,665.341553 
	C2141.578125,653.210571 2142.442383,641.123840 2145.679688,628.912048 
	C2151.561035,606.724182 2164.583984,590.431091 2183.011719,578.054626 
	C2202.767578,564.786072 2224.776611,556.849976 2247.899414,551.251526 
	C2267.002197,546.626343 2286.377197,544.627136 2305.731201,541.896667 
	C2333.579834,537.967834 2361.904785,536.545349 2388.960938,528.016846 
	C2394.200195,526.365356 2399.477783,523.727417 2403.733154,520.298035 
	C2412.121338,513.537903 2412.630127,503.330322 2404.708008,496.210541 
	C2399.900391,491.889679 2393.979248,487.880463 2387.868164,486.101135 
	C2364.353516,479.254395 2340.296143,477.136414 2315.901611,480.727203 
	C2309.356934,481.690552 2302.785645,482.470459 2296.236816,483.409027 
	C2270.379395,487.115143 2245.845215,494.969635 2222.988770,507.627869 
	C2215.495850,511.777710 2208.355713,516.684570 2201.511963,521.851379 
	C2195.500977,526.389404 2189.506104,528.847656 2182.243164,525.582397 
	C2174.978760,522.316589 2172.083008,516.309509 2172.376953,508.679840 
	C2172.605469,502.738312 2172.996582,496.782288 2173.733398,490.884918 
	C2175.825928,474.141205 2178.067139,457.415222 2180.374756,440.699524 
	C2182.380615,426.169312 2187.270996,421.449860 2200.986084,417.468719 
	C2230.448730,408.916321 2260.570801,404.074707 2291.050049,402.356506 
	C2313.922852,401.067108 2336.925537,401.999512 2359.869385,402.118530 
	C2365.826904,402.149445 2371.781250,402.839050 2378.640137,403.243744 
M2342.519287,579.284058 
	C2326.618896,579.425903 2311.884033,584.485840 2297.362305,590.226685 
	C2285.832520,594.784790 2275.136475,600.969666 2266.802734,610.258301 
	C2257.219727,620.939453 2252.746094,633.123962 2257.695068,647.677429 
	C2261.838135,659.861572 2271.417236,665.399597 2282.737061,667.875000 
	C2292.373047,669.982178 2302.391846,670.491211 2312.274902,671.287354 
	C2337.695557,673.335205 2361.014648,666.973450 2381.836670,652.371521 
	C2395.144043,643.039612 2405.295166,630.858215 2408.870361,614.606384 
	C2409.936523,609.760132 2409.266846,603.976440 2407.658936,599.206665 
	C2403.621338,587.229980 2393.504883,582.303650 2381.973877,580.055725 
	C2369.520020,577.627991 2356.946289,577.220215 2342.519287,579.284058 
z"/>
<path fill="#F0F1F1" opacity="1.000000" stroke="none" 
	d="
M910.353394,664.077576 
	C910.785339,676.333252 911.052490,687.616211 911.695190,698.877686 
	C912.361023,710.543579 908.867371,719.524902 897.783142,725.152588 
	C884.720154,731.784973 871.119202,736.994141 857.029053,740.595947 
	C834.534119,746.346130 811.800232,750.991455 788.474060,752.173523 
	C775.233398,752.844604 762.035583,754.987427 748.806885,755.098694 
	C734.230408,755.221436 719.534363,754.617798 705.085022,752.790771 
	C688.685425,750.717102 672.198975,748.042542 656.282410,743.685486 
	C613.457092,731.962219 576.822693,710.349182 551.650208,672.576477 
	C538.518005,652.870850 530.899109,631.033325 527.381042,607.420715 
	C524.654358,589.120422 524.343994,570.699036 526.137573,552.738892 
	C530.598083,508.073669 549.939209,470.567352 585.805542,442.401642 
	C606.218933,426.371063 629.330933,416.480774 654.264771,409.530518 
	C685.862915,400.722656 717.811035,400.974335 750.079956,401.895142 
	C771.531494,402.507294 792.380188,406.097687 812.705566,412.255859 
	C841.097412,420.858063 867.073364,434.301086 885.233765,458.634583 
	C903.463928,483.061371 908.792419,510.878265 901.326477,540.554016 
	C893.828735,570.355896 872.984131,589.117920 847.100708,603.072693 
	C824.573364,615.218201 800.037781,619.958252 774.748047,622.264465 
	C755.753418,623.996643 737.091125,622.119263 718.241394,620.507202 
	C701.934021,619.112610 685.982422,616.676086 670.472168,611.693787 
	C661.318665,608.753540 652.355774,605.145691 643.500183,601.383728 
	C639.141541,599.532043 635.163940,598.289673 631.802368,602.449890 
	C628.305481,606.777588 631.337341,610.478760 633.544495,614.219177 
	C644.062500,632.043945 659.959412,643.632324 678.022705,652.715332 
	C716.241882,671.933533 756.449036,677.210449 798.069702,667.935547 
	C827.700317,661.332520 855.988708,650.928650 879.612671,630.724426 
	C881.115112,629.439453 882.957703,628.559937 884.589966,627.417419 
	C895.071777,620.080933 905.942688,626.041199 908.127869,638.380981 
	C909.565002,646.495972 909.658386,654.848999 910.353394,664.077576 
M640.438782,509.747192 
	C638.589844,513.226196 636.510010,516.603943 634.931824,520.201782 
	C628.146606,535.670776 632.175964,546.059570 647.466980,553.644165 
	C661.614197,560.661438 676.984802,563.790649 692.277771,565.784546 
	C708.652527,567.919495 725.373047,567.349670 741.935425,568.115601 
	C755.237793,568.730713 767.534058,565.131348 779.305786,559.433594 
	C796.244385,551.234985 803.316650,535.832214 800.671753,516.905334 
	C798.424622,500.824677 788.349548,491.755890 775.035278,485.458405 
	C765.165588,480.790222 754.625061,478.384369 743.454834,477.749573 
	C720.726746,476.457886 698.478271,477.187561 676.994812,485.857391 
	C663.650513,491.242554 650.990784,497.474091 640.438782,509.747192 
z"/>
<path fill="#F0F1F1" opacity="1.000000" stroke="none" 
	d="
M1435.418213,694.574707 
	C1412.822388,672.147827 1399.847046,645.300659 1394.240845,615.105225 
	C1391.538330,600.549438 1390.167847,585.463867 1390.518066,570.673218 
	C1391.934570,510.834930 1416.337891,462.945221 1467.777344,430.854553 
	C1491.347412,416.150269 1517.759033,407.973480 1545.312744,404.089600 
	C1578.085571,399.470032 1611.046509,399.681427 1643.649292,404.377594 
	C1677.104980,409.196594 1708.823486,419.893250 1735.306641,442.137268 
	C1757.914795,461.126343 1769.138916,485.582397 1769.625854,515.249817 
	C1770.307983,556.808105 1748.207275,583.634644 1713.798706,602.346313 
	C1695.628784,612.227173 1676.004272,617.452515 1655.355591,620.471924 
	C1631.098755,624.018921 1607.296143,623.084290 1583.159058,620.387695 
	C1567.279297,618.613647 1551.501221,616.916748 1536.357788,611.697998 
	C1526.959595,608.459045 1517.742065,604.682007 1508.508545,600.984375 
	C1504.616211,599.425659 1500.601685,597.927917 1497.653564,601.914490 
	C1495.032837,605.458557 1496.225098,609.289246 1498.323608,613.053833 
	C1505.458618,625.852356 1515.327026,636.123779 1527.629883,643.791565 
	C1570.803955,670.700012 1617.673340,678.983643 1667.022949,667.517822 
	C1696.163818,660.747375 1723.618408,648.824402 1747.405273,629.680908 
	C1760.026367,619.523376 1772.904419,624.577942 1774.073242,640.759583 
	C1775.722900,663.599731 1775.837891,686.560120 1776.232544,709.475586 
	C1776.346313,716.085266 1771.674927,720.478760 1766.360718,723.509705 
	C1760.614136,726.787109 1754.635132,729.880676 1748.406128,732.041687 
	C1735.874023,736.389343 1723.301147,740.936157 1710.391235,743.812866 
	C1681.522705,750.245483 1652.184448,753.081543 1622.587524,754.239258 
	C1584.211914,755.740295 1546.604004,752.366089 1510.067993,740.111511 
	C1481.994507,730.695374 1456.688354,716.586487 1435.418213,694.574707 
M1583.138184,477.280090 
	C1568.961792,477.209442 1555.465210,480.887268 1542.463745,485.877960 
	C1522.871948,493.398224 1505.332031,503.404144 1498.120117,525.415405 
	C1495.910034,532.160706 1495.818481,537.834656 1500.164429,542.955627 
	C1503.289917,546.638611 1507.313232,549.730042 1511.379395,552.413391 
	C1525.098633,561.466858 1541.316650,562.924072 1556.799438,565.835022 
	C1576.676392,569.572083 1596.984863,569.361694 1617.164429,567.890076 
	C1628.271606,567.080139 1638.621582,563.121704 1648.128906,557.591858 
	C1674.074951,542.500610 1671.543945,507.774811 1652.457520,492.662384 
	C1641.442139,483.940491 1628.661499,479.623016 1614.992920,478.236298 
	C1605.097534,477.232330 1595.068115,477.551514 1583.138184,477.280090 
z"/>
<path fill="#F1F1F1" opacity="1.000000" stroke="none" 
	d="
M1294.085205,752.092468 
	C1284.511353,751.406494 1275.883057,751.031128 1267.340942,749.964722 
	C1253.459229,748.231812 1248.017212,740.028076 1249.518799,725.687988 
	C1250.933838,712.174622 1250.915161,698.509155 1252.385620,685.004028 
	C1255.893066,652.789795 1254.950195,620.454895 1253.926270,588.266296 
	C1252.638428,547.783020 1235.128418,515.006897 1198.174561,496.100983 
	C1175.874023,484.691772 1151.611328,482.307129 1126.508911,488.732758 
	C1100.211792,495.464233 1080.698242,510.496368 1066.653809,533.055054 
	C1058.175293,546.673584 1052.709595,561.633057 1051.765259,577.777466 
	C1050.873779,593.018494 1050.144897,608.321045 1050.498779,623.569763 
	C1050.944092,642.765381 1052.566406,661.933594 1053.672363,681.114136 
	C1054.358398,693.013733 1054.921631,704.921814 1055.760132,716.810608 
	C1056.084839,721.416809 1057.392700,725.963745 1057.595703,730.566650 
	C1058.058105,741.057007 1052.246826,748.147644 1041.769775,749.793213 
	C1034.902954,750.871765 1027.924805,751.987854 1021.012817,751.893372 
	C999.747925,751.602783 978.474487,751.055786 957.237549,749.964355 
	C946.334106,749.403992 941.274536,744.345215 939.637878,733.709839 
	C938.688721,727.541870 938.311218,721.220581 938.381592,714.976257 
	C938.489868,705.368469 939.539978,695.769470 939.598328,686.163208 
	C939.768005,658.174744 939.121765,630.172180 939.783020,602.198486 
	C940.433228,574.688843 942.270508,547.206787 943.632507,519.714783 
	C944.256226,507.125366 944.788452,494.526459 945.719116,481.958282 
	C947.112549,463.140564 947.761963,444.176819 950.734619,425.596222 
	C953.055237,411.091064 956.828247,405.937714 974.947876,404.350159 
	C998.124451,402.319519 1021.447388,402.319427 1044.628418,405.289459 
	C1061.132935,407.404083 1063.948853,417.218719 1060.467285,428.759735 
	C1057.618408,438.203613 1055.779175,447.988373 1054.091309,457.725800 
	C1053.530518,460.960876 1054.829346,464.518280 1055.602295,470.394012 
	C1060.252808,466.283234 1063.341064,464.029388 1065.851685,461.253082 
	C1077.894897,447.935272 1090.320801,435.200348 1105.391724,425.052551 
	C1122.787109,413.339722 1141.667480,406.063934 1162.188599,402.576050 
	C1184.952515,398.707062 1207.698730,398.699493 1230.434448,402.787048 
	C1260.993896,408.281097 1287.558716,421.638947 1309.965576,443.186981 
	C1335.588989,467.828461 1351.555664,497.690918 1358.417725,532.520081 
	C1361.043335,545.847290 1362.607178,559.224121 1362.466919,572.859863 
	C1362.392944,580.057373 1363.900391,587.256348 1364.300781,594.476501 
	C1365.126099,609.367493 1365.972534,624.266846 1366.297485,639.174011 
	C1366.942505,668.753357 1367.344727,698.339172 1367.636353,727.924438 
	C1367.778687,742.378540 1362.413818,748.818481 1347.833496,749.937500 
	C1330.293701,751.283752 1312.661621,751.428101 1294.085205,752.092468 
z"/>
<path fill="#F1F1F1" opacity="1.000000" stroke="none" 
	d="
M2755.700195,479.129852 
	C2738.504395,481.474976 2730.389160,490.126587 2728.095703,506.126587 
	C2724.246338,532.982666 2726.194824,559.952759 2725.769043,586.872620 
	C2725.584961,598.515808 2725.349609,610.248840 2726.523926,621.800110 
	C2728.007324,636.393127 2733.149414,649.844849 2746.314941,658.101318 
	C2757.539062,665.140442 2770.244385,668.548950 2783.426514,666.918335 
	C2805.158447,664.230225 2826.707031,660.173889 2847.510010,653.094910 
	C2852.460693,651.410278 2856.877686,648.205139 2861.635986,645.896484 
	C2870.964600,641.370300 2881.692139,643.657593 2886.062256,651.915405 
	C2888.285400,656.116028 2889.475586,661.365540 2889.483154,666.143555 
	C2889.507324,681.390137 2888.561035,696.635437 2888.361084,711.886108 
	C2888.133301,729.248596 2885.335938,734.932129 2868.947510,739.793274 
	C2853.443115,744.392090 2837.398926,747.686523 2821.361816,749.837341 
	C2803.312744,752.257874 2784.935791,752.149841 2766.830811,754.255432 
	C2747.039062,756.557068 2727.597168,754.193665 2708.689697,749.687378 
	C2669.741699,740.404663 2639.818359,719.134216 2624.890625,680.339722 
	C2619.851074,667.243347 2617.447998,653.675964 2617.626709,639.593933 
	C2617.985596,611.280884 2617.564453,582.945190 2618.558350,554.657288 
	C2619.208252,536.160583 2621.796143,517.732788 2623.468018,499.269836 
	C2623.677734,496.954895 2623.665771,494.612488 2623.634277,492.284454 
	C2623.513672,483.336975 2619.324219,478.260803 2610.622070,478.217621 
	C2595.676270,478.143555 2580.728027,478.982910 2565.778564,479.076965 
	C2559.194336,479.118347 2552.529541,478.737213 2546.040039,477.689789 
	C2540.361816,476.773346 2534.542725,468.634613 2534.412598,461.811401 
	C2534.158447,448.483643 2534.118896,435.142426 2534.428223,421.816956 
	C2534.597656,414.525543 2541.845215,407.368500 2549.935791,405.905121 
	C2553.184814,405.317505 2556.559082,405.259155 2559.877197,405.248352 
	C2576.874268,405.192963 2593.871826,405.296051 2610.868652,405.212982 
	C2620.669922,405.165100 2623.827393,401.925507 2624.283936,392.070648 
	C2624.944580,377.818146 2625.420166,363.552002 2626.395020,349.320496 
	C2627.431152,334.196350 2636.226562,325.526611 2651.302490,325.257629 
	C2668.252930,324.955261 2685.200439,324.230927 2702.149658,324.210144 
	C2709.067383,324.201630 2716.138672,324.899139 2722.870117,326.448608 
	C2733.161621,328.817535 2739.951660,335.937256 2738.596680,347.831604 
	C2737.097412,360.992249 2736.648438,374.275360 2735.862305,387.512329 
	C2735.685547,390.486023 2735.697998,393.538300 2736.162109,396.469025 
	C2737.211426,403.093079 2740.089600,405.973633 2746.788818,405.995544 
	C2762.093994,406.045563 2777.400146,405.504791 2792.707275,405.421722 
	C2816.033203,405.295105 2839.365479,405.063293 2862.684570,405.468719 
	C2872.576904,405.640717 2879.146484,413.016388 2879.733887,424.067047 
	C2880.329834,435.279999 2879.977783,446.543884 2880.016846,457.785553 
	C2880.025879,460.441589 2880.113037,463.114136 2879.866943,465.751404 
	C2878.860596,476.549133 2869.406006,484.660034 2858.787109,484.006378 
	C2832.625244,482.395905 2806.467529,480.716705 2780.296631,479.266113 
	C2772.398193,478.828308 2764.462891,479.049957 2755.700195,479.129852 
z"/>
<path fill="#F0F1F1" opacity="1.000000" stroke="none" 
	d="
M2024.047363,497.254761 
	C1973.117188,495.225128 1928.464355,538.436035 1919.927124,582.063171 
	C1916.816772,597.958191 1917.632324,613.887085 1917.835815,629.803040 
	C1918.022095,644.379395 1919.146973,658.962524 1920.343994,673.502625 
	C1921.835571,691.620483 1923.684326,709.712769 1925.652222,727.786316 
	C1926.836548,738.662354 1921.269897,747.589661 1910.205688,749.840881 
	C1902.787964,751.350098 1895.074097,751.952148 1887.488892,751.982056 
	C1868.848511,752.055542 1850.204834,751.621094 1831.565186,751.249451 
	C1827.947998,751.177368 1824.315918,750.624756 1820.738281,750.015564 
	C1810.457031,748.265137 1803.860840,741.405579 1803.771851,731.009521 
	C1803.566528,707.030945 1803.922363,683.047791 1803.993042,659.066345 
	C1804.006714,654.431030 1803.624878,649.794189 1803.653076,645.159363 
	C1803.827148,616.527710 1803.865356,587.893005 1804.354614,559.266235 
	C1804.678101,540.341553 1805.368774,521.410645 1806.454468,502.514648 
	C1807.917603,477.053436 1809.838135,451.617126 1811.721680,426.181946 
	C1812.736450,412.479034 1817.448364,406.414642 1831.050537,405.449066 
	C1851.892700,403.969482 1872.847168,403.863739 1893.758423,403.685486 
	C1900.656982,403.626678 1907.784912,404.372314 1914.398926,406.217010 
	C1918.852173,407.459106 1923.098145,410.753448 1926.500610,414.085724 
	C1929.918823,417.433319 1930.190063,421.882965 1928.775146,426.981873 
	C1925.332764,439.389221 1922.635986,452.014709 1920.005493,464.628815 
	C1919.272461,468.143738 1919.263794,472.033295 1919.950195,475.550507 
	C1920.505981,478.397919 1922.603516,480.944458 1924.135742,483.849548 
	C1930.364868,481.166351 1932.486694,476.649689 1934.578247,472.164642 
	C1942.436523,455.313660 1953.777100,440.959656 1968.054565,429.379181 
	C1983.457153,416.886017 2001.369873,408.614594 2020.912842,404.876343 
	C2048.590088,399.582153 2076.372803,399.166260 2103.876709,406.242462 
	C2114.806885,409.054565 2125.408691,412.937378 2135.114258,418.938477 
	C2143.051025,423.845978 2147.568604,430.728699 2147.641602,440.174713 
	C2147.741699,453.160889 2147.968750,466.155121 2147.636719,479.132965 
	C2147.331543,491.058136 2146.107422,502.958496 2145.742432,514.883667 
	C2145.291016,529.648987 2127.396240,536.574829 2116.921631,528.968323 
	C2116.118408,528.385010 2115.466553,527.598206 2114.696533,526.963745 
	C2088.639404,505.492371 2058.406006,496.634033 2024.047363,497.254761 
z"/>
<path fill="#F1F1F1" opacity="1.000000" stroke="none" 
	d="
M3027.714355,553.909790 
	C3027.254395,572.156921 3026.304199,589.422913 3026.452148,606.679565 
	C3026.668701,631.925476 3027.421387,657.174744 3028.435791,682.402893 
	C3029.047607,697.618713 3030.206055,712.837769 3031.817139,727.981140 
	C3033.484375,743.650452 3021.703613,750.767395 3010.625000,751.213867 
	C2984.714111,752.257935 2958.843506,752.677612 2932.879150,750.491394 
	C2920.397705,749.440369 2912.228271,738.937195 2912.353760,727.062012 
	C2912.508057,712.454712 2913.284180,697.855103 2913.616943,683.248230 
	C2913.814209,674.588013 2913.687988,665.920166 2913.684082,657.255737 
	C2913.675781,639.926941 2912.635742,622.527893 2913.828369,605.282776 
	C2917.135742,557.465149 2914.785889,509.584625 2916.405029,461.762939 
	C2916.978027,444.846954 2917.548096,427.928894 2918.364746,411.023590 
	C2919.324463,391.158142 2920.472412,371.300720 2921.692627,351.449280 
	C2922.404297,339.871643 2923.745361,328.325317 2924.196289,316.741272 
	C2924.596924,306.441223 2930.703369,296.884979 2942.367432,295.056366 
	C2951.187988,293.673523 2960.128174,292.231262 2969.012451,292.248230 
	C2986.270996,292.281189 3003.569336,292.779144 3020.774414,294.091309 
	C3039.197754,295.496368 3044.673096,303.749817 3042.499023,321.831512 
	C3039.141113,349.761871 3036.050293,377.747894 3033.874512,405.790100 
	C3031.797363,432.556366 3030.862793,459.417511 3029.748779,486.250366 
	C3028.826904,508.464935 3028.375244,530.699036 3027.714355,553.909790 
z"/>
<path fill="#000000" opacity="1.000000" stroke="none" 
	d="
M4084.111328,122.087234 
	C4103.546387,106.751724 4125.016602,100.838882 4148.877441,103.070732 
	C4156.327637,103.767593 4162.477539,102.478859 4168.793945,96.770691 
	C4190.157715,77.463516 4215.130371,64.253204 4243.960938,60.556919 
	C4271.939453,56.969788 4298.853516,61.325916 4323.507812,76.063393 
	C4325.214844,77.083603 4327.277832,77.584015 4328.826172,78.778114 
	C4334.038086,82.797356 4338.714844,82.974472 4345.226074,80.339149 
	C4359.696777,74.482635 4374.892578,70.914780 4390.810059,71.172249 
	C4418.743164,71.624092 4441.755859,81.797485 4458.748535,104.435455 
	C4459.547852,105.500725 4460.388672,106.535454 4461.184082,107.604218 
	C4461.961914,108.649643 4462.705566,109.720703 4462.611816,109.589569 
	C4476.228516,111.822281 4488.812500,113.134628 4501.018066,116.039299 
	C4528.673340,122.620972 4546.474609,140.921570 4557.500488,166.341904 
	C4560.633789,173.565842 4563.387207,181.091492 4565.109863,188.749878 
	C4566.649414,195.594452 4572.057617,199.145309 4575.887695,203.869934 
	C4599.172363,232.590332 4607.530762,264.625183 4598.850586,300.810944 
	C4598.463379,302.425842 4598.317871,304.121979 4597.750977,305.667023 
	C4594.146484,315.499176 4593.035156,324.929321 4601.698730,332.970673 
	C4611.710449,356.216492 4615.111816,379.398102 4601.346191,402.557953 
	C4596.382324,410.909393 4594.640625,419.877747 4597.502441,429.386139 
	C4605.004883,454.310455 4600.593750,478.292236 4593.337402,502.584656 
	C4583.439941,535.719910 4565.147461,563.734741 4544.397949,590.739624 
	C4532.921387,605.675476 4522.554199,621.512573 4512.480957,637.445496 
	C4509.644043,641.932434 4509.765137,648.236328 4508.266602,653.633728 
	C4505.611816,663.193420 4503.202637,672.860657 4499.800781,682.157166 
	C4498.023926,687.011353 4494.828125,691.579590 4491.427246,695.553223 
	C4485.869629,702.048157 4481.466309,702.792603 4474.869629,699.673096 
	C4467.908203,696.381042 4464.990234,691.590942 4466.073242,683.667480 
	C4466.833984,678.103943 4468.210938,672.580566 4469.802246,667.183777 
	C4473.110352,655.962708 4473.252930,645.045349 4468.468750,634.125000 
	C4466.478516,629.582703 4464.986816,624.745178 4463.899902,619.900208 
	C4461.874023,610.867126 4456.371094,605.402588 4447.775391,602.659607 
	C4444.292480,601.548035 4440.835938,600.353394 4437.356934,599.229797 
	C4412.027344,591.049255 4398.041504,573.380005 4394.359375,547.351501 
	C4393.106445,538.496704 4392.863281,529.498596 4391.592773,520.647156 
	C4390.991211,516.454956 4389.690430,512.095642 4387.615234,508.430176 
	C4379.867676,494.748505 4377.864258,479.715393 4376.199707,464.504059 
	C4374.681152,450.629303 4372.525391,437.024963 4364.907715,424.707855 
	C4355.594238,409.647858 4339.963867,402.707581 4323.090820,407.497162 
	C4315.111816,409.762146 4307.346191,412.772614 4299.379883,415.088654 
	C4291.762695,417.303070 4284.096680,420.240326 4276.303711,420.804138 
	C4242.946289,423.217316 4210.508789,418.876678 4180.114746,404.153595 
	C4163.659180,396.182709 4159.044922,392.614502 4148.171387,374.773804 
	C4135.689453,378.182312 4123.465332,382.336700 4110.909180,384.782104 
	C4083.353760,390.148621 4056.681885,388.194550 4032.457764,372.101929 
	C4020.594727,364.220886 4011.704346,353.485687 4004.670898,341.377472 
	C3992.801025,320.942657 3986.596191,298.716095 3986.353027,275.039337 
	C3986.032227,243.797791 3997.761719,217.531982 4020.581299,196.420639 
	C4027.837646,189.707458 4035.860352,183.638214 4044.218994,178.362549 
	C4050.266846,174.545456 4053.679932,169.764816 4056.084229,163.265259 
	C4061.906494,147.524765 4070.837158,133.721863 4084.111328,122.087234 
z"/>
<path fill="#030303" opacity="1.000000" stroke="none" 
	d="
M2343.440186,579.282471 
	C2356.946289,577.220215 2369.520020,577.627991 2381.973877,580.055725 
	C2393.504883,582.303650 2403.621338,587.229980 2407.658936,599.206665 
	C2409.266846,603.976440 2409.936523,609.760132 2408.870361,614.606384 
	C2405.295166,630.858215 2395.144043,643.039612 2381.836670,652.371521 
	C2361.014648,666.973450 2337.695557,673.335205 2312.274902,671.287354 
	C2302.391846,670.491211 2292.373047,669.982178 2282.737061,667.875000 
	C2271.417236,665.399597 2261.838135,659.861572 2257.695068,647.677429 
	C2252.746094,633.123962 2257.219727,620.939453 2266.802734,610.258301 
	C2275.136475,600.969666 2285.832520,594.784790 2297.362305,590.226685 
	C2311.884033,584.485840 2326.618896,579.425903 2343.440186,579.282471 
z"/>
<path fill="#020202" opacity="1.000000" stroke="none" 
	d="
M640.967224,509.239502 
	C650.990784,497.474091 663.650513,491.242554 676.994812,485.857391 
	C698.478271,477.187561 720.726746,476.457886 743.454834,477.749573 
	C754.625061,478.384369 765.165588,480.790222 775.035278,485.458405 
	C788.349548,491.755890 798.424622,500.824677 800.671753,516.905334 
	C803.316650,535.832214 796.244385,551.234985 779.305786,559.433594 
	C767.534058,565.131348 755.237793,568.730713 741.935425,568.115601 
	C725.373047,567.349670 708.652527,567.919495 692.277771,565.784546 
	C676.984802,563.790649 661.614197,560.661438 647.466980,553.644165 
	C632.175964,546.059570 628.146606,535.670776 634.931824,520.201782 
	C636.510010,516.603943 638.589844,513.226196 640.967224,509.239502 
z"/>
<path fill="#020202" opacity="1.000000" stroke="none" 
	d="
M1584.118286,477.280365 
	C1595.068115,477.551514 1605.097534,477.232330 1614.992920,478.236298 
	C1628.661499,479.623016 1641.442139,483.940491 1652.457520,492.662384 
	C1671.543945,507.774811 1674.074951,542.500610 1648.128906,557.591858 
	C1638.621582,563.121704 1628.271606,567.080139 1617.164429,567.890076 
	C1596.984863,569.361694 1576.676392,569.572083 1556.799438,565.835022 
	C1541.316650,562.924072 1525.098633,561.466858 1511.379395,552.413391 
	C1507.313232,549.730042 1503.289917,546.638611 1500.164429,542.955627 
	C1495.818481,537.834656 1495.910034,532.160706 1498.120117,525.415405 
	C1505.332031,503.404144 1522.871948,493.398224 1542.463745,485.877960 
	C1555.465210,480.887268 1568.961792,477.209442 1584.118286,477.280365 
z"/>
</svg>