<?xml version="1.0" encoding="UTF-8"?>
<svg id="Layer_2" data-name="Layer 2" xmlns="http://www.w3.org/2000/svg" xmlns:xlink="http://www.w3.org/1999/xlink" viewBox="0 0 566.3 394.44">
  <defs>
    <style>
      .cls-1 {
        fill: url(#linear-gradient-2);
      }

      .cls-2 {
        opacity: .29;
      }

      .cls-3 {
        fill: #fff;
      }

      .cls-4 {
        fill: url(#linear-gradient-4);
      }

      .cls-5 {
        fill: url(#linear-gradient-3);
      }

      .cls-6 {
        fill: url(#linear-gradient-5);
      }

      .cls-7 {
        fill: url(#linear-gradient);
      }

      .cls-8 {
        opacity: .7;
      }
    </style>
    <linearGradient id="linear-gradient" x1="-198.6" y1="-3626.36" x2="-286.82" y2="-3312.69" gradientTransform="translate(-2023.44 2784.57) rotate(45)" gradientUnits="userSpaceOnUse">
      <stop offset="0" stop-color="#6ee7b7"/>
      <stop offset="1" stop-color="#a78bfa"/>
    </linearGradient>
    <linearGradient id="linear-gradient-2" x1="-227.62" y1="-3634.53" x2="-315.85" y2="-3320.85" xlink:href="#linear-gradient"/>
    <linearGradient id="linear-gradient-3" x1="-255.2" y1="-3642.28" x2="-343.43" y2="-3328.61" xlink:href="#linear-gradient"/>
    <linearGradient id="linear-gradient-4" x1="576.17" y1="245.01" x2="465.3" y2="380.77" gradientTransform="matrix(1,0,0,1,0,0)" xlink:href="#linear-gradient"/>
    <linearGradient id="linear-gradient-5" x1="601.57" y1="267.04" x2="491.82" y2="401.43" gradientTransform="matrix(1,0,0,1,0,0)" xlink:href="#linear-gradient"/>
  </defs>
  <g id="Layer_1-2" data-name="Layer 1">
    <g>
      <g>
        <path class="cls-7" d="M321.85,247.89c-68.35,0-123.95-55.6-123.95-123.95C197.91,55.6,253.51,0,321.85,0c68.35,0,123.95,55.6,123.95,123.95,0,68.35-55.6,123.95-123.95,123.95ZM321.85,37.67c-47.57,0-86.28,38.7-86.28,86.28s38.7,86.28,86.28,86.28c47.57,0,86.28-38.7,86.28-86.28s-38.7-86.28-86.28-86.28Z"/>
        <g class="cls-8">
          <path class="cls-1" d="M260.23,229.69c-58.31,0-105.74-47.44-105.74-105.74,0-58.31,47.44-105.74,105.74-105.74,58.31,0,105.74,47.44,105.74,105.74,0,58.31-47.44,105.74-105.74,105.74ZM260.23,50.34c-40.59,0-73.61,33.02-73.61,73.6,0,40.59,33.02,73.61,73.61,73.61,40.59,0,73.61-33.02,73.61-73.61,0-40.59-33.02-73.6-73.61-73.6Z"/>
        </g>
        <g class="cls-2">
          <path class="cls-5" d="M201.67,205.12c-44.76,0-81.18-36.42-81.18-81.18,0-44.76,36.42-81.17,81.18-81.17,44.76,0,81.18,36.42,81.18,81.17,0,44.76-36.42,81.18-81.18,81.18ZM201.67,67.44c-31.16,0-56.51,25.35-56.51,56.51,0,31.16,25.35,56.51,56.51,56.51,31.16,0,56.51-25.35,56.51-56.51,0-31.16-25.35-56.51-56.51-56.51Z"/>
        </g>
      </g>
      <g>
        <g>
          <path class="cls-3" d="M77.98,277.48h11.58v75.09h-11.58l-66.72-60.5.32,10.73v49.77H0v-75.09h11.48l66.72,60.5-.21-11.05v-49.45Z"/>
          <path class="cls-3" d="M102.97,296.25h11.58v28.43c0,10.94,5.79,18.77,23.81,18.77,13.73,0,24.03-5.79,28.43-11.26v-35.93h11.58v56.31h-10.3l-.75-9.55-.11-.11c-6.01,5.15-16.41,11.26-31.64,11.26-23.38,0-32.61-12.55-32.61-29.39v-28.53Z"/>
          <path class="cls-3" d="M267.73,296.25l-34.43,56.31h-12.55l-34.33-56.31h13.52l17.27,29.5,9.87,16.73,9.76-16.73,17.27-29.5h13.62Z"/>
          <path class="cls-3" d="M309.03,294.64c24.89,0,38.62,12.44,38.62,29.71s-13.73,29.82-38.62,29.82-38.62-12.55-38.62-29.82,13.73-29.71,38.62-29.71ZM309.03,343.44c17.59,0,26.71-8.15,26.71-19.09s-9.12-18.99-26.71-18.99-26.82,7.94-26.82,18.99,9.12,19.09,26.82,19.09Z"/>
          <path class="cls-3" d="M436.89,352.56h-17.59l-35.4-23.6h-14.48v23.6h-11.58v-75.41l11.58-1.29v43.76h14.7l36.26-23.38h16.73l-42.8,28.1,42.58,28.21Z"/>
        </g>
        <g>
          <path class="cls-4" d="M546.56,354.87h-13.3l-10.73-17.16h-56.53l-10.62,17.16h-13.41l45.69-75.09h13.3l45.59,75.09ZM475.02,322.69l-2.79,4.18h44.09l-2.68-4.18-19.31-32.72-19.31,32.72Z"/>
          <path class="cls-6" d="M554.71,302.44v-22.66h11.58v22.66h-11.58ZM554.71,354.87v-55.89l11.58-1.29v57.17h-11.58Z"/>
        </g>
      </g>
      <g>
        <path class="cls-3" d="M89.8,394.12h-2.69l-2.17-3.47h-11.44l-2.15,3.47h-2.71l9.25-15.19h2.69l9.22,15.19ZM75.33,387.61l-.56.85h8.92l-.54-.85-3.91-6.62-3.91,6.62Z"/>
        <path class="cls-3" d="M91.23,378.92h2.34v15.19h-2.34v-15.19Z"/>
        <path class="cls-3" d="M97.38,385.98h10.31v1.85h-10.31v-1.85Z"/>
        <path class="cls-3" d="M111.48,394.12v-15.19h11.37c3.49,0,6.53,1.35,6.53,5.36s-3.04,5.38-6.53,5.38h-9.03v4.45h-2.34ZM113.83,381.12v6.36h9.18c2.24,0,3.97-.8,3.97-3.19s-1.74-3.17-3.97-3.17h-9.18Z"/>
        <path class="cls-3" d="M138.83,382.4c5.03,0,7.81,2.52,7.81,6.01s-2.78,6.03-7.81,6.03-7.81-2.54-7.81-6.03,2.78-6.01,7.81-6.01ZM138.83,392.27c3.56,0,5.4-1.65,5.4-3.86s-1.84-3.84-5.4-3.84-5.43,1.61-5.43,3.84,1.84,3.86,5.43,3.86Z"/>
        <path class="cls-3" d="M163.07,394.12l-1.93-4.15-2.02-4.54-2.02,4.54-1.93,4.15h-2.52l-5.25-11.39h2.58l2.6,5.97,1.32,2.97,1.32-2.97,2.6-5.97h2.54l2.63,5.97,1.32,2.97,1.32-2.97,2.61-5.97h2.58l-5.25,11.39h-2.52Z"/>
        <path class="cls-3" d="M174.13,389.39c.43,1.89,2.3,2.89,5.99,2.89,2.93,0,5.58-.59,6.21-.78l.46,2.04c-.76.28-3.43.91-6.58.91-5.75,0-8.6-2.11-8.6-5.95,0-3.34,2.47-6.1,7.62-6.1s8.85,2.32,7.38,6.99h-12.48ZM184.33,387.63c.35-2.08-1.8-3.1-4.99-3.1-3.49,0-4.82,1.3-5.25,3.1h10.25Z"/>
        <path class="cls-3" d="M189.43,382.81l2.26-.26.07,2.04.02.02c1.84-1.65,3.88-2.32,6.55-2.19l-.11,2.28c-2.24-.22-4.84.2-6.45,1.82v7.6h-2.34v-11.31Z"/>
        <path class="cls-3" d="M202.09,389.39c.43,1.89,2.3,2.89,5.99,2.89,2.93,0,5.58-.59,6.21-.78l.45,2.04c-.76.28-3.43.91-6.58.91-5.75,0-8.59-2.11-8.59-5.95,0-3.34,2.47-6.1,7.62-6.1s8.86,2.32,7.38,6.99h-12.48ZM212.29,387.63c.35-2.08-1.8-3.1-4.99-3.1-3.49,0-4.82,1.3-5.25,3.1h10.25Z"/>
        <path class="cls-3" d="M230.52,382.18v-3.32l2.34-.26v15.52h-2.08l-.15-2.02-.02-.02c-1.11,1.06-3.47,2.37-6.66,2.37-4.47,0-6.99-2.54-6.99-6.08s2.34-5.97,7.38-5.97c2.21,0,4.47.52,6.19,1.28l.02-.02-.02-1.48ZM219.34,388.39c0,2.24,1.59,3.89,4.88,3.89,2.89,0,5.58-1.26,6.3-2.37v-4.32c-1.72-.54-4-1.02-5.97-1.02-3.73,0-5.21,1.63-5.21,3.82Z"/>
        <path class="cls-3" d="M238.32,390.97v3.15h-2.11v-3.15h2.11Z"/>
        <path class="cls-3" d="M266.63,394.12v-6.73h-13.11v6.73h-2.34v-15.19h2.34v6.27h13.11v-6.27h2.34v15.19h-2.34Z"/>
        <path class="cls-3" d="M271.68,382.72h2.34v5.75c0,2.21,1.17,3.8,4.82,3.8,2.78,0,4.86-1.17,5.75-2.28v-7.27h2.34v11.39h-2.08l-.15-1.93-.02-.02c-1.22,1.04-3.32,2.28-6.4,2.28-4.73,0-6.6-2.54-6.6-5.95v-5.77Z"/>
        <path class="cls-3" d="M289.43,394.12v-11.31l2.26-.26.06,1.11.02.02c1.5-.72,2.91-1.28,4.64-1.28,2.34,0,3.89.63,4.86,1.65,1.69-.91,4.17-1.65,5.93-1.65,4.82,0,6.32,2.54,6.32,5.95v5.77h-2.34v-5.75c0-2.17-.67-3.8-4.21-3.8-1.93,0-3.52.59-4.8,1.11.32.78.48,1.69.48,2.67v5.77h-2.34v-5.75c0-2.17-.57-3.8-4.08-3.8-1.95,0-3.32.59-4.45,1.02v8.53h-2.34Z"/>
        <path class="cls-3" d="M332.47,394.12c-.89.22-1.63.33-2.21.33-2.17,0-2.37-1.13-2.41-2.34-1.11,1.37-3.71,2.34-6.19,2.34-3.32,0-5.64-1.41-5.64-4.04,0-2.84,2.97-3.58,5.75-3.58,1.93,0,4.6.28,5.97.63-.19-1.67-1.35-2.87-5.06-2.87-2.52,0-4.56.48-5.1.67l-.74-2.04c.65-.24,3.06-.82,5.84-.82,5.47,0,7.4,2.3,7.4,5.36v3.21c0,.85.19,1.3,1.15,1.3.32,0,.76-.06,1.24-.2v2.04ZM322.07,392.45c2.47,0,5.23-1.15,5.67-2.61v-1.43h-6.08c-1.56,0-3.26.39-3.26,1.84s1.58,2.19,3.67,2.19Z"/>
        <path class="cls-3" d="M347.22,394.12v-5.75c0-2.17-1.17-3.8-4.88-3.8-2.02,0-3.99.52-5.69,1.02v8.53h-2.34v-11.31l2.26-.26.07,1.11.02.02c1.65-.69,3.6-1.28,5.93-1.28,4.97,0,6.99,2.54,6.99,5.95v5.77h-2.34Z"/>
        <path class="cls-3" d="M353.15,385.98h10.31v1.85h-10.31v-1.85Z"/>
        <path class="cls-3" d="M385.74,393.23c-.98.32-3.69,1.22-7.73,1.22-7.9,0-11.2-3.41-11.2-7.92s3.3-7.92,11.2-7.92c4.04,0,6.75.89,7.73,1.22l-.54,2.11c-1.82-.54-4.21-1.13-7.18-1.13-6.34,0-8.81,2.41-8.81,5.73s2.47,5.73,8.81,5.73c2.97,0,5.36-.59,7.18-1.13l.54,2.11Z"/>
        <path class="cls-3" d="M389.89,389.39c.43,1.89,2.3,2.89,5.99,2.89,2.93,0,5.58-.59,6.21-.78l.45,2.04c-.76.28-3.43.91-6.58.91-5.75,0-8.59-2.11-8.59-5.95,0-3.34,2.47-6.1,7.62-6.1s8.86,2.32,7.38,6.99h-12.48ZM400.09,387.63c.35-2.08-1.8-3.1-4.99-3.1-3.49,0-4.82,1.3-5.25,3.1h10.25Z"/>
        <path class="cls-3" d="M418.1,394.12v-5.75c0-2.17-1.17-3.8-4.88-3.8-2.02,0-3.99.52-5.69,1.02v8.53h-2.34v-11.31l2.26-.26.07,1.11.02.02c1.65-.69,3.6-1.28,5.93-1.28,4.97,0,6.99,2.54,6.99,5.95v5.77h-2.34Z"/>
        <path class="cls-3" d="M425.93,382.72h3.49v1.95h-3.49v5.75c0,1.45.48,2.04,1.69,2.04.48,0,1.09-.06,1.8-.17v1.82c-.91.19-1.74.33-2.45.33-2.13,0-3.39-1-3.39-4.02v-5.75h-1.52v-1.95h1.52v-2.89l2.34-.26v3.15Z"/>
        <path class="cls-3" d="M433.46,389.39c.43,1.89,2.3,2.89,5.99,2.89,2.93,0,5.58-.59,6.21-.78l.46,2.04c-.76.28-3.43.91-6.58.91-5.75,0-8.6-2.11-8.6-5.95,0-3.34,2.47-6.1,7.62-6.1s8.85,2.32,7.38,6.99h-12.48ZM443.66,387.63c.35-2.08-1.8-3.1-4.99-3.1-3.49,0-4.82,1.3-5.25,3.1h10.25Z"/>
        <path class="cls-3" d="M448.76,382.81l2.26-.26.06,2.04.02.02c1.85-1.65,3.89-2.32,6.56-2.19l-.11,2.28c-2.24-.22-4.84.2-6.45,1.82v7.6h-2.34v-11.31Z"/>
        <path class="cls-3" d="M461.41,389.39c.43,1.89,2.3,2.89,5.99,2.89,2.93,0,5.58-.59,6.21-.78l.46,2.04c-.76.28-3.43.91-6.58.91-5.75,0-8.6-2.11-8.6-5.95,0-3.34,2.47-6.1,7.62-6.1s8.85,2.32,7.38,6.99h-12.48ZM471.61,387.63c.35-2.08-1.8-3.1-4.99-3.1-3.49,0-4.82,1.3-5.25,3.1h10.25Z"/>
        <path class="cls-3" d="M489.84,382.18v-3.32l2.34-.26v15.52h-2.08l-.15-2.02-.02-.02c-1.11,1.06-3.47,2.37-6.66,2.37-4.47,0-6.99-2.54-6.99-6.08s2.34-5.97,7.38-5.97c2.21,0,4.47.52,6.19,1.28l.02-.02-.02-1.48ZM478.66,388.39c0,2.24,1.59,3.89,4.88,3.89,2.89,0,5.58-1.26,6.3-2.37v-4.32c-1.72-.54-4-1.02-5.97-1.02-3.73,0-5.21,1.63-5.21,3.82Z"/>
        <path class="cls-3" d="M497.65,390.97v3.15h-2.11v-3.15h2.11Z"/>
      </g>
    </g>
  </g>
</svg>